  0
SECTION
  2
HEADER
  9
$ACADVER
  1
AC1009
  9
$INSBASE
 10
0.0
 20
0.0
 30
0.0
  9
$EXTMIN
 10
0.0
 20
0.0
 30
0.0
  9
$EXTMAX
 10
0.0
 20
0.0
 30
0.0
  0
ENDSEC
  0
SECTION
  2
TABLES
  0
TABLE
  2
VPORT
 70
0
  0
ENDTAB
  0
TABLE
  2
LTYPE
 70
1
  0
LTYPE
  2
CONTINUOUS
 70
0
  3
Solid line
 72
65
 73
0
 40
0.0
  0
ENDTAB
  0
TABLE
  2
LAYER
 70
1
  0
LAYER
  2
0
 70
64
 62
7
  6
continuous
  0
ENDTAB
  0
TABLE
  2
STYLE
 70
1
  0
STYLE
  2
STANDARD
 70
0
 40
0
 41
1.0
 50
0.0
 71
0
 42
1
 3
ARIAL.TTF
 4

  0
ENDTAB
  0
TABLE
  2
VIEW
 70
0
  0
ENDTAB
  0
ENDSEC
  0
SECTION
  2
BLOCKS
  0
BLOCK
  8
0
  2
PAD001
 70
0
 10
0.0
 20
0.0
 30
0.0
  3
PAD001
  0
LINE
  8
0
 62
0
 10
62.0
 20
141.65
 30
0.0
 11
51.0
 21
141.65
 31
0.0
  0
LINE
  8
0
 62
0
 10
51.0
 20
141.65
 30
0.0
 11
51.0
 21
144.65
 31
0.0
  0
LINE
  8
0
 62
0
 10
51.0
 20
144.65
 30
0.0
 11
41.0
 21
144.65
 31
0.0
  0
LINE
  8
0
 62
0
 10
41.0
 20
144.65
 30
0.0
 11
41.0
 21
141.65
 31
0.0
  0
LINE
  8
0
 62
0
 10
41.0
 20
141.65
 30
0.0
 11
21.0
 21
141.65
 31
0.0
  0
LINE
  8
0
 62
0
 10
21.0
 20
141.65
 30
0.0
 11
21.0
 21
144.65
 31
0.0
  0
LINE
  8
0
 62
0
 10
21.0
 20
144.65
 30
0.0
 11
11.0
 21
144.65
 31
0.0
  0
LINE
  8
0
 62
0
 10
11.0
 20
144.65
 30
0.0
 11
11.0
 21
141.65
 31
0.0
  0
LINE
  8
0
 62
0
 10
11.0
 20
141.65
 30
0.0
 11
0.0
 21
141.65
 31
0.0
  0
LINE
  8
0
 62
0
 10
0.0
 20
141.65
 30
0.0
 11
0.0
 21
111.0
 31
0.0
  0
LINE
  8
0
 62
0
 10
0.0
 20
111.0
 30
0.0
 11
11.0
 21
111.0
 31
0.0
  0
LINE
  8
0
 62
0
 10
11.0
 20
111.0
 30
0.0
 11
11.0
 21
108.0
 31
0.0
  0
LINE
  8
0
 62
0
 10
11.0
 20
108.0
 30
0.0
 11
21.0
 21
108.0
 31
0.0
  0
LINE
  8
0
 62
0
 10
21.0
 20
108.0
 30
0.0
 11
21.0
 21
111.0
 31
0.0
  0
LINE
  8
0
 62
0
 10
21.0
 20
111.0
 30
0.0
 11
41.0
 21
111.0
 31
0.0
  0
LINE
  8
0
 62
0
 10
41.0
 20
111.0
 30
0.0
 11
41.0
 21
108.0
 31
0.0
  0
LINE
  8
0
 62
0
 10
41.0
 20
108.0
 30
0.0
 11
51.0
 21
108.0
 31
0.0
  0
LINE
  8
0
 62
0
 10
51.0
 20
108.0
 30
0.0
 11
51.0
 21
111.0
 31
0.0
  0
LINE
  8
0
 62
0
 10
51.0
 20
111.0
 30
0.0
 11
62.0
 21
111.0
 31
0.0
  0
LINE
  8
0
 62
0
 10
62.0
 20
141.65
 30
0.0
 11
62.0
 21
111.0
 31
0.0
  0
CIRCLE
  8
0
 62
0
 10
39.5
 20
131.825
 30
0.0
 40
4.0
  0
CIRCLE
  8
0
 62
0
 10
22.5
 20
131.825
 30
0.0
 40
4.0
  0
CIRCLE
  8
0
 62
0
 10
39.5
 20
120.825
 30
0.0
 40
4.0
  0
CIRCLE
  8
0
 62
0
 10
22.5
 20
120.825
 30
0.0
 40
4.0
  0
LINE
  8
0
 62
0
 10
56.0
 20
123.9
 30
0.0
 11
59.0
 21
123.9
 31
0.0
  0
LINE
  8
0
 62
0
 10
59.0
 20
123.9
 30
0.0
 11
59.0
 21
114.1
 31
0.0
  0
LINE
  8
0
 62
0
 10
59.0
 20
114.1
 30
0.0
 11
56.0
 21
114.1
 31
0.0
  0
LINE
  8
0
 62
0
 10
56.0
 20
114.1
 30
0.0
 11
56.0
 21
123.9
 31
0.0
  0
LINE
  8
0
 62
0
 10
56.0
 20
138.55
 30
0.0
 11
59.0
 21
138.55
 31
0.0
  0
LINE
  8
0
 62
0
 10
59.0
 20
138.55
 30
0.0
 11
59.0
 21
128.75
 31
0.0
  0
LINE
  8
0
 62
0
 10
59.0
 20
128.75
 30
0.0
 11
56.0
 21
128.75
 31
0.0
  0
LINE
  8
0
 62
0
 10
56.0
 20
128.75
 30
0.0
 11
56.0
 21
138.55
 31
0.0
  0
LINE
  8
0
 62
0
 10
3.0
 20
123.9
 30
0.0
 11
6.0
 21
123.9
 31
0.0
  0
LINE
  8
0
 62
0
 10
6.0
 20
123.9
 30
0.0
 11
6.0
 21
114.1
 31
0.0
  0
LINE
  8
0
 62
0
 10
6.0
 20
114.1
 30
0.0
 11
3.0
 21
114.1
 31
0.0
  0
LINE
  8
0
 62
0
 10
3.0
 20
114.1
 30
0.0
 11
3.0
 21
123.9
 31
0.0
  0
LINE
  8
0
 62
0
 10
3.0
 20
138.55
 30
0.0
 11
6.0
 21
138.55
 31
0.0
  0
LINE
  8
0
 62
0
 10
6.0
 20
138.55
 30
0.0
 11
6.0
 21
128.75
 31
0.0
  0
LINE
  8
0
 62
0
 10
6.0
 20
128.75
 30
0.0
 11
3.0
 21
128.75
 31
0.0
  0
LINE
  8
0
 62
0
 10
3.0
 20
128.75
 30
0.0
 11
3.0
 21
138.55
 31
0.0
  0
ENDBLK
  0
ENDSEC
  0
SECTION
  2
ENTITIES
  0
INSERT
  2
PAD001
  8
0
 62
0
 10
0.0
 20
0.0
 30
0.0
  0
ENDSEC
  0
EOF
