  0
SECTION
  2
HEADER
  9
$ACADVER
  1
AC1009
  9
$INSBASE
 10
0.0
 20
0.0
 30
0.0
  9
$EXTMIN
 10
0.0
 20
0.0
 30
0.0
  9
$EXTMAX
 10
0.0
 20
0.0
 30
0.0
  0
ENDSEC
  0
SECTION
  2
TABLES
  0
TABLE
  2
VPORT
 70
0
  0
ENDTAB
  0
TABLE
  2
LTYPE
 70
1
  0
LTYPE
  2
CONTINUOUS
 70
0
  3
Solid line
 72
65
 73
0
 40
0.0
  0
ENDTAB
  0
TABLE
  2
LAYER
 70
1
  0
LAYER
  2
0
 70
64
 62
7
  6
continuous
  0
ENDTAB
  0
TABLE
  2
STYLE
 70
1
  0
STYLE
  2
STANDARD
 70
0
 40
0
 41
1.0
 50
0.0
 71
0
 42
1
 3
ARIAL.TTF
 4

  0
ENDTAB
  0
TABLE
  2
VIEW
 70
0
  0
ENDTAB
  0
ENDSEC
  0
SECTION
  2
BLOCKS
  0
BLOCK
  8
0
  2
FILLET001
 70
0
 10
0.0
 20
0.0
 30
0.0
  3
FILLET001
  0
LINE
  8
0
 62
0
 10
38.5
 20
30.65
 30
0.0
 11
38.5
 21
10.7
 31
0.0
  0
ARC
  8
0
 62
0
 10
37.5
 20
10.7
 30
0.0
 40
1.0
 50
-90.0
 51
-0.0
  0
LINE
  8
0
 62
0
 10
45.0
 20
30.65
 30
0.0
 11
38.5
 21
30.65
 31
0.0
  0
LINE
  8
0
 62
0
 10
37.5
 20
9.7
 30
0.0
 11
24.5
 21
9.7
 31
0.0
  0
LINE
  8
0
 62
0
 10
45.0
 20
33.65
 30
0.0
 11
45.0
 21
30.65
 31
0.0
  0
ARC
  8
0
 62
0
 10
24.5
 20
10.7
 30
0.0
 40
1.0
 50
-180.0
 51
-90.0
  0
LINE
  8
0
 62
0
 10
55.0
 20
33.65
 30
0.0
 11
45.0
 21
33.65
 31
0.0
  0
LINE
  8
0
 62
0
 10
23.5
 20
10.7
 30
0.0
 11
23.5
 21
30.65
 31
0.0
  0
LINE
  8
0
 62
0
 10
55.0
 20
30.65
 30
0.0
 11
55.0
 21
33.65
 31
0.0
  0
LINE
  8
0
 62
0
 10
23.5
 20
30.65
 30
0.0
 11
17.0
 21
30.65
 31
0.0
  0
LINE
  8
0
 62
0
 10
62.0
 20
30.65
 30
0.0
 11
55.0
 21
30.65
 31
0.0
  0
LINE
  8
0
 62
0
 10
17.0
 20
30.65
 30
0.0
 11
17.0
 21
33.65
 31
0.0
  0
LINE
  8
0
 62
0
 10
62.0
 20
30.65
 30
0.0
 11
62.0
 21
0.0
 31
0.0
  0
LINE
  8
0
 62
0
 10
17.0
 20
33.65
 30
0.0
 11
7.0
 21
33.65
 31
0.0
  0
LINE
  8
0
 62
0
 10
51.0
 20
0.0
 30
0.0
 11
62.0
 21
0.0
 31
0.0
  0
LINE
  8
0
 62
0
 10
7.0
 20
33.65
 30
0.0
 11
7.0
 21
30.65
 31
0.0
  0
LINE
  8
0
 62
0
 10
51.0
 20
-3.0
 30
0.0
 11
51.0
 21
0.0
 31
0.0
  0
LINE
  8
0
 62
0
 10
7.0
 20
30.65
 30
0.0
 11
0.0
 21
30.65
 31
0.0
  0
LINE
  8
0
 62
0
 10
41.0
 20
-3.0
 30
0.0
 11
51.0
 21
-3.0
 31
0.0
  0
LINE
  8
0
 62
0
 10
0.0
 20
30.65
 30
0.0
 11
0.0
 21
0.0
 31
0.0
  0
LINE
  8
0
 62
0
 10
41.0
 20
0.0
 30
0.0
 11
41.0
 21
-3.0
 31
0.0
  0
LINE
  8
0
 62
0
 10
0.0
 20
0.0
 30
0.0
 11
11.0
 21
0.0
 31
0.0
  0
LINE
  8
0
 62
0
 10
21.0
 20
0.0
 30
0.0
 11
41.0
 21
0.0
 31
0.0
  0
LINE
  8
0
 62
0
 10
11.0
 20
0.0
 30
0.0
 11
11.0
 21
-3.0
 31
0.0
  0
LINE
  8
0
 62
0
 10
21.0
 20
-3.0
 30
0.0
 11
21.0
 21
0.0
 31
0.0
  0
LINE
  8
0
 62
0
 10
11.0
 20
-3.0
 30
0.0
 11
21.0
 21
-3.0
 31
0.0
  0
LINE
  8
0
 62
0
 10
56.0
 20
12.9
 30
0.0
 11
59.0
 21
12.9
 31
0.0
  0
LINE
  8
0
 62
0
 10
59.0
 20
12.9
 30
0.0
 11
59.0
 21
3.1
 31
0.0
  0
LINE
  8
0
 62
0
 10
59.0
 20
3.1
 30
0.0
 11
56.0
 21
3.1
 31
0.0
  0
LINE
  8
0
 62
0
 10
56.0
 20
3.1
 30
0.0
 11
56.0
 21
12.9
 31
0.0
  0
LINE
  8
0
 62
0
 10
56.0
 20
27.55
 30
0.0
 11
59.0
 21
27.55
 31
0.0
  0
LINE
  8
0
 62
0
 10
59.0
 20
27.55
 30
0.0
 11
59.0
 21
17.75
 31
0.0
  0
LINE
  8
0
 62
0
 10
59.0
 20
17.75
 30
0.0
 11
56.0
 21
17.75
 31
0.0
  0
LINE
  8
0
 62
0
 10
56.0
 20
17.75
 30
0.0
 11
56.0
 21
27.55
 31
0.0
  0
LINE
  8
0
 62
0
 10
3.0
 20
12.9
 30
0.0
 11
6.0
 21
12.9
 31
0.0
  0
LINE
  8
0
 62
0
 10
6.0
 20
12.9
 30
0.0
 11
6.0
 21
3.1
 31
0.0
  0
LINE
  8
0
 62
0
 10
6.0
 20
3.1
 30
0.0
 11
3.0
 21
3.1
 31
0.0
  0
LINE
  8
0
 62
0
 10
3.0
 20
3.1
 30
0.0
 11
3.0
 21
12.9
 31
0.0
  0
LINE
  8
0
 62
0
 10
3.0
 20
27.55
 30
0.0
 11
6.0
 21
27.55
 31
0.0
  0
LINE
  8
0
 62
0
 10
6.0
 20
27.55
 30
0.0
 11
6.0
 21
17.75
 31
0.0
  0
LINE
  8
0
 62
0
 10
6.0
 20
17.75
 30
0.0
 11
3.0
 21
17.75
 31
0.0
  0
LINE
  8
0
 62
0
 10
3.0
 20
17.75
 30
0.0
 11
3.0
 21
27.55
 31
0.0
  0
ENDBLK
  0
ENDSEC
  0
SECTION
  2
ENTITIES
  0
INSERT
  2
FILLET001
  8
0
 62
0
 10
0.0
 20
0.0
 30
0.0
  0
ENDSEC
  0
EOF
