  0
SECTION
  2
HEADER
  9
$ACADVER
  1
AC1009
  9
$INSBASE
 10
0.0
 20
0.0
 30
0.0
  9
$EXTMIN
 10
0.0
 20
0.0
 30
0.0
  9
$EXTMAX
 10
0.0
 20
0.0
 30
0.0
  0
ENDSEC
  0
SECTION
  2
TABLES
  0
TABLE
  2
VPORT
 70
0
  0
ENDTAB
  0
TABLE
  2
LTYPE
 70
1
  0
LTYPE
  2
CONTINUOUS
 70
0
  3
Solid line
 72
65
 73
0
 40
0.0
  0
ENDTAB
  0
TABLE
  2
LAYER
 70
1
  0
LAYER
  2
0
 70
64
 62
7
  6
continuous
  0
ENDTAB
  0
TABLE
  2
STYLE
 70
1
  0
STYLE
  2
STANDARD
 70
0
 40
0
 41
1.0
 50
0.0
 71
0
 42
1
 3
ARIAL.TTF
 4

  0
ENDTAB
  0
TABLE
  2
VIEW
 70
0
  0
ENDTAB
  0
ENDSEC
  0
SECTION
  2
BLOCKS
  0
BLOCK
  8
0
  2
PAD004001
 70
0
 10
0.0
 20
0.0
 30
0.0
  3
PAD004001
  0
LINE
  8
0
 62
0
 10
6.0
 20
108.0
 30
0.0
 11
6.0
 21
105.5
 31
0.0
  0
LINE
  8
0
 62
0
 10
6.0
 20
108.0
 30
0.0
 11
56.0
 21
108.0
 31
0.0
  0
LINE
  8
0
 62
0
 10
56.0
 20
108.0
 30
0.0
 11
56.0
 21
105.5
 31
0.0
  0
LINE
  8
0
 62
0
 10
56.0
 20
105.5
 30
0.0
 11
59.0
 21
105.5
 31
0.0
  0
LINE
  8
0
 62
0
 10
59.0
 20
105.5
 30
0.0
 11
59.0
 21
95.5
 31
0.0
  0
LINE
  8
0
 62
0
 10
59.0
 20
95.5
 30
0.0
 11
56.0
 21
95.5
 31
0.0
  0
LINE
  8
0
 62
0
 10
56.0
 20
95.5
 30
0.0
 11
56.0
 21
93.0
 31
0.0
  0
LINE
  8
0
 62
0
 10
6.0
 20
93.0
 30
0.0
 11
56.0
 21
93.0
 31
0.0
  0
LINE
  8
0
 62
0
 10
6.0
 20
95.5
 30
0.0
 11
6.0
 21
93.0
 31
0.0
  0
LINE
  8
0
 62
0
 10
3.0
 20
95.5
 30
0.0
 11
6.0
 21
95.5
 31
0.0
  0
LINE
  8
0
 62
0
 10
3.0
 20
105.5
 30
0.0
 11
3.0
 21
95.5
 31
0.0
  0
LINE
  8
0
 62
0
 10
6.0
 20
105.5
 30
0.0
 11
3.0
 21
105.5
 31
0.0
  0
ARC
  8
0
 62
0
 10
44.5
 20
103.0
 30
0.0
 40
1.0
 50
-0.0
 51
-180.0
  0
LINE
  8
0
 62
0
 10
43.5
 20
103.0
 30
0.0
 11
43.5
 21
98.0
 31
0.0
  0
ARC
  8
0
 62
0
 10
44.5
 20
98.0
 30
0.0
 40
1.0
 50
180.0
 51
0.0
  0
LINE
  8
0
 62
0
 10
45.5
 20
103.0
 30
0.0
 11
45.5
 21
98.0
 31
0.0
  0
ARC
  8
0
 62
0
 10
34.5
 20
103.0
 30
0.0
 40
1.0
 50
-0.0
 51
-180.0
  0
LINE
  8
0
 62
0
 10
33.5
 20
103.0
 30
0.0
 11
33.5
 21
98.0
 31
0.0
  0
ARC
  8
0
 62
0
 10
34.5
 20
98.0
 30
0.0
 40
1.0
 50
180.0
 51
0.0
  0
LINE
  8
0
 62
0
 10
35.5
 20
103.0
 30
0.0
 11
35.5
 21
98.0
 31
0.0
  0
ARC
  8
0
 62
0
 10
27.5
 20
103.0
 30
0.0
 40
1.0
 50
0.0
 51
180.0
  0
LINE
  8
0
 62
0
 10
26.5
 20
103.0
 30
0.0
 11
26.5
 21
98.0
 31
0.0
  0
ARC
  8
0
 62
0
 10
27.5
 20
98.0
 30
0.0
 40
1.0
 50
180.0
 51
0.0
  0
LINE
  8
0
 62
0
 10
28.5
 20
103.0
 30
0.0
 11
28.5
 21
98.0
 31
0.0
  0
ARC
  8
0
 62
0
 10
17.5
 20
103.0
 30
0.0
 40
1.0
 50
-0.0
 51
-180.0
  0
LINE
  8
0
 62
0
 10
16.5
 20
103.0
 30
0.0
 11
16.5
 21
98.0
 31
0.0
  0
ARC
  8
0
 62
0
 10
17.5
 20
98.0
 30
0.0
 40
1.0
 50
-180.0
 51
-0.0
  0
LINE
  8
0
 62
0
 10
18.5
 20
103.0
 30
0.0
 11
18.5
 21
98.0
 31
0.0
  0
ENDBLK
  0
ENDSEC
  0
SECTION
  2
ENTITIES
  0
INSERT
  2
PAD004001
  8
0
 62
0
 10
0.0
 20
0.0
 30
0.0
  0
ENDSEC
  0
EOF
