  0
SECTION
  2
HEADER
  9
$ACADVER
  1
AC1009
  9
$INSBASE
 10
0.0
 20
0.0
 30
0.0
  9
$EXTMIN
 10
0.0
 20
0.0
 30
0.0
  9
$EXTMAX
 10
0.0
 20
0.0
 30
0.0
  0
ENDSEC
  0
SECTION
  2
TABLES
  0
TABLE
  2
VPORT
 70
0
  0
ENDTAB
  0
TABLE
  2
LTYPE
 70
1
  0
LTYPE
  2
CONTINUOUS
 70
0
  3
Solid line
 72
65
 73
0
 40
0.0
  0
ENDTAB
  0
TABLE
  2
LAYER
 70
1
  0
LAYER
  2
0
 70
64
 62
7
  6
continuous
  0
ENDTAB
  0
TABLE
  2
STYLE
 70
1
  0
STYLE
  2
STANDARD
 70
0
 40
0
 41
1.0
 50
0.0
 71
0
 42
1
 3
ARIAL.TTF
 4

  0
ENDTAB
  0
TABLE
  2
VIEW
 70
0
  0
ENDTAB
  0
ENDSEC
  0
SECTION
  2
BLOCKS
  0
BLOCK
  8
0
  2
FILLET002
 70
0
 10
0.0
 20
0.0
 30
0.0
  3
FILLET002
  0
LINE
  8
0
 62
0
 10
3.0
 20
119.0
 30
0.0
 11
5.0
 21
119.0
 31
0.0
  0
ARC
  8
0
 62
0
 10
3.0
 20
116.0
 30
0.0
 40
3.0
 50
90.0
 51
-180.0
  0
ARC
  8
0
 62
0
 10
11.0
 20
119.0
 30
0.0
 40
6.0
 50
-0.0
 51
-180.0
  0
LINE
  8
0
 62
0
 10
0.0
 20
116.0
 30
0.0
 11
0.0
 21
-3.0
 31
0.0
  0
LINE
  8
0
 62
0
 10
17.0
 20
119.0
 30
0.0
 11
45.0
 21
119.0
 31
0.0
  0
ARC
  8
0
 62
0
 10
3.0
 20
-3.0
 30
0.0
 40
3.0
 50
180.0
 51
-90.0
  0
ARC
  8
0
 62
0
 10
51.0
 20
119.0
 30
0.0
 40
6.0
 50
0.0
 51
180.0
  0
LINE
  8
0
 62
0
 10
3.0
 20
-6.0
 30
0.0
 11
20.5
 21
-6.0
 31
0.0
  0
LINE
  8
0
 62
0
 10
59.0
 20
119.0
 30
0.0
 11
57.0
 21
119.0
 31
0.0
  0
ARC
  8
0
 62
0
 10
20.5
 20
-3.0
 30
0.0
 40
3.0
 50
-90.0
 51
-0.0
  0
ARC
  8
0
 62
0
 10
59.0
 20
116.0
 30
0.0
 40
3.0
 50
-0.0
 51
90.0
  0
LINE
  8
0
 62
0
 10
23.5
 20
-3.0
 30
0.0
 11
23.5
 21
1.0
 31
0.0
  0
LINE
  8
0
 62
0
 10
62.0
 20
116.0
 30
0.0
 11
62.0
 21
-3.0
 31
0.0
  0
LINE
  8
0
 62
0
 10
23.5
 20
1.0
 30
0.0
 11
38.5
 21
1.0
 31
0.0
  0
ARC
  8
0
 62
0
 10
59.0
 20
-3.0
 30
0.0
 40
3.0
 50
-90.0
 51
0.0
  0
LINE
  8
0
 62
0
 10
38.5
 20
1.0
 30
0.0
 11
38.5
 21
-3.0
 31
0.0
  0
LINE
  8
0
 62
0
 10
41.5
 20
-6.0
 30
0.0
 11
59.0
 21
-6.0
 31
0.0
  0
ARC
  8
0
 62
0
 10
41.5
 20
-3.0
 30
0.0
 40
3.0
 50
180.0
 51
-90.0
  0
LINE
  8
0
 62
0
 10
3.0
 20
107.9
 30
0.0
 11
6.0
 21
107.9
 31
0.0
  0
LINE
  8
0
 62
0
 10
6.0
 20
107.9
 30
0.0
 11
6.0
 21
98.1
 31
0.0
  0
LINE
  8
0
 62
0
 10
6.0
 20
98.1
 30
0.0
 11
3.0
 21
98.1
 31
0.0
  0
LINE
  8
0
 62
0
 10
3.0
 20
98.1
 30
0.0
 11
3.0
 21
107.9
 31
0.0
  0
LINE
  8
0
 62
0
 10
56.0
 20
107.9
 30
0.0
 11
59.0
 21
107.9
 31
0.0
  0
LINE
  8
0
 62
0
 10
59.0
 20
107.9
 30
0.0
 11
59.0
 21
98.1
 31
0.0
  0
LINE
  8
0
 62
0
 10
59.0
 20
98.1
 30
0.0
 11
56.0
 21
98.1
 31
0.0
  0
LINE
  8
0
 62
0
 10
56.0
 20
98.1
 30
0.0
 11
56.0
 21
107.9
 31
0.0
  0
LINE
  8
0
 62
0
 10
56.0
 20
87.9
 30
0.0
 11
59.0
 21
87.9
 31
0.0
  0
LINE
  8
0
 62
0
 10
59.0
 20
87.9
 30
0.0
 11
59.0
 21
78.1
 31
0.0
  0
LINE
  8
0
 62
0
 10
59.0
 20
78.1
 30
0.0
 11
56.0
 21
78.1
 31
0.0
  0
LINE
  8
0
 62
0
 10
56.0
 20
78.1
 30
0.0
 11
56.0
 21
87.9
 31
0.0
  0
LINE
  8
0
 62
0
 10
3.0
 20
87.9
 30
0.0
 11
6.0
 21
87.9
 31
0.0
  0
LINE
  8
0
 62
0
 10
6.0
 20
87.9
 30
0.0
 11
6.0
 21
78.1
 31
0.0
  0
LINE
  8
0
 62
0
 10
3.0
 20
78.1
 30
0.0
 11
6.0
 21
78.1
 31
0.0
  0
LINE
  8
0
 62
0
 10
3.0
 20
78.1
 30
0.0
 11
3.0
 21
87.9
 31
0.0
  0
LINE
  8
0
 62
0
 10
3.0
 20
14.9
 30
0.0
 11
6.0
 21
14.9
 31
0.0
  0
LINE
  8
0
 62
0
 10
6.0
 20
14.9
 30
0.0
 11
6.0
 21
5.1
 31
0.0
  0
LINE
  8
0
 62
0
 10
6.0
 20
5.1
 30
0.0
 11
3.0
 21
5.1
 31
0.0
  0
LINE
  8
0
 62
0
 10
3.0
 20
5.1
 30
0.0
 11
3.0
 21
14.9
 31
0.0
  0
LINE
  8
0
 62
0
 10
56.0
 20
14.9
 30
0.0
 11
59.0
 21
14.9
 31
0.0
  0
LINE
  8
0
 62
0
 10
59.0
 20
14.9
 30
0.0
 11
59.0
 21
5.1
 31
0.0
  0
LINE
  8
0
 62
0
 10
59.0
 20
5.1
 30
0.0
 11
56.0
 21
5.1
 31
0.0
  0
LINE
  8
0
 62
0
 10
56.0
 20
5.1
 30
0.0
 11
56.0
 21
14.9
 31
0.0
  0
LINE
  8
0
 62
0
 10
11.1
 20
116.0
 30
0.0
 11
20.9
 21
116.0
 31
0.0
  0
LINE
  8
0
 62
0
 10
20.9
 20
116.0
 30
0.0
 11
20.9
 21
113.0
 31
0.0
  0
LINE
  8
0
 62
0
 10
20.9
 20
113.0
 30
0.0
 11
11.1
 21
113.0
 31
0.0
  0
LINE
  8
0
 62
0
 10
11.1
 20
113.0
 30
0.0
 11
11.1
 21
116.0
 31
0.0
  0
LINE
  8
0
 62
0
 10
7.1
 20
0.0
 30
0.0
 11
16.9
 21
0.0
 31
0.0
  0
LINE
  8
0
 62
0
 10
16.9
 20
0.0
 30
0.0
 11
16.9
 21
-3.0
 31
0.0
  0
LINE
  8
0
 62
0
 10
16.9
 20
-3.0
 30
0.0
 11
7.1
 21
-3.0
 31
0.0
  0
LINE
  8
0
 62
0
 10
7.1
 20
-3.0
 30
0.0
 11
7.1
 21
0.0
 31
0.0
  0
LINE
  8
0
 62
0
 10
41.1
 20
116.0
 30
0.0
 11
50.9
 21
116.0
 31
0.0
  0
LINE
  8
0
 62
0
 10
50.9
 20
116.0
 30
0.0
 11
50.9
 21
113.0
 31
0.0
  0
LINE
  8
0
 62
0
 10
50.9
 20
113.0
 30
0.0
 11
41.1
 21
113.0
 31
0.0
  0
LINE
  8
0
 62
0
 10
41.1
 20
113.0
 30
0.0
 11
41.1
 21
116.0
 31
0.0
  0
LINE
  8
0
 62
0
 10
3.0
 20
34.9
 30
0.0
 11
6.0
 21
34.9
 31
0.0
  0
LINE
  8
0
 62
0
 10
6.0
 20
34.9
 30
0.0
 11
6.0
 21
25.1
 31
0.0
  0
LINE
  8
0
 62
0
 10
6.0
 20
25.1
 30
0.0
 11
3.0
 21
25.1
 31
0.0
  0
LINE
  8
0
 62
0
 10
3.0
 20
25.1
 30
0.0
 11
3.0
 21
34.9
 31
0.0
  0
LINE
  8
0
 62
0
 10
56.0
 20
34.9
 30
0.0
 11
59.0
 21
34.9
 31
0.0
  0
LINE
  8
0
 62
0
 10
59.0
 20
34.9
 30
0.0
 11
59.0
 21
25.1
 31
0.0
  0
LINE
  8
0
 62
0
 10
59.0
 20
25.1
 30
0.0
 11
56.0
 21
25.1
 31
0.0
  0
LINE
  8
0
 62
0
 10
56.0
 20
25.1
 30
0.0
 11
56.0
 21
34.9
 31
0.0
  0
LINE
  8
0
 62
0
 10
45.1
 20
-1.05276030948e-16
 30
0.0
 11
54.9
 21
-1.05276030948e-16
 31
0.0
  0
LINE
  8
0
 62
0
 10
54.9
 20
-1.05276030948e-16
 30
0.0
 11
54.9
 21
-3.0
 31
0.0
  0
LINE
  8
0
 62
0
 10
54.9
 20
-3.0
 30
0.0
 11
45.1
 21
-3.0
 31
0.0
  0
LINE
  8
0
 62
0
 10
45.1
 20
-3.0
 30
0.0
 11
45.1
 21
0.0
 31
0.0
  0
CIRCLE
  8
0
 62
0
 10
48.5
 20
4.0
 30
0.0
 40
1.5
  0
CIRCLE
  8
0
 62
0
 10
13.5
 20
4.0
 30
0.0
 40
1.5
  0
CIRCLE
  8
0
 62
0
 10
51.0
 20
119.0
 30
0.0
 40
1.5
  0
CIRCLE
  8
0
 62
0
 10
11.0
 20
119.0
 30
0.0
 40
1.5
  0
ENDBLK
  0
ENDSEC
  0
SECTION
  2
ENTITIES
  0
INSERT
  2
FILLET002
  8
0
 62
0
 10
0.0
 20
0.0
 30
0.0
  0
ENDSEC
  0
EOF
