  0
SECTION
  2
HEADER
  9
$ACADVER
  1
AC1009
  9
$INSBASE
 10
0.0
 20
0.0
 30
0.0
  9
$EXTMIN
 10
0.0
 20
0.0
 30
0.0
  9
$EXTMAX
 10
0.0
 20
0.0
 30
0.0
  0
ENDSEC
  0
SECTION
  2
TABLES
  0
TABLE
  2
VPORT
 70
0
  0
ENDTAB
  0
TABLE
  2
LTYPE
 70
1
  0
LTYPE
  2
CONTINUOUS
 70
0
  3
Solid line
 72
65
 73
0
 40
0.0
  0
ENDTAB
  0
TABLE
  2
LAYER
 70
1
  0
LAYER
  2
0
 70
64
 62
7
  6
continuous
  0
ENDTAB
  0
TABLE
  2
STYLE
 70
1
  0
STYLE
  2
STANDARD
 70
0
 40
0
 41
1.0
 50
0.0
 71
0
 42
1
 3
ARIAL.TTF
 4

  0
ENDTAB
  0
TABLE
  2
VIEW
 70
0
  0
ENDTAB
  0
ENDSEC
  0
SECTION
  2
BLOCKS
  0
BLOCK
  8
0
  2
FILLET003
 70
0
 10
0.0
 20
0.0
 30
0.0
  3
FILLET003
  0
LINE
  8
0
 62
0
 10
-7.5
 20
-17.0
 30
0.0
 11
-7.5
 21
-14.0
 31
0.0
  0
ARC
  8
0
 62
0
 10
-6.5
 20
-14.0
 30
0.0
 40
1.0
 50
90.0
 51
180.0
  0
ARC
  8
0
 62
0
 10
-10.5
 20
-17.0
 30
0.0
 40
3.0
 50
-90.0
 51
0.0
  0
LINE
  8
0
 62
0
 10
-6.5
 20
-13.0
 30
0.0
 11
6.5
 21
-13.0
 31
0.0
  0
LINE
  8
0
 62
0
 10
-10.5
 20
-20.0
 30
0.0
 11
-17.0
 21
-20.0
 31
0.0
  0
ARC
  8
0
 62
0
 10
6.5
 20
-14.0
 30
0.0
 40
1.0
 50
-0.0
 51
90.0
  0
ARC
  8
0
 62
0
 10
-17.0
 20
-17.0
 30
0.0
 40
3.0
 50
180.0
 51
-90.0
  0
LINE
  8
0
 62
0
 10
7.5
 20
-14.0
 30
0.0
 11
7.5
 21
-17.0
 31
0.0
  0
LINE
  8
0
 62
0
 10
-20.0
 20
-17.0
 30
0.0
 11
-20.0
 21
17.0
 31
0.0
  0
ARC
  8
0
 62
0
 10
10.5
 20
-17.0
 30
0.0
 40
3.0
 50
180.0
 51
-90.0
  0
ARC
  8
0
 62
0
 10
-17.0
 20
17.0
 30
0.0
 40
3.0
 50
90.0
 51
-180.0
  0
LINE
  8
0
 62
0
 10
17.0
 20
-20.0
 30
0.0
 11
10.5
 21
-20.0
 31
0.0
  0
LINE
  8
0
 62
0
 10
-17.0
 20
20.0
 30
0.0
 11
17.0
 21
20.0
 31
0.0
  0
ARC
  8
0
 62
0
 10
17.0
 20
-17.0
 30
0.0
 40
3.0
 50
-90.0
 51
-0.0
  0
ARC
  8
0
 62
0
 10
17.0
 20
17.0
 30
0.0
 40
3.0
 50
-0.0
 51
90.0
  0
LINE
  8
0
 62
0
 10
20.0
 20
17.0
 30
0.0
 11
20.0
 21
-17.0
 31
0.0
  0
LINE
  8
0
 62
0
 10
-9.9
 20
17.0
 30
0.0
 11
9.9
 21
17.0
 31
0.0
  0
LINE
  8
0
 62
0
 10
9.9
 20
17.0
 30
0.0
 11
9.9
 21
14.0
 31
0.0
  0
LINE
  8
0
 62
0
 10
9.9
 20
14.0
 30
0.0
 11
-9.9
 21
14.0
 31
0.0
  0
LINE
  8
0
 62
0
 10
-9.9
 20
14.0
 30
0.0
 11
-9.9
 21
17.0
 31
0.0
  0
LINE
  8
0
 62
0
 10
14.0
 20
9.9
 30
0.0
 11
17.0
 21
9.9
 31
0.0
  0
LINE
  8
0
 62
0
 10
17.0
 20
9.9
 30
0.0
 11
17.0
 21
-9.9
 31
0.0
  0
LINE
  8
0
 62
0
 10
17.0
 20
-9.9
 30
0.0
 11
14.0
 21
-9.9
 31
0.0
  0
LINE
  8
0
 62
0
 10
14.0
 20
-9.9
 30
0.0
 11
14.0
 21
9.9
 31
0.0
  0
LINE
  8
0
 62
0
 10
-17.0
 20
9.9
 30
0.0
 11
-14.0
 21
9.9
 31
0.0
  0
LINE
  8
0
 62
0
 10
-14.0
 20
9.9
 30
0.0
 11
-14.0
 21
-9.9
 31
0.0
  0
LINE
  8
0
 62
0
 10
-14.0
 20
-9.9
 30
0.0
 11
-17.0
 21
-9.9
 31
0.0
  0
LINE
  8
0
 62
0
 10
-17.0
 20
-9.9
 30
0.0
 11
-17.0
 21
9.9
 31
0.0
  0
LINE
  8
0
 62
0
 10
-16.9
 20
-14.0
 30
0.0
 11
-10.1
 21
-14.0
 31
0.0
  0
LINE
  8
0
 62
0
 10
-10.1
 20
-14.0
 30
0.0
 11
-10.1
 21
-17.0
 31
0.0
  0
LINE
  8
0
 62
0
 10
-10.1
 20
-17.0
 30
0.0
 11
-16.9
 21
-17.0
 31
0.0
  0
LINE
  8
0
 62
0
 10
-16.9
 20
-17.0
 30
0.0
 11
-16.9
 21
-14.0
 31
0.0
  0
LINE
  8
0
 62
0
 10
10.1
 20
-14.0
 30
0.0
 11
16.9
 21
-14.0
 31
0.0
  0
LINE
  8
0
 62
0
 10
16.9
 20
-14.0
 30
0.0
 11
16.9
 21
-17.0
 31
0.0
  0
LINE
  8
0
 62
0
 10
16.9
 20
-17.0
 30
0.0
 11
10.1
 21
-17.0
 31
0.0
  0
LINE
  8
0
 62
0
 10
10.1
 20
-17.0
 30
0.0
 11
10.1
 21
-14.0
 31
0.0
  0
CIRCLE
  8
0
 62
0
 10
10.0
 20
-10.0
 30
0.0
 40
1.5
  0
CIRCLE
  8
0
 62
0
 10
-10.0
 20
-10.0
 30
0.0
 40
1.5
  0
CIRCLE
  8
0
 62
0
 10
10.0
 20
10.0
 30
0.0
 40
1.5
  0
CIRCLE
  8
0
 62
0
 10
-10.0
 20
10.0
 30
0.0
 40
1.5
  0
ENDBLK
  0
ENDSEC
  0
SECTION
  2
ENTITIES
  0
INSERT
  2
FILLET003
  8
0
 62
0
 10
0.0
 20
0.0
 30
0.0
  0
ENDSEC
  0
EOF
