  0
SECTION
  2
HEADER
  9
$ACADVER
  1
AC1009
  9
$INSBASE
 10
0.0
 20
0.0
 30
0.0
  9
$EXTMIN
 10
0.0
 20
0.0
 30
0.0
  9
$EXTMAX
 10
0.0
 20
0.0
 30
0.0
  0
ENDSEC
  0
SECTION
  2
TABLES
  0
TABLE
  2
VPORT
 70
0
  0
ENDTAB
  0
TABLE
  2
LTYPE
 70
1
  0
LTYPE
  2
CONTINUOUS
 70
0
  3
Solid line
 72
65
 73
0
 40
0.0
  0
ENDTAB
  0
TABLE
  2
LAYER
 70
1
  0
LAYER
  2
0
 70
64
 62
7
  6
continuous
  0
ENDTAB
  0
TABLE
  2
STYLE
 70
1
  0
STYLE
  2
STANDARD
 70
0
 40
0
 41
1.0
 50
0.0
 71
0
 42
1
 3
ARIAL.TTF
 4

  0
ENDTAB
  0
TABLE
  2
VIEW
 70
0
  0
ENDTAB
  0
ENDSEC
  0
SECTION
  2
BLOCKS
  0
BLOCK
  8
0
  2
FILLET006
 70
0
 10
0.0
 20
0.0
 30
0.0
  3
FILLET006
  0
LINE
  8
0
 62
0
 10
21.0
 20
0.0
 30
0.0
 11
21.0
 21
17.0
 31
0.0
  0
ARC
  8
0
 62
0
 10
22.0
 20
17.0
 30
0.0
 40
1.0
 50
90.0
 51
-180.0
  0
LINE
  8
0
 62
0
 10
15.0
 20
0.0
 30
0.0
 11
21.0
 21
0.0
 31
0.0
  0
LINE
  8
0
 62
0
 10
22.0
 20
18.0
 30
0.0
 11
35.0
 21
18.0
 31
0.0
  0
LINE
  8
0
 62
0
 10
15.0
 20
-3.0
 30
0.0
 11
15.0
 21
0.0
 31
0.0
  0
ARC
  8
0
 62
0
 10
35.0
 20
17.0
 30
0.0
 40
1.0
 50
-0.0
 51
90.0
  0
LINE
  8
0
 62
0
 10
5.0
 20
-3.0
 30
0.0
 11
15.0
 21
-3.0
 31
0.0
  0
LINE
  8
0
 62
0
 10
36.0
 20
17.0
 30
0.0
 11
36.0
 21
0.0
 31
0.0
  0
LINE
  8
0
 62
0
 10
5.0
 20
0.0
 30
0.0
 11
5.0
 21
-3.0
 31
0.0
  0
LINE
  8
0
 62
0
 10
36.0
 20
0.0
 30
0.0
 11
42.0
 21
0.0
 31
0.0
  0
LINE
  8
0
 62
0
 10
0.0
 20
0.0
 30
0.0
 11
5.0
 21
0.0
 31
0.0
  0
LINE
  8
0
 62
0
 10
42.0
 20
0.0
 30
0.0
 11
42.0
 21
-3.0
 31
0.0
  0
LINE
  8
0
 62
0
 10
0.0
 20
22.75
 30
0.0
 11
0.0
 21
0.0
 31
0.0
  0
LINE
  8
0
 62
0
 10
42.0
 20
-3.0
 30
0.0
 11
52.0
 21
-3.0
 31
0.0
  0
LINE
  8
0
 62
0
 10
10.0
 20
22.75
 30
0.0
 11
0.0
 21
22.75
 31
0.0
  0
LINE
  8
0
 62
0
 10
52.0
 20
-3.0
 30
0.0
 11
52.0
 21
0.0
 31
0.0
  0
LINE
  8
0
 62
0
 10
10.0
 20
25.75
 30
0.0
 11
10.0
 21
22.75
 31
0.0
  0
LINE
  8
0
 62
0
 10
52.0
 20
0.0
 30
0.0
 11
57.0
 21
0.0
 31
0.0
  0
LINE
  8
0
 62
0
 10
20.0
 20
25.75
 30
0.0
 11
10.0
 21
25.75
 31
0.0
  0
LINE
  8
0
 62
0
 10
57.0
 20
22.75
 30
0.0
 11
57.0
 21
0.0
 31
0.0
  0
LINE
  8
0
 62
0
 10
20.0
 20
22.75
 30
0.0
 11
20.0
 21
25.75
 31
0.0
  0
LINE
  8
0
 62
0
 10
57.0
 20
22.75
 30
0.0
 11
47.0
 21
22.75
 31
0.0
  0
LINE
  8
0
 62
0
 10
37.0
 20
22.75
 30
0.0
 11
20.0
 21
22.75
 31
0.0
  0
LINE
  8
0
 62
0
 10
47.0
 20
22.75
 30
0.0
 11
47.0
 21
25.75
 31
0.0
  0
LINE
  8
0
 62
0
 10
37.0
 20
25.75
 30
0.0
 11
37.0
 21
22.75
 31
0.0
  0
LINE
  8
0
 62
0
 10
47.0
 20
25.75
 30
0.0
 11
37.0
 21
25.75
 31
0.0
  0
LINE
  8
0
 62
0
 10
3.0
 20
16.275
 30
0.0
 11
6.0
 21
16.275
 31
0.0
  0
LINE
  8
0
 62
0
 10
6.0
 20
16.275
 30
0.0
 11
6.0
 21
6.475
 31
0.0
  0
LINE
  8
0
 62
0
 10
6.0
 20
6.475
 30
0.0
 11
3.0
 21
6.475
 31
0.0
  0
LINE
  8
0
 62
0
 10
3.0
 20
6.475
 30
0.0
 11
3.0
 21
16.275
 31
0.0
  0
LINE
  8
0
 62
0
 10
51.0
 20
16.275
 30
0.0
 11
54.0
 21
16.275
 31
0.0
  0
LINE
  8
0
 62
0
 10
54.0
 20
16.275
 30
0.0
 11
54.0
 21
6.475
 31
0.0
  0
LINE
  8
0
 62
0
 10
54.0
 20
6.475
 30
0.0
 11
51.0
 21
6.475
 31
0.0
  0
LINE
  8
0
 62
0
 10
51.0
 20
6.475
 30
0.0
 11
51.0
 21
16.275
 31
0.0
  0
ENDBLK
  0
ENDSEC
  0
SECTION
  2
ENTITIES
  0
INSERT
  2
FILLET006
  8
0
 62
0
 10
0.0
 20
0.0
 30
0.0
  0
ENDSEC
  0
EOF
