  0
SECTION
  2
HEADER
  9
$ACADVER
  1
AC1009
  9
$INSBASE
 10
0.0
 20
0.0
 30
0.0
  9
$EXTMIN
 10
0.0
 20
0.0
 30
0.0
  9
$EXTMAX
 10
0.0
 20
0.0
 30
0.0
  0
ENDSEC
  0
SECTION
  2
TABLES
  0
TABLE
  2
VPORT
 70
0
  0
ENDTAB
  0
TABLE
  2
LTYPE
 70
1
  0
LTYPE
  2
CONTINUOUS
 70
0
  3
Solid line
 72
65
 73
0
 40
0.0
  0
ENDTAB
  0
TABLE
  2
LAYER
 70
1
  0
LAYER
  2
0
 70
64
 62
7
  6
continuous
  0
ENDTAB
  0
TABLE
  2
STYLE
 70
1
  0
STYLE
  2
STANDARD
 70
0
 40
0
 41
1.0
 50
0.0
 71
0
 42
1
 3
ARIAL.TTF
 4

  0
ENDTAB
  0
TABLE
  2
VIEW
 70
0
  0
ENDTAB
  0
ENDSEC
  0
SECTION
  2
BLOCKS
  0
BLOCK
  8
0
  2
FILLET004
 70
0
 10
0.0
 20
0.0
 30
0.0
  3
FILLET004
  0
LINE
  8
0
 62
0
 10
39.5
 20
11.0
 30
0.0
 11
46.5
 21
11.0
 31
0.0
  0
ARC
  8
0
 62
0
 10
39.5
 20
10.0
 30
0.0
 40
1.0
 50
90.0
 51
180.0
  0
ARC
  8
0
 62
0
 10
46.5
 20
10.0
 30
0.0
 40
1.0
 50
0.0
 51
90.0
  0
LINE
  8
0
 62
0
 10
38.5
 20
8.0
 30
0.0
 11
38.5
 21
10.0
 31
0.0
  0
LINE
  8
0
 62
0
 10
47.5
 20
10.0
 30
0.0
 11
47.5
 21
8.0
 31
0.0
  0
ARC
  8
0
 62
0
 10
39.5
 20
8.0
 30
0.0
 40
1.0
 50
-180.0
 51
-90.0
  0
ARC
  8
0
 62
0
 10
46.5
 20
8.0
 30
0.0
 40
1.0
 50
-90.0
 51
-0.0
  0
LINE
  8
0
 62
0
 10
46.5
 20
7.0
 30
0.0
 11
39.5
 21
7.0
 31
0.0
  0
LINE
  8
0
 62
0
 10
67.5
 20
31.9
 30
0.0
 11
63.5
 21
31.9
 31
0.0
  0
LINE
  8
0
 62
0
 10
63.5
 20
31.9
 30
0.0
 11
63.5
 21
34.9
 31
0.0
  0
LINE
  8
0
 62
0
 10
63.5
 20
34.9
 30
0.0
 11
53.5
 21
34.9
 31
0.0
  0
LINE
  8
0
 62
0
 10
53.5
 20
34.9
 30
0.0
 11
53.5
 21
31.9
 31
0.0
  0
LINE
  8
0
 62
0
 10
53.5
 20
31.9
 30
0.0
 11
20.0
 21
31.9
 31
0.0
  0
LINE
  8
0
 62
0
 10
20.0
 20
31.9
 30
0.0
 11
20.0
 21
34.9
 31
0.0
  0
LINE
  8
0
 62
0
 10
20.0
 20
34.9
 30
0.0
 11
10.0
 21
34.9
 31
0.0
  0
LINE
  8
0
 62
0
 10
10.0
 20
34.9
 30
0.0
 11
10.0
 21
31.9
 31
0.0
  0
LINE
  8
0
 62
0
 10
10.0
 20
31.9
 30
0.0
 11
6.0
 21
31.9
 31
0.0
  0
LINE
  8
0
 62
0
 10
6.0
 20
31.9
 30
0.0
 11
6.0
 21
28.4
 31
0.0
  0
LINE
  8
0
 62
0
 10
6.0
 20
28.4
 30
0.0
 11
3.0
 21
28.4
 31
0.0
  0
LINE
  8
0
 62
0
 10
3.0
 20
28.4
 30
0.0
 11
3.0
 21
18.4
 31
0.0
  0
LINE
  8
0
 62
0
 10
3.0
 20
18.4
 30
0.0
 11
6.0
 21
18.4
 31
0.0
  0
LINE
  8
0
 62
0
 10
6.0
 20
18.4
 30
0.0
 11
6.0
 21
13.5
 31
0.0
  0
LINE
  8
0
 62
0
 10
6.0
 20
13.5
 30
0.0
 11
3.0
 21
13.5
 31
0.0
  0
LINE
  8
0
 62
0
 10
3.0
 20
13.5
 30
0.0
 11
3.0
 21
3.5
 31
0.0
  0
LINE
  8
0
 62
0
 10
3.0
 20
3.5
 30
0.0
 11
6.0
 21
3.5
 31
0.0
  0
LINE
  8
0
 62
0
 10
6.0
 20
3.5
 30
0.0
 11
6.0
 21
0.0
 31
0.0
  0
LINE
  8
0
 62
0
 10
6.0
 20
0.0
 30
0.0
 11
10.0
 21
0.0
 31
0.0
  0
LINE
  8
0
 62
0
 10
10.0
 20
0.0
 30
0.0
 11
10.0
 21
-3.0
 31
0.0
  0
LINE
  8
0
 62
0
 10
10.0
 20
-3.0
 30
0.0
 11
20.0
 21
-3.0
 31
0.0
  0
LINE
  8
0
 62
0
 10
20.0
 20
-3.0
 30
0.0
 11
20.0
 21
0.0
 31
0.0
  0
LINE
  8
0
 62
0
 10
20.0
 20
0.0
 30
0.0
 11
53.5
 21
0.0
 31
0.0
  0
LINE
  8
0
 62
0
 10
53.5
 20
0.0
 30
0.0
 11
53.5
 21
-3.0
 31
0.0
  0
LINE
  8
0
 62
0
 10
53.5
 20
-3.0
 30
0.0
 11
63.5
 21
-3.0
 31
0.0
  0
LINE
  8
0
 62
0
 10
63.5
 20
-3.0
 30
0.0
 11
63.5
 21
0.0
 31
0.0
  0
LINE
  8
0
 62
0
 10
63.5
 20
0.0
 30
0.0
 11
67.5
 21
0.0
 31
0.0
  0
LINE
  8
0
 62
0
 10
67.5
 20
3.5
 30
0.0
 11
67.5
 21
0.0
 31
0.0
  0
LINE
  8
0
 62
0
 10
70.5
 20
3.5
 30
0.0
 11
67.5
 21
3.5
 31
0.0
  0
LINE
  8
0
 62
0
 10
70.5
 20
13.5
 30
0.0
 11
70.5
 21
3.5
 31
0.0
  0
LINE
  8
0
 62
0
 10
67.5
 20
13.5
 30
0.0
 11
70.5
 21
13.5
 31
0.0
  0
LINE
  8
0
 62
0
 10
67.5
 20
18.4
 30
0.0
 11
67.5
 21
13.5
 31
0.0
  0
LINE
  8
0
 62
0
 10
70.5
 20
18.4
 30
0.0
 11
67.5
 21
18.4
 31
0.0
  0
LINE
  8
0
 62
0
 10
70.5
 20
28.4
 30
0.0
 11
70.5
 21
18.4
 31
0.0
  0
LINE
  8
0
 62
0
 10
67.5
 20
28.4
 30
0.0
 11
70.5
 21
28.4
 31
0.0
  0
LINE
  8
0
 62
0
 10
67.5
 20
31.9
 30
0.0
 11
67.5
 21
28.4
 31
0.0
  0
ENDBLK
  0
ENDSEC
  0
SECTION
  2
ENTITIES
  0
INSERT
  2
FILLET004
  8
0
 62
0
 10
0.0
 20
0.0
 30
0.0
  0
ENDSEC
  0
EOF
