  0
SECTION
  2
HEADER
  9
$ACADVER
  1
AC1009
  9
$INSBASE
 10
0.0
 20
0.0
 30
0.0
  9
$EXTMIN
 10
0.0
 20
0.0
 30
0.0
  9
$EXTMAX
 10
0.0
 20
0.0
 30
0.0
  0
ENDSEC
  0
SECTION
  2
TABLES
  0
TABLE
  2
VPORT
 70
0
  0
ENDTAB
  0
TABLE
  2
LTYPE
 70
1
  0
LTYPE
  2
CONTINUOUS
 70
0
  3
Solid line
 72
65
 73
0
 40
0.0
  0
ENDTAB
  0
TABLE
  2
LAYER
 70
1
  0
LAYER
  2
0
 70
64
 62
7
  6
continuous
  0
ENDTAB
  0
TABLE
  2
STYLE
 70
1
  0
STYLE
  2
STANDARD
 70
0
 40
0
 41
1.0
 50
0.0
 71
0
 42
1
 3
ARIAL.TTF
 4

  0
ENDTAB
  0
TABLE
  2
VIEW
 70
0
  0
ENDTAB
  0
ENDSEC
  0
SECTION
  2
BLOCKS
  0
BLOCK
  8
0
  2
PAD005004
 70
0
 10
0.0
 20
0.0
 30
0.0
  3
PAD005004
  0
LINE
  8
0
 62
0
 10
120.5
 20
31.9
 30
0.0
 11
116.5
 21
31.9
 31
0.0
  0
LINE
  8
0
 62
0
 10
116.5
 20
31.9
 30
0.0
 11
116.5
 21
34.9
 31
0.0
  0
LINE
  8
0
 62
0
 10
116.5
 20
34.9
 30
0.0
 11
106.5
 21
34.9
 31
0.0
  0
LINE
  8
0
 62
0
 10
106.5
 20
34.9
 30
0.0
 11
106.5
 21
31.9
 31
0.0
  0
LINE
  8
0
 62
0
 10
106.5
 20
31.9
 30
0.0
 11
73.0
 21
31.9
 31
0.0
  0
LINE
  8
0
 62
0
 10
73.0
 20
31.9
 30
0.0
 11
73.0
 21
34.9
 31
0.0
  0
LINE
  8
0
 62
0
 10
73.0
 20
34.9
 30
0.0
 11
63.0
 21
34.9
 31
0.0
  0
LINE
  8
0
 62
0
 10
63.0
 20
34.9
 30
0.0
 11
63.0
 21
31.9
 31
0.0
  0
LINE
  8
0
 62
0
 10
63.0
 20
31.9
 30
0.0
 11
59.0
 21
31.9
 31
0.0
  0
LINE
  8
0
 62
0
 10
59.0
 20
31.9
 30
0.0
 11
59.0
 21
28.4
 31
0.0
  0
LINE
  8
0
 62
0
 10
59.0
 20
28.4
 30
0.0
 11
56.0
 21
28.4
 31
0.0
  0
LINE
  8
0
 62
0
 10
56.0
 20
28.4
 30
0.0
 11
56.0
 21
18.4
 31
0.0
  0
LINE
  8
0
 62
0
 10
56.0
 20
18.4
 30
0.0
 11
59.0
 21
18.4
 31
0.0
  0
LINE
  8
0
 62
0
 10
59.0
 20
18.4
 30
0.0
 11
59.0
 21
13.5
 31
0.0
  0
LINE
  8
0
 62
0
 10
59.0
 20
13.5
 30
0.0
 11
56.0
 21
13.5
 31
0.0
  0
LINE
  8
0
 62
0
 10
56.0
 20
13.5
 30
0.0
 11
56.0
 21
3.5
 31
0.0
  0
LINE
  8
0
 62
0
 10
56.0
 20
3.5
 30
0.0
 11
59.0
 21
3.5
 31
0.0
  0
LINE
  8
0
 62
0
 10
59.0
 20
3.5
 30
0.0
 11
59.0
 21
0.0
 31
0.0
  0
LINE
  8
0
 62
0
 10
59.0
 20
0.0
 30
0.0
 11
63.0
 21
0.0
 31
0.0
  0
LINE
  8
0
 62
0
 10
63.0
 20
0.0
 30
0.0
 11
63.0
 21
-3.0
 31
0.0
  0
LINE
  8
0
 62
0
 10
63.0
 20
-3.0
 30
0.0
 11
73.0
 21
-3.0
 31
0.0
  0
LINE
  8
0
 62
0
 10
73.0
 20
-3.0
 30
0.0
 11
73.0
 21
0.0
 31
0.0
  0
LINE
  8
0
 62
0
 10
73.0
 20
0.0
 30
0.0
 11
106.5
 21
0.0
 31
0.0
  0
LINE
  8
0
 62
0
 10
106.5
 20
0.0
 30
0.0
 11
106.5
 21
-3.0
 31
0.0
  0
LINE
  8
0
 62
0
 10
106.5
 20
-3.0
 30
0.0
 11
116.5
 21
-3.0
 31
0.0
  0
LINE
  8
0
 62
0
 10
116.5
 20
-3.0
 30
0.0
 11
116.5
 21
0.0
 31
0.0
  0
LINE
  8
0
 62
0
 10
116.5
 20
0.0
 30
0.0
 11
120.5
 21
0.0
 31
0.0
  0
LINE
  8
0
 62
0
 10
120.5
 20
3.5
 30
0.0
 11
120.5
 21
0.0
 31
0.0
  0
LINE
  8
0
 62
0
 10
123.5
 20
3.5
 30
0.0
 11
120.5
 21
3.5
 31
0.0
  0
LINE
  8
0
 62
0
 10
123.5
 20
13.5
 30
0.0
 11
123.5
 21
3.5
 31
0.0
  0
LINE
  8
0
 62
0
 10
120.5
 20
13.5
 30
0.0
 11
123.5
 21
13.5
 31
0.0
  0
LINE
  8
0
 62
0
 10
120.5
 20
18.4
 30
0.0
 11
120.5
 21
13.5
 31
0.0
  0
LINE
  8
0
 62
0
 10
123.5
 20
18.4
 30
0.0
 11
120.5
 21
18.4
 31
0.0
  0
LINE
  8
0
 62
0
 10
123.5
 20
28.4
 30
0.0
 11
123.5
 21
18.4
 31
0.0
  0
LINE
  8
0
 62
0
 10
120.5
 20
28.4
 30
0.0
 11
123.5
 21
28.4
 31
0.0
  0
LINE
  8
0
 62
0
 10
120.5
 20
31.9
 30
0.0
 11
120.5
 21
28.4
 31
0.0
  0
ENDBLK
  0
ENDSEC
  0
SECTION
  2
ENTITIES
  0
INSERT
  2
PAD005004
  8
0
 62
0
 10
0.0
 20
0.0
 30
0.0
  0
ENDSEC
  0
EOF
