  0
SECTION
  2
HEADER
  9
$ACADVER
  1
AC1009
  9
$INSBASE
 10
0.0
 20
0.0
 30
0.0
  9
$EXTMIN
 10
0.0
 20
0.0
 30
0.0
  9
$EXTMAX
 10
0.0
 20
0.0
 30
0.0
  0
ENDSEC
  0
SECTION
  2
TABLES
  0
TABLE
  2
VPORT
 70
0
  0
ENDTAB
  0
TABLE
  2
LTYPE
 70
1
  0
LTYPE
  2
CONTINUOUS
 70
0
  3
Solid line
 72
65
 73
0
 40
0.0
  0
ENDTAB
  0
TABLE
  2
LAYER
 70
1
  0
LAYER
  2
0
 70
64
 62
7
  6
continuous
  0
ENDTAB
  0
TABLE
  2
STYLE
 70
1
  0
STYLE
  2
STANDARD
 70
0
 40
0
 41
1.0
 50
0.0
 71
0
 42
1
 3
ARIAL.TTF
 4

  0
ENDTAB
  0
TABLE
  2
VIEW
 70
0
  0
ENDTAB
  0
ENDSEC
  0
SECTION
  2
BLOCKS
  0
BLOCK
  8
0
  2
PAD005001
 70
0
 10
0.0
 20
0.0
 30
0.0
  3
PAD005001
  0
LINE
  8
0
 62
0
 10
54.0
 20
11.7
 30
0.0
 11
54.0
 21
14.7
 31
0.0
  0
LINE
  8
0
 62
0
 10
54.0
 20
14.7
 30
0.0
 11
44.0
 21
14.7
 31
0.0
  0
LINE
  8
0
 62
0
 10
44.0
 20
14.7
 30
0.0
 11
44.0
 21
11.7
 31
0.0
  0
LINE
  8
0
 62
0
 10
44.0
 20
11.7
 30
0.0
 11
40.0
 21
11.7
 31
0.0
  0
LINE
  8
0
 62
0
 10
40.0
 20
11.7
 30
0.0
 11
40.0
 21
9.35
 31
0.0
  0
LINE
  8
0
 62
0
 10
40.0
 20
9.35
 30
0.0
 11
37.0
 21
9.35
 31
0.0
  0
LINE
  8
0
 62
0
 10
37.0
 20
9.35
 30
0.0
 11
37.0
 21
2.35
 31
0.0
  0
LINE
  8
0
 62
0
 10
37.0
 20
2.35
 30
0.0
 11
40.0
 21
2.35
 31
0.0
  0
LINE
  8
0
 62
0
 10
40.0
 20
2.35
 30
0.0
 11
40.0
 21
0.0
 31
0.0
  0
LINE
  8
0
 62
0
 10
40.0
 20
0.0
 30
0.0
 11
44.0
 21
0.0
 31
0.0
  0
LINE
  8
0
 62
0
 10
44.0
 20
0.0
 30
0.0
 11
44.0
 21
-3.0
 31
0.0
  0
LINE
  8
0
 62
0
 10
44.0
 20
-3.0
 30
0.0
 11
54.0
 21
-3.0
 31
0.0
  0
LINE
  8
0
 62
0
 10
54.0
 20
-3.0
 30
0.0
 11
54.0
 21
0.0
 31
0.0
  0
LINE
  8
0
 62
0
 10
54.0
 20
0.0
 30
0.0
 11
74.0
 21
0.0
 31
0.0
  0
LINE
  8
0
 62
0
 10
74.0
 20
0.0
 30
0.0
 11
74.0
 21
-3.0
 31
0.0
  0
LINE
  8
0
 62
0
 10
74.0
 20
-3.0
 30
0.0
 11
84.0
 21
-3.0
 31
0.0
  0
LINE
  8
0
 62
0
 10
84.0
 20
-3.0
 30
0.0
 11
84.0
 21
0.0
 31
0.0
  0
LINE
  8
0
 62
0
 10
84.0
 20
0.0
 30
0.0
 11
88.0
 21
0.0
 31
0.0
  0
LINE
  8
0
 62
0
 10
88.0
 20
2.35
 30
0.0
 11
88.0
 21
0.0
 31
0.0
  0
LINE
  8
0
 62
0
 10
91.0
 20
2.35
 30
0.0
 11
88.0
 21
2.35
 31
0.0
  0
LINE
  8
0
 62
0
 10
91.0
 20
9.35
 30
0.0
 11
91.0
 21
2.35
 31
0.0
  0
LINE
  8
0
 62
0
 10
88.0
 20
9.35
 30
0.0
 11
91.0
 21
9.35
 31
0.0
  0
LINE
  8
0
 62
0
 10
88.0
 20
11.7
 30
0.0
 11
88.0
 21
9.35
 31
0.0
  0
LINE
  8
0
 62
0
 10
84.0
 20
11.7
 30
0.0
 11
88.0
 21
11.7
 31
0.0
  0
LINE
  8
0
 62
0
 10
84.0
 20
14.7
 30
0.0
 11
84.0
 21
11.7
 31
0.0
  0
LINE
  8
0
 62
0
 10
74.0
 20
14.7
 30
0.0
 11
84.0
 21
14.7
 31
0.0
  0
LINE
  8
0
 62
0
 10
74.0
 20
11.7
 30
0.0
 11
74.0
 21
14.7
 31
0.0
  0
LINE
  8
0
 62
0
 10
54.0
 20
11.7
 30
0.0
 11
74.0
 21
11.7
 31
0.0
  0
ENDBLK
  0
ENDSEC
  0
SECTION
  2
ENTITIES
  0
INSERT
  2
PAD005001
  8
0
 62
0
 10
0.0
 20
0.0
 30
0.0
  0
ENDSEC
  0
EOF
