  0
SECTION
  2
HEADER
  9
$ACADVER
  1
AC1009
  9
$INSBASE
 10
0.0
 20
0.0
 30
0.0
  9
$EXTMIN
 10
0.0
 20
0.0
 30
0.0
  9
$EXTMAX
 10
0.0
 20
0.0
 30
0.0
  0
ENDSEC
  0
SECTION
  2
TABLES
  0
TABLE
  2
VPORT
 70
0
  0
ENDTAB
  0
TABLE
  2
LTYPE
 70
1
  0
LTYPE
  2
CONTINUOUS
 70
0
  3
Solid line
 72
65
 73
0
 40
0.0
  0
ENDTAB
  0
TABLE
  2
LAYER
 70
1
  0
LAYER
  2
0
 70
64
 62
7
  6
continuous
  0
ENDTAB
  0
TABLE
  2
STYLE
 70
1
  0
STYLE
  2
STANDARD
 70
0
 40
0
 41
1.0
 50
0.0
 71
0
 42
1
 3
ARIAL.TTF
 4

  0
ENDTAB
  0
TABLE
  2
VIEW
 70
0
  0
ENDTAB
  0
ENDSEC
  0
SECTION
  2
BLOCKS
  0
BLOCK
  8
0
  2
FILLET010
 70
0
 10
0.0
 20
0.0
 30
0.0
  3
FILLET010
  0
LINE
  8
0
 62
0
 10
-41.5
 20
-12.6
 30
0.0
 11
-27.5
 21
-12.6
 31
0.0
  0
ARC
  8
0
 62
0
 10
-41.5
 20
-13.6
 30
0.0
 40
1.0
 50
90.0
 51
-180.0
  0
ARC
  8
0
 62
0
 10
-27.5
 20
-13.6
 30
0.0
 40
1.0
 50
-0.0
 51
90.0
  0
LINE
  8
0
 62
0
 10
-42.5
 20
-23.6
 30
0.0
 11
-42.5
 21
-13.6
 31
0.0
  0
LINE
  8
0
 62
0
 10
-26.5
 20
-13.6
 30
0.0
 11
-26.5
 21
-23.6
 31
0.0
  0
ARC
  8
0
 62
0
 10
-41.5
 20
-23.6
 30
0.0
 40
1.0
 50
-180.0
 51
-90.0
  0
ARC
  8
0
 62
0
 10
-27.5
 20
-23.6
 30
0.0
 40
1.0
 50
-90.0
 51
-0.0
  0
LINE
  8
0
 62
0
 10
-27.5
 20
-24.6
 30
0.0
 11
-41.5
 21
-24.6
 31
0.0
  0
LINE
  8
0
 62
0
 10
-57.5
 20
13.0
 30
0.0
 11
-61.0
 21
13.0
 31
0.0
  0
LINE
  8
0
 62
0
 10
-61.0
 20
13.0
 30
0.0
 11
-61.0
 21
-47.5
 31
0.0
  0
LINE
  8
0
 62
0
 10
-61.0
 20
-47.5
 30
0.0
 11
-43.5
 21
-47.5
 31
0.0
  0
LINE
  8
0
 62
0
 10
-43.5
 20
-47.5
 30
0.0
 11
-43.5
 21
-49.5
 31
0.0
  0
LINE
  8
0
 62
0
 10
-43.5
 20
-49.5
 30
0.0
 11
-33.5
 21
-49.5
 31
0.0
  0
LINE
  8
0
 62
0
 10
-33.5
 20
-49.5
 30
0.0
 11
-33.5
 21
-47.5
 31
0.0
  0
LINE
  8
0
 62
0
 10
-33.5
 20
-47.5
 30
0.0
 11
-16.0
 21
-47.5
 31
0.0
  0
LINE
  8
0
 62
0
 10
-16.0
 20
-47.5
 30
0.0
 11
-16.0
 21
13.0
 31
0.0
  0
LINE
  8
0
 62
0
 10
-16.0
 20
13.0
 30
0.0
 11
-19.5
 21
13.0
 31
0.0
  0
LINE
  8
0
 62
0
 10
-19.5
 20
13.0
 30
0.0
 11
-19.5
 21
16.0
 31
0.0
  0
LINE
  8
0
 62
0
 10
-19.5
 20
16.0
 30
0.0
 11
-29.5
 21
16.0
 31
0.0
  0
LINE
  8
0
 62
0
 10
-29.5
 20
16.0
 30
0.0
 11
-29.5
 21
13.0
 31
0.0
  0
LINE
  8
0
 62
0
 10
-47.5
 20
13.0
 30
0.0
 11
-29.5
 21
13.0
 31
0.0
  0
LINE
  8
0
 62
0
 10
-47.5
 20
16.0
 30
0.0
 11
-47.5
 21
13.0
 31
0.0
  0
LINE
  8
0
 62
0
 10
-57.5
 20
16.0
 30
0.0
 11
-47.5
 21
16.0
 31
0.0
  0
LINE
  8
0
 62
0
 10
-57.5
 20
13.0
 30
0.0
 11
-57.5
 21
16.0
 31
0.0
  0
CIRCLE
  8
0
 62
0
 10
-27.0
 20
-34.85
 30
0.0
 40
2.5
  0
CIRCLE
  8
0
 62
0
 10
-50.0
 20
-34.85
 30
0.0
 40
2.5
  0
LINE
  8
0
 62
0
 10
-45.0
 20
-37.85
 30
0.0
 11
-46.0
 21
-37.85
 31
0.0
  0
ARC
  8
0
 62
0
 10
-45.0
 20
-36.85
 30
0.0
 40
1.0
 50
-90.0
 51
-0.0
  0
ARC
  8
0
 62
0
 10
-46.0
 20
-38.85
 30
0.0
 40
1.0
 50
90.0
 51
-180.0
  0
LINE
  8
0
 62
0
 10
-44.0
 20
-36.85
 30
0.0
 11
-44.0
 21
-30.35
 31
0.0
  0
LINE
  8
0
 62
0
 10
-47.0
 20
-38.85
 30
0.0
 11
-47.0
 21
-39.35
 31
0.0
  0
ARC
  8
0
 62
0
 10
-43.0
 20
-30.35
 30
0.0
 40
1.0
 50
90.0
 51
-180.0
  0
ARC
  8
0
 62
0
 10
-46.0
 20
-39.35
 30
0.0
 40
1.0
 50
-180.0
 51
-90.0
  0
LINE
  8
0
 62
0
 10
-43.0
 20
-29.35
 30
0.0
 11
-34.0
 21
-29.35
 31
0.0
  0
LINE
  8
0
 62
0
 10
-34.0
 20
-40.35
 30
0.0
 11
-46.0
 21
-40.35
 31
0.0
  0
ARC
  8
0
 62
0
 10
-34.0
 20
-30.35
 30
0.0
 40
1.0
 50
-0.0
 51
90.0
  0
ARC
  8
0
 62
0
 10
-34.0
 20
-39.35
 30
0.0
 40
1.0
 50
-90.0
 51
-0.0
  0
LINE
  8
0
 62
0
 10
-33.0
 20
-30.35
 30
0.0
 11
-33.0
 21
-39.35
 31
0.0
  0
ENDBLK
  0
ENDSEC
  0
SECTION
  2
ENTITIES
  0
INSERT
  2
FILLET010
  8
0
 62
0
 10
0.0
 20
0.0
 30
0.0
  0
ENDSEC
  0
EOF
