  0
SECTION
  2
HEADER
  9
$ACADVER
  1
AC1009
  9
$INSBASE
 10
0.0
 20
0.0
 30
0.0
  9
$EXTMIN
 10
0.0
 20
0.0
 30
0.0
  9
$EXTMAX
 10
0.0
 20
0.0
 30
0.0
  0
ENDSEC
  0
SECTION
  2
TABLES
  0
TABLE
  2
VPORT
 70
0
  0
ENDTAB
  0
TABLE
  2
LTYPE
 70
1
  0
LTYPE
  2
CONTINUOUS
 70
0
  3
Solid line
 72
65
 73
0
 40
0.0
  0
ENDTAB
  0
TABLE
  2
LAYER
 70
1
  0
LAYER
  2
0
 70
64
 62
7
  6
continuous
  0
ENDTAB
  0
TABLE
  2
STYLE
 70
1
  0
STYLE
  2
STANDARD
 70
0
 40
0
 41
1.0
 50
0.0
 71
0
 42
1
 3
ARIAL.TTF
 4

  0
ENDTAB
  0
TABLE
  2
VIEW
 70
0
  0
ENDTAB
  0
ENDSEC
  0
SECTION
  2
BLOCKS
  0
BLOCK
  8
0
  2
FILLET004
 70
0
 10
0.0
 20
0.0
 30
0.0
  3
FILLET004
  0
LINE
  8
0
 62
0
 10
37.5
 20
-4.35
 30
0.0
 11
45.5
 21
-4.35
 31
0.0
  0
ARC
  8
0
 62
0
 10
37.5
 20
-3.35
 30
0.0
 40
1.0
 50
-180.0
 51
-90.0
  0
ARC
  8
0
 62
0
 10
45.5
 20
-5.35
 30
0.0
 40
1.0
 50
-0.0
 51
90.0
  0
LINE
  8
0
 62
0
 10
36.5
 20
-3.35
 30
0.0
 11
36.5
 21
2.65
 31
0.0
  0
LINE
  8
0
 62
0
 10
46.5
 20
-5.35
 30
0.0
 11
46.5
 21
-5.36
 31
0.0
  0
ARC
  8
0
 62
0
 10
37.5
 20
2.65
 30
0.0
 40
1.0
 50
90.0
 51
-180.0
  0
ARC
  8
0
 62
0
 10
47.5
 20
-5.36
 30
0.0
 40
1.0
 50
-180.0
 51
-90.0
  0
LINE
  8
0
 62
0
 10
37.5
 20
3.65
 30
0.0
 11
65.5
 21
3.65
 31
0.0
  0
LINE
  8
0
 62
0
 10
47.5
 20
-6.36
 30
0.0
 11
55.5
 21
-6.36
 31
0.0
  0
ARC
  8
0
 62
0
 10
65.5
 20
2.65
 30
0.0
 40
1.0
 50
-0.0
 51
90.0
  0
ARC
  8
0
 62
0
 10
55.5
 20
-5.36
 30
0.0
 40
1.0
 50
-90.0
 51
-0.0
  0
LINE
  8
0
 62
0
 10
66.5
 20
2.65
 30
0.0
 11
66.5
 21
-3.35
 31
0.0
  0
LINE
  8
0
 62
0
 10
56.5
 20
-5.36
 30
0.0
 11
56.5
 21
-5.35
 31
0.0
  0
ARC
  8
0
 62
0
 10
65.5
 20
-3.35
 30
0.0
 40
1.0
 50
-90.0
 51
-0.0
  0
ARC
  8
0
 62
0
 10
57.5
 20
-5.35
 30
0.0
 40
1.0
 50
90.0
 51
-180.0
  0
LINE
  8
0
 62
0
 10
57.5
 20
-4.35
 30
0.0
 11
65.5
 21
-4.35
 31
0.0
  0
LINE
  8
0
 62
0
 10
42.5
 20
13.0
 30
0.0
 11
42.5
 21
16.0
 31
0.0
  0
LINE
  8
0
 62
0
 10
42.5
 20
16.0
 30
0.0
 11
32.5
 21
16.0
 31
0.0
  0
LINE
  8
0
 62
0
 10
32.5
 20
16.0
 30
0.0
 11
32.5
 21
13.0
 31
0.0
  0
LINE
  8
0
 62
0
 10
32.5
 20
13.0
 30
0.0
 11
29.0
 21
13.0
 31
0.0
  0
LINE
  8
0
 62
0
 10
29.0
 20
13.0
 30
0.0
 11
29.0
 21
-47.5
 31
0.0
  0
LINE
  8
0
 62
0
 10
29.0
 20
-47.5
 30
0.0
 11
46.5
 21
-47.5
 31
0.0
  0
LINE
  8
0
 62
0
 10
46.5
 20
-47.5
 30
0.0
 11
46.5
 21
-49.5
 31
0.0
  0
LINE
  8
0
 62
0
 10
46.5
 20
-49.5
 30
0.0
 11
56.5
 21
-49.5
 31
0.0
  0
LINE
  8
0
 62
0
 10
56.5
 20
-49.5
 30
0.0
 11
56.5
 21
-47.5
 31
0.0
  0
LINE
  8
0
 62
0
 10
56.5
 20
-47.5
 30
0.0
 11
74.0
 21
-47.5
 31
0.0
  0
LINE
  8
0
 62
0
 10
74.0
 20
-47.5
 30
0.0
 11
74.0
 21
13.0
 31
0.0
  0
LINE
  8
0
 62
0
 10
74.0
 20
13.0
 30
0.0
 11
70.5
 21
13.0
 31
0.0
  0
LINE
  8
0
 62
0
 10
70.5
 20
16.0
 30
0.0
 11
70.5
 21
13.0
 31
0.0
  0
LINE
  8
0
 62
0
 10
60.5
 20
16.0
 30
0.0
 11
70.5
 21
16.0
 31
0.0
  0
LINE
  8
0
 62
0
 10
60.5
 20
13.0
 30
0.0
 11
60.5
 21
16.0
 31
0.0
  0
LINE
  8
0
 62
0
 10
42.5
 20
13.0
 30
0.0
 11
60.5
 21
13.0
 31
0.0
  0
LINE
  8
0
 62
0
 10
59.1
 20
-15.75
 30
0.0
 11
68.9
 21
-15.75
 31
0.0
  0
LINE
  8
0
 62
0
 10
68.9
 20
-15.75
 30
0.0
 11
68.9
 21
-18.75
 31
0.0
  0
LINE
  8
0
 62
0
 10
68.9
 20
-18.75
 30
0.0
 11
59.1
 21
-18.75
 31
0.0
  0
LINE
  8
0
 62
0
 10
59.1
 20
-18.75
 30
0.0
 11
59.1
 21
-15.75
 31
0.0
  0
LINE
  8
0
 62
0
 10
34.1
 20
-15.75
 30
0.0
 11
43.9
 21
-15.75
 31
0.0
  0
LINE
  8
0
 62
0
 10
43.9
 20
-15.75
 30
0.0
 11
43.9
 21
-18.75
 31
0.0
  0
LINE
  8
0
 62
0
 10
43.9
 20
-18.75
 30
0.0
 11
34.1
 21
-18.75
 31
0.0
  0
LINE
  8
0
 62
0
 10
34.1
 20
-18.75
 30
0.0
 11
34.1
 21
-15.75
 31
0.0
  0
LINE
  8
0
 62
0
 10
57.5
 20
-36.1
 30
0.0
 11
65.5
 21
-36.1
 31
0.0
  0
ARC
  8
0
 62
0
 10
57.5
 20
-37.1
 30
0.0
 40
1.0
 50
90.0
 51
-180.0
  0
ARC
  8
0
 62
0
 10
65.5
 20
-35.1
 30
0.0
 40
1.0
 50
-90.0
 51
-0.0
  0
LINE
  8
0
 62
0
 10
56.5
 20
-37.11
 30
0.0
 11
56.5
 21
-37.1
 31
0.0
  0
LINE
  8
0
 62
0
 10
66.5
 20
-35.1
 30
0.0
 11
66.5
 21
-29.1
 31
0.0
  0
ARC
  8
0
 62
0
 10
55.5
 20
-37.11
 30
0.0
 40
1.0
 50
-90.0
 51
-0.0
  0
ARC
  8
0
 62
0
 10
65.5
 20
-29.1
 30
0.0
 40
1.0
 50
-0.0
 51
90.0
  0
LINE
  8
0
 62
0
 10
47.5
 20
-38.11
 30
0.0
 11
55.5
 21
-38.11
 31
0.0
  0
LINE
  8
0
 62
0
 10
65.5
 20
-28.1
 30
0.0
 11
37.5
 21
-28.1
 31
0.0
  0
ARC
  8
0
 62
0
 10
47.5
 20
-37.11
 30
0.0
 40
1.0
 50
-180.0
 51
-90.0
  0
ARC
  8
0
 62
0
 10
37.5
 20
-29.1
 30
0.0
 40
1.0
 50
90.0
 51
-180.0
  0
LINE
  8
0
 62
0
 10
46.5
 20
-37.1
 30
0.0
 11
46.5
 21
-37.11
 31
0.0
  0
LINE
  8
0
 62
0
 10
36.5
 20
-29.1
 30
0.0
 11
36.5
 21
-35.1
 31
0.0
  0
ARC
  8
0
 62
0
 10
45.5
 20
-37.1
 30
0.0
 40
1.0
 50
-0.0
 51
90.0
  0
ARC
  8
0
 62
0
 10
37.5
 20
-35.1
 30
0.0
 40
1.0
 50
-180.0
 51
-90.0
  0
LINE
  8
0
 62
0
 10
37.5
 20
-36.1
 30
0.0
 11
45.5
 21
-36.1
 31
0.0
  0
ENDBLK
  0
ENDSEC
  0
SECTION
  2
ENTITIES
  0
INSERT
  2
FILLET004
  8
0
 62
0
 10
0.0
 20
0.0
 30
0.0
  0
ENDSEC
  0
EOF
