  0
SECTION
  2
HEADER
  9
$ACADVER
  1
AC1009
  9
$INSBASE
 10
0.0
 20
0.0
 30
0.0
  9
$EXTMIN
 10
0.0
 20
0.0
 30
0.0
  9
$EXTMAX
 10
0.0
 20
0.0
 30
0.0
  0
ENDSEC
  0
SECTION
  2
TABLES
  0
TABLE
  2
VPORT
 70
0
  0
ENDTAB
  0
TABLE
  2
LTYPE
 70
1
  0
LTYPE
  2
CONTINUOUS
 70
0
  3
Solid line
 72
65
 73
0
 40
0.0
  0
ENDTAB
  0
TABLE
  2
LAYER
 70
1
  0
LAYER
  2
0
 70
64
 62
7
  6
continuous
  0
ENDTAB
  0
TABLE
  2
STYLE
 70
1
  0
STYLE
  2
STANDARD
 70
0
 40
0
 41
1.0
 50
0.0
 71
0
 42
1
 3
ARIAL.TTF
 4

  0
ENDTAB
  0
TABLE
  2
VIEW
 70
0
  0
ENDTAB
  0
ENDSEC
  0
SECTION
  2
BLOCKS
  0
BLOCK
  8
0
  2
FILLET005
 70
0
 10
0.0
 20
0.0
 30
0.0
  3
FILLET005
  0
LINE
  8
0
 62
0
 10
-69.5
 20
-17.0
 30
0.0
 11
-20.0
 21
-17.0
 31
0.0
  0
ARC
  8
0
 62
0
 10
-69.5
 20
-19.0
 30
0.0
 40
2.0
 50
90.0
 51
-180.0
  0
ARC
  8
0
 62
0
 10
-20.0
 20
-19.0
 30
0.0
 40
2.0
 50
-0.0
 51
90.0
  0
LINE
  8
0
 62
0
 10
-71.5
 20
-33.0
 30
0.0
 11
-71.5
 21
-19.0
 31
0.0
  0
LINE
  8
0
 62
0
 10
-18.0
 20
-19.0
 30
0.0
 11
-18.0
 21
-33.0
 31
0.0
  0
ARC
  8
0
 62
0
 10
-69.5
 20
-33.0
 30
0.0
 40
2.0
 50
-180.0
 51
-90.0
  0
ARC
  8
0
 62
0
 10
-20.0
 20
-33.0
 30
0.0
 40
2.0
 50
-90.0
 51
-0.0
  0
LINE
  8
0
 62
0
 10
-20.0
 20
-35.0
 30
0.0
 11
-69.5
 21
-35.0
 31
0.0
  0
LINE
  8
0
 62
0
 10
-47.5
 20
13.0
 30
0.0
 11
-47.5
 21
16.0
 31
0.0
  0
LINE
  8
0
 62
0
 10
-47.5
 20
16.0
 30
0.0
 11
-57.5
 21
16.0
 31
0.0
  0
LINE
  8
0
 62
0
 10
-57.5
 20
16.0
 30
0.0
 11
-57.5
 21
13.0
 31
0.0
  0
LINE
  8
0
 62
0
 10
-57.5
 20
13.0
 30
0.0
 11
-64.0
 21
13.0
 31
0.0
  0
LINE
  8
0
 62
0
 10
-64.0
 20
13.0
 30
0.0
 11
-64.0
 21
16.0
 31
0.0
  0
LINE
  8
0
 62
0
 10
-64.0
 20
16.0
 30
0.0
 11
-71.0
 21
16.0
 31
0.0
  0
LINE
  8
0
 62
0
 10
-71.0
 20
16.0
 30
0.0
 11
-71.0
 21
13.0
 31
0.0
  0
LINE
  8
0
 62
0
 10
-71.0
 20
13.0
 30
0.0
 11
-74.0
 21
13.0
 31
0.0
  0
LINE
  8
0
 62
0
 10
-74.0
 20
13.0
 30
0.0
 11
-74.0
 21
-47.5
 31
0.0
  0
LINE
  8
0
 62
0
 10
-74.0
 20
-47.5
 30
0.0
 11
-70.5
 21
-47.5
 31
0.0
  0
LINE
  8
0
 62
0
 10
-70.5
 20
-47.5
 30
0.0
 11
-70.5
 21
-49.5
 31
0.0
  0
LINE
  8
0
 62
0
 10
-70.5
 20
-49.5
 30
0.0
 11
-64.5
 21
-49.5
 31
0.0
  0
LINE
  8
0
 62
0
 10
-64.5
 20
-49.5
 30
0.0
 11
-64.5
 21
-47.5
 31
0.0
  0
LINE
  8
0
 62
0
 10
-64.5
 20
-47.5
 30
0.0
 11
-43.5
 21
-47.5
 31
0.0
  0
LINE
  8
0
 62
0
 10
-43.5
 20
-47.5
 30
0.0
 11
-43.5
 21
-49.5
 31
0.0
  0
LINE
  8
0
 62
0
 10
-43.5
 20
-49.5
 30
0.0
 11
-33.5
 21
-49.5
 31
0.0
  0
LINE
  8
0
 62
0
 10
-33.5
 20
-49.5
 30
0.0
 11
-33.5
 21
-47.5
 31
0.0
  0
LINE
  8
0
 62
0
 10
-33.5
 20
-47.5
 30
0.0
 11
-16.0
 21
-47.5
 31
0.0
  0
LINE
  8
0
 62
0
 10
-16.0
 20
-47.5
 30
0.0
 11
-16.0
 21
13.0
 31
0.0
  0
LINE
  8
0
 62
0
 10
-16.0
 20
13.0
 30
0.0
 11
-19.5
 21
13.0
 31
0.0
  0
LINE
  8
0
 62
0
 10
-19.5
 20
16.0
 30
0.0
 11
-19.5
 21
13.0
 31
0.0
  0
LINE
  8
0
 62
0
 10
-29.5
 20
16.0
 30
0.0
 11
-19.5
 21
16.0
 31
0.0
  0
LINE
  8
0
 62
0
 10
-29.5
 20
13.0
 30
0.0
 11
-29.5
 21
16.0
 31
0.0
  0
LINE
  8
0
 62
0
 10
-47.5
 20
13.0
 30
0.0
 11
-29.5
 21
13.0
 31
0.0
  0
ENDBLK
  0
ENDSEC
  0
SECTION
  2
ENTITIES
  0
INSERT
  2
FILLET005
  8
0
 62
0
 10
0.0
 20
0.0
 30
0.0
  0
ENDSEC
  0
EOF
