  0
SECTION
  2
HEADER
  9
$ACADVER
  1
AC1009
  9
$INSBASE
 10
0.0
 20
0.0
 30
0.0
  9
$EXTMIN
 10
0.0
 20
0.0
 30
0.0
  9
$EXTMAX
 10
0.0
 20
0.0
 30
0.0
  0
ENDSEC
  0
SECTION
  2
TABLES
  0
TABLE
  2
VPORT
 70
0
  0
ENDTAB
  0
TABLE
  2
LTYPE
 70
1
  0
LTYPE
  2
CONTINUOUS
 70
0
  3
Solid line
 72
65
 73
0
 40
0.0
  0
ENDTAB
  0
TABLE
  2
LAYER
 70
1
  0
LAYER
  2
0
 70
64
 62
7
  6
continuous
  0
ENDTAB
  0
TABLE
  2
STYLE
 70
1
  0
STYLE
  2
STANDARD
 70
0
 40
0
 41
1.0
 50
0.0
 71
0
 42
1
 3
ARIAL.TTF
 4

  0
ENDTAB
  0
TABLE
  2
VIEW
 70
0
  0
ENDTAB
  0
ENDSEC
  0
SECTION
  2
BLOCKS
  0
BLOCK
  8
0
  2
PAD019
 70
0
 10
0.0
 20
0.0
 30
0.0
  3
PAD019
  0
LINE
  8
0
 62
0
 10
29.0
 20
-47.5
 30
0.0
 11
29.0
 21
47.5
 31
0.0
  0
LINE
  8
0
 62
0
 10
29.0
 20
47.5
 30
0.0
 11
34.0
 21
47.5
 31
0.0
  0
LINE
  8
0
 62
0
 10
34.0
 20
47.5
 30
0.0
 11
34.0
 21
50.5
 31
0.0
  0
LINE
  8
0
 62
0
 10
34.0
 20
50.5
 30
0.0
 11
44.0
 21
50.5
 31
0.0
  0
LINE
  8
0
 62
0
 10
44.0
 20
50.5
 30
0.0
 11
44.0
 21
47.5
 31
0.0
  0
LINE
  8
0
 62
0
 10
44.0
 20
47.5
 30
0.0
 11
59.0
 21
47.5
 31
0.0
  0
LINE
  8
0
 62
0
 10
59.0
 20
47.5
 30
0.0
 11
59.0
 21
50.5
 31
0.0
  0
LINE
  8
0
 62
0
 10
59.0
 20
50.5
 30
0.0
 11
69.0
 21
50.5
 31
0.0
  0
LINE
  8
0
 62
0
 10
69.0
 20
50.5
 30
0.0
 11
69.0
 21
47.5
 31
0.0
  0
LINE
  8
0
 62
0
 10
69.0
 20
47.5
 30
0.0
 11
74.0
 21
47.5
 31
0.0
  0
LINE
  8
0
 62
0
 10
74.0
 20
47.5
 30
0.0
 11
74.0
 21
-47.5
 31
0.0
  0
LINE
  8
0
 62
0
 10
69.0
 20
-47.5
 30
0.0
 11
74.0
 21
-47.5
 31
0.0
  0
LINE
  8
0
 62
0
 10
69.0
 20
-50.5
 30
0.0
 11
69.0
 21
-47.5
 31
0.0
  0
LINE
  8
0
 62
0
 10
59.0
 20
-50.5
 30
0.0
 11
69.0
 21
-50.5
 31
0.0
  0
LINE
  8
0
 62
0
 10
59.0
 20
-47.5
 30
0.0
 11
59.0
 21
-50.5
 31
0.0
  0
LINE
  8
0
 62
0
 10
44.0
 20
-47.5
 30
0.0
 11
59.0
 21
-47.5
 31
0.0
  0
LINE
  8
0
 62
0
 10
44.0
 20
-50.5
 30
0.0
 11
44.0
 21
-47.5
 31
0.0
  0
LINE
  8
0
 62
0
 10
34.0
 20
-50.5
 30
0.0
 11
44.0
 21
-50.5
 31
0.0
  0
LINE
  8
0
 62
0
 10
34.0
 20
-47.5
 30
0.0
 11
34.0
 21
-50.5
 31
0.0
  0
LINE
  8
0
 62
0
 10
29.0
 20
-47.5
 30
0.0
 11
34.0
 21
-47.5
 31
0.0
  0
ARC
  8
0
 62
0
 10
44.0
 20
-7.5
 30
0.0
 40
2.0
 50
90.0
 51
-90.0
  0
LINE
  8
0
 62
0
 10
44.0
 20
-9.5
 30
0.0
 11
59.0
 21
-9.5
 31
0.0
  0
ARC
  8
0
 62
0
 10
59.0
 20
-7.5
 30
0.0
 40
2.0
 50
-90.0
 51
90.0
  0
LINE
  8
0
 62
0
 10
44.0
 20
-5.5
 30
0.0
 11
59.0
 21
-5.5
 31
0.0
  0
ARC
  8
0
 62
0
 10
44.0
 20
7.5
 30
0.0
 40
2.0
 50
90.0
 51
-90.0
  0
LINE
  8
0
 62
0
 10
44.0
 20
5.5
 30
0.0
 11
59.0
 21
5.5
 31
0.0
  0
ARC
  8
0
 62
0
 10
59.0
 20
7.5
 30
0.0
 40
2.0
 50
-90.0
 51
90.0
  0
LINE
  8
0
 62
0
 10
44.0
 20
9.5
 30
0.0
 11
59.0
 21
9.5
 31
0.0
  0
CIRCLE
  8
0
 62
0
 10
34.0
 20
-42.5
 30
0.0
 40
1.5
  0
CIRCLE
  8
0
 62
0
 10
69.0
 20
-42.5
 30
0.0
 40
1.5
  0
CIRCLE
  8
0
 62
0
 10
34.0
 20
7.5
 30
0.0
 40
1.5
  0
CIRCLE
  8
0
 62
0
 10
69.0
 20
7.5
 30
0.0
 40
1.5
  0
CIRCLE
  8
0
 62
0
 10
69.0
 20
42.5
 30
0.0
 40
1.5
  0
CIRCLE
  8
0
 62
0
 10
34.0
 20
42.5
 30
0.0
 40
1.5
  0
CIRCLE
  8
0
 62
0
 10
69.0
 20
-7.5
 30
0.0
 40
1.5
  0
CIRCLE
  8
0
 62
0
 10
34.0
 20
-7.5
 30
0.0
 40
1.5
  0
ENDBLK
  0
ENDSEC
  0
SECTION
  2
ENTITIES
  0
INSERT
  2
PAD019
  8
0
 62
0
 10
0.0
 20
0.0
 30
0.0
  0
ENDSEC
  0
EOF
