  0
SECTION
  2
HEADER
  9
$ACADVER
  1
AC1009
  9
$INSBASE
 10
0.0
 20
0.0
 30
0.0
  9
$EXTMIN
 10
0.0
 20
0.0
 30
0.0
  9
$EXTMAX
 10
0.0
 20
0.0
 30
0.0
  0
ENDSEC
  0
SECTION
  2
TABLES
  0
TABLE
  2
VPORT
 70
0
  0
ENDTAB
  0
TABLE
  2
LTYPE
 70
1
  0
LTYPE
  2
CONTINUOUS
 70
0
  3
Solid line
 72
65
 73
0
 40
0.0
  0
ENDTAB
  0
TABLE
  2
LAYER
 70
1
  0
LAYER
  2
0
 70
64
 62
7
  6
continuous
  0
ENDTAB
  0
TABLE
  2
STYLE
 70
1
  0
STYLE
  2
STANDARD
 70
0
 40
0
 41
1.0
 50
0.0
 71
0
 42
1
 3
ARIAL.TTF
 4

  0
ENDTAB
  0
TABLE
  2
VIEW
 70
0
  0
ENDTAB
  0
ENDSEC
  0
SECTION
  2
BLOCKS
  0
BLOCK
  8
0
  2
FILLET006
 70
0
 10
0.0
 20
0.0
 30
0.0
  3
FILLET006
  0
LINE
  8
0
 62
0
 10
-74.0
 20
50.5
 30
0.0
 11
-74.0
 21
44.5
 31
0.0
  0
ARC
  8
0
 62
0
 10
-71.0
 20
50.5
 30
0.0
 40
3.0
 50
90.0
 51
-180.0
  0
LINE
  8
0
 62
0
 10
-74.0
 20
44.5
 30
0.0
 11
-84.0
 21
44.5
 31
0.0
  0
LINE
  8
0
 62
0
 10
-71.0
 20
53.5
 30
0.0
 11
71.0
 21
53.5
 31
0.0
  0
ARC
  8
0
 62
0
 10
-84.0
 20
41.5
 30
0.0
 40
3.0
 50
90.0
 51
-180.0
  0
ARC
  8
0
 62
0
 10
71.0
 20
50.5
 30
0.0
 40
3.0
 50
-0.0
 51
90.0
  0
LINE
  8
0
 62
0
 10
-87.0
 20
41.5
 30
0.0
 11
-87.0
 21
32.7758407438
 31
0.0
  0
LINE
  8
0
 62
0
 10
74.0
 20
50.5
 30
0.0
 11
74.0
 21
44.5
 31
0.0
  0
ARC
  8
0
 62
0
 10
-84.0
 20
32.7758407438
 30
0.0
 40
3.0
 50
-180.0
 51
-147.449996508
  0
LINE
  8
0
 62
0
 10
74.0
 20
44.5
 30
0.0
 11
84.0
 21
44.5
 31
0.0
  0
LINE
  8
0
 62
0
 10
-86.5287666287
 20
31.161734385
 30
0.0
 11
-81.4712333713
 21
23.238265615
 31
0.0
  0
ARC
  8
0
 62
0
 10
84.0
 20
41.5
 30
0.0
 40
3.0
 50
-0.0
 51
90.0
  0
ARC
  8
0
 62
0
 10
-84.0
 20
21.6241592562
 30
0.0
 40
3.0
 50
-0.0
 51
32.5500034922
  0
LINE
  8
0
 62
0
 10
87.0
 20
32.7758407438
 30
0.0
 11
87.0
 21
41.5
 31
0.0
  0
LINE
  8
0
 62
0
 10
-81.0
 20
21.6241592562
 30
0.0
 11
-81.0
 21
-21.6241592562
 31
0.0
  0
ARC
  8
0
 62
0
 10
84.0
 20
32.7758407438
 30
0.0
 40
3.0
 50
-32.5500034922
 51
-0.0
  0
ARC
  8
0
 62
0
 10
-84.0
 20
-21.6241592562
 30
0.0
 40
3.0
 50
-32.5500034922
 51
-0.0
  0
LINE
  8
0
 62
0
 10
81.4712333713
 20
23.238265615
 30
0.0
 11
86.5287666287
 21
31.161734385
 31
0.0
  0
LINE
  8
0
 62
0
 10
-81.4712333713
 20
-23.238265615
 30
0.0
 11
-86.5287666287
 21
-31.161734385
 31
0.0
  0
ARC
  8
0
 62
0
 10
84.0
 20
21.6241592562
 30
0.0
 40
3.0
 50
147.449996508
 51
-180.0
  0
ARC
  8
0
 62
0
 10
-84.0
 20
-32.7758407438
 30
0.0
 40
3.0
 50
147.449996508
 51
-180.0
  0
LINE
  8
0
 62
0
 10
81.0
 20
-21.6241592562
 30
0.0
 11
81.0
 21
21.6241592562
 31
0.0
  0
LINE
  8
0
 62
0
 10
-87.0
 20
-32.7758407438
 30
0.0
 11
-87.0
 21
-50.5
 31
0.0
  0
ARC
  8
0
 62
0
 10
84.0
 20
-21.6241592562
 30
0.0
 40
3.0
 50
-180.0
 51
-147.449996508
  0
ARC
  8
0
 62
0
 10
-84.0
 20
-50.5
 30
0.0
 40
3.0
 50
-180.0
 51
-90.0
  0
LINE
  8
0
 62
0
 10
86.5287666287
 20
-31.161734385
 30
0.0
 11
81.4712333713
 21
-23.238265615
 31
0.0
  0
LINE
  8
0
 62
0
 10
84.0
 20
-53.5
 30
0.0
 11
-84.0
 21
-53.5
 31
0.0
  0
ARC
  8
0
 62
0
 10
84.0
 20
-32.7758407438
 30
0.0
 40
3.0
 50
-0.0
 51
32.5500034922
  0
ARC
  8
0
 62
0
 10
84.0
 20
-50.5
 30
0.0
 40
3.0
 50
-90.0
 51
-0.0
  0
LINE
  8
0
 62
0
 10
87.0
 20
-50.5
 30
0.0
 11
87.0
 21
-32.7758407438
 31
0.0
  0
LINE
  8
0
 62
0
 10
-77.0
 20
-38.4
 30
0.0
 11
-77.0
 21
-18.6
 31
0.0
  0
LINE
  8
0
 62
0
 10
-74.0
 20
-38.4
 30
0.0
 11
-77.0
 21
-38.4
 31
0.0
  0
LINE
  8
0
 62
0
 10
-74.0
 20
-18.6
 30
0.0
 11
-74.0
 21
-38.4
 31
0.0
  0
LINE
  8
0
 62
0
 10
-77.0
 20
-18.6
 30
0.0
 11
-74.0
 21
-18.6
 31
0.0
  0
LINE
  8
0
 62
0
 10
74.0
 20
-38.4
 30
0.0
 11
74.0
 21
-18.6
 31
0.0
  0
LINE
  8
0
 62
0
 10
77.0
 20
-38.4
 30
0.0
 11
74.0
 21
-38.4
 31
0.0
  0
LINE
  8
0
 62
0
 10
77.0
 20
-18.6
 30
0.0
 11
77.0
 21
-38.4
 31
0.0
  0
LINE
  8
0
 62
0
 10
74.0
 20
-18.6
 30
0.0
 11
77.0
 21
-18.6
 31
0.0
  0
LINE
  8
0
 62
0
 10
70.45
 20
50.5
 30
0.0
 11
60.55
 21
50.5
 31
0.0
  0
LINE
  8
0
 62
0
 10
60.55
 20
50.5
 30
0.0
 11
60.55
 21
47.5
 31
0.0
  0
LINE
  8
0
 62
0
 10
60.55
 20
47.5
 30
0.0
 11
70.45
 21
47.5
 31
0.0
  0
LINE
  8
0
 62
0
 10
70.45
 20
47.5
 30
0.0
 11
70.45
 21
50.5
 31
0.0
  0
LINE
  8
0
 62
0
 10
70.45
 20
-47.5
 30
0.0
 11
70.45
 21
-50.5
 31
0.0
  0
LINE
  8
0
 62
0
 10
60.55
 20
-47.5
 30
0.0
 11
70.45
 21
-47.5
 31
0.0
  0
LINE
  8
0
 62
0
 10
60.55
 20
-50.5
 30
0.0
 11
60.55
 21
-47.5
 31
0.0
  0
LINE
  8
0
 62
0
 10
70.45
 20
-50.5
 30
0.0
 11
60.55
 21
-50.5
 31
0.0
  0
LINE
  8
0
 62
0
 10
25.45
 20
50.5
 30
0.0
 11
15.55
 21
50.5
 31
0.0
  0
LINE
  8
0
 62
0
 10
15.55
 20
50.5
 30
0.0
 11
15.55
 21
47.5
 31
0.0
  0
LINE
  8
0
 62
0
 10
15.55
 20
47.5
 30
0.0
 11
25.45
 21
47.5
 31
0.0
  0
LINE
  8
0
 62
0
 10
25.45
 20
47.5
 30
0.0
 11
25.45
 21
50.5
 31
0.0
  0
LINE
  8
0
 62
0
 10
15.55
 20
-50.5
 30
0.0
 11
25.45
 21
-50.5
 31
0.0
  0
LINE
  8
0
 62
0
 10
25.45
 20
-50.5
 30
0.0
 11
25.45
 21
-47.5
 31
0.0
  0
LINE
  8
0
 62
0
 10
25.45
 20
-47.5
 30
0.0
 11
15.55
 21
-47.5
 31
0.0
  0
LINE
  8
0
 62
0
 10
15.55
 20
-47.5
 30
0.0
 11
15.55
 21
-50.5
 31
0.0
  0
LINE
  8
0
 62
0
 10
42.45
 20
50.5
 30
0.0
 11
32.55
 21
50.5
 31
0.0
  0
LINE
  8
0
 62
0
 10
32.55
 20
50.5
 30
0.0
 11
32.55
 21
47.5
 31
0.0
  0
LINE
  8
0
 62
0
 10
32.55
 20
47.5
 30
0.0
 11
42.45
 21
47.5
 31
0.0
  0
LINE
  8
0
 62
0
 10
42.45
 20
47.5
 30
0.0
 11
42.45
 21
50.5
 31
0.0
  0
LINE
  8
0
 62
0
 10
-2.55
 20
50.5
 30
0.0
 11
-12.45
 21
50.5
 31
0.0
  0
LINE
  8
0
 62
0
 10
-12.45
 20
50.5
 30
0.0
 11
-12.45
 21
47.5
 31
0.0
  0
LINE
  8
0
 62
0
 10
-12.45
 20
47.5
 30
0.0
 11
-2.55
 21
47.5
 31
0.0
  0
LINE
  8
0
 62
0
 10
-2.55
 20
47.5
 30
0.0
 11
-2.55
 21
50.5
 31
0.0
  0
LINE
  8
0
 62
0
 10
-19.55
 20
50.5
 30
0.0
 11
-29.45
 21
50.5
 31
0.0
  0
LINE
  8
0
 62
0
 10
-29.45
 20
50.5
 30
0.0
 11
-29.45
 21
47.5
 31
0.0
  0
LINE
  8
0
 62
0
 10
-29.45
 20
47.5
 30
0.0
 11
-19.55
 21
47.5
 31
0.0
  0
LINE
  8
0
 62
0
 10
-19.55
 20
47.5
 30
0.0
 11
-19.55
 21
50.5
 31
0.0
  0
LINE
  8
0
 62
0
 10
-57.45
 20
47.5
 30
0.0
 11
-57.45
 21
50.5
 31
0.0
  0
LINE
  8
0
 62
0
 10
-47.55
 20
47.5
 30
0.0
 11
-57.45
 21
47.5
 31
0.0
  0
LINE
  8
0
 62
0
 10
-47.55
 20
50.5
 30
0.0
 11
-47.55
 21
47.5
 31
0.0
  0
LINE
  8
0
 62
0
 10
-57.45
 20
50.5
 30
0.0
 11
-47.55
 21
50.5
 31
0.0
  0
LINE
  8
0
 62
0
 10
-29.45
 20
-50.5
 30
0.0
 11
-19.55
 21
-50.5
 31
0.0
  0
LINE
  8
0
 62
0
 10
-19.55
 20
-50.5
 30
0.0
 11
-19.55
 21
-47.5
 31
0.0
  0
LINE
  8
0
 62
0
 10
-19.55
 20
-47.5
 30
0.0
 11
-29.45
 21
-47.5
 31
0.0
  0
LINE
  8
0
 62
0
 10
-29.45
 20
-47.5
 30
0.0
 11
-29.45
 21
-50.5
 31
0.0
  0
LINE
  8
0
 62
0
 10
-12.45
 20
-50.5
 30
0.0
 11
-2.55
 21
-50.5
 31
0.0
  0
LINE
  8
0
 62
0
 10
-2.55
 20
-50.5
 30
0.0
 11
-2.55
 21
-47.5
 31
0.0
  0
LINE
  8
0
 62
0
 10
-2.55
 20
-47.5
 30
0.0
 11
-12.45
 21
-47.5
 31
0.0
  0
LINE
  8
0
 62
0
 10
-12.45
 20
-47.5
 30
0.0
 11
-12.45
 21
-50.5
 31
0.0
  0
LINE
  8
0
 62
0
 10
32.55
 20
-50.5
 30
0.0
 11
42.45
 21
-50.5
 31
0.0
  0
LINE
  8
0
 62
0
 10
42.45
 20
-50.5
 30
0.0
 11
42.45
 21
-47.5
 31
0.0
  0
LINE
  8
0
 62
0
 10
42.45
 20
-47.5
 30
0.0
 11
32.55
 21
-47.5
 31
0.0
  0
LINE
  8
0
 62
0
 10
32.55
 20
-47.5
 30
0.0
 11
32.55
 21
-50.5
 31
0.0
  0
LINE
  8
0
 62
0
 10
-57.45
 20
-50.5
 30
0.0
 11
-47.55
 21
-50.5
 31
0.0
  0
LINE
  8
0
 62
0
 10
-47.55
 20
-50.5
 30
0.0
 11
-47.55
 21
-47.5
 31
0.0
  0
LINE
  8
0
 62
0
 10
-47.55
 20
-47.5
 30
0.0
 11
-57.45
 21
-47.5
 31
0.0
  0
LINE
  8
0
 62
0
 10
-57.45
 20
-47.5
 30
0.0
 11
-57.45
 21
-50.5
 31
0.0
  0
LINE
  8
0
 62
0
 10
-70.95
 20
-50.5
 30
0.0
 11
-64.05
 21
-50.5
 31
0.0
  0
LINE
  8
0
 62
0
 10
-64.05
 20
-50.5
 30
0.0
 11
-64.05
 21
-47.5
 31
0.0
  0
LINE
  8
0
 62
0
 10
-64.05
 20
-47.5
 30
0.0
 11
-70.95
 21
-47.5
 31
0.0
  0
LINE
  8
0
 62
0
 10
-70.95
 20
-47.5
 30
0.0
 11
-70.95
 21
-50.5
 31
0.0
  0
LINE
  8
0
 62
0
 10
-70.95
 20
47.5
 30
0.0
 11
-70.95
 21
50.5
 31
0.0
  0
LINE
  8
0
 62
0
 10
-64.05
 20
47.5
 30
0.0
 11
-70.95
 21
47.5
 31
0.0
  0
LINE
  8
0
 62
0
 10
-64.05
 20
50.5
 30
0.0
 11
-64.05
 21
47.5
 31
0.0
  0
LINE
  8
0
 62
0
 10
-70.95
 20
50.5
 30
0.0
 11
-64.05
 21
50.5
 31
0.0
  0
CIRCLE
  8
0
 62
0
 10
-81.95
 20
36.9
 30
0.0
 40
1.5
  0
CIRCLE
  8
0
 62
0
 10
81.95
 20
36.9
 30
0.0
 40
1.5
  0
CIRCLE
  8
0
 62
0
 10
81.95
 20
-36.9
 30
0.0
 40
1.5
  0
CIRCLE
  8
0
 62
0
 10
-81.95
 20
-36.9
 30
0.0
 40
1.5
  0
LINE
  8
0
 62
0
 10
-71.0
 20
-41.5
 30
0.0
 11
-71.0
 21
41.5
 31
0.0
  0
ARC
  8
0
 62
0
 10
-68.0
 20
-41.5
 30
0.0
 40
3.0
 50
-180.0
 51
-90.0
  0
ARC
  8
0
 62
0
 10
-68.0
 20
41.5
 30
0.0
 40
3.0
 50
90.0
 51
-180.0
  0
LINE
  8
0
 62
0
 10
68.0
 20
-44.5
 30
0.0
 11
-68.0
 21
-44.5
 31
0.0
  0
LINE
  8
0
 62
0
 10
-68.0
 20
44.5
 30
0.0
 11
68.0
 21
44.5
 31
0.0
  0
ARC
  8
0
 62
0
 10
68.0
 20
-41.5
 30
0.0
 40
3.0
 50
-90.0
 51
-0.0
  0
ARC
  8
0
 62
0
 10
68.0
 20
41.5
 30
0.0
 40
3.0
 50
-0.0
 51
90.0
  0
LINE
  8
0
 62
0
 10
71.0
 20
41.5
 30
0.0
 11
71.0
 21
-41.5
 31
0.0
  0
ENDBLK
  0
ENDSEC
  0
SECTION
  2
ENTITIES
  0
INSERT
  2
FILLET006
  8
0
 62
0
 10
0.0
 20
0.0
 30
0.0
  0
ENDSEC
  0
EOF
