  0
SECTION
  2
HEADER
  9
$ACADVER
  1
AC1009
  9
$INSBASE
 10
0.0
 20
0.0
 30
0.0
  9
$EXTMIN
 10
0.0
 20
0.0
 30
0.0
  9
$EXTMAX
 10
0.0
 20
0.0
 30
0.0
  0
ENDSEC
  0
SECTION
  2
TABLES
  0
TABLE
  2
VPORT
 70
0
  0
ENDTAB
  0
TABLE
  2
LTYPE
 70
1
  0
LTYPE
  2
CONTINUOUS
 70
0
  3
Solid line
 72
65
 73
0
 40
0.0
  0
ENDTAB
  0
TABLE
  2
LAYER
 70
1
  0
LAYER
  2
0
 70
64
 62
7
  6
continuous
  0
ENDTAB
  0
TABLE
  2
STYLE
 70
1
  0
STYLE
  2
STANDARD
 70
0
 40
0
 41
1.0
 50
0.0
 71
0
 42
1
 3
ARIAL.TTF
 4

  0
ENDTAB
  0
TABLE
  2
VIEW
 70
0
  0
ENDTAB
  0
ENDSEC
  0
SECTION
  2
BLOCKS
  0
BLOCK
  8
0
  2
FILLET012
 70
0
 10
0.0
 20
0.0
 30
0.0
  3
FILLET012
  0
LINE
  8
0
 62
0
 10
-92.75
 20
22.0
 30
0.0
 11
-67.35
 21
22.0
 31
0.0
  0
ARC
  8
0
 62
0
 10
-92.75
 20
21.0
 30
0.0
 40
1.0
 50
90.0
 51
-180.0
  0
ARC
  8
0
 62
0
 10
-67.35
 20
23.0
 30
0.0
 40
1.0
 50
-90.0
 51
-0.0
  0
LINE
  8
0
 62
0
 10
-93.75
 20
11.0
 30
0.0
 11
-93.75
 21
21.0
 31
0.0
  0
LINE
  8
0
 62
0
 10
-66.35
 20
23.0
 30
0.0
 11
-66.35
 21
32.1
 31
0.0
  0
ARC
  8
0
 62
0
 10
-92.75
 20
11.0
 30
0.0
 40
1.0
 50
-180.0
 51
-90.0
  0
ARC
  8
0
 62
0
 10
-65.35
 20
32.1
 30
0.0
 40
1.0
 50
90.0
 51
-180.0
  0
LINE
  8
0
 62
0
 10
-41.75
 20
10.0
 30
0.0
 11
-92.75
 21
10.0
 31
0.0
  0
LINE
  8
0
 62
0
 10
-65.35
 20
33.1
 30
0.0
 11
-58.35
 21
33.1
 31
0.0
  0
ARC
  8
0
 62
0
 10
-41.75
 20
11.0
 30
0.0
 40
1.0
 50
-90.0
 51
-0.0
  0
ARC
  8
0
 62
0
 10
-58.35
 20
32.1
 30
0.0
 40
1.0
 50
-0.0
 51
90.0
  0
LINE
  8
0
 62
0
 10
-40.75
 20
29.55
 30
0.0
 11
-40.75
 21
11.0
 31
0.0
  0
LINE
  8
0
 62
0
 10
-57.35
 20
32.1
 30
0.0
 11
-57.35
 21
31.55
 31
0.0
  0
ARC
  8
0
 62
0
 10
-41.75
 20
29.55
 30
0.0
 40
1.0
 50
-0.0
 51
90.0
  0
ARC
  8
0
 62
0
 10
-56.35
 20
31.55
 30
0.0
 40
1.0
 50
-180.0
 51
-90.0
  0
LINE
  8
0
 62
0
 10
-56.35
 20
30.55
 30
0.0
 11
-41.75
 21
30.55
 31
0.0
  0
LINE
  8
0
 62
0
 10
-127.5
 20
60.5
 30
0.0
 11
-127.5
 21
2.7
 31
0.0
  0
ARC
  8
0
 62
0
 10
-126.8
 20
2.7
 30
0.0
 40
0.7
 50
180.0
 51
-90.0
  0
LINE
  8
0
 62
0
 10
-112.5
 20
60.5
 30
0.0
 11
-127.5
 21
60.5
 31
0.0
  0
LINE
  8
0
 62
0
 10
-126.8
 20
2.0
 30
0.0
 11
-125.3
 21
2.0
 31
0.0
  0
LINE
  8
0
 62
0
 10
-112.5
 20
63.5
 30
0.0
 11
-112.5
 21
60.5
 31
0.0
  0
ARC
  8
0
 62
0
 10
-125.3
 20
1.3
 30
0.0
 40
0.7
 50
0.0
 51
90.0
  0
LINE
  8
0
 62
0
 10
-92.5
 20
63.5
 30
0.0
 11
-112.5
 21
63.5
 31
0.0
  0
LINE
  8
0
 62
0
 10
-124.6
 20
1.3
 30
0.0
 11
-124.6
 21
0.0
 31
0.0
  0
LINE
  8
0
 62
0
 10
-92.5
 20
60.5
 30
0.0
 11
-92.5
 21
63.5
 31
0.0
  0
LINE
  8
0
 62
0
 10
-124.6
 20
0.0
 30
0.0
 11
-112.5
 21
0.0
 31
0.0
  0
LINE
  8
0
 62
0
 10
-75.5
 20
60.5
 30
0.0
 11
-92.5
 21
60.5
 31
0.0
  0
LINE
  8
0
 62
0
 10
-112.5
 20
0.0
 30
0.0
 11
-112.5
 21
-2.0
 31
0.0
  0
LINE
  8
0
 62
0
 10
-75.5
 20
60.5
 30
0.0
 11
-72.5
 21
60.5
 31
0.0
  0
LINE
  8
0
 62
0
 10
-112.5
 20
-2.0
 30
0.0
 11
-92.5
 21
-2.0
 31
0.0
  0
LINE
  8
0
 62
0
 10
-29.5
 20
60.5
 30
0.0
 11
-72.5
 21
60.5
 31
0.0
  0
LINE
  8
0
 62
0
 10
-92.5
 20
-2.0
 30
0.0
 11
-92.5
 21
0.0
 31
0.0
  0
LINE
  8
0
 62
0
 10
-29.5
 20
65.0
 30
0.0
 11
-29.5
 21
60.5
 31
0.0
  0
LINE
  8
0
 62
0
 10
-92.5
 20
0.0
 30
0.0
 11
-75.5
 21
0.0
 31
0.0
  0
ARC
  8
0
 62
0
 10
-25.0
 20
65.0
 30
0.0
 40
4.5
 50
-0.0
 51
-180.0
  0
LINE
  8
0
 62
0
 10
-75.5
 20
0.0
 30
0.0
 11
-72.5
 21
0.0
 31
0.0
  0
LINE
  8
0
 62
0
 10
-20.5
 20
2.7
 30
0.0
 11
-20.5
 21
65.0
 31
0.0
  0
LINE
  8
0
 62
0
 10
-72.5
 20
0.0
 30
0.0
 11
-55.5
 21
0.0
 31
0.0
  0
ARC
  8
0
 62
0
 10
-21.2
 20
2.7
 30
0.0
 40
0.7
 50
-90.0
 51
-0.0
  0
LINE
  8
0
 62
0
 10
-55.5
 20
0.0
 30
0.0
 11
-55.5
 21
-2.0
 31
0.0
  0
LINE
  8
0
 62
0
 10
-21.2
 20
2.0
 30
0.0
 11
-22.7
 21
2.0
 31
0.0
  0
LINE
  8
0
 62
0
 10
-55.5
 20
-2.0
 30
0.0
 11
-35.5
 21
-2.0
 31
0.0
  0
ARC
  8
0
 62
0
 10
-22.7
 20
1.3
 30
0.0
 40
0.7
 50
90.0
 51
-180.0
  0
LINE
  8
0
 62
0
 10
-35.5
 20
-2.0
 30
0.0
 11
-35.5
 21
0.0
 31
0.0
  0
LINE
  8
0
 62
0
 10
-23.4
 20
1.3
 30
0.0
 11
-23.4
 21
0.0
 31
0.0
  0
LINE
  8
0
 62
0
 10
-35.5
 20
0.0
 30
0.0
 11
-23.4
 21
0.0
 31
0.0
  0
CIRCLE
  8
0
 62
0
 10
-25.0
 20
65.0
 30
0.0
 40
2.1
  0
ENDBLK
  0
ENDSEC
  0
SECTION
  2
ENTITIES
  0
INSERT
  2
FILLET012
  8
0
 62
0
 10
0.0
 20
0.0
 30
0.0
  0
ENDSEC
  0
EOF
