0
SECTION
2
HEADER
9
$INSUNITS
70
4
9
$ACADVER
1
AC1014
9
$HANDSEED
5
FFFF
0
ENDSEC
0
SECTION
2
TABLES
0
TABLE
2
VPORT
5
8
100
AcDbSymbolTable
0
ENDTAB
0
TABLE
2
LTYPE
5
5
100
AcDbSymbolTable
0
LTYPE
5
14
100
AcDbSymbolTableRecord
100
AcDbLinetypeTableRecord
2
BYBLOCK
70
0
0
LTYPE
5
15
100
AcDbSymbolTableRecord
100
AcDbLinetypeTableRecord
2
BYLAYER
70
0
0
ENDTAB
0
TABLE
2
LAYER
5
2
100
AcDbSymbolTable
70
2
0
LAYER
5
50
100
AcDbSymbolTableRecord
100
AcDbLayerTableRecord
2
0
70
0
6
CONTINUOUS
0
ENDTAB
0
TABLE
2
STYLE
5
3
100
AcDbSymbolTable
70
1
0
STYLE
5
11
100
AcDbSymbolTableRecord
100
AcDbTextStyleTableRecord
2
STANDARD
70
0
0
ENDTAB
0
TABLE
2
VIEW
5
6
100
AcDbSymbolTable
70
0
0
ENDTAB
0
TABLE
2
UCS
5
7
100
AcDbSymbolTable
70
0
0
ENDTAB
0
TABLE
2
APPID
5
9
100
AcDbSymbolTable
70
2
0
APPID
5
12
100
AcDbSymbolTableRecord
100
AcDbRegAppTableRecord
2
ACAD
70
0
0
ENDTAB
0
TABLE
2
DIMSTYLE
5
A
100
AcDbSymbolTable
70
1
0
ENDTAB
0
TABLE
2
BLOCK_RECORD
5
1
100
AcDbSymbolTable
70
1
0
BLOCK_RECORD
5
1F
100
AcDbSymbolTableRecord
100
AcDbBlockTableRecord
2
*MODEL_SPACE
0
BLOCK_RECORD
5
1B
100
AcDbSymbolTableRecord
100
AcDbBlockTableRecord
2
*PAPER_SPACE
0
ENDTAB
0
ENDSEC
0
SECTION
2
BLOCKS
0
BLOCK
5
20
100
AcDbEntity
100
AcDbBlockBegin
2
*MODEL_SPACE
0
ENDBLK
5
21
100
AcDbEntity
100
AcDbBlockEnd
0
BLOCK
5
1C
100
AcDbEntity
100
AcDbBlockBegin
2
*PAPER_SPACE
0
ENDBLK
5
1D
100
AcDbEntity
100
AcDbBlockEnd
0
ENDSEC
0
SECTION
2
ENTITIES
0
CIRCLE
5
100
100
AcDbEntity
8
0
100
AcDbCircle
10
42.702253388418605
20
-55.095103426161586
30
0
40
1.3499999999999979
210
0
220
-0
230
1
0
CIRCLE
5
101
100
AcDbEntity
8
0
100
AcDbCircle
10
-15.297746611581386
20
-55.095103426161586
30
0
40
1.3500000000000001
210
0
220
-0
230
1
0
CIRCLE
5
102
100
AcDbEntity
8
0
100
AcDbCircle
10
42.702253388418605
20
-78.095103426161586
30
0
40
1.3499999999999979
210
0
220
-0
230
1
0
CIRCLE
5
103
100
AcDbEntity
8
0
100
AcDbCircle
10
-15.297746611581413
20
-78.095103426161586
30
0
40
1.3500000000000001
210
0
220
-0
230
1
0
CIRCLE
5
104
100
AcDbEntity
8
0
100
AcDbCircle
10
-23.797746611581381
20
-43.595103426161586
30
0
40
1.4999999999999991
210
0
220
-0
230
1
0
CIRCLE
5
105
100
AcDbEntity
8
0
100
AcDbCircle
10
-23.797746611581381
20
-63.595103426161586
30
0
40
1.4999999999999991
210
0
220
-0
230
1
0
CIRCLE
5
106
100
AcDbEntity
8
0
100
AcDbCircle
10
41.202253388418619
20
-73.595103426161586
30
0
40
1.5000000000000036
210
0
220
-0
230
1
0
CIRCLE
5
107
100
AcDbEntity
8
0
100
AcDbCircle
10
-8.7977466115813829
20
-48.595103426161586
30
0
40
1.4999999999999991
210
0
220
-0
230
1
0
CIRCLE
5
108
100
AcDbEntity
8
0
100
AcDbCircle
10
6.2022533884186171
20
-48.595103426161586
30
0
40
1.4999999999999991
210
0
220
-0
230
1
0
CIRCLE
5
109
100
AcDbEntity
8
0
100
AcDbCircle
10
41.202253388418619
20
-38.595103426161586
30
0
40
1.5000000000000036
210
0
220
-0
230
1
0
CIRCLE
5
110
100
AcDbEntity
8
0
100
AcDbCircle
10
41.202253388418619
20
-63.595103426161586
30
0
40
1.5000000000000036
210
0
220
-0
230
1
0
CIRCLE
5
111
100
AcDbEntity
8
0
100
AcDbCircle
10
21.202253388418619
20
-63.595103426161586
30
0
40
1.4999999999999991
210
0
220
-0
230
1
0
CIRCLE
5
112
100
AcDbEntity
8
0
100
AcDbCircle
10
21.202253388418619
20
-43.595103426161586
30
0
40
1.4999999999999991
210
0
220
-0
230
1
0
CIRCLE
5
113
100
AcDbEntity
8
0
100
AcDbCircle
10
31.202253388418619
20
-38.595103426161586
30
0
40
1.4999999999999991
210
0
220
-0
230
1
0
CIRCLE
5
114
100
AcDbEntity
8
0
100
AcDbCircle
10
46.202253388418619
20
-33.595103426161586
30
0
40
1.5000000000000036
210
0
220
-0
230
1
0
CIRCLE
5
115
100
AcDbEntity
8
0
100
AcDbCircle
10
26.202253388418619
20
-73.595103426161586
30
0
40
1.4999999999999991
210
0
220
-0
230
1
0
CIRCLE
5
116
100
AcDbEntity
8
0
100
AcDbCircle
10
16.202253388418619
20
-68.595103426161586
30
0
40
1.4999999999999991
210
0
220
-0
230
1
0
CIRCLE
5
117
100
AcDbEntity
8
0
100
AcDbCircle
10
26.202253388418619
20
-43.595103426161586
30
0
40
1.4999999999999991
210
0
220
-0
230
1
0
CIRCLE
5
118
100
AcDbEntity
8
0
100
AcDbCircle
10
46.202253388418619
20
-48.595103426161586
30
0
40
1.5000000000000036
210
0
220
-0
230
1
0
CIRCLE
5
119
100
AcDbEntity
8
0
100
AcDbCircle
10
1.2022533884186171
20
-73.595103426161586
30
0
40
1.4999999999999991
210
0
220
-0
230
1
0
CIRCLE
5
120
100
AcDbEntity
8
0
100
AcDbCircle
10
41.202253388418619
20
-43.595103426161586
30
0
40
1.5000000000000036
210
0
220
-0
230
1
0
CIRCLE
5
121
100
AcDbEntity
8
0
100
AcDbCircle
10
11.202253388418617
20
-43.595103426161586
30
0
40
1.4999999999999991
210
0
220
-0
230
1
0
CIRCLE
5
122
100
AcDbEntity
8
0
100
AcDbCircle
10
-13.797746611581383
20
-48.595103426161586
30
0
40
1.4999999999999991
210
0
220
-0
230
1
0
CIRCLE
5
123
100
AcDbEntity
8
0
100
AcDbCircle
10
11.202253388418617
20
-38.595103426161586
30
0
40
1.4999999999999991
210
0
220
-0
230
1
0
CIRCLE
5
124
100
AcDbEntity
8
0
100
AcDbCircle
10
1.2022533884186171
20
-33.595103426161586
30
0
40
1.4999999999999991
210
0
220
-0
230
1
0
CIRCLE
5
125
100
AcDbEntity
8
0
100
AcDbCircle
10
-3.7977466115813829
20
-38.595103426161586
30
0
40
1.4999999999999993
210
0
220
-0
230
1
0
CIRCLE
5
126
100
AcDbEntity
8
0
100
AcDbCircle
10
6.2022533884186171
20
-33.595103426161586
30
0
40
1.4999999999999991
210
0
220
-0
230
1
0
CIRCLE
5
127
100
AcDbEntity
8
0
100
AcDbCircle
10
16.202253388418619
20
-53.595103426161586
30
0
40
1.4999999999999991
210
0
220
-0
230
1
0
CIRCLE
5
128
100
AcDbEntity
8
0
100
AcDbCircle
10
-3.7977466115813829
20
-68.595103426161586
30
0
40
1.4999999999999993
210
0
220
-0
230
1
0
CIRCLE
5
129
100
AcDbEntity
8
0
100
AcDbCircle
10
11.202253388418617
20
-68.595103426161586
30
0
40
1.4999999999999991
210
0
220
-0
230
1
0
CIRCLE
5
130
100
AcDbEntity
8
0
100
AcDbCircle
10
6.2022533884186171
20
-68.595103426161586
30
0
40
1.4999999999999991
210
0
220
-0
230
1
0
CIRCLE
5
131
100
AcDbEntity
8
0
100
AcDbCircle
10
16.202253388418619
20
-63.595103426161586
30
0
40
1.4999999999999991
210
0
220
-0
230
1
0
CIRCLE
5
132
100
AcDbEntity
8
0
100
AcDbCircle
10
6.2022533884186171
20
-53.595103426161586
30
0
40
1.4999999999999991
210
0
220
-0
230
1
0
CIRCLE
5
133
100
AcDbEntity
8
0
100
AcDbCircle
10
-3.7977466115813829
20
-53.595103426161586
30
0
40
1.4999999999999993
210
0
220
-0
230
1
0
CIRCLE
5
134
100
AcDbEntity
8
0
100
AcDbCircle
10
-18.797746611581381
20
-53.595103426161586
30
0
40
1.4999999999999991
210
0
220
-0
230
1
0
CIRCLE
5
135
100
AcDbEntity
8
0
100
AcDbCircle
10
-18.797746611581381
20
-58.595103426161586
30
0
40
1.4999999999999991
210
0
220
-0
230
1
0
CIRCLE
5
136
100
AcDbEntity
8
0
100
AcDbCircle
10
46.202253388418619
20
-53.595103426161586
30
0
40
1.5000000000000036
210
0
220
-0
230
1
0
CIRCLE
5
137
100
AcDbEntity
8
0
100
AcDbCircle
10
31.202253388418619
20
-58.595103426161586
30
0
40
1.4999999999999991
210
0
220
-0
230
1
0
CIRCLE
5
138
100
AcDbEntity
8
0
100
AcDbCircle
10
36.202253388418619
20
-53.595103426161586
30
0
40
1.4999999999999991
210
0
220
-0
230
1
0
CIRCLE
5
139
100
AcDbEntity
8
0
100
AcDbCircle
10
36.202253388418619
20
-58.595103426161586
30
0
40
1.4999999999999991
210
0
220
-0
230
1
0
CIRCLE
5
140
100
AcDbEntity
8
0
100
AcDbCircle
10
31.202253388418619
20
-53.595103426161586
30
0
40
1.4999999999999991
210
0
220
-0
230
1
0
CIRCLE
5
141
100
AcDbEntity
8
0
100
AcDbCircle
10
21.202253388418619
20
-33.595103426161586
30
0
40
1.4999999999999991
210
0
220
-0
230
1
0
CIRCLE
5
142
100
AcDbEntity
8
0
100
AcDbCircle
10
21.202253388418619
20
-53.595103426161586
30
0
40
1.4999999999999991
210
0
220
-0
230
1
0
CIRCLE
5
143
100
AcDbEntity
8
0
100
AcDbCircle
10
-3.7977466115813829
20
-58.595103426161586
30
0
40
1.4999999999999993
210
0
220
-0
230
1
0
CIRCLE
5
144
100
AcDbEntity
8
0
100
AcDbCircle
10
-8.7977466115813829
20
-58.595103426161586
30
0
40
1.4999999999999991
210
0
220
-0
230
1
0
CIRCLE
5
145
100
AcDbEntity
8
0
100
AcDbCircle
10
11.202253388418617
20
-58.595103426161586
30
0
40
1.4999999999999991
210
0
220
-0
230
1
0
CIRCLE
5
146
100
AcDbEntity
8
0
100
AcDbCircle
10
16.202253388418619
20
-58.595103426161586
30
0
40
1.4999999999999991
210
0
220
-0
230
1
0
CIRCLE
5
147
100
AcDbEntity
8
0
100
AcDbCircle
10
1.2022533884186171
20
-58.595103426161586
30
0
40
1.4999999999999991
210
0
220
-0
230
1
0
CIRCLE
5
148
100
AcDbEntity
8
0
100
AcDbCircle
10
-8.7977466115813829
20
-73.595103426161586
30
0
40
1.4999999999999991
210
0
220
-0
230
1
0
CIRCLE
5
149
100
AcDbEntity
8
0
100
AcDbCircle
10
-8.7977466115813829
20
-63.595103426161586
30
0
40
1.4999999999999991
210
0
220
-0
230
1
0
CIRCLE
5
150
100
AcDbEntity
8
0
100
AcDbCircle
10
-3.7977466115813829
20
-73.595103426161586
30
0
40
1.4999999999999993
210
0
220
-0
230
1
0
CIRCLE
5
151
100
AcDbEntity
8
0
100
AcDbCircle
10
6.2022533884186171
20
-58.595103426161586
30
0
40
1.4999999999999991
210
0
220
-0
230
1
0
CIRCLE
5
152
100
AcDbEntity
8
0
100
AcDbCircle
10
-3.7977466115813829
20
-33.595103426161586
30
0
40
1.4999999999999993
210
0
220
-0
230
1
0
CIRCLE
5
153
100
AcDbEntity
8
0
100
AcDbCircle
10
6.2022533884186171
20
-38.595103426161586
30
0
40
1.4999999999999991
210
0
220
-0
230
1
0
CIRCLE
5
154
100
AcDbEntity
8
0
100
AcDbCircle
10
-13.797746611581383
20
-38.595103426161586
30
0
40
1.4999999999999991
210
0
220
-0
230
1
0
CIRCLE
5
155
100
AcDbEntity
8
0
100
AcDbCircle
10
16.202253388418619
20
-38.595103426161586
30
0
40
1.4999999999999991
210
0
220
-0
230
1
0
CIRCLE
5
156
100
AcDbEntity
8
0
100
AcDbCircle
10
-18.797746611581381
20
-48.595103426161586
30
0
40
1.4999999999999991
210
0
220
-0
230
1
0
CIRCLE
5
157
100
AcDbEntity
8
0
100
AcDbCircle
10
16.202253388418619
20
-43.595103426161586
30
0
40
1.4999999999999991
210
0
220
-0
230
1
0
CIRCLE
5
158
100
AcDbEntity
8
0
100
AcDbCircle
10
11.202253388418617
20
-73.595103426161586
30
0
40
1.4999999999999991
210
0
220
-0
230
1
0
CIRCLE
5
159
100
AcDbEntity
8
0
100
AcDbCircle
10
36.202253388418619
20
-68.595103426161586
30
0
40
1.4999999999999991
210
0
220
-0
230
1
0
CIRCLE
5
160
100
AcDbEntity
8
0
100
AcDbCircle
10
51.202253388418619
20
-68.595103426161586
30
0
40
1.5000000000000036
210
0
220
-0
230
1
0
CIRCLE
5
161
100
AcDbEntity
8
0
100
AcDbCircle
10
16.202253388418619
20
-73.595103426161586
30
0
40
1.4999999999999991
210
0
220
-0
230
1
0
CIRCLE
5
162
100
AcDbEntity
8
0
100
AcDbCircle
10
6.2022533884186171
20
-73.595103426161586
30
0
40
1.4999999999999991
210
0
220
-0
230
1
0
CIRCLE
5
163
100
AcDbEntity
8
0
100
AcDbCircle
10
21.202253388418619
20
-73.595103426161586
30
0
40
1.4999999999999991
210
0
220
-0
230
1
0
CIRCLE
5
164
100
AcDbEntity
8
0
100
AcDbCircle
10
51.202253388418619
20
-58.595103426161586
30
0
40
1.5000000000000036
210
0
220
-0
230
1
0
CIRCLE
5
165
100
AcDbEntity
8
0
100
AcDbCircle
10
36.202253388418619
20
-33.595103426161586
30
0
40
1.4999999999999991
210
0
220
-0
230
1
0
CIRCLE
5
166
100
AcDbEntity
8
0
100
AcDbCircle
10
31.202253388418619
20
-63.595103426161586
30
0
40
1.4999999999999991
210
0
220
-0
230
1
0
CIRCLE
5
167
100
AcDbEntity
8
0
100
AcDbCircle
10
31.202253388418619
20
-33.595103426161586
30
0
40
1.4999999999999991
210
0
220
-0
230
1
0
CIRCLE
5
168
100
AcDbEntity
8
0
100
AcDbCircle
10
51.202253388418619
20
-38.595103426161586
30
0
40
1.5000000000000036
210
0
220
-0
230
1
0
CIRCLE
5
169
100
AcDbEntity
8
0
100
AcDbCircle
10
21.202253388418619
20
-38.595103426161586
30
0
40
1.4999999999999991
210
0
220
-0
230
1
0
CIRCLE
5
170
100
AcDbEntity
8
0
100
AcDbCircle
10
11.202253388418617
20
-48.595103426161586
30
0
40
1.4999999999999991
210
0
220
-0
230
1
0
CIRCLE
5
171
100
AcDbEntity
8
0
100
AcDbCircle
10
1.2022533884186171
20
-48.595103426161586
30
0
40
1.4999999999999991
210
0
220
-0
230
1
0
CIRCLE
5
172
100
AcDbEntity
8
0
100
AcDbCircle
10
36.202253388418619
20
-73.595103426161586
30
0
40
1.4999999999999991
210
0
220
-0
230
1
0
CIRCLE
5
173
100
AcDbEntity
8
0
100
AcDbCircle
10
-23.797746611581381
20
-58.595103426161586
30
0
40
1.4999999999999991
210
0
220
-0
230
1
0
CIRCLE
5
174
100
AcDbEntity
8
0
100
AcDbCircle
10
-23.797746611581381
20
-38.595103426161586
30
0
40
1.4999999999999991
210
0
220
-0
230
1
0
CIRCLE
5
175
100
AcDbEntity
8
0
100
AcDbCircle
10
-23.797746611581381
20
-48.595103426161586
30
0
40
1.4999999999999991
210
0
220
-0
230
1
0
CIRCLE
5
176
100
AcDbEntity
8
0
100
AcDbCircle
10
-23.797746611581381
20
-68.595103426161586
30
0
40
1.4999999999999991
210
0
220
-0
230
1
0
CIRCLE
5
177
100
AcDbEntity
8
0
100
AcDbCircle
10
46.202253388418619
20
-73.595103426161586
30
0
40
1.5000000000000036
210
0
220
-0
230
1
0
CIRCLE
5
178
100
AcDbEntity
8
0
100
AcDbCircle
10
-3.7977466115813829
20
-48.595103426161586
30
0
40
1.4999999999999993
210
0
220
-0
230
1
0
CIRCLE
5
179
100
AcDbEntity
8
0
100
AcDbCircle
10
31.202253388418619
20
-68.595103426161586
30
0
40
1.4999999999999991
210
0
220
-0
230
1
0
CIRCLE
5
180
100
AcDbEntity
8
0
100
AcDbCircle
10
46.202253388418619
20
-38.595103426161586
30
0
40
1.5000000000000036
210
0
220
-0
230
1
0
CIRCLE
5
181
100
AcDbEntity
8
0
100
AcDbCircle
10
36.202253388418619
20
-38.595103426161586
30
0
40
1.4999999999999991
210
0
220
-0
230
1
0
CIRCLE
5
182
100
AcDbEntity
8
0
100
AcDbCircle
10
36.202253388418619
20
-63.595103426161586
30
0
40
1.4999999999999991
210
0
220
-0
230
1
0
CIRCLE
5
183
100
AcDbEntity
8
0
100
AcDbCircle
10
26.202253388418619
20
-68.595103426161586
30
0
40
1.4999999999999991
210
0
220
-0
230
1
0
CIRCLE
5
184
100
AcDbEntity
8
0
100
AcDbCircle
10
46.202253388418619
20
-58.595103426161586
30
0
40
1.5000000000000036
210
0
220
-0
230
1
0
CIRCLE
5
185
100
AcDbEntity
8
0
100
AcDbCircle
10
26.202253388418619
20
-38.595103426161586
30
0
40
1.4999999999999991
210
0
220
-0
230
1
0
CIRCLE
5
186
100
AcDbEntity
8
0
100
AcDbCircle
10
36.202253388418619
20
-48.595103426161586
30
0
40
1.4999999999999991
210
0
220
-0
230
1
0
CIRCLE
5
187
100
AcDbEntity
8
0
100
AcDbCircle
10
26.202253388418619
20
-48.595103426161586
30
0
40
1.4999999999999991
210
0
220
-0
230
1
0
CIRCLE
5
188
100
AcDbEntity
8
0
100
AcDbCircle
10
31.202253388418619
20
-43.595103426161586
30
0
40
1.4999999999999991
210
0
220
-0
230
1
0
CIRCLE
5
189
100
AcDbEntity
8
0
100
AcDbCircle
10
51.202253388418619
20
-43.595103426161586
30
0
40
1.5000000000000036
210
0
220
-0
230
1
0
CIRCLE
5
190
100
AcDbEntity
8
0
100
AcDbCircle
10
41.202253388418619
20
-68.595103426161586
30
0
40
1.5000000000000036
210
0
220
-0
230
1
0
CIRCLE
5
191
100
AcDbEntity
8
0
100
AcDbCircle
10
31.202253388418619
20
-73.595103426161586
30
0
40
1.4999999999999991
210
0
220
-0
230
1
0
CIRCLE
5
192
100
AcDbEntity
8
0
100
AcDbCircle
10
6.2022533884186171
20
-43.595103426161586
30
0
40
1.4999999999999991
210
0
220
-0
230
1
0
CIRCLE
5
193
100
AcDbEntity
8
0
100
AcDbCircle
10
-18.797746611581381
20
-43.595103426161586
30
0
40
1.4999999999999991
210
0
220
-0
230
1
0
CIRCLE
5
194
100
AcDbEntity
8
0
100
AcDbCircle
10
-3.7977466115813829
20
-43.595103426161586
30
0
40
1.4999999999999993
210
0
220
-0
230
1
0
CIRCLE
5
195
100
AcDbEntity
8
0
100
AcDbCircle
10
-8.7977466115813829
20
-38.595103426161586
30
0
40
1.4999999999999991
210
0
220
-0
230
1
0
CIRCLE
5
196
100
AcDbEntity
8
0
100
AcDbCircle
10
-8.7977466115813829
20
-33.595103426161586
30
0
40
1.4999999999999991
210
0
220
-0
230
1
0
CIRCLE
5
197
100
AcDbEntity
8
0
100
AcDbCircle
10
11.202253388418617
20
-33.595103426161586
30
0
40
1.4999999999999991
210
0
220
-0
230
1
0
CIRCLE
5
198
100
AcDbEntity
8
0
100
AcDbCircle
10
1.2022533884186171
20
-53.595103426161586
30
0
40
1.4999999999999991
210
0
220
-0
230
1
0
CIRCLE
5
199
100
AcDbEntity
8
0
100
AcDbCircle
10
-13.797746611581383
20
-68.595103426161586
30
0
40
1.4999999999999991
210
0
220
-0
230
1
0
CIRCLE
5
200
100
AcDbEntity
8
0
100
AcDbCircle
10
11.202253388418617
20
-63.595103426161586
30
0
40
1.4999999999999991
210
0
220
-0
230
1
0
CIRCLE
5
201
100
AcDbEntity
8
0
100
AcDbCircle
10
-3.7977466115813829
20
-63.595103426161586
30
0
40
1.4999999999999993
210
0
220
-0
230
1
0
CIRCLE
5
202
100
AcDbEntity
8
0
100
AcDbCircle
10
-13.797746611581383
20
-73.595103426161586
30
0
40
1.4999999999999991
210
0
220
-0
230
1
0
CIRCLE
5
203
100
AcDbEntity
8
0
100
AcDbCircle
10
-8.7977466115813829
20
-68.595103426161586
30
0
40
1.4999999999999991
210
0
220
-0
230
1
0
CIRCLE
5
204
100
AcDbEntity
8
0
100
AcDbCircle
10
-13.797746611581383
20
-58.595103426161586
30
0
40
1.4999999999999991
210
0
220
-0
230
1
0
CIRCLE
5
205
100
AcDbEntity
8
0
100
AcDbCircle
10
-13.797746611581383
20
-63.595103426161586
30
0
40
1.4999999999999991
210
0
220
-0
230
1
0
CIRCLE
5
206
100
AcDbEntity
8
0
100
AcDbCircle
10
-18.797746611581381
20
-33.595103426161586
30
0
40
1.4999999999999991
210
0
220
-0
230
1
0
CIRCLE
5
207
100
AcDbEntity
8
0
100
AcDbCircle
10
51.202253388418619
20
-53.595103426161586
30
0
40
1.5000000000000036
210
0
220
-0
230
1
0
CIRCLE
5
208
100
AcDbEntity
8
0
100
AcDbCircle
10
26.202253388418619
20
-33.595103426161586
30
0
40
1.4999999999999991
210
0
220
-0
230
1
0
CIRCLE
5
209
100
AcDbEntity
8
0
100
AcDbCircle
10
26.202253388418619
20
-53.595103426161586
30
0
40
1.4999999999999991
210
0
220
-0
230
1
0
CIRCLE
5
210
100
AcDbEntity
8
0
100
AcDbCircle
10
21.202253388418619
20
-58.595103426161586
30
0
40
1.4999999999999991
210
0
220
-0
230
1
0
CIRCLE
5
211
100
AcDbEntity
8
0
100
AcDbCircle
10
41.202253388418619
20
-58.595103426161586
30
0
40
1.5000000000000036
210
0
220
-0
230
1
0
CIRCLE
5
212
100
AcDbEntity
8
0
100
AcDbCircle
10
26.202253388418619
20
-58.595103426161586
30
0
40
1.4999999999999991
210
0
220
-0
230
1
0
CIRCLE
5
213
100
AcDbEntity
8
0
100
AcDbCircle
10
-8.7977466115813829
20
-53.595103426161586
30
0
40
1.4999999999999991
210
0
220
-0
230
1
0
CIRCLE
5
214
100
AcDbEntity
8
0
100
AcDbCircle
10
-18.797746611581381
20
-63.595103426161586
30
0
40
1.4999999999999991
210
0
220
-0
230
1
0
CIRCLE
5
215
100
AcDbEntity
8
0
100
AcDbCircle
10
-13.797746611581383
20
-33.595103426161586
30
0
40
1.4999999999999991
210
0
220
-0
230
1
0
CIRCLE
5
216
100
AcDbEntity
8
0
100
AcDbCircle
10
6.2022533884186171
20
-63.595103426161586
30
0
40
1.4999999999999991
210
0
220
-0
230
1
0
CIRCLE
5
217
100
AcDbEntity
8
0
100
AcDbCircle
10
1.2022533884186171
20
-68.595103426161586
30
0
40
1.4999999999999991
210
0
220
-0
230
1
0
CIRCLE
5
218
100
AcDbEntity
8
0
100
AcDbCircle
10
1.2022533884186171
20
-63.595103426161586
30
0
40
1.4999999999999991
210
0
220
-0
230
1
0
CIRCLE
5
219
100
AcDbEntity
8
0
100
AcDbCircle
10
-18.797746611581381
20
-73.595103426161586
30
0
40
1.4999999999999991
210
0
220
-0
230
1
0
CIRCLE
5
220
100
AcDbEntity
8
0
100
AcDbCircle
10
-18.797746611581381
20
-68.595103426161586
30
0
40
1.4999999999999991
210
0
220
-0
230
1
0
CIRCLE
5
221
100
AcDbEntity
8
0
100
AcDbCircle
10
11.202253388418617
20
-53.595103426161586
30
0
40
1.4999999999999991
210
0
220
-0
230
1
0
CIRCLE
5
222
100
AcDbEntity
8
0
100
AcDbCircle
10
16.202253388418619
20
-33.595103426161586
30
0
40
1.4999999999999991
210
0
220
-0
230
1
0
CIRCLE
5
223
100
AcDbEntity
8
0
100
AcDbCircle
10
-18.797746611581381
20
-38.595103426161586
30
0
40
1.4999999999999991
210
0
220
-0
230
1
0
CIRCLE
5
224
100
AcDbEntity
8
0
100
AcDbCircle
10
1.2022533884186171
20
-38.595103426161586
30
0
40
1.4999999999999991
210
0
220
-0
230
1
0
CIRCLE
5
225
100
AcDbEntity
8
0
100
AcDbCircle
10
1.2022533884186171
20
-43.595103426161586
30
0
40
1.4999999999999991
210
0
220
-0
230
1
0
CIRCLE
5
226
100
AcDbEntity
8
0
100
AcDbCircle
10
-13.797746611581383
20
-43.595103426161586
30
0
40
1.4999999999999991
210
0
220
-0
230
1
0
CIRCLE
5
227
100
AcDbEntity
8
0
100
AcDbCircle
10
-8.7977466115813829
20
-43.595103426161586
30
0
40
1.4999999999999991
210
0
220
-0
230
1
0
CIRCLE
5
228
100
AcDbEntity
8
0
100
AcDbCircle
10
31.202253388418619
20
-48.595103426161586
30
0
40
1.4999999999999991
210
0
220
-0
230
1
0
CIRCLE
5
229
100
AcDbEntity
8
0
100
AcDbCircle
10
36.202253388418619
20
-43.595103426161586
30
0
40
1.4999999999999991
210
0
220
-0
230
1
0
CIRCLE
5
230
100
AcDbEntity
8
0
100
AcDbCircle
10
51.202253388418619
20
-48.595103426161586
30
0
40
1.5000000000000036
210
0
220
-0
230
1
0
CIRCLE
5
231
100
AcDbEntity
8
0
100
AcDbCircle
10
46.202253388418619
20
-43.595103426161586
30
0
40
1.5000000000000036
210
0
220
-0
230
1
0
CIRCLE
5
232
100
AcDbEntity
8
0
100
AcDbCircle
10
46.202253388418619
20
-68.595103426161586
30
0
40
1.5000000000000036
210
0
220
-0
230
1
0
CIRCLE
5
233
100
AcDbEntity
8
0
100
AcDbCircle
10
21.202253388418619
20
-48.595103426161586
30
0
40
1.4999999999999991
210
0
220
-0
230
1
0
CIRCLE
5
234
100
AcDbEntity
8
0
100
AcDbCircle
10
41.202253388418619
20
-48.595103426161586
30
0
40
1.5000000000000036
210
0
220
-0
230
1
0
CIRCLE
5
235
100
AcDbEntity
8
0
100
AcDbCircle
10
41.202253388418619
20
-33.595103426161586
30
0
40
1.5000000000000036
210
0
220
-0
230
1
0
CIRCLE
5
236
100
AcDbEntity
8
0
100
AcDbCircle
10
21.202253388418619
20
-68.595103426161586
30
0
40
1.4999999999999991
210
0
220
-0
230
1
0
CIRCLE
5
237
100
AcDbEntity
8
0
100
AcDbCircle
10
51.202253388418619
20
-33.595103426161586
30
0
40
1.5000000000000036
210
0
220
-0
230
1
0
CIRCLE
5
238
100
AcDbEntity
8
0
100
AcDbCircle
10
46.202253388418619
20
-63.595103426161586
30
0
40
1.5000000000000036
210
0
220
-0
230
1
0
CIRCLE
5
239
100
AcDbEntity
8
0
100
AcDbCircle
10
51.202253388418619
20
-63.595103426161586
30
0
40
1.5000000000000036
210
0
220
-0
230
1
0
CIRCLE
5
240
100
AcDbEntity
8
0
100
AcDbCircle
10
26.202253388418619
20
-63.595103426161586
30
0
40
1.4999999999999991
210
0
220
-0
230
1
0
CIRCLE
5
241
100
AcDbEntity
8
0
100
AcDbCircle
10
16.202253388418619
20
-48.595103426161586
30
0
40
1.4999999999999991
210
0
220
-0
230
1
0
CIRCLE
5
242
100
AcDbEntity
8
0
100
AcDbCircle
10
51.202253388418619
20
-73.595103426161586
30
0
40
1.5000000000000036
210
0
220
-0
230
1
0
CIRCLE
5
243
100
AcDbEntity
8
0
100
AcDbCircle
10
-23.797746611581381
20
-73.595103426161586
30
0
40
1.4999999999999991
210
0
220
-0
230
1
0
CIRCLE
5
244
100
AcDbEntity
8
0
100
AcDbCircle
10
-23.797746611581381
20
-53.595103426161586
30
0
40
1.4999999999999991
210
0
220
-0
230
1
0
CIRCLE
5
245
100
AcDbEntity
8
0
100
AcDbCircle
10
-23.797746611581381
20
-33.595103426161586
30
0
40
1.4999999999999991
210
0
220
-0
230
1
0
CIRCLE
5
246
100
AcDbEntity
8
0
100
AcDbCircle
10
52.702253388418605
20
-78.095103426161586
30
0
40
1.3500000000000068
210
0
220
0
230
1
0
CIRCLE
5
247
100
AcDbEntity
8
0
100
AcDbCircle
10
-5.2977466115814771
20
-78.095103426161586
30
0
40
1.3500000000000034
210
0
220
0
230
1
0
CIRCLE
5
248
100
AcDbEntity
8
0
100
AcDbCircle
10
-5.2977466115814309
20
-29.095103426161483
30
0
40
1.3500000000000034
210
0
220
0
230
1
0
CIRCLE
5
249
100
AcDbEntity
8
0
100
AcDbCircle
10
30.553900581562527
20
-21.316067086174609
30
0
40
1.6000000000000014
210
0
220
0
230
1
0
CIRCLE
5
250
100
AcDbEntity
8
0
100
AcDbCircle
10
-0.44609941843746004
20
-21.316067086174609
30
0
40
1.5999999999999996
210
0
220
0
230
1
0
CIRCLE
5
251
100
AcDbEntity
8
0
100
AcDbCircle
10
52.702253388418654
20
-29.095103426161483
30
0
40
1.3500000000000068
210
0
220
0
230
1
0
LWPOLYLINE
5
252
100
AcDbEntity
8
0
100
AcDbPolyline
90
8
70
1
43
0.0
10
-28.797746611581459
20
-20.816067086174563
42
-0.41421356237309548
10
-25.797746611581445
20
-17.816067086174556
10
53.202253388418654
20
-17.81606708617462
42
-0.41421356237309465
10
56.202253388418654
20
-20.816067086174613
10
56.202253388418612
20
-78.5951034261616
42
-0.41421356237309503
10
53.202253388418598
20
-81.5951034261616
10
-25.797746611581491
20
-81.5951034261616
42
-0.41421356237309503
10
-28.797746611581498
20
-78.5951034261616
0
ENDSEC
0
SECTION
2
OBJECTS
0
DICTIONARY
5
C
100
AcDbDictionary
3
ACAD_GROUP
350
D
3
ACAD_MLINESTYLE
350
17
0
DICTIONARY
5
D
100
AcDbDictionary
0
DICTIONARY
5
1A
330
C
100
AcDbDictionary
0
DICTIONARY
5
17
100
AcDbDictionary
0
ENDSEC
0
EOF
