  0
SECTION
  2
HEADER
  9
$ACADVER
  1
AC1009
  9
$INSBASE
 10
0.0
 20
0.0
 30
0.0
  9
$EXTMIN
 10
0.0
 20
0.0
 30
0.0
  9
$EXTMAX
 10
0.0
 20
0.0
 30
0.0
  0
ENDSEC
  0
SECTION
  2
TABLES
  0
TABLE
  2
VPORT
 70
0
  0
ENDTAB
  0
TABLE
  2
LTYPE
 70
1
  0
LTYPE
  2
CONTINUOUS
 70
0
  3
Solid line
 72
65
 73
0
 40
0.0
  0
ENDTAB
  0
TABLE
  2
LAYER
 70
1
  0
LAYER
  2
0
 70
64
 62
7
  6
continuous
  0
ENDTAB
  0
TABLE
  2
STYLE
 70
1
  0
STYLE
  2
STANDARD
 70
0
 40
0
 41
1.0
 50
0.0
 71
0
 42
1
 3
ARIAL.TTF
 4

  0
ENDTAB
  0
TABLE
  2
VIEW
 70
0
  0
ENDTAB
  0
ENDSEC
  0
SECTION
  2
BLOCKS
  0
BLOCK
  8
0
  2
FILLET001
 70
0
 10
0.0
 20
0.0
 30
0.0
  3
FILLET001
  0
LINE
  8
0
 62
0
 10
20.0
 20
-3.0
 30
0.0
 11
20.0
 21
5.0
 31
0.0
  0
ARC
  8
0
 62
0
 10
21.0
 20
5.0
 30
0.0
 40
1.0
 50
90.0
 51
180.0
  0
ARC
  8
0
 62
0
 10
17.0
 20
-3.0
 30
0.0
 40
3.0
 50
-90.0
 51
-0.0
  0
LINE
  8
0
 62
0
 10
21.0
 20
6.0
 30
0.0
 11
34.0
 21
6.0
 31
0.0
  0
LINE
  8
0
 62
0
 10
3.0
 20
-6.0
 30
0.0
 11
17.0
 21
-6.0
 31
0.0
  0
ARC
  8
0
 62
0
 10
34.0
 20
5.0
 30
0.0
 40
1.0
 50
0.0
 51
90.0
  0
ARC
  8
0
 62
0
 10
3.0
 20
-3.0
 30
0.0
 40
3.0
 50
180.0
 51
-90.0
  0
LINE
  8
0
 62
0
 10
35.0
 20
5.0
 30
0.0
 11
35.0
 21
-3.0
 31
0.0
  0
LINE
  8
0
 62
0
 10
0.0
 20
46.0
 30
0.0
 11
0.0
 21
-3.0
 31
0.0
  0
ARC
  8
0
 62
0
 10
38.0
 20
-3.0
 30
0.0
 40
3.0
 50
180.0
 51
-90.0
  0
ARC
  8
0
 62
0
 10
3.0
 20
46.0
 30
0.0
 40
3.0
 50
90.0
 51
-180.0
  0
LINE
  8
0
 62
0
 10
38.0
 20
-6.0
 30
0.0
 11
52.0
 21
-6.0
 31
0.0
  0
LINE
  8
0
 62
0
 10
3.0
 20
49.0
 30
0.0
 11
52.0
 21
49.0
 31
0.0
  0
ARC
  8
0
 62
0
 10
52.0
 20
-3.0
 30
0.0
 40
3.0
 50
-90.0
 51
0.0
  0
ARC
  8
0
 62
0
 10
52.0
 20
46.0
 30
0.0
 40
3.0
 50
-0.0
 51
90.0
  0
LINE
  8
0
 62
0
 10
55.0
 20
46.0
 30
0.0
 11
55.0
 21
-3.0
 31
0.0
  0
LINE
  8
0
 62
0
 10
3.1
 20
0.0
 30
0.0
 11
12.9
 21
0.0
 31
0.0
  0
LINE
  8
0
 62
0
 10
12.9
 20
0.0
 30
0.0
 11
12.9
 21
-3.0
 31
0.0
  0
LINE
  8
0
 62
0
 10
12.9
 20
-3.0
 30
0.0
 11
3.1
 21
-3.0
 31
0.0
  0
LINE
  8
0
 62
0
 10
3.1
 20
-3.0
 30
0.0
 11
3.1
 21
0.0
 31
0.0
  0
LINE
  8
0
 62
0
 10
49.0
 20
13.9
 30
0.0
 11
52.0
 21
13.9
 31
0.0
  0
LINE
  8
0
 62
0
 10
52.0
 20
13.9
 30
0.0
 11
52.0
 21
4.1
 31
0.0
  0
LINE
  8
0
 62
0
 10
52.0
 20
4.1
 30
0.0
 11
49.0
 21
4.1
 31
0.0
  0
LINE
  8
0
 62
0
 10
49.0
 20
4.1
 30
0.0
 11
49.0
 21
13.9
 31
0.0
  0
LINE
  8
0
 62
0
 10
3.0
 20
13.9
 30
0.0
 11
6.0
 21
13.9
 31
0.0
  0
LINE
  8
0
 62
0
 10
6.0
 20
13.9
 30
0.0
 11
6.0
 21
4.1
 31
0.0
  0
LINE
  8
0
 62
0
 10
6.0
 20
4.1
 30
0.0
 11
3.0
 21
4.1
 31
0.0
  0
LINE
  8
0
 62
0
 10
3.0
 20
4.1
 30
0.0
 11
3.0
 21
13.9
 31
0.0
  0
LINE
  8
0
 62
0
 10
10.1
 20
46.0
 30
0.0
 11
19.9
 21
46.0
 31
0.0
  0
LINE
  8
0
 62
0
 10
19.9
 20
46.0
 30
0.0
 11
19.9
 21
43.0
 31
0.0
  0
LINE
  8
0
 62
0
 10
19.9
 20
43.0
 30
0.0
 11
10.1
 21
43.0
 31
0.0
  0
LINE
  8
0
 62
0
 10
10.1
 20
43.0
 30
0.0
 11
10.1
 21
46.0
 31
0.0
  0
LINE
  8
0
 62
0
 10
42.1
 20
0.0
 30
0.0
 11
51.9
 21
0.0
 31
0.0
  0
LINE
  8
0
 62
0
 10
51.9
 20
0.0
 30
0.0
 11
51.9
 21
-3.0
 31
0.0
  0
LINE
  8
0
 62
0
 10
51.9
 20
-3.0
 30
0.0
 11
42.1
 21
-3.0
 31
0.0
  0
LINE
  8
0
 62
0
 10
42.1
 20
-3.0
 30
0.0
 11
42.1
 21
0.0
 31
0.0
  0
LINE
  8
0
 62
0
 10
35.1
 20
46.0
 30
0.0
 11
44.9
 21
46.0
 31
0.0
  0
LINE
  8
0
 62
0
 10
44.9
 20
46.0
 30
0.0
 11
44.9
 21
43.0
 31
0.0
  0
LINE
  8
0
 62
0
 10
44.9
 20
43.0
 30
0.0
 11
35.1
 21
43.0
 31
0.0
  0
LINE
  8
0
 62
0
 10
35.1
 20
43.0
 30
0.0
 11
35.1
 21
46.0
 31
0.0
  0
LINE
  8
0
 62
0
 10
49.0
 20
38.9
 30
0.0
 11
52.0
 21
38.9
 31
0.0
  0
LINE
  8
0
 62
0
 10
52.0
 20
38.9
 30
0.0
 11
52.0
 21
29.1
 31
0.0
  0
LINE
  8
0
 62
0
 10
52.0
 20
29.1
 30
0.0
 11
49.0
 21
29.1
 31
0.0
  0
LINE
  8
0
 62
0
 10
49.0
 20
29.1
 30
0.0
 11
49.0
 21
38.9
 31
0.0
  0
LINE
  8
0
 62
0
 10
3.0
 20
38.9
 30
0.0
 11
6.0
 21
38.9
 31
0.0
  0
LINE
  8
0
 62
0
 10
6.0
 20
38.9
 30
0.0
 11
6.0
 21
29.1
 31
0.0
  0
LINE
  8
0
 62
0
 10
6.0
 20
29.1
 30
0.0
 11
3.0
 21
29.1
 31
0.0
  0
LINE
  8
0
 62
0
 10
3.0
 20
29.1
 30
0.0
 11
3.0
 21
38.9
 31
0.0
  0
CIRCLE
  8
0
 62
0
 10
45.0
 20
39.0
 30
0.0
 40
1.5
  0
CIRCLE
  8
0
 62
0
 10
10.0
 20
39.0
 30
0.0
 40
1.5
  0
CIRCLE
  8
0
 62
0
 10
10.0
 20
4.0
 30
0.0
 40
1.5
  0
CIRCLE
  8
0
 62
0
 10
45.0
 20
4.0
 30
0.0
 40
1.5
  0
LINE
  8
0
 62
0
 10
22.5
 20
28.0
 30
0.0
 11
32.5
 21
28.0
 31
0.0
  0
ARC
  8
0
 62
0
 10
22.5
 20
27.0
 30
0.0
 40
1.0
 50
90.0
 51
180.0
  0
ARC
  8
0
 62
0
 10
32.5
 20
27.0
 30
0.0
 40
1.0
 50
0.0
 51
90.0
  0
LINE
  8
0
 62
0
 10
21.5
 20
16.0
 30
0.0
 11
21.5
 21
27.0
 31
0.0
  0
LINE
  8
0
 62
0
 10
33.5
 20
27.0
 30
0.0
 11
33.5
 21
16.0
 31
0.0
  0
ARC
  8
0
 62
0
 10
22.5
 20
16.0
 30
0.0
 40
1.0
 50
180.0
 51
-90.0
  0
ARC
  8
0
 62
0
 10
32.5
 20
16.0
 30
0.0
 40
1.0
 50
-90.0
 51
-0.0
  0
LINE
  8
0
 62
0
 10
32.5
 20
15.0
 30
0.0
 11
22.5
 21
15.0
 31
0.0
  0
ENDBLK
  0
ENDSEC
  0
SECTION
  2
ENTITIES
  0
INSERT
  2
FILLET001
  8
0
 62
0
 10
0.0
 20
0.0
 30
0.0
  0
ENDSEC
  0
EOF
