  0
SECTION
  2
HEADER
  9
$ACADVER
  1
AC1009
  9
$INSBASE
 10
0.0
 20
0.0
 30
0.0
  9
$EXTMIN
 10
0.0
 20
0.0
 30
0.0
  9
$EXTMAX
 10
0.0
 20
0.0
 30
0.0
  0
ENDSEC
  0
SECTION
  2
TABLES
  0
TABLE
  2
VPORT
 70
0
  0
ENDTAB
  0
TABLE
  2
LTYPE
 70
1
  0
LTYPE
  2
CONTINUOUS
 70
0
  3
Solid line
 72
65
 73
0
 40
0.0
  0
ENDTAB
  0
TABLE
  2
LAYER
 70
1
  0
LAYER
  2
0
 70
64
 62
7
  6
continuous
  0
ENDTAB
  0
TABLE
  2
STYLE
 70
1
  0
STYLE
  2
STANDARD
 70
0
 40
0
 41
1.0
 50
0.0
 71
0
 42
1
 3
ARIAL.TTF
 4

  0
ENDTAB
  0
TABLE
  2
VIEW
 70
0
  0
ENDTAB
  0
ENDSEC
  0
SECTION
  2
BLOCKS
  0
BLOCK
  8
0
  2
FILLET006
 70
0
 10
0.0
 20
0.0
 30
0.0
  3
FILLET006
  0
LINE
  8
0
 62
0
 10
25.0
 20
4.0
 30
0.0
 11
25.0
 21
3.0
 31
0.0
  0
ARC
  8
0
 62
0
 10
24.0
 20
4.0
 30
0.0
 40
1.0
 50
-0.0
 51
90.0
  0
ARC
  8
0
 62
0
 10
28.0
 20
3.0
 30
0.0
 40
3.0
 50
-180.0
 51
-90.0
  0
LINE
  8
0
 62
0
 10
11.0
 20
5.0
 30
0.0
 11
24.0
 21
5.0
 31
0.0
  0
LINE
  8
0
 62
0
 10
28.0
 20
6.16297582204e-33
 30
0.0
 11
29.0
 21
0.0
 31
0.0
  0
ARC
  8
0
 62
0
 10
11.0
 20
4.0
 30
0.0
 40
1.0
 50
90.0
 51
-180.0
  0
LINE
  8
0
 62
0
 10
29.0
 20
5.0
 30
0.0
 11
29.0
 21
0.0
 31
0.0
  0
LINE
  8
0
 62
0
 10
10.0
 20
3.0
 30
0.0
 11
10.0
 21
4.0
 31
0.0
  0
LINE
  8
0
 62
0
 10
32.0
 20
5.0
 30
0.0
 11
29.0
 21
5.0
 31
0.0
  0
ARC
  8
0
 62
0
 10
7.0
 20
3.0
 30
0.0
 40
3.0
 50
-90.0
 51
-0.0
  0
LINE
  8
0
 62
0
 10
32.0
 20
15.0
 30
0.0
 11
32.0
 21
5.0
 31
0.0
  0
LINE
  8
0
 62
0
 10
6.0
 20
0.0
 30
0.0
 11
7.0
 21
0.0
 31
0.0
  0
LINE
  8
0
 62
0
 10
29.0
 20
15.0
 30
0.0
 11
32.0
 21
15.0
 31
0.0
  0
LINE
  8
0
 62
0
 10
6.0
 20
0.0
 30
0.0
 11
6.0
 21
5.0
 31
0.0
  0
LINE
  8
0
 62
0
 10
29.0
 20
15.0
 30
0.0
 11
29.0
 21
42.0
 31
0.0
  0
LINE
  8
0
 62
0
 10
6.0
 20
5.0
 30
0.0
 11
3.0
 21
5.0
 31
0.0
  0
LINE
  8
0
 62
0
 10
29.0
 20
42.0
 30
0.0
 11
32.0
 21
42.0
 31
0.0
  0
LINE
  8
0
 62
0
 10
3.0
 20
5.0
 30
0.0
 11
3.0
 21
15.0
 31
0.0
  0
LINE
  8
0
 62
0
 10
32.0
 20
42.0
 30
0.0
 11
32.0
 21
52.0
 31
0.0
  0
LINE
  8
0
 62
0
 10
3.0
 20
15.0
 30
0.0
 11
6.0
 21
15.0
 31
0.0
  0
LINE
  8
0
 62
0
 10
32.0
 20
52.0
 30
0.0
 11
29.0
 21
52.0
 31
0.0
  0
LINE
  8
0
 62
0
 10
6.0
 20
15.0
 30
0.0
 11
6.0
 21
42.0
 31
0.0
  0
LINE
  8
0
 62
0
 10
29.0
 20
52.0
 30
0.0
 11
29.0
 21
79.0
 31
0.0
  0
LINE
  8
0
 62
0
 10
6.0
 20
42.0
 30
0.0
 11
3.0
 21
42.0
 31
0.0
  0
LINE
  8
0
 62
0
 10
29.0
 20
79.0
 30
0.0
 11
32.0
 21
79.0
 31
0.0
  0
LINE
  8
0
 62
0
 10
3.0
 20
42.0
 30
0.0
 11
3.0
 21
52.0
 31
0.0
  0
LINE
  8
0
 62
0
 10
32.0
 20
79.0
 30
0.0
 11
32.0
 21
89.0
 31
0.0
  0
LINE
  8
0
 62
0
 10
3.0
 20
52.0
 30
0.0
 11
6.0
 21
52.0
 31
0.0
  0
LINE
  8
0
 62
0
 10
32.0
 20
89.0
 30
0.0
 11
29.0
 21
89.0
 31
0.0
  0
LINE
  8
0
 62
0
 10
6.0
 20
52.0
 30
0.0
 11
6.0
 21
79.0
 31
0.0
  0
LINE
  8
0
 62
0
 10
29.0
 20
116.0
 30
0.0
 11
29.0
 21
89.0
 31
0.0
  0
LINE
  8
0
 62
0
 10
6.0
 20
79.0
 30
0.0
 11
3.0
 21
79.0
 31
0.0
  0
LINE
  8
0
 62
0
 10
32.0
 20
116.0
 30
0.0
 11
29.0
 21
116.0
 31
0.0
  0
LINE
  8
0
 62
0
 10
3.0
 20
79.0
 30
0.0
 11
3.0
 21
89.0
 31
0.0
  0
LINE
  8
0
 62
0
 10
32.0
 20
126.0
 30
0.0
 11
32.0
 21
116.0
 31
0.0
  0
LINE
  8
0
 62
0
 10
3.0
 20
89.0
 30
0.0
 11
6.0
 21
89.0
 31
0.0
  0
LINE
  8
0
 62
0
 10
29.0
 20
126.0
 30
0.0
 11
32.0
 21
126.0
 31
0.0
  0
LINE
  8
0
 62
0
 10
6.0
 20
116.0
 30
0.0
 11
6.0
 21
89.0
 31
0.0
  0
LINE
  8
0
 62
0
 10
29.0
 20
126.0
 30
0.0
 11
29.0
 21
136.0
 31
0.0
  0
LINE
  8
0
 62
0
 10
6.0
 20
116.0
 30
0.0
 11
3.0
 21
116.0
 31
0.0
  0
LINE
  8
0
 62
0
 10
6.0
 20
136.0
 30
0.0
 11
29.0
 21
136.0
 31
0.0
  0
LINE
  8
0
 62
0
 10
3.0
 20
116.0
 30
0.0
 11
3.0
 21
126.0
 31
0.0
  0
LINE
  8
0
 62
0
 10
6.0
 20
126.0
 30
0.0
 11
6.0
 21
136.0
 31
0.0
  0
LINE
  8
0
 62
0
 10
3.0
 20
126.0
 30
0.0
 11
6.0
 21
126.0
 31
0.0
  0
LINE
  8
0
 62
0
 10
12.6
 20
133.0
 30
0.0
 11
22.4
 21
133.0
 31
0.0
  0
LINE
  8
0
 62
0
 10
22.4
 20
133.0
 30
0.0
 11
22.4
 21
130.0
 31
0.0
  0
LINE
  8
0
 62
0
 10
22.4
 20
130.0
 30
0.0
 11
12.6
 21
130.0
 31
0.0
  0
LINE
  8
0
 62
0
 10
12.6
 20
130.0
 30
0.0
 11
12.6
 21
133.0
 31
0.0
  0
CIRCLE
  8
0
 62
0
 10
12.5
 20
40.0
 30
0.0
 40
1.5
  0
CIRCLE
  8
0
 62
0
 10
22.5
 20
40.0
 30
0.0
 40
1.5
  0
CIRCLE
  8
0
 62
0
 10
22.5
 20
110.0
 30
0.0
 40
1.5
  0
CIRCLE
  8
0
 62
0
 10
12.5
 20
110.0
 30
0.0
 40
1.5
  0
ENDBLK
  0
ENDSEC
  0
SECTION
  2
ENTITIES
  0
INSERT
  2
FILLET006
  8
0
 62
0
 10
0.0
 20
0.0
 30
0.0
  0
ENDSEC
  0
EOF
