  0
SECTION
  2
HEADER
  9
$ACADVER
  1
AC1009
  9
$INSBASE
 10
0.0
 20
0.0
 30
0.0
  9
$EXTMIN
 10
0.0
 20
0.0
 30
0.0
  9
$EXTMAX
 10
0.0
 20
0.0
 30
0.0
  0
ENDSEC
  0
SECTION
  2
TABLES
  0
TABLE
  2
VPORT
 70
0
  0
ENDTAB
  0
TABLE
  2
LTYPE
 70
1
  0
LTYPE
  2
CONTINUOUS
 70
0
  3
Solid line
 72
65
 73
0
 40
0.0
  0
ENDTAB
  0
TABLE
  2
LAYER
 70
1
  0
LAYER
  2
0
 70
64
 62
7
  6
continuous
  0
ENDTAB
  0
TABLE
  2
STYLE
 70
1
  0
STYLE
  2
STANDARD
 70
0
 40
0
 41
1.0
 50
0.0
 71
0
 42
1
 3
ARIAL.TTF
 4

  0
ENDTAB
  0
TABLE
  2
VIEW
 70
0
  0
ENDTAB
  0
ENDSEC
  0
SECTION
  2
BLOCKS
  0
BLOCK
  8
0
  2
FILLET003
 70
0
 10
0.0
 20
0.0
 30
0.0
  3
FILLET003
  0
LINE
  8
0
 62
0
 10
26.7
 20
-23.0
 30
0.0
 11
26.7
 21
-3.0
 31
0.0
  0
ARC
  8
0
 62
0
 10
29.7
 20
-3.0
 30
0.0
 40
3.0
 50
90.0
 51
180.0
  0
LINE
  8
0
 62
0
 10
12.2
 20
-23.0
 30
0.0
 11
26.7
 21
-23.0
 31
0.0
  0
LINE
  8
0
 62
0
 10
29.7
 20
-2.33146835171e-16
 30
0.0
 11
32.0
 21
-9.99200722163e-16
 31
0.0
  0
LINE
  8
0
 62
0
 10
12.2
 20
-26.0
 30
0.0
 11
12.2
 21
-23.0
 31
0.0
  0
ARC
  8
0
 62
0
 10
32.0
 20
3.0
 30
0.0
 40
3.0
 50
-90.0
 51
0.0
  0
LINE
  8
0
 62
0
 10
2.2
 20
-26.0
 30
0.0
 11
12.2
 21
-26.0
 31
0.0
  0
LINE
  8
0
 62
0
 10
35.0
 20
3.0
 30
0.0
 11
35.0
 21
133.0
 31
0.0
  0
LINE
  8
0
 62
0
 10
2.2
 20
-23.0
 30
0.0
 11
2.2
 21
-26.0
 31
0.0
  0
ARC
  8
0
 62
0
 10
32.0
 20
133.0
 30
0.0
 40
3.0
 50
-0.0
 51
90.0
  0
LINE
  8
0
 62
0
 10
-1.3
 20
-23.0
 30
0.0
 11
2.2
 21
-23.0
 31
0.0
  0
LINE
  8
0
 62
0
 10
32.0
 20
136.0
 30
0.0
 11
29.7
 21
136.0
 31
0.0
  0
LINE
  8
0
 62
0
 10
-1.3
 20
-19.0
 30
0.0
 11
-1.3
 21
-23.0
 31
0.0
  0
ARC
  8
0
 62
0
 10
29.7
 20
139.0
 30
0.0
 40
3.0
 50
-180.0
 51
-90.0
  0
LINE
  8
0
 62
0
 10
-4.3
 20
-19.0
 30
0.0
 11
-1.3
 21
-19.0
 31
0.0
  0
LINE
  8
0
 62
0
 10
26.7
 20
139.0
 30
0.0
 11
26.7
 21
143.0
 31
0.0
  0
LINE
  8
0
 62
0
 10
-4.3
 20
-9.0
 30
0.0
 11
-4.3
 21
-19.0
 31
0.0
  0
LINE
  8
0
 62
0
 10
12.2
 20
143.0
 30
0.0
 11
26.7
 21
143.0
 31
0.0
  0
LINE
  8
0
 62
0
 10
-1.3
 20
-9.0
 30
0.0
 11
-4.3
 21
-9.0
 31
0.0
  0
LINE
  8
0
 62
0
 10
12.2
 20
146.0
 30
0.0
 11
12.2
 21
143.0
 31
0.0
  0
LINE
  8
0
 62
0
 10
-1.3
 20
30.3333333333
 30
0.0
 11
-1.3
 21
-9.0
 31
0.0
  0
LINE
  8
0
 62
0
 10
2.2
 20
146.0
 30
0.0
 11
12.2
 21
146.0
 31
0.0
  0
LINE
  8
0
 62
0
 10
-4.3
 20
30.3333333333
 30
0.0
 11
-1.3
 21
30.3333333333
 31
0.0
  0
LINE
  8
0
 62
0
 10
2.2
 20
143.0
 30
0.0
 11
2.2
 21
146.0
 31
0.0
  0
LINE
  8
0
 62
0
 10
-4.3
 20
40.3333333333
 30
0.0
 11
-4.3
 21
30.3333333333
 31
0.0
  0
LINE
  8
0
 62
0
 10
2.2
 20
143.0
 30
0.0
 11
-1.3
 21
143.0
 31
0.0
  0
LINE
  8
0
 62
0
 10
-1.3
 20
40.3333333333
 30
0.0
 11
-4.3
 21
40.3333333333
 31
0.0
  0
LINE
  8
0
 62
0
 10
-1.3
 20
139.0
 30
0.0
 11
-1.3
 21
143.0
 31
0.0
  0
LINE
  8
0
 62
0
 10
-1.3
 20
79.6666666667
 30
0.0
 11
-1.3
 21
40.3333333333
 31
0.0
  0
LINE
  8
0
 62
0
 10
-1.3
 20
139.0
 30
0.0
 11
-4.3
 21
139.0
 31
0.0
  0
LINE
  8
0
 62
0
 10
-4.3
 20
79.6666666667
 30
0.0
 11
-1.3
 21
79.6666666667
 31
0.0
  0
LINE
  8
0
 62
0
 10
-4.3
 20
139.0
 30
0.0
 11
-4.3
 21
129.0
 31
0.0
  0
LINE
  8
0
 62
0
 10
-4.3
 20
89.6666666667
 30
0.0
 11
-4.3
 21
79.6666666667
 31
0.0
  0
LINE
  8
0
 62
0
 10
-4.3
 20
129.0
 30
0.0
 11
-1.3
 21
129.0
 31
0.0
  0
LINE
  8
0
 62
0
 10
-1.3
 20
89.6666666667
 30
0.0
 11
-4.3
 21
89.6666666667
 31
0.0
  0
LINE
  8
0
 62
0
 10
-1.3
 20
129.0
 30
0.0
 11
-1.3
 21
89.6666666667
 31
0.0
  0
LINE
  8
0
 62
0
 10
29.0
 20
116.1
 30
0.0
 11
32.0
 21
116.1
 31
0.0
  0
LINE
  8
0
 62
0
 10
32.0
 20
116.1
 30
0.0
 11
32.0
 21
125.9
 31
0.0
  0
LINE
  8
0
 62
0
 10
32.0
 20
125.9
 30
0.0
 11
29.0
 21
125.9
 31
0.0
  0
LINE
  8
0
 62
0
 10
29.0
 20
125.9
 30
0.0
 11
29.0
 21
116.1
 31
0.0
  0
LINE
  8
0
 62
0
 10
29.0
 20
79.1
 30
0.0
 11
32.0
 21
79.1
 31
0.0
  0
LINE
  8
0
 62
0
 10
32.0
 20
79.1
 30
0.0
 11
32.0
 21
88.9
 31
0.0
  0
LINE
  8
0
 62
0
 10
32.0
 20
88.9
 30
0.0
 11
29.0
 21
88.9
 31
0.0
  0
LINE
  8
0
 62
0
 10
29.0
 20
79.1
 30
0.0
 11
29.0
 21
88.9
 31
0.0
  0
LINE
  8
0
 62
0
 10
23.7
 20
15.1
 30
0.0
 11
23.7
 21
24.9
 31
0.0
  0
LINE
  8
0
 62
0
 10
23.7
 20
24.9
 30
0.0
 11
20.7
 21
24.9
 31
0.0
  0
LINE
  8
0
 62
0
 10
20.7
 20
24.9
 30
0.0
 11
20.7
 21
15.1
 31
0.0
  0
LINE
  8
0
 62
0
 10
20.7
 20
15.1
 30
0.0
 11
23.7
 21
15.1
 31
0.0
  0
LINE
  8
0
 62
0
 10
23.7
 20
-16.9
 30
0.0
 11
23.7
 21
-7.1
 31
0.0
  0
LINE
  8
0
 62
0
 10
23.7
 20
-7.1
 30
0.0
 11
20.7
 21
-7.1
 31
0.0
  0
LINE
  8
0
 62
0
 10
20.7
 20
-7.1
 30
0.0
 11
20.7
 21
-16.9
 31
0.0
  0
LINE
  8
0
 62
0
 10
20.7
 20
-16.9
 30
0.0
 11
23.7
 21
-16.9
 31
0.0
  0
LINE
  8
0
 62
0
 10
29.0
 20
5.1
 30
0.0
 11
32.0
 21
5.1
 31
0.0
  0
LINE
  8
0
 62
0
 10
32.0
 20
5.1
 30
0.0
 11
32.0
 21
14.9
 31
0.0
  0
LINE
  8
0
 62
0
 10
32.0
 20
14.9
 30
0.0
 11
29.0
 21
14.9
 31
0.0
  0
LINE
  8
0
 62
0
 10
29.0
 20
5.1
 30
0.0
 11
29.0
 21
14.9
 31
0.0
  0
LINE
  8
0
 62
0
 10
29.0
 20
42.1
 30
0.0
 11
32.0
 21
42.1
 31
0.0
  0
LINE
  8
0
 62
0
 10
32.0
 20
42.1
 30
0.0
 11
32.0
 21
51.9
 31
0.0
  0
LINE
  8
0
 62
0
 10
32.0
 20
51.9
 30
0.0
 11
29.0
 21
51.9
 31
0.0
  0
LINE
  8
0
 62
0
 10
29.0
 20
51.9
 30
0.0
 11
29.0
 21
42.1
 31
0.0
  0
LINE
  8
0
 62
0
 10
20.7
 20
131.1
 30
0.0
 11
20.7
 21
137.9
 31
0.0
  0
LINE
  8
0
 62
0
 10
20.7
 20
137.9
 30
0.0
 11
23.7
 21
137.9
 31
0.0
  0
LINE
  8
0
 62
0
 10
23.7
 20
137.9
 30
0.0
 11
23.7
 21
131.1
 31
0.0
  0
LINE
  8
0
 62
0
 10
23.7
 20
131.1
 30
0.0
 11
20.7
 21
131.1
 31
0.0
  0
ENDBLK
  0
ENDSEC
  0
SECTION
  2
ENTITIES
  0
INSERT
  2
FILLET003
  8
0
 62
0
 10
0.0
 20
0.0
 30
0.0
  0
ENDSEC
  0
EOF
