  0
SECTION
  2
HEADER
  9
$ACADVER
  1
AC1009
  9
$INSBASE
 10
0.0
 20
0.0
 30
0.0
  9
$EXTMIN
 10
0.0
 20
0.0
 30
0.0
  9
$EXTMAX
 10
0.0
 20
0.0
 30
0.0
  0
ENDSEC
  0
SECTION
  2
TABLES
  0
TABLE
  2
VPORT
 70
0
  0
ENDTAB
  0
TABLE
  2
LTYPE
 70
1
  0
LTYPE
  2
CONTINUOUS
 70
0
  3
Solid line
 72
65
 73
0
 40
0.0
  0
ENDTAB
  0
TABLE
  2
LAYER
 70
1
  0
LAYER
  2
0
 70
64
 62
7
  6
continuous
  0
ENDTAB
  0
TABLE
  2
STYLE
 70
1
  0
STYLE
  2
STANDARD
 70
0
 40
0
 41
1.0
 50
0.0
 71
0
 42
1
 3
ARIAL.TTF
 4

  0
ENDTAB
  0
TABLE
  2
VIEW
 70
0
  0
ENDTAB
  0
ENDSEC
  0
SECTION
  2
BLOCKS
  0
BLOCK
  8
0
  2
FILLET007
 70
0
 10
0.0
 20
0.0
 30
0.0
  3
FILLET007
  0
LINE
  8
0
 62
0
 10
16.9
 20
115.5
 30
0.0
 11
18.1
 21
115.5
 31
0.0
  0
ARC
  8
0
 62
0
 10
16.9
 20
114.5
 30
0.0
 40
1.0
 50
90.0
 51
-180.0
  0
ARC
  8
0
 62
0
 10
18.1
 20
114.5
 30
0.0
 40
1.0
 50
-0.0
 51
90.0
  0
LINE
  8
0
 62
0
 10
15.9
 20
5.5
 30
0.0
 11
15.9
 21
114.5
 31
0.0
  0
LINE
  8
0
 62
0
 10
19.1
 20
114.5
 30
0.0
 11
19.1
 21
5.5
 31
0.0
  0
ARC
  8
0
 62
0
 10
16.9
 20
5.5
 30
0.0
 40
1.0
 50
180.0
 51
-90.0
  0
ARC
  8
0
 62
0
 10
18.1
 20
5.5
 30
0.0
 40
1.0
 50
-90.0
 51
0.0
  0
LINE
  8
0
 62
0
 10
18.1
 20
4.5
 30
0.0
 11
16.9
 21
4.5
 31
0.0
  0
LINE
  8
0
 62
0
 10
3.0
 20
149.0
 30
0.0
 11
32.0
 21
149.0
 31
0.0
  0
ARC
  8
0
 62
0
 10
3.0
 20
146.0
 30
0.0
 40
3.0
 50
90.0
 51
-180.0
  0
ARC
  8
0
 62
0
 10
32.0
 20
146.0
 30
0.0
 40
3.0
 50
-0.0
 51
90.0
  0
LINE
  8
0
 62
0
 10
0.0
 20
146.0
 30
0.0
 11
0.0
 21
-26.0
 31
0.0
  0
LINE
  8
0
 62
0
 10
35.0
 20
146.0
 30
0.0
 11
35.0
 21
-26.0
 31
0.0
  0
ARC
  8
0
 62
0
 10
3.0
 20
-26.0
 30
0.0
 40
3.0
 50
-180.0
 51
-90.0
  0
ARC
  8
0
 62
0
 10
32.0
 20
-26.0
 30
0.0
 40
3.0
 50
-90.0
 51
0.0
  0
LINE
  8
0
 62
0
 10
3.0
 20
-29.0
 30
0.0
 11
32.0
 21
-29.0
 31
0.0
  0
LINE
  8
0
 62
0
 10
29.0
 20
138.9
 30
0.0
 11
32.0
 21
138.9
 31
0.0
  0
LINE
  8
0
 62
0
 10
32.0
 20
138.9
 30
0.0
 11
32.0
 21
129.1
 31
0.0
  0
LINE
  8
0
 62
0
 10
32.0
 20
129.1
 30
0.0
 11
29.0
 21
129.1
 31
0.0
  0
LINE
  8
0
 62
0
 10
29.0
 20
129.1
 30
0.0
 11
29.0
 21
138.9
 31
0.0
  0
LINE
  8
0
 62
0
 10
3.0
 20
138.9
 30
0.0
 11
6.0
 21
138.9
 31
0.0
  0
LINE
  8
0
 62
0
 10
6.0
 20
138.9
 30
0.0
 11
6.0
 21
129.1
 31
0.0
  0
LINE
  8
0
 62
0
 10
6.0
 20
129.1
 30
0.0
 11
3.0
 21
129.1
 31
0.0
  0
LINE
  8
0
 62
0
 10
3.0
 20
129.1
 30
0.0
 11
3.0
 21
138.9
 31
0.0
  0
LINE
  8
0
 62
0
 10
32.0
 20
40.2333333333
 30
0.0
 11
29.0
 21
40.2333333333
 31
0.0
  0
LINE
  8
0
 62
0
 10
29.0
 20
40.2333333333
 30
0.0
 11
29.0
 21
30.4333333333
 31
0.0
  0
LINE
  8
0
 62
0
 10
29.0
 20
30.4333333333
 30
0.0
 11
32.0
 21
30.4333333333
 31
0.0
  0
LINE
  8
0
 62
0
 10
32.0
 20
30.4333333333
 30
0.0
 11
32.0
 21
40.2333333333
 31
0.0
  0
LINE
  8
0
 62
0
 10
3.0
 20
40.2333333333
 30
0.0
 11
6.0
 21
40.2333333333
 31
0.0
  0
LINE
  8
0
 62
0
 10
6.0
 20
40.2333333333
 30
0.0
 11
6.0
 21
30.4333333333
 31
0.0
  0
LINE
  8
0
 62
0
 10
6.0
 20
30.4333333333
 30
0.0
 11
3.0
 21
30.4333333333
 31
0.0
  0
LINE
  8
0
 62
0
 10
3.0
 20
30.4333333333
 30
0.0
 11
3.0
 21
40.2333333333
 31
0.0
  0
LINE
  8
0
 62
0
 10
12.6
 20
-23.0
 30
0.0
 11
22.4
 21
-23.0
 31
0.0
  0
LINE
  8
0
 62
0
 10
22.4
 20
-23.0
 30
0.0
 11
22.4
 21
-26.0
 31
0.0
  0
LINE
  8
0
 62
0
 10
22.4
 20
-26.0
 30
0.0
 11
12.6
 21
-26.0
 31
0.0
  0
LINE
  8
0
 62
0
 10
12.6
 20
-26.0
 30
0.0
 11
12.6
 21
-23.0
 31
0.0
  0
LINE
  8
0
 62
0
 10
29.0
 20
-9.1
 30
0.0
 11
32.0
 21
-9.1
 31
0.0
  0
LINE
  8
0
 62
0
 10
32.0
 20
-9.1
 30
0.0
 11
32.0
 21
-18.9
 31
0.0
  0
LINE
  8
0
 62
0
 10
32.0
 20
-18.9
 30
0.0
 11
29.0
 21
-18.9
 31
0.0
  0
LINE
  8
0
 62
0
 10
29.0
 20
-18.9
 30
0.0
 11
29.0
 21
-9.1
 31
0.0
  0
LINE
  8
0
 62
0
 10
3.0
 20
-9.1
 30
0.0
 11
6.0
 21
-9.1
 31
0.0
  0
LINE
  8
0
 62
0
 10
6.0
 20
-9.1
 30
0.0
 11
6.0
 21
-18.9
 31
0.0
  0
LINE
  8
0
 62
0
 10
6.0
 20
-18.9
 30
0.0
 11
3.0
 21
-18.9
 31
0.0
  0
LINE
  8
0
 62
0
 10
3.0
 20
-18.9
 30
0.0
 11
3.0
 21
-9.1
 31
0.0
  0
LINE
  8
0
 62
0
 10
12.6
 20
146.0
 30
0.0
 11
22.4
 21
146.0
 31
0.0
  0
LINE
  8
0
 62
0
 10
22.4
 20
146.0
 30
0.0
 11
22.4
 21
143.0
 31
0.0
  0
LINE
  8
0
 62
0
 10
22.4
 20
143.0
 30
0.0
 11
12.6
 21
143.0
 31
0.0
  0
LINE
  8
0
 62
0
 10
12.6
 20
143.0
 30
0.0
 11
12.6
 21
146.0
 31
0.0
  0
LINE
  8
0
 62
0
 10
32.0
 20
89.5666666667
 30
0.0
 11
29.0
 21
89.5666666667
 31
0.0
  0
LINE
  8
0
 62
0
 10
29.0
 20
89.5666666667
 30
0.0
 11
29.0
 21
79.7666666667
 31
0.0
  0
LINE
  8
0
 62
0
 10
29.0
 20
79.7666666667
 30
0.0
 11
32.0
 21
79.7666666667
 31
0.0
  0
LINE
  8
0
 62
0
 10
32.0
 20
79.7666666667
 30
0.0
 11
32.0
 21
89.5666666667
 31
0.0
  0
LINE
  8
0
 62
0
 10
3.0
 20
89.5666666667
 30
0.0
 11
6.0
 21
89.5666666667
 31
0.0
  0
LINE
  8
0
 62
0
 10
6.0
 20
89.5666666667
 30
0.0
 11
6.0
 21
79.7666666667
 31
0.0
  0
LINE
  8
0
 62
0
 10
6.0
 20
79.7666666667
 30
0.0
 11
3.0
 21
79.7666666667
 31
0.0
  0
LINE
  8
0
 62
0
 10
3.0
 20
79.7666666667
 30
0.0
 11
3.0
 21
89.5666666667
 31
0.0
  0
CIRCLE
  8
0
 62
0
 10
17.5
 20
140.0
 30
0.0
 40
1.5
  0
CIRCLE
  8
0
 62
0
 10
17.5
 20
-20.0
 30
0.0
 40
1.5
  0
ENDBLK
  0
ENDSEC
  0
SECTION
  2
ENTITIES
  0
INSERT
  2
FILLET007
  8
0
 62
0
 10
0.0
 20
0.0
 30
0.0
  0
ENDSEC
  0
EOF
