  0
SECTION
  2
HEADER
  9
$ACADVER
  1
AC1009
  9
$INSBASE
 10
0.0
 20
0.0
 30
0.0
  9
$EXTMIN
 10
0.0
 20
0.0
 30
0.0
  9
$EXTMAX
 10
0.0
 20
0.0
 30
0.0
  0
ENDSEC
  0
SECTION
  2
TABLES
  0
TABLE
  2
VPORT
 70
0
  0
ENDTAB
  0
TABLE
  2
LTYPE
 70
1
  0
LTYPE
  2
CONTINUOUS
 70
0
  3
Solid line
 72
65
 73
0
 40
0.0
  0
ENDTAB
  0
TABLE
  2
LAYER
 70
1
  0
LAYER
  2
0
 70
64
 62
7
  6
continuous
  0
ENDTAB
  0
TABLE
  2
STYLE
 70
1
  0
STYLE
  2
STANDARD
 70
0
 40
0
 41
1.0
 50
0.0
 71
0
 42
1
 3
ARIAL.TTF
 4

  0
ENDTAB
  0
TABLE
  2
VIEW
 70
0
  0
ENDTAB
  0
ENDSEC
  0
SECTION
  2
BLOCKS
  0
BLOCK
  8
0
  2
FILLET
 70
0
 10
0.0
 20
0.0
 30
0.0
  3
FILLET
  0
LINE
  8
0
 62
0
 10
3.0
 20
49.0
 30
0.0
 11
42.0
 21
49.0
 31
0.0
  0
ARC
  8
0
 62
0
 10
3.0
 20
46.0
 30
0.0
 40
3.0
 50
90.0
 51
-180.0
  0
ARC
  8
0
 62
0
 10
42.0
 20
46.0
 30
0.0
 40
3.0
 50
-0.0
 51
90.0
  0
LINE
  8
0
 62
0
 10
0.0
 20
46.0
 30
0.0
 11
0.0
 21
-3.0
 31
0.0
  0
LINE
  8
0
 62
0
 10
45.0
 20
46.0
 30
0.0
 11
45.0
 21
-3.0
 31
0.0
  0
ARC
  8
0
 62
0
 10
3.0
 20
-3.0
 30
0.0
 40
3.0
 50
-180.0
 51
-90.0
  0
ARC
  8
0
 62
0
 10
42.0
 20
-3.0
 30
0.0
 40
3.0
 50
-90.0
 51
0.0
  0
LINE
  8
0
 62
0
 10
3.0
 20
-6.0
 30
0.0
 11
42.0
 21
-6.0
 31
0.0
  0
LINE
  8
0
 62
0
 10
34.9
 20
46.0
 30
0.0
 11
25.1
 21
46.0
 31
0.0
  0
LINE
  8
0
 62
0
 10
25.1
 20
46.0
 30
0.0
 11
25.1
 21
43.0
 31
0.0
  0
LINE
  8
0
 62
0
 10
25.1
 20
43.0
 30
0.0
 11
34.9
 21
43.0
 31
0.0
  0
LINE
  8
0
 62
0
 10
34.9
 20
43.0
 30
0.0
 11
34.9
 21
46.0
 31
0.0
  0
LINE
  8
0
 62
0
 10
34.9
 20
-3.0
 30
0.0
 11
25.1
 21
-3.0
 31
0.0
  0
LINE
  8
0
 62
0
 10
25.1
 20
-3.0
 30
0.0
 11
25.1
 21
0.0
 31
0.0
  0
LINE
  8
0
 62
0
 10
25.1
 20
0.0
 30
0.0
 11
34.9
 21
0.0
 31
0.0
  0
LINE
  8
0
 62
0
 10
34.9
 20
0.0
 30
0.0
 11
34.9
 21
-3.0
 31
0.0
  0
LINE
  8
0
 62
0
 10
39.0
 20
38.9
 30
0.0
 11
42.0
 21
38.9
 31
0.0
  0
LINE
  8
0
 62
0
 10
42.0
 20
38.9
 30
0.0
 11
42.0
 21
29.1
 31
0.0
  0
LINE
  8
0
 62
0
 10
42.0
 20
29.1
 30
0.0
 11
39.0
 21
29.1
 31
0.0
  0
LINE
  8
0
 62
0
 10
39.0
 20
29.1
 30
0.0
 11
39.0
 21
38.9
 31
0.0
  0
LINE
  8
0
 62
0
 10
3.0
 20
38.9
 30
0.0
 11
6.0
 21
38.9
 31
0.0
  0
LINE
  8
0
 62
0
 10
6.0
 20
38.9
 30
0.0
 11
6.0
 21
29.1
 31
0.0
  0
LINE
  8
0
 62
0
 10
6.0
 20
29.1
 30
0.0
 11
3.0
 21
29.1
 31
0.0
  0
LINE
  8
0
 62
0
 10
3.0
 20
29.1
 30
0.0
 11
3.0
 21
38.9
 31
0.0
  0
LINE
  8
0
 62
0
 10
10.1
 20
46.0
 30
0.0
 11
19.9
 21
46.0
 31
0.0
  0
LINE
  8
0
 62
0
 10
19.9
 20
46.0
 30
0.0
 11
19.9
 21
43.0
 31
0.0
  0
LINE
  8
0
 62
0
 10
19.9
 20
43.0
 30
0.0
 11
10.1
 21
43.0
 31
0.0
  0
LINE
  8
0
 62
0
 10
10.1
 20
43.0
 30
0.0
 11
10.1
 21
46.0
 31
0.0
  0
LINE
  8
0
 62
0
 10
39.0
 20
13.9
 30
0.0
 11
42.0
 21
13.9
 31
0.0
  0
LINE
  8
0
 62
0
 10
42.0
 20
13.9
 30
0.0
 11
42.0
 21
4.1
 31
0.0
  0
LINE
  8
0
 62
0
 10
42.0
 20
4.1
 30
0.0
 11
39.0
 21
4.1
 31
0.0
  0
LINE
  8
0
 62
0
 10
39.0
 20
4.1
 30
0.0
 11
39.0
 21
13.9
 31
0.0
  0
LINE
  8
0
 62
0
 10
3.0
 20
13.9
 30
0.0
 11
6.0
 21
13.9
 31
0.0
  0
LINE
  8
0
 62
0
 10
6.0
 20
13.9
 30
0.0
 11
6.0
 21
4.1
 31
0.0
  0
LINE
  8
0
 62
0
 10
6.0
 20
4.1
 30
0.0
 11
3.0
 21
4.1
 31
0.0
  0
LINE
  8
0
 62
0
 10
3.0
 20
4.1
 30
0.0
 11
3.0
 21
13.9
 31
0.0
  0
LINE
  8
0
 62
0
 10
10.1
 20
-2.14726240261e-16
 30
0.0
 11
19.9
 21
-2.14726240261e-16
 31
0.0
  0
LINE
  8
0
 62
0
 10
19.9
 20
-2.14726240261e-16
 30
0.0
 11
19.9
 21
-3.0
 31
0.0
  0
LINE
  8
0
 62
0
 10
19.9
 20
-3.0
 30
0.0
 11
10.1
 21
-3.0
 31
0.0
  0
LINE
  8
0
 62
0
 10
10.1
 20
-3.0
 30
0.0
 11
10.1
 21
0.0
 31
0.0
  0
CIRCLE
  8
0
 62
0
 10
35.0
 20
39.0
 30
0.0
 40
1.5
  0
CIRCLE
  8
0
 62
0
 10
10.0
 20
39.0
 30
0.0
 40
1.5
  0
CIRCLE
  8
0
 62
0
 10
10.0
 20
4.0
 30
0.0
 40
1.5
  0
CIRCLE
  8
0
 62
0
 10
35.0
 20
4.0
 30
0.0
 40
1.5
  0
ENDBLK
  0
ENDSEC
  0
SECTION
  2
ENTITIES
  0
INSERT
  2
FILLET
  8
0
 62
0
 10
0.0
 20
0.0
 30
0.0
  0
ENDSEC
  0
EOF
