  0
SECTION
  2
HEADER
  9
$ACADVER
  1
AC1009
  9
$INSBASE
 10
0.0
 20
0.0
 30
0.0
  9
$EXTMIN
 10
0.0
 20
0.0
 30
0.0
  9
$EXTMAX
 10
0.0
 20
0.0
 30
0.0
  0
ENDSEC
  0
SECTION
  2
TABLES
  0
TABLE
  2
VPORT
 70
0
  0
ENDTAB
  0
TABLE
  2
LTYPE
 70
1
  0
LTYPE
  2
CONTINUOUS
 70
0
  3
Solid line
 72
65
 73
0
 40
0.0
  0
ENDTAB
  0
TABLE
  2
LAYER
 70
1
  0
LAYER
  2
0
 70
64
 62
7
  6
continuous
  0
ENDTAB
  0
TABLE
  2
STYLE
 70
1
  0
STYLE
  2
STANDARD
 70
0
 40
0
 41
1.0
 50
0.0
 71
0
 42
1
 3
ARIAL.TTF
 4

  0
ENDTAB
  0
TABLE
  2
VIEW
 70
0
  0
ENDTAB
  0
ENDSEC
  0
SECTION
  2
BLOCKS
  0
BLOCK
  8
0
  2
PAD001
 70
0
 10
0.0
 20
0.0
 30
0.0
  3
PAD001
  0
LINE
  8
0
 62
0
 10
30.0
 20
66.6
 30
0.0
 11
30.0
 21
69.6
 31
0.0
  0
LINE
  8
0
 62
0
 10
30.0
 20
69.6
 30
0.0
 11
10.0
 21
69.6
 31
0.0
  0
LINE
  8
0
 62
0
 10
10.0
 20
69.6
 30
0.0
 11
10.0
 21
66.6
 31
0.0
  0
LINE
  8
0
 62
0
 10
10.0
 20
66.6
 30
0.0
 11
0.0
 21
66.6
 31
0.0
  0
LINE
  8
0
 62
0
 10
0.0
 20
66.6
 30
0.0
 11
0.0
 21
46.0
 31
0.0
  0
LINE
  8
0
 62
0
 10
0.0
 20
46.0
 30
0.0
 11
10.0
 21
46.0
 31
0.0
  0
LINE
  8
0
 62
0
 10
10.0
 20
46.0
 30
0.0
 11
10.0
 21
43.0
 31
0.0
  0
LINE
  8
0
 62
0
 10
10.0
 20
43.0
 30
0.0
 11
30.0
 21
43.0
 31
0.0
  0
LINE
  8
0
 62
0
 10
30.0
 20
43.0
 30
0.0
 11
30.0
 21
46.0
 31
0.0
  0
LINE
  8
0
 62
0
 10
30.0
 20
46.0
 30
0.0
 11
40.0
 21
46.0
 31
0.0
  0
LINE
  8
0
 62
0
 10
40.0
 20
66.6
 30
0.0
 11
40.0
 21
46.0
 31
0.0
  0
LINE
  8
0
 62
0
 10
30.0
 20
66.6
 30
0.0
 11
40.0
 21
66.6
 31
0.0
  0
LINE
  8
0
 62
0
 10
12.3986021022
 20
49.759262274
 30
0.0
 11
26.540737726
 21
63.9013978978
 31
0.0
  0
ARC
  8
0
 62
0
 10
27.0710678119
 20
63.3710678119
 30
0.0
 40
0.75
 50
-45.0
 51
135.0
  0
LINE
  8
0
 62
0
 10
13.459262274
 20
48.6986021022
 30
0.0
 11
27.6013978978
 21
62.840737726
 31
0.0
  0
ARC
  8
0
 62
0
 10
12.9289321881
 20
49.2289321881
 30
0.0
 40
0.75
 50
135.0
 51
-45.0
  0
LINE
  8
0
 62
0
 10
18.7625631329
 20
49.759262274
 30
0.0
 11
26.540737726
 21
57.5374368671
 31
0.0
  0
ARC
  8
0
 62
0
 10
27.0710678119
 20
57.0071067812
 30
0.0
 40
0.75
 50
-45.0
 51
135.0
  0
LINE
  8
0
 62
0
 10
19.8232233047
 20
48.6986021022
 30
0.0
 11
27.6013978978
 21
56.4767766953
 31
0.0
  0
ARC
  8
0
 62
0
 10
19.2928932188
 20
49.2289321881
 30
0.0
 40
0.75
 50
135.0
 51
-45.0
  0
LINE
  8
0
 62
0
 10
12.3986021022
 20
56.1232233047
 30
0.0
 11
20.1767766953
 21
63.9013978978
 31
0.0
  0
ARC
  8
0
 62
0
 10
20.7071067812
 20
63.3710678119
 30
0.0
 40
0.75
 50
-45.0
 51
135.0
  0
LINE
  8
0
 62
0
 10
13.459262274
 20
55.0625631329
 30
0.0
 11
21.2374368671
 21
62.840737726
 31
0.0
  0
ARC
  8
0
 62
0
 10
12.9289321881
 20
55.5928932188
 30
0.0
 40
0.75
 50
135.0
 51
-45.0
  0
LINE
  8
0
 62
0
 10
34.0
 20
61.2
 30
0.0
 11
37.0
 21
61.2
 31
0.0
  0
LINE
  8
0
 62
0
 10
37.0
 20
61.2
 30
0.0
 11
37.0
 21
51.4
 31
0.0
  0
LINE
  8
0
 62
0
 10
37.0
 20
51.4
 30
0.0
 11
34.0
 21
51.4
 31
0.0
  0
LINE
  8
0
 62
0
 10
34.0
 20
51.4
 30
0.0
 11
34.0
 21
61.2
 31
0.0
  0
LINE
  8
0
 62
0
 10
3.0
 20
61.2
 30
0.0
 11
6.0
 21
61.2
 31
0.0
  0
LINE
  8
0
 62
0
 10
6.0
 20
61.2
 30
0.0
 11
6.0
 21
51.4
 31
0.0
  0
LINE
  8
0
 62
0
 10
6.0
 20
51.4
 30
0.0
 11
3.0
 21
51.4
 31
0.0
  0
LINE
  8
0
 62
0
 10
3.0
 20
51.4
 30
0.0
 11
3.0
 21
61.2
 31
0.0
  0
LINE
  8
0
 62
0
 10
25.1265241636
 20
49.759262274
 30
0.0
 11
26.540737726
 21
51.1734758364
 31
0.0
  0
ARC
  8
0
 62
0
 10
27.0710678119
 20
50.6431457505
 30
0.0
 40
0.75
 50
-45.0
 51
135.0
  0
LINE
  8
0
 62
0
 10
26.1871843354
 20
48.6986021022
 30
0.0
 11
27.6013978978
 21
50.1128156646
 31
0.0
  0
ARC
  8
0
 62
0
 10
25.6568542495
 20
49.2289321881
 30
0.0
 40
0.75
 50
135.0
 51
-45.0
  0
LINE
  8
0
 62
0
 10
12.3986021022
 20
62.4871843354
 30
0.0
 11
13.8128156646
 21
63.9013978978
 31
0.0
  0
ARC
  8
0
 62
0
 10
14.3431457505
 20
63.3710678119
 30
0.0
 40
0.75
 50
-45.0
 51
135.0
  0
LINE
  8
0
 62
0
 10
13.459262274
 20
61.4265241636
 30
0.0
 11
14.8734758364
 21
62.840737726
 31
0.0
  0
ARC
  8
0
 62
0
 10
12.9289321881
 20
61.9568542495
 30
0.0
 40
0.75
 50
135.0
 51
-45.0
  0
ENDBLK
  0
ENDSEC
  0
SECTION
  2
ENTITIES
  0
INSERT
  2
PAD001
  8
0
 62
0
 10
0.0
 20
0.0
 30
0.0
  0
ENDSEC
  0
EOF
