  0
SECTION
  2
HEADER
  9
$ACADVER
  1
AC1009
  9
$INSBASE
 10
0.0
 20
0.0
 30
0.0
  9
$EXTMIN
 10
0.0
 20
0.0
 30
0.0
  9
$EXTMAX
 10
0.0
 20
0.0
 30
0.0
  0
ENDSEC
  0
SECTION
  2
TABLES
  0
TABLE
  2
VPORT
 70
0
  0
ENDTAB
  0
TABLE
  2
LTYPE
 70
1
  0
LTYPE
  2
CONTINUOUS
 70
0
  3
Solid line
 72
65
 73
0
 40
0.0
  0
ENDTAB
  0
TABLE
  2
LAYER
 70
1
  0
LAYER
  2
0
 70
64
 62
7
  6
continuous
  0
ENDTAB
  0
TABLE
  2
STYLE
 70
1
  0
STYLE
  2
STANDARD
 70
0
 40
0
 41
1.0
 50
0.0
 71
0
 42
1
 3
ARIAL.TTF
 4

  0
ENDTAB
  0
TABLE
  2
VIEW
 70
0
  0
ENDTAB
  0
ENDSEC
  0
SECTION
  2
BLOCKS
  0
BLOCK
  8
0
  2
PAD005
 70
0
 10
0.0
 20
0.0
 30
0.0
  3
PAD005
  0
LINE
  8
0
 62
0
 10
73.5
 20
20.6
 30
0.0
 11
73.5
 21
23.6
 31
0.0
  0
LINE
  8
0
 62
0
 10
73.5
 20
23.6
 30
0.0
 11
63.5
 21
23.6
 31
0.0
  0
LINE
  8
0
 62
0
 10
63.5
 20
23.6
 30
0.0
 11
63.5
 21
20.6
 31
0.0
  0
LINE
  8
0
 62
0
 10
63.5
 20
20.6
 30
0.0
 11
57.0
 21
20.6
 31
0.0
  0
LINE
  8
0
 62
0
 10
57.0
 20
20.6
 30
0.0
 11
57.0
 21
15.3
 31
0.0
  0
LINE
  8
0
 62
0
 10
57.0
 20
15.3
 30
0.0
 11
54.0
 21
15.3
 31
0.0
  0
LINE
  8
0
 62
0
 10
54.0
 20
15.3
 30
0.0
 11
54.0
 21
5.3
 31
0.0
  0
LINE
  8
0
 62
0
 10
54.0
 20
5.3
 30
0.0
 11
57.0
 21
5.3
 31
0.0
  0
LINE
  8
0
 62
0
 10
57.0
 20
5.3
 30
0.0
 11
57.0
 21
0.0
 31
0.0
  0
LINE
  8
0
 62
0
 10
57.0
 20
0.0
 30
0.0
 11
63.5
 21
0.0
 31
0.0
  0
LINE
  8
0
 62
0
 10
63.5
 20
0.0
 30
0.0
 11
63.5
 21
-3.0
 31
0.0
  0
LINE
  8
0
 62
0
 10
63.5
 20
-3.0
 30
0.0
 11
73.5
 21
-3.0
 31
0.0
  0
LINE
  8
0
 62
0
 10
73.5
 20
-3.0
 30
0.0
 11
73.5
 21
0.0
 31
0.0
  0
LINE
  8
0
 62
0
 10
73.5
 20
0.0
 30
0.0
 11
80.0
 21
0.0
 31
0.0
  0
LINE
  8
0
 62
0
 10
80.0
 20
5.3
 30
0.0
 11
80.0
 21
0.0
 31
0.0
  0
LINE
  8
0
 62
0
 10
83.0
 20
5.3
 30
0.0
 11
80.0
 21
5.3
 31
0.0
  0
LINE
  8
0
 62
0
 10
83.0
 20
15.3
 30
0.0
 11
83.0
 21
5.3
 31
0.0
  0
LINE
  8
0
 62
0
 10
80.0
 20
15.3
 30
0.0
 11
83.0
 21
15.3
 31
0.0
  0
LINE
  8
0
 62
0
 10
80.0
 20
20.6
 30
0.0
 11
80.0
 21
15.3
 31
0.0
  0
LINE
  8
0
 62
0
 10
73.5
 20
20.6
 30
0.0
 11
80.0
 21
20.6
 31
0.0
  0
LINE
  8
0
 62
0
 10
60.8986021022
 20
3.75926227402
 30
0.0
 11
75.040737726
 21
17.9013978978
 31
0.0
  0
ARC
  8
0
 62
0
 10
75.5710678119
 20
17.3710678119
 30
0.0
 40
0.75
 50
-45.0
 51
135.0
  0
LINE
  8
0
 62
0
 10
61.959262274
 20
2.69860210224
 30
0.0
 11
76.1013978978
 21
16.840737726
 31
0.0
  0
ARC
  8
0
 62
0
 10
61.4289321881
 20
3.22893218813
 30
0.0
 40
0.75
 50
135.0
 51
-45.0
  0
LINE
  8
0
 62
0
 10
67.2625631329
 20
3.75926227402
 30
0.0
 11
75.040737726
 21
11.5374368671
 31
0.0
  0
ARC
  8
0
 62
0
 10
75.5710678119
 20
11.0071067812
 30
0.0
 40
0.75
 50
-45.0
 51
135.0
  0
LINE
  8
0
 62
0
 10
68.3232233047
 20
2.69860210224
 30
0.0
 11
76.1013978978
 21
10.4767766953
 31
0.0
  0
ARC
  8
0
 62
0
 10
67.7928932188
 20
3.22893218813
 30
0.0
 40
0.75
 50
135.0
 51
-45.0
  0
LINE
  8
0
 62
0
 10
60.8986021022
 20
10.1232233047
 30
0.0
 11
68.6767766953
 21
17.9013978978
 31
0.0
  0
ARC
  8
0
 62
0
 10
69.2071067812
 20
17.3710678119
 30
0.0
 40
0.75
 50
-45.0
 51
135.0
  0
LINE
  8
0
 62
0
 10
61.959262274
 20
9.06256313292
 30
0.0
 11
69.7374368671
 21
16.840737726
 31
0.0
  0
ARC
  8
0
 62
0
 10
61.4289321881
 20
9.59289321881
 30
0.0
 40
0.75
 50
135.0
 51
-45.0
  0
LINE
  8
0
 62
0
 10
60.8986021022
 20
16.4871843354
 30
0.0
 11
62.3128156646
 21
17.9013978978
 31
0.0
  0
ARC
  8
0
 62
0
 10
62.8431457505
 20
17.3710678119
 30
0.0
 40
0.75
 50
-45.0
 51
135.0
  0
LINE
  8
0
 62
0
 10
61.959262274
 20
15.4265241636
 30
0.0
 11
63.3734758364
 21
16.840737726
 31
0.0
  0
ARC
  8
0
 62
0
 10
61.4289321881
 20
15.9568542495
 30
0.0
 40
0.75
 50
135.0
 51
-45.0
  0
LINE
  8
0
 62
0
 10
73.6265241636
 20
3.75926227403
 30
0.0
 11
75.040737726
 21
5.1734758364
 31
0.0
  0
ARC
  8
0
 62
0
 10
75.5710678119
 20
4.64314575051
 30
0.0
 40
0.75
 50
-45.0
 51
135.0
  0
LINE
  8
0
 62
0
 10
74.6871843354
 20
2.69860210225
 30
0.0
 11
76.1013978978
 21
4.11281566462
 31
0.0
  0
ARC
  8
0
 62
0
 10
74.1568542495
 20
3.22893218814
 30
0.0
 40
0.75
 50
135.0
 51
-45.0
  0
ENDBLK
  0
ENDSEC
  0
SECTION
  2
ENTITIES
  0
INSERT
  2
PAD005
  8
0
 62
0
 10
0.0
 20
0.0
 30
0.0
  0
ENDSEC
  0
EOF
