  0
SECTION
  2
HEADER
  9
$ACADVER
  1
AC1009
  9
$INSBASE
 10
0.0
 20
0.0
 30
0.0
  9
$EXTMIN
 10
0.0
 20
0.0
 30
0.0
  9
$EXTMAX
 10
0.0
 20
0.0
 30
0.0
  0
ENDSEC
  0
SECTION
  2
TABLES
  0
TABLE
  2
VPORT
 70
0
  0
ENDTAB
  0
TABLE
  2
LTYPE
 70
1
  0
LTYPE
  2
CONTINUOUS
 70
0
  3
Solid line
 72
65
 73
0
 40
0.0
  0
ENDTAB
  0
TABLE
  2
LAYER
 70
1
  0
LAYER
  2
0
 70
64
 62
7
  6
continuous
  0
ENDTAB
  0
TABLE
  2
STYLE
 70
1
  0
STYLE
  2
STANDARD
 70
0
 40
0
 41
1.0
 50
0.0
 71
0
 42
1
 3
ARIAL.TTF
 4

  0
ENDTAB
  0
TABLE
  2
VIEW
 70
0
  0
ENDTAB
  0
ENDSEC
  0
SECTION
  2
BLOCKS
  0
BLOCK
  8
0
  2
FILLET003
 70
0
 10
0.0
 20
0.0
 30
0.0
  3
FILLET003
  0
LINE
  8
0
 62
0
 10
12.5
 20
-3.0
 30
0.0
 11
12.5
 21
1.7763568394e-15
 31
0.0
  0
ARC
  8
0
 62
0
 10
13.5
 20
2.22044604925e-16
 30
0.0
 40
1.0
 50
90.0
 51
-180.0
  0
ARC
  8
0
 62
0
 10
9.5
 20
-3.0
 30
0.0
 40
3.0
 50
-90.0
 51
0.0
  0
LINE
  8
0
 62
0
 10
13.5
 20
1.0
 30
0.0
 11
26.5
 21
1.0
 31
0.0
  0
LINE
  8
0
 62
0
 10
3.0
 20
-6.0
 30
0.0
 11
9.5
 21
-6.0
 31
0.0
  0
ARC
  8
0
 62
0
 10
26.5
 20
2.22044604925e-16
 30
0.0
 40
1.0
 50
-0.0
 51
90.0
  0
ARC
  8
0
 62
0
 10
3.0
 20
-3.0
 30
0.0
 40
3.0
 50
180.0
 51
-90.0
  0
LINE
  8
0
 62
0
 10
27.5
 20
2.22044604925e-16
 30
0.0
 11
27.5
 21
-3.0
 31
0.0
  0
LINE
  8
0
 62
0
 10
0.0
 20
26.0
 30
0.0
 11
0.0
 21
-3.0
 31
0.0
  0
ARC
  8
0
 62
0
 10
30.5
 20
-3.0
 30
0.0
 40
3.0
 50
180.0
 51
-90.0
  0
ARC
  8
0
 62
0
 10
3.0
 20
26.0
 30
0.0
 40
3.0
 50
90.0
 51
-180.0
  0
LINE
  8
0
 62
0
 10
30.5
 20
-6.0
 30
0.0
 11
37.0
 21
-6.0
 31
0.0
  0
LINE
  8
0
 62
0
 10
3.0
 20
29.0
 30
0.0
 11
37.0
 21
29.0
 31
0.0
  0
ARC
  8
0
 62
0
 10
37.0
 20
-3.0
 30
0.0
 40
3.0
 50
-90.0
 51
-0.0
  0
ARC
  8
0
 62
0
 10
37.0
 20
26.0
 30
0.0
 40
3.0
 50
-0.0
 51
90.0
  0
LINE
  8
0
 62
0
 10
40.0
 20
26.0
 30
0.0
 11
40.0
 21
-3.0
 31
0.0
  0
LINE
  8
0
 62
0
 10
10.1
 20
26.0
 30
0.0
 11
29.9
 21
26.0
 31
0.0
  0
LINE
  8
0
 62
0
 10
29.9
 20
26.0
 30
0.0
 11
29.9
 21
23.0
 31
0.0
  0
LINE
  8
0
 62
0
 10
29.9
 20
23.0
 30
0.0
 11
10.1
 21
23.0
 31
0.0
  0
LINE
  8
0
 62
0
 10
10.1
 20
23.0
 30
0.0
 11
10.1
 21
26.0
 31
0.0
  0
LINE
  8
0
 62
0
 10
16.1109127035
 20
5.48959235991
 30
0.0
 11
26.0104076401
 21
15.3890872965
 31
0.0
  0
ARC
  8
0
 62
0
 10
26.540737726
 20
14.8587572106
 30
0.0
 40
0.75
 50
-45.0
 51
135.0
  0
LINE
  8
0
 62
0
 10
17.1715728753
 20
4.42893218813
 30
0.0
 11
27.0710678119
 21
14.3284271247
 31
0.0
  0
ARC
  8
0
 62
0
 10
16.6412427894
 20
4.95926227402
 30
0.0
 40
0.75
 50
135.0
 51
-45.0
  0
LINE
  8
0
 62
0
 10
12.9289321881
 20
8.67157287525
 30
0.0
 11
22.8284271247
 21
18.5710678119
 31
0.0
  0
ARC
  8
0
 62
0
 10
23.3587572106
 20
18.040737726
 30
0.0
 40
0.75
 50
-45.0
 51
135.0
  0
LINE
  8
0
 62
0
 10
13.9895923599
 20
7.61091270347
 30
0.0
 11
23.8890872965
 21
17.5104076401
 31
0.0
  0
ARC
  8
0
 62
0
 10
13.459262274
 20
8.14124278936
 30
0.0
 40
0.75
 50
135.0
 51
-45.0
  0
LINE
  8
0
 62
0
 10
34.0
 20
16.4
 30
0.0
 11
37.0
 21
16.4
 31
0.0
  0
LINE
  8
0
 62
0
 10
37.0
 20
16.4
 30
0.0
 11
37.0
 21
6.6
 31
0.0
  0
LINE
  8
0
 62
0
 10
37.0
 20
6.6
 30
0.0
 11
34.0
 21
6.6
 31
0.0
  0
LINE
  8
0
 62
0
 10
34.0
 20
6.6
 30
0.0
 11
34.0
 21
16.4
 31
0.0
  0
LINE
  8
0
 62
0
 10
3.0
 20
16.4
 30
0.0
 11
6.0
 21
16.4
 31
0.0
  0
LINE
  8
0
 62
0
 10
6.0
 20
16.4
 30
0.0
 11
6.0
 21
6.6
 31
0.0
  0
LINE
  8
0
 62
0
 10
6.0
 20
6.6
 30
0.0
 11
3.0
 21
6.6
 31
0.0
  0
LINE
  8
0
 62
0
 10
3.0
 20
6.6
 30
0.0
 11
3.0
 21
16.4
 31
0.0
  0
LINE
  8
0
 62
0
 10
3.1
 20
-5.14649504627e-15
 30
0.0
 11
3.1
 21
-3.0
 31
0.0
  0
LINE
  8
0
 62
0
 10
9.9
 20
-5.14649504627e-15
 30
0.0
 11
3.1
 21
-5.14649504627e-15
 31
0.0
  0
LINE
  8
0
 62
0
 10
9.9
 20
-3.0
 30
0.0
 11
9.9
 21
-5.3290705182e-15
 31
0.0
  0
LINE
  8
0
 62
0
 10
3.1
 20
-3.0
 30
0.0
 11
9.9
 21
-3.0
 31
0.0
  0
LINE
  8
0
 62
0
 10
30.1
 20
-4.88498130835e-15
 30
0.0
 11
36.9
 21
-4.88498130835e-15
 31
0.0
  0
LINE
  8
0
 62
0
 10
36.9
 20
-4.88498130835e-15
 30
0.0
 11
36.9
 21
-3.0
 31
0.0
  0
LINE
  8
0
 62
0
 10
36.9
 20
-3.0
 30
0.0
 11
30.1
 21
-3.0
 31
0.0
  0
LINE
  8
0
 62
0
 10
30.1
 20
-3.0
 30
0.0
 11
30.1
 21
-4.88498130835e-15
 31
0.0
  0
LINE
  8
0
 62
0
 10
22.4748737342
 20
5.48959235991
 30
0.0
 11
26.0104076401
 21
9.02512626585
 31
0.0
  0
ARC
  8
0
 62
0
 10
26.540737726
 20
8.49479617996
 30
0.0
 40
0.75
 50
-45.0
 51
135.0
  0
LINE
  8
0
 62
0
 10
23.5355339059
 20
4.42893218813
 30
0.0
 11
27.0710678119
 21
7.96446609407
 31
0.0
  0
ARC
  8
0
 62
0
 10
23.00520382
 20
4.95926227402
 30
0.0
 40
0.75
 50
135.0
 51
-45.0
  0
LINE
  8
0
 62
0
 10
12.9289321881
 20
15.0355339059
 30
0.0
 11
16.4644660941
 21
18.5710678119
 31
0.0
  0
ARC
  8
0
 62
0
 10
16.99479618
 20
18.040737726
 30
0.0
 40
0.75
 50
-45.0
 51
135.0
  0
LINE
  8
0
 62
0
 10
13.9895923599
 20
13.9748737342
 30
0.0
 11
17.5251262658
 21
17.5104076401
 31
0.0
  0
ARC
  8
0
 62
0
 10
13.459262274
 20
14.50520382
 30
0.0
 40
0.75
 50
135.0
 51
-45.0
  0
CIRCLE
  8
0
 62
0
 10
30.0
 20
19.0
 30
0.0
 40
1.5
  0
CIRCLE
  8
0
 62
0
 10
10.0
 20
19.0
 30
0.0
 40
1.5
  0
CIRCLE
  8
0
 62
0
 10
10.0
 20
4.0
 30
0.0
 40
1.5
  0
CIRCLE
  8
0
 62
0
 10
30.0
 20
4.0
 30
0.0
 40
1.5
  0
ENDBLK
  0
ENDSEC
  0
SECTION
  2
ENTITIES
  0
INSERT
  2
FILLET003
  8
0
 62
0
 10
0.0
 20
0.0
 30
0.0
  0
ENDSEC
  0
EOF
