  0
SECTION
  2
HEADER
  9
$ACADVER
  1
AC1009
  9
$INSBASE
 10
0.0
 20
0.0
 30
0.0
  9
$EXTMIN
 10
0.0
 20
0.0
 30
0.0
  9
$EXTMAX
 10
0.0
 20
0.0
 30
0.0
  0
ENDSEC
  0
SECTION
  2
TABLES
  0
TABLE
  2
VPORT
 70
0
  0
ENDTAB
  0
TABLE
  2
LTYPE
 70
1
  0
LTYPE
  2
CONTINUOUS
 70
0
  3
Solid line
 72
65
 73
0
 40
0.0
  0
ENDTAB
  0
TABLE
  2
LAYER
 70
1
  0
LAYER
  2
0
 70
64
 62
7
  6
continuous
  0
ENDTAB
  0
TABLE
  2
STYLE
 70
1
  0
STYLE
  2
STANDARD
 70
0
 40
0
 41
1.0
 50
0.0
 71
0
 42
1
 3
ARIAL.TTF
 4

  0
ENDTAB
  0
TABLE
  2
VIEW
 70
0
  0
ENDTAB
  0
ENDSEC
  0
SECTION
  2
BLOCKS
  0
BLOCK
  8
0
  2
PAD005
 70
0
 10
0.0
 20
0.0
 30
0.0
  3
PAD005
  0
LINE
  8
0
 62
0
 10
29.0
 20
28.0
 30
0.0
 11
21.0
 21
28.0
 31
0.0
  0
LINE
  8
0
 62
0
 10
21.0
 20
28.0
 30
0.0
 11
21.0
 21
31.0
 31
0.0
  0
LINE
  8
0
 62
0
 10
21.0
 20
31.0
 30
0.0
 11
11.0
 21
31.0
 31
0.0
  0
LINE
  8
0
 62
0
 10
11.0
 20
31.0
 30
0.0
 11
11.0
 21
28.0
 31
0.0
  0
LINE
  8
0
 62
0
 10
11.0
 20
28.0
 30
0.0
 11
3.0
 21
28.0
 31
0.0
  0
LINE
  8
0
 62
0
 10
3.0
 20
28.0
 30
0.0
 11
3.0
 21
24.5
 31
0.0
  0
LINE
  8
0
 62
0
 10
3.0
 20
24.5
 30
0.0
 11
0.0
 21
24.5
 31
0.0
  0
LINE
  8
0
 62
0
 10
0.0
 20
24.5
 30
0.0
 11
0.0
 21
17.5
 31
0.0
  0
LINE
  8
0
 62
0
 10
0.0
 20
17.5
 30
0.0
 11
3.0
 21
17.5
 31
0.0
  0
LINE
  8
0
 62
0
 10
3.0
 20
17.5
 30
0.0
 11
3.0
 21
10.5
 31
0.0
  0
LINE
  8
0
 62
0
 10
3.0
 20
10.5
 30
0.0
 11
0.0
 21
10.5
 31
0.0
  0
LINE
  8
0
 62
0
 10
0.0
 20
10.5
 30
0.0
 11
0.0
 21
3.5
 31
0.0
  0
LINE
  8
0
 62
0
 10
0.0
 20
3.5
 30
0.0
 11
3.0
 21
3.5
 31
0.0
  0
LINE
  8
0
 62
0
 10
3.0
 20
3.5
 30
0.0
 11
3.0
 21
0.0
 31
0.0
  0
LINE
  8
0
 62
0
 10
3.0
 20
0.0
 30
0.0
 11
11.0
 21
0.0
 31
0.0
  0
LINE
  8
0
 62
0
 10
11.0
 20
0.0
 30
0.0
 11
11.0
 21
-3.0
 31
0.0
  0
LINE
  8
0
 62
0
 10
11.0
 20
-3.0
 30
0.0
 11
21.0
 21
-3.0
 31
0.0
  0
LINE
  8
0
 62
0
 10
21.0
 20
-3.0
 30
0.0
 11
21.0
 21
0.0
 31
0.0
  0
LINE
  8
0
 62
0
 10
21.0
 20
0.0
 30
0.0
 11
29.0
 21
0.0
 31
0.0
  0
LINE
  8
0
 62
0
 10
29.0
 20
3.5
 30
0.0
 11
29.0
 21
0.0
 31
0.0
  0
LINE
  8
0
 62
0
 10
32.0
 20
3.5
 30
0.0
 11
29.0
 21
3.5
 31
0.0
  0
LINE
  8
0
 62
0
 10
32.0
 20
10.5
 30
0.0
 11
32.0
 21
3.5
 31
0.0
  0
LINE
  8
0
 62
0
 10
29.0
 20
10.5
 30
0.0
 11
32.0
 21
10.5
 31
0.0
  0
LINE
  8
0
 62
0
 10
29.0
 20
10.5
 30
0.0
 11
29.0
 21
17.5
 31
0.0
  0
LINE
  8
0
 62
0
 10
29.0
 20
17.5
 30
0.0
 11
32.0
 21
17.5
 31
0.0
  0
LINE
  8
0
 62
0
 10
32.0
 20
17.5
 30
0.0
 11
32.0
 21
24.5
 31
0.0
  0
LINE
  8
0
 62
0
 10
32.0
 20
24.5
 30
0.0
 11
29.0
 21
24.5
 31
0.0
  0
LINE
  8
0
 62
0
 10
29.0
 20
28.0
 30
0.0
 11
29.0
 21
24.5
 31
0.0
  0
ENDBLK
  0
ENDSEC
  0
SECTION
  2
ENTITIES
  0
INSERT
  2
PAD005
  8
0
 62
0
 10
0.0
 20
0.0
 30
0.0
  0
ENDSEC
  0
EOF
