  0
SECTION
  2
HEADER
  9
$ACADVER
  1
AC1009
  9
$INSBASE
 10
0.0
 20
0.0
 30
0.0
  9
$EXTMIN
 10
0.0
 20
0.0
 30
0.0
  9
$EXTMAX
 10
0.0
 20
0.0
 30
0.0
  0
ENDSEC
  0
SECTION
  2
TABLES
  0
TABLE
  2
VPORT
 70
0
  0
ENDTAB
  0
TABLE
  2
LTYPE
 70
1
  0
LTYPE
  2
CONTINUOUS
 70
0
  3
Solid line
 72
65
 73
0
 40
0.0
  0
ENDTAB
  0
TABLE
  2
LAYER
 70
1
  0
LAYER
  2
0
 70
64
 62
7
  6
continuous
  0
ENDTAB
  0
TABLE
  2
STYLE
 70
1
  0
STYLE
  2
STANDARD
 70
0
 40
0
 41
1.0
 50
0.0
 71
0
 42
1
 3
ARIAL.TTF
 4

  0
ENDTAB
  0
TABLE
  2
VIEW
 70
0
  0
ENDTAB
  0
ENDSEC
  0
SECTION
  2
BLOCKS
  0
BLOCK
  8
0
  2
FILLET008001
 70
0
 10
0.0
 20
0.0
 30
0.0
  3
FILLET008001
  0
LINE
  8
0
 62
0
 10
3.0
 20
113.0
 30
0.0
 11
78.0
 21
113.0
 31
0.0
  0
ARC
  8
0
 62
0
 10
3.0
 20
110.0
 30
0.0
 40
3.0
 50
90.0
 51
-180.0
  0
ARC
  8
0
 62
0
 10
78.0
 20
110.0
 30
0.0
 40
3.0
 50
-0.0
 51
90.0
  0
LINE
  8
0
 62
0
 10
1.73472347598e-18
 20
110.0
 30
0.0
 11
1.73472347598e-18
 21
-3.0
 31
0.0
  0
LINE
  8
0
 62
0
 10
81.0
 20
110.0
 30
0.0
 11
81.0
 21
-3.0
 31
0.0
  0
ARC
  8
0
 62
0
 10
3.0
 20
-3.0
 30
0.0
 40
3.0
 50
180.0
 51
-90.0
  0
ARC
  8
0
 62
0
 10
78.0
 20
-3.0
 30
0.0
 40
3.0
 50
-90.0
 51
0.0
  0
LINE
  8
0
 62
0
 10
3.0
 20
-6.0
 30
0.0
 11
78.0
 21
-6.0
 31
0.0
  0
LINE
  8
0
 62
0
 10
20.0
 20
103.0
 30
0.0
 11
61.0
 21
103.0
 31
0.0
  0
LINE
  8
0
 62
0
 10
61.0
 20
103.0
 30
0.0
 11
61.0
 21
4.0
 31
0.0
  0
LINE
  8
0
 62
0
 10
61.0
 20
4.0
 30
0.0
 11
20.0
 21
4.0
 31
0.0
  0
LINE
  8
0
 62
0
 10
20.0
 20
4.0
 30
0.0
 11
20.0
 21
103.0
 31
0.0
  0
LINE
  8
0
 62
0
 10
75.0
 20
33.85
 30
0.0
 11
78.0
 21
33.85
 31
0.0
  0
LINE
  8
0
 62
0
 10
78.0
 20
33.85
 30
0.0
 11
78.0
 21
24.15
 31
0.0
  0
LINE
  8
0
 62
0
 10
78.0
 20
24.15
 30
0.0
 11
75.0
 21
24.15
 31
0.0
  0
LINE
  8
0
 62
0
 10
75.0
 20
24.15
 30
0.0
 11
75.0
 21
33.85
 31
0.0
  0
LINE
  8
0
 62
0
 10
3.0
 20
33.85
 30
0.0
 11
6.0
 21
33.85
 31
0.0
  0
LINE
  8
0
 62
0
 10
6.0
 20
33.85
 30
0.0
 11
6.0
 21
24.15
 31
0.0
  0
LINE
  8
0
 62
0
 10
6.0
 20
24.15
 30
0.0
 11
3.0
 21
24.15
 31
0.0
  0
LINE
  8
0
 62
0
 10
3.0
 20
24.15
 30
0.0
 11
3.0
 21
33.85
 31
0.0
  0
LINE
  8
0
 62
0
 10
10.15
 20
110.0
 30
0.0
 11
19.85
 21
110.0
 31
0.0
  0
LINE
  8
0
 62
0
 10
19.85
 20
110.0
 30
0.0
 11
19.85
 21
107.0
 31
0.0
  0
LINE
  8
0
 62
0
 10
19.85
 20
107.0
 30
0.0
 11
10.15
 21
107.0
 31
0.0
  0
LINE
  8
0
 62
0
 10
10.15
 20
107.0
 30
0.0
 11
10.15
 21
110.0
 31
0.0
  0
LINE
  8
0
 62
0
 10
10.15
 20
0.0
 30
0.0
 11
19.85
 21
0.0
 31
0.0
  0
LINE
  8
0
 62
0
 10
19.85
 20
0.0
 30
0.0
 11
19.85
 21
-3.0
 31
0.0
  0
LINE
  8
0
 62
0
 10
19.85
 20
-3.0
 30
0.0
 11
10.15
 21
-3.0
 31
0.0
  0
LINE
  8
0
 62
0
 10
10.15
 20
-3.0
 30
0.0
 11
10.15
 21
0.0
 31
0.0
  0
LINE
  8
0
 62
0
 10
3.0
 20
13.85
 30
0.0
 11
6.0
 21
13.85
 31
0.0
  0
LINE
  8
0
 62
0
 10
6.0
 20
13.85
 30
0.0
 11
6.0
 21
4.15
 31
0.0
  0
LINE
  8
0
 62
0
 10
6.0
 20
4.15
 30
0.0
 11
3.0
 21
4.15
 31
0.0
  0
LINE
  8
0
 62
0
 10
3.0
 20
4.15
 30
0.0
 11
3.0
 21
13.85
 31
0.0
  0
LINE
  8
0
 62
0
 10
75.0
 20
13.85
 30
0.0
 11
78.0
 21
13.85
 31
0.0
  0
LINE
  8
0
 62
0
 10
78.0
 20
13.85
 30
0.0
 11
78.0
 21
4.15
 31
0.0
  0
LINE
  8
0
 62
0
 10
78.0
 20
4.15
 30
0.0
 11
75.0
 21
4.15
 31
0.0
  0
LINE
  8
0
 62
0
 10
75.0
 20
4.15
 30
0.0
 11
75.0
 21
13.85
 31
0.0
  0
LINE
  8
0
 62
0
 10
61.15
 20
110.0
 30
0.0
 11
70.85
 21
110.0
 31
0.0
  0
LINE
  8
0
 62
0
 10
70.85
 20
110.0
 30
0.0
 11
70.85
 21
107.0
 31
0.0
  0
LINE
  8
0
 62
0
 10
70.85
 20
107.0
 30
0.0
 11
61.15
 21
107.0
 31
0.0
  0
LINE
  8
0
 62
0
 10
61.15
 20
107.0
 30
0.0
 11
61.15
 21
110.0
 31
0.0
  0
LINE
  8
0
 62
0
 10
61.15
 20
0.0
 30
0.0
 11
70.85
 21
0.0
 31
0.0
  0
LINE
  8
0
 62
0
 10
70.85
 20
0.0
 30
0.0
 11
70.85
 21
-3.0
 31
0.0
  0
LINE
  8
0
 62
0
 10
70.85
 20
-3.0
 30
0.0
 11
61.15
 21
-3.0
 31
0.0
  0
LINE
  8
0
 62
0
 10
61.15
 20
-3.0
 30
0.0
 11
61.15
 21
0.0
 31
0.0
  0
LINE
  8
0
 62
0
 10
75.0
 20
102.85
 30
0.0
 11
78.0
 21
102.85
 31
0.0
  0
LINE
  8
0
 62
0
 10
78.0
 20
102.85
 30
0.0
 11
78.0
 21
93.15
 31
0.0
  0
LINE
  8
0
 62
0
 10
78.0
 20
93.15
 30
0.0
 11
75.0
 21
93.15
 31
0.0
  0
LINE
  8
0
 62
0
 10
75.0
 20
93.15
 30
0.0
 11
75.0
 21
102.85
 31
0.0
  0
LINE
  8
0
 62
0
 10
3.0
 20
82.85
 30
0.0
 11
6.0
 21
82.85
 31
0.0
  0
LINE
  8
0
 62
0
 10
6.0
 20
82.85
 30
0.0
 11
6.0
 21
73.15
 31
0.0
  0
LINE
  8
0
 62
0
 10
6.0
 20
73.15
 30
0.0
 11
3.0
 21
73.15
 31
0.0
  0
LINE
  8
0
 62
0
 10
3.0
 20
73.15
 30
0.0
 11
3.0
 21
82.85
 31
0.0
  0
LINE
  8
0
 62
0
 10
75.0
 20
82.85
 30
0.0
 11
78.0
 21
82.85
 31
0.0
  0
LINE
  8
0
 62
0
 10
78.0
 20
82.85
 30
0.0
 11
78.0
 21
73.15
 31
0.0
  0
LINE
  8
0
 62
0
 10
78.0
 20
73.15
 30
0.0
 11
75.0
 21
73.15
 31
0.0
  0
LINE
  8
0
 62
0
 10
75.0
 20
73.15
 30
0.0
 11
75.0
 21
82.85
 31
0.0
  0
LINE
  8
0
 62
0
 10
3.0
 20
102.85
 30
0.0
 11
6.0
 21
102.85
 31
0.0
  0
LINE
  8
0
 62
0
 10
6.0
 20
102.85
 30
0.0
 11
6.0
 21
93.15
 31
0.0
  0
LINE
  8
0
 62
0
 10
6.0
 20
93.15
 30
0.0
 11
3.0
 21
93.15
 31
0.0
  0
LINE
  8
0
 62
0
 10
3.0
 20
93.15
 30
0.0
 11
3.0
 21
102.85
 31
0.0
  0
CIRCLE
  8
0
 62
0
 10
68.0
 20
7.0
 30
0.0
 40
1.5
  0
CIRCLE
  8
0
 62
0
 10
13.0
 20
7.0
 30
0.0
 40
1.5
  0
CIRCLE
  8
0
 62
0
 10
13.0
 20
100.0
 30
0.0
 40
1.5
  0
CIRCLE
  8
0
 62
0
 10
68.0
 20
100.0
 30
0.0
 40
1.5
  0
ENDBLK
  0
ENDSEC
  0
SECTION
  2
ENTITIES
  0
INSERT
  2
FILLET008001
  8
0
 62
0
 10
0.0
 20
0.0
 30
0.0
  0
ENDSEC
  0
EOF
