  0
SECTION
  2
HEADER
  9
$ACADVER
  1
AC1009
  9
$INSBASE
 10
0.0
 20
0.0
 30
0.0
  9
$EXTMIN
 10
0.0
 20
0.0
 30
0.0
  9
$EXTMAX
 10
0.0
 20
0.0
 30
0.0
  0
ENDSEC
  0
SECTION
  2
TABLES
  0
TABLE
  2
VPORT
 70
0
  0
ENDTAB
  0
TABLE
  2
LTYPE
 70
1
  0
LTYPE
  2
CONTINUOUS
 70
0
  3
Solid line
 72
65
 73
0
 40
0.0
  0
ENDTAB
  0
TABLE
  2
LAYER
 70
1
  0
LAYER
  2
0
 70
64
 62
7
  6
continuous
  0
ENDTAB
  0
TABLE
  2
STYLE
 70
1
  0
STYLE
  2
STANDARD
 70
0
 40
0
 41
1.0
 50
0.0
 71
0
 42
1
 3
ARIAL.TTF
 4

  0
ENDTAB
  0
TABLE
  2
VIEW
 70
0
  0
ENDTAB
  0
ENDSEC
  0
SECTION
  2
BLOCKS
  0
BLOCK
  8
0
  2
FILLET007
 70
0
 10
0.0
 20
0.0
 30
0.0
  3
FILLET007
  0
LINE
  8
0
 62
0
 10
45.85
 20
35.6
 30
0.0
 11
48.0
 21
35.6
 31
0.0
  0
ARC
  8
0
 62
0
 10
45.85
 20
34.6
 30
0.0
 40
1.0
 50
90.0
 51
-180.0
  0
LINE
  8
0
 62
0
 10
48.0
 20
38.6
 30
0.0
 11
48.0
 21
35.6
 31
0.0
  0
LINE
  8
0
 62
0
 10
44.85
 20
30.1
 30
0.0
 11
44.85
 21
34.6
 31
0.0
  0
LINE
  8
0
 62
0
 10
58.0
 20
38.6
 30
0.0
 11
48.0
 21
38.6
 31
0.0
  0
ARC
  8
0
 62
0
 10
43.85
 20
30.1
 30
0.0
 40
1.0
 50
-90.0
 51
-0.0
  0
LINE
  8
0
 62
0
 10
58.0
 20
35.6
 30
0.0
 11
58.0
 21
38.6
 31
0.0
  0
LINE
  8
0
 62
0
 10
38.15
 20
29.1
 30
0.0
 11
43.85
 21
29.1
 31
0.0
  0
LINE
  8
0
 62
0
 10
67.0
 20
35.6
 30
0.0
 11
58.0
 21
35.6
 31
0.0
  0
ARC
  8
0
 62
0
 10
38.15
 20
30.1
 30
0.0
 40
1.0
 50
-180.0
 51
-90.0
  0
LINE
  8
0
 62
0
 10
67.0
 20
30.6
 30
0.0
 11
67.0
 21
35.6
 31
0.0
  0
LINE
  8
0
 62
0
 10
37.15
 20
34.6
 30
0.0
 11
37.15
 21
30.1
 31
0.0
  0
LINE
  8
0
 62
0
 10
70.0
 20
30.6
 30
0.0
 11
67.0
 21
30.6
 31
0.0
  0
ARC
  8
0
 62
0
 10
36.15
 20
34.6
 30
0.0
 40
1.0
 50
-0.0
 51
90.0
  0
LINE
  8
0
 62
0
 10
70.0
 20
23.6
 30
0.0
 11
70.0
 21
30.6
 31
0.0
  0
LINE
  8
0
 62
0
 10
28.0
 20
35.6
 30
0.0
 11
36.15
 21
35.6
 31
0.0
  0
LINE
  8
0
 62
0
 10
67.0
 20
23.6
 30
0.0
 11
70.0
 21
23.6
 31
0.0
  0
LINE
  8
0
 62
0
 10
28.0
 20
35.6
 30
0.0
 11
28.0
 21
38.6
 31
0.0
  0
LINE
  8
0
 62
0
 10
67.0
 20
15.0
 30
0.0
 11
67.0
 21
23.6
 31
0.0
  0
LINE
  8
0
 62
0
 10
28.0
 20
38.6
 30
0.0
 11
18.0
 21
38.6
 31
0.0
  0
LINE
  8
0
 62
0
 10
70.0
 20
15.0
 30
0.0
 11
67.0
 21
15.0
 31
0.0
  0
LINE
  8
0
 62
0
 10
18.0
 20
38.6
 30
0.0
 11
18.0
 21
35.6
 31
0.0
  0
LINE
  8
0
 62
0
 10
70.0
 20
8.0
 30
0.0
 11
70.0
 21
15.0
 31
0.0
  0
LINE
  8
0
 62
0
 10
18.0
 20
35.6
 30
0.0
 11
9.0
 21
35.6
 31
0.0
  0
LINE
  8
0
 62
0
 10
67.0
 20
8.0
 30
0.0
 11
70.0
 21
8.0
 31
0.0
  0
LINE
  8
0
 62
0
 10
9.0
 20
35.6
 30
0.0
 11
9.0
 21
30.6
 31
0.0
  0
LINE
  8
0
 62
0
 10
67.0
 20
3.0
 30
0.0
 11
67.0
 21
8.0
 31
0.0
  0
LINE
  8
0
 62
0
 10
9.0
 20
30.6
 30
0.0
 11
6.0
 21
30.6
 31
0.0
  0
LINE
  8
0
 62
0
 10
58.0
 20
3.0
 30
0.0
 11
67.0
 21
3.0
 31
0.0
  0
LINE
  8
0
 62
0
 10
6.0
 20
30.6
 30
0.0
 11
6.0
 21
23.6
 31
0.0
  0
LINE
  8
0
 62
0
 10
58.0
 20
0.0
 30
0.0
 11
58.0
 21
3.0
 31
0.0
  0
LINE
  8
0
 62
0
 10
6.0
 20
23.6
 30
0.0
 11
9.0
 21
23.6
 31
0.0
  0
LINE
  8
0
 62
0
 10
48.0
 20
0.0
 30
0.0
 11
58.0
 21
0.0
 31
0.0
  0
LINE
  8
0
 62
0
 10
9.0
 20
23.6
 30
0.0
 11
9.0
 21
15.0
 31
0.0
  0
LINE
  8
0
 62
0
 10
48.0
 20
3.0
 30
0.0
 11
48.0
 21
0.0
 31
0.0
  0
LINE
  8
0
 62
0
 10
9.0
 20
15.0
 30
0.0
 11
6.0
 21
15.0
 31
0.0
  0
LINE
  8
0
 62
0
 10
28.0
 20
3.0
 30
0.0
 11
48.0
 21
3.0
 31
0.0
  0
LINE
  8
0
 62
0
 10
6.0
 20
15.0
 30
0.0
 11
6.0
 21
8.0
 31
0.0
  0
LINE
  8
0
 62
0
 10
28.0
 20
0.0
 30
0.0
 11
28.0
 21
3.0
 31
0.0
  0
LINE
  8
0
 62
0
 10
6.0
 20
8.0
 30
0.0
 11
9.0
 21
8.0
 31
0.0
  0
LINE
  8
0
 62
0
 10
18.0
 20
0.0
 30
0.0
 11
28.0
 21
0.0
 31
0.0
  0
LINE
  8
0
 62
0
 10
9.0
 20
8.0
 30
0.0
 11
9.0
 21
3.0
 31
0.0
  0
LINE
  8
0
 62
0
 10
18.0
 20
3.0
 30
0.0
 11
18.0
 21
0.0
 31
0.0
  0
LINE
  8
0
 62
0
 10
9.0
 20
3.0
 30
0.0
 11
18.0
 21
3.0
 31
0.0
  0
ENDBLK
  0
ENDSEC
  0
SECTION
  2
ENTITIES
  0
INSERT
  2
FILLET007
  8
0
 62
0
 10
0.0
 20
0.0
 30
0.0
  0
ENDSEC
  0
EOF
