  0
SECTION
  2
HEADER
  9
$ACADVER
  1
AC1009
  9
$INSBASE
 10
0.0
 20
0.0
 30
0.0
  9
$EXTMIN
 10
0.0
 20
0.0
 30
0.0
  9
$EXTMAX
 10
0.0
 20
0.0
 30
0.0
  0
ENDSEC
  0
SECTION
  2
TABLES
  0
TABLE
  2
VPORT
 70
0
  0
ENDTAB
  0
TABLE
  2
LTYPE
 70
1
  0
LTYPE
  2
CONTINUOUS
 70
0
  3
Solid line
 72
65
 73
0
 40
0.0
  0
ENDTAB
  0
TABLE
  2
LAYER
 70
1
  0
LAYER
  2
0
 70
64
 62
7
  6
continuous
  0
ENDTAB
  0
TABLE
  2
STYLE
 70
1
  0
STYLE
  2
STANDARD
 70
0
 40
0
 41
1.0
 50
0.0
 71
0
 42
1
 3
ARIAL.TTF
 4

  0
ENDTAB
  0
TABLE
  2
VIEW
 70
0
  0
ENDTAB
  0
ENDSEC
  0
SECTION
  2
BLOCKS
  0
BLOCK
  8
0
  2
FILLET006
 70
0
 10
0.0
 20
0.0
 30
0.0
  3
FILLET006
  0
LINE
  8
0
 62
0
 10
3.0
 20
0.0
 30
0.0
 11
62.0
 21
0.0
 31
0.0
  0
ARC
  8
0
 62
0
 10
3.0
 20
3.0
 30
0.0
 40
3.0
 50
-180.0
 51
-90.0
  0
ARC
  8
0
 62
0
 10
62.0
 20
3.0
 30
0.0
 40
3.0
 50
-90.0
 51
0.0
  0
LINE
  8
0
 62
0
 10
0.0
 20
67.0
 30
0.0
 11
0.0
 21
3.0
 31
0.0
  0
LINE
  8
0
 62
0
 10
65.0
 20
3.0
 30
0.0
 11
65.0
 21
67.0
 31
0.0
  0
ARC
  8
0
 62
0
 10
3.0
 20
67.0
 30
0.0
 40
3.0
 50
90.0
 51
-180.0
  0
ARC
  8
0
 62
0
 10
62.0
 20
67.0
 30
0.0
 40
3.0
 50
-0.0
 51
90.0
  0
LINE
  8
0
 62
0
 10
62.0
 20
70.0
 30
0.0
 11
3.0
 21
70.0
 31
0.0
  0
LINE
  8
0
 62
0
 10
26.5579973332
 20
27.5744254687
 30
0.0
 11
31.0857864376
 21
36.5857864376
 31
0.0
  0
ARC
  8
0
 62
0
 10
32.5
 20
38.0
 30
0.0
 40
12.0
 50
-150.319244219
 51
-119.680755781
  0
LINE
  8
0
 62
0
 10
31.0857864376
 20
36.5857864376
 30
0.0
 11
22.0744254687
 21
32.0579973332
 31
0.0
  0
LINE
  8
0
 62
0
 10
31.0857864376
 20
39.4142135624
 30
0.0
 11
22.0744254687
 21
43.9420026668
 31
0.0
  0
ARC
  8
0
 62
0
 10
32.5
 20
38.0
 30
0.0
 40
12.0
 50
119.680755781
 51
150.319244219
  0
LINE
  8
0
 62
0
 10
31.0857864376
 20
39.4142135624
 30
0.0
 11
26.5579973332
 21
48.4255745313
 31
0.0
  0
LINE
  8
0
 62
0
 10
33.9142135624
 20
39.4142135624
 30
0.0
 11
38.4420026668
 21
48.4255745313
 31
0.0
  0
ARC
  8
0
 62
0
 10
32.5
 20
38.0
 30
0.0
 40
12.0
 50
29.6807557815
 51
60.3192442185
  0
LINE
  8
0
 62
0
 10
33.9142135624
 20
39.4142135624
 30
0.0
 11
42.9255745313
 21
43.9420026668
 31
0.0
  0
LINE
  8
0
 62
0
 10
42.9255745313
 20
32.0579973332
 30
0.0
 11
33.9142135624
 21
36.5857864376
 31
0.0
  0
ARC
  8
0
 62
0
 10
32.5
 20
38.0
 30
0.0
 40
12.0
 50
-60.3192442185
 51
-29.6807557815
  0
LINE
  8
0
 62
0
 10
33.9142135624
 20
36.5857864376
 30
0.0
 11
38.4420026668
 21
27.5744254687
 31
0.0
  0
LINE
  8
0
 62
0
 10
44.0736248284
 20
41.1703640693
 30
0.0
 11
34.5
 21
38.0
 31
0.0
  0
ARC
  8
0
 62
0
 10
32.5
 20
38.0
 30
0.0
 40
12.0
 50
-15.3192442185
 51
15.3192442185
  0
LINE
  8
0
 62
0
 10
34.5
 20
38.0
 30
0.0
 11
44.0736248284
 21
34.8296359307
 31
0.0
  0
LINE
  8
0
 62
0
 10
30.5
 20
38.0
 30
0.0
 11
20.9263751716
 21
34.8296359307
 31
0.0
  0
ARC
  8
0
 62
0
 10
32.5
 20
38.0
 30
0.0
 40
12.0
 50
164.680755781
 51
-164.680755781
  0
LINE
  8
0
 62
0
 10
30.5
 20
38.0
 30
0.0
 11
20.9263751716
 21
41.1703640693
 31
0.0
  0
ARC
  8
0
 62
0
 10
32.5
 20
38.0
 30
0.0
 40
12.0
 50
74.6807557815
 51
105.319244219
  0
LINE
  8
0
 62
0
 10
32.5
 20
40.0
 30
0.0
 11
35.6703640693
 21
49.5736248284
 31
0.0
  0
LINE
  8
0
 62
0
 10
29.3296359307
 20
49.5736248284
 30
0.0
 11
32.5
 21
40.0
 31
0.0
  0
LINE
  8
0
 62
0
 10
35.6703640693
 20
26.4263751716
 30
0.0
 11
32.5
 21
36.0
 31
0.0
  0
ARC
  8
0
 62
0
 10
32.5
 20
38.0
 30
0.0
 40
12.0
 50
-105.319244219
 51
-74.6807557815
  0
LINE
  8
0
 62
0
 10
32.5
 20
36.0
 30
0.0
 11
29.3296359307
 21
26.4263751716
 31
0.0
  0
LINE
  8
0
 62
0
 10
59.0
 20
24.9
 30
0.0
 11
62.0
 21
24.9
 31
0.0
  0
LINE
  8
0
 62
0
 10
62.0
 20
24.9
 30
0.0
 11
62.0
 21
15.1
 31
0.0
  0
LINE
  8
0
 62
0
 10
62.0
 20
15.1
 30
0.0
 11
59.0
 21
15.1
 31
0.0
  0
LINE
  8
0
 62
0
 10
59.0
 20
15.1
 30
0.0
 11
59.0
 21
24.9
 31
0.0
  0
LINE
  8
0
 62
0
 10
10.1
 20
67.0
 30
0.0
 11
19.9
 21
67.0
 31
0.0
  0
LINE
  8
0
 62
0
 10
19.9
 20
67.0
 30
0.0
 11
19.9
 21
64.0
 31
0.0
  0
LINE
  8
0
 62
0
 10
19.9
 20
64.0
 30
0.0
 11
10.1
 21
64.0
 31
0.0
  0
LINE
  8
0
 62
0
 10
10.1
 20
64.0
 30
0.0
 11
10.1
 21
67.0
 31
0.0
  0
LINE
  8
0
 62
0
 10
3.0
 20
24.9
 30
0.0
 11
6.0
 21
24.9
 31
0.0
  0
LINE
  8
0
 62
0
 10
6.0
 20
24.9
 30
0.0
 11
6.0
 21
15.1
 31
0.0
  0
LINE
  8
0
 62
0
 10
6.0
 20
15.1
 30
0.0
 11
3.0
 21
15.1
 31
0.0
  0
LINE
  8
0
 62
0
 10
3.0
 20
15.1
 30
0.0
 11
3.0
 21
24.9
 31
0.0
  0
LINE
  8
0
 62
0
 10
10.1
 20
6.0
 30
0.0
 11
19.9
 21
6.0
 31
0.0
  0
LINE
  8
0
 62
0
 10
19.9
 20
6.0
 30
0.0
 11
19.9
 21
3.0
 31
0.0
  0
LINE
  8
0
 62
0
 10
19.9
 20
3.0
 30
0.0
 11
10.1
 21
3.0
 31
0.0
  0
LINE
  8
0
 62
0
 10
10.1
 20
3.0
 30
0.0
 11
10.1
 21
6.0
 31
0.0
  0
LINE
  8
0
 62
0
 10
45.1
 20
6.0
 30
0.0
 11
54.9
 21
6.0
 31
0.0
  0
LINE
  8
0
 62
0
 10
54.9
 20
6.0
 30
0.0
 11
54.9
 21
3.0
 31
0.0
  0
LINE
  8
0
 62
0
 10
54.9
 20
3.0
 30
0.0
 11
45.1
 21
3.0
 31
0.0
  0
LINE
  8
0
 62
0
 10
45.1
 20
3.0
 30
0.0
 11
45.1
 21
6.0
 31
0.0
  0
LINE
  8
0
 62
0
 10
59.0
 20
54.9
 30
0.0
 11
62.0
 21
54.9
 31
0.0
  0
LINE
  8
0
 62
0
 10
62.0
 20
54.9
 30
0.0
 11
62.0
 21
45.1
 31
0.0
  0
LINE
  8
0
 62
0
 10
62.0
 20
45.1
 30
0.0
 11
59.0
 21
45.1
 31
0.0
  0
LINE
  8
0
 62
0
 10
59.0
 20
45.1
 30
0.0
 11
59.0
 21
54.9
 31
0.0
  0
LINE
  8
0
 62
0
 10
45.1
 20
67.0
 30
0.0
 11
54.9
 21
67.0
 31
0.0
  0
LINE
  8
0
 62
0
 10
54.9
 20
67.0
 30
0.0
 11
54.9
 21
64.0
 31
0.0
  0
LINE
  8
0
 62
0
 10
54.9
 20
64.0
 30
0.0
 11
45.1
 21
64.0
 31
0.0
  0
LINE
  8
0
 62
0
 10
45.1
 20
64.0
 30
0.0
 11
45.1
 21
67.0
 31
0.0
  0
LINE
  8
0
 62
0
 10
3.0
 20
54.9
 30
0.0
 11
6.0
 21
54.9
 31
0.0
  0
LINE
  8
0
 62
0
 10
6.0
 20
54.9
 30
0.0
 11
6.0
 21
45.1
 31
0.0
  0
LINE
  8
0
 62
0
 10
6.0
 20
45.1
 30
0.0
 11
3.0
 21
45.1
 31
0.0
  0
LINE
  8
0
 62
0
 10
3.0
 20
45.1
 30
0.0
 11
3.0
 21
54.9
 31
0.0
  0
CIRCLE
  8
0
 62
0
 10
12.5
 20
10.0
 30
0.0
 40
1.5
  0
CIRCLE
  8
0
 62
0
 10
52.5
 20
10.0
 30
0.0
 40
1.5
  0
CIRCLE
  8
0
 62
0
 10
52.5
 20
60.0
 30
0.0
 40
1.5
  0
CIRCLE
  8
0
 62
0
 10
12.5
 20
60.0
 30
0.0
 40
1.5
  0
ENDBLK
  0
ENDSEC
  0
SECTION
  2
ENTITIES
  0
INSERT
  2
FILLET006
  8
0
 62
0
 10
0.0
 20
0.0
 30
0.0
  0
ENDSEC
  0
EOF
