  0
SECTION
  2
HEADER
  9
$ACADVER
  1
AC1009
  9
$INSBASE
 10
0.0
 20
0.0
 30
0.0
  9
$EXTMIN
 10
0.0
 20
0.0
 30
0.0
  9
$EXTMAX
 10
0.0
 20
0.0
 30
0.0
  0
ENDSEC
  0
SECTION
  2
TABLES
  0
TABLE
  2
VPORT
 70
0
  0
ENDTAB
  0
TABLE
  2
LTYPE
 70
1
  0
LTYPE
  2
CONTINUOUS
 70
0
  3
Solid line
 72
65
 73
0
 40
0.0
  0
ENDTAB
  0
TABLE
  2
LAYER
 70
1
  0
LAYER
  2
PYDXF
 70
64
 62
7
  6
continuous
  0
ENDTAB
  0
TABLE
  2
STYLE
 70
1
  0
STYLE
  2
STANDARD
 70
0
 40
0
 41
1.0
 50
0.0
 71
0
 42
1
 3
ARIAL.TTF
 4

  0
ENDTAB
  0
TABLE
  2
VIEW
 70
0
  0
ENDTAB
  0
ENDSEC
  0
SECTION
  2
BLOCKS
  0
BLOCK
  8
0
  2
FILLET
 70
0
 10
0.0
 20
0.0
 30
0.0
  3
FILLET
  0
LINE
  8
0
 62
0
 10
3.0
 20
-6.0
 30
0.0
 11
37.0
 21
-6.0
 31
0.0
  0
ARC
  8
0
 62
0
 10
3.0
 20
-3.0
 30
0.0
 40
3.0
 50
180.0
 51
-90.0
  0
ARC
  8
0
 62
0
 10
37.0
 20
-3.0
 30
0.0
 40
3.0
 50
-90.0
 51
0.0
  0
LINE
  8
0
 62
0
 10
0.0
 20
21.0
 30
0.0
 11
0.0
 21
-3.0
 31
0.0
  0
LINE
  8
0
 62
0
 10
40.0
 20
21.0
 30
0.0
 11
40.0
 21
-3.0
 31
0.0
  0
ARC
  8
0
 62
0
 10
3.0
 20
21.0
 30
0.0
 40
3.0
 50
90.0
 51
180.0
  0
ARC
  8
0
 62
0
 10
37.0
 20
21.0
 30
0.0
 40
3.0
 50
-0.0
 51
90.0
  0
LINE
  8
0
 62
0
 10
3.0
 20
24.0
 30
0.0
 11
37.0
 21
24.0
 31
0.0
  0
LINE
  8
0
 62
0
 10
10.15
 20
18.0
 30
0.0
 11
10.15
 21
21.0
 31
0.0
  0
LINE
  8
0
 62
0
 10
29.85
 20
18.0
 30
0.0
 11
10.15
 21
18.0
 31
0.0
  0
LINE
  8
0
 62
0
 10
29.85
 20
21.0
 30
0.0
 11
29.85
 21
18.0
 31
0.0
  0
LINE
  8
0
 62
0
 10
10.15
 20
21.0
 30
0.0
 11
29.85
 21
21.0
 31
0.0
  0
LINE
  8
0
 62
0
 10
10.15
 20
-3.0
 30
0.0
 11
10.15
 21
0.0
 31
0.0
  0
LINE
  8
0
 62
0
 10
29.85
 20
-3.0
 30
0.0
 11
10.15
 21
-3.0
 31
0.0
  0
LINE
  8
0
 62
0
 10
29.85
 20
0.0
 30
0.0
 11
29.85
 21
-3.0
 31
0.0
  0
LINE
  8
0
 62
0
 10
10.15
 20
0.0
 30
0.0
 11
29.85
 21
0.0
 31
0.0
  0
LINE
  8
0
 62
0
 10
34.0
 20
4.15
 30
0.0
 11
34.0
 21
13.85
 31
0.0
  0
LINE
  8
0
 62
0
 10
37.0
 20
4.15
 30
0.0
 11
34.0
 21
4.15
 31
0.0
  0
LINE
  8
0
 62
0
 10
37.0
 20
13.85
 30
0.0
 11
37.0
 21
4.15
 31
0.0
  0
LINE
  8
0
 62
0
 10
34.0
 20
13.85
 30
0.0
 11
37.0
 21
13.85
 31
0.0
  0
LINE
  8
0
 62
0
 10
3.0
 20
4.15
 30
0.0
 11
3.0
 21
13.85
 31
0.0
  0
LINE
  8
0
 62
0
 10
6.0
 20
4.15
 30
0.0
 11
3.0
 21
4.15
 31
0.0
  0
LINE
  8
0
 62
0
 10
6.0
 20
13.85
 30
0.0
 11
6.0
 21
4.15
 31
0.0
  0
LINE
  8
0
 62
0
 10
3.0
 20
13.85
 30
0.0
 11
6.0
 21
13.85
 31
0.0
  0
CIRCLE
  8
0
 62
0
 10
30.0
 20
4.0
 30
0.0
 40
1.5
  0
CIRCLE
  8
0
 62
0
 10
10.0
 20
4.0
 30
0.0
 40
1.5
  0
CIRCLE
  8
0
 62
0
 10
10.0
 20
14.0
 30
0.0
 40
1.5
  0
CIRCLE
  8
0
 62
0
 10
30.0
 20
14.0
 30
0.0
 40
1.5
  0
ENDBLK
  0
ENDSEC
  0
SECTION
  2
ENTITIES
  0
INSERT
  2
FILLET
  8
0
 10
0.0
 20
0.0
 30
0.0
  0
ENDSEC
  0
EOF
