  0
SECTION
  2
HEADER
  9
$ACADVER
  1
AC1009
  9
$INSBASE
 10
0.0
 20
0.0
 30
0.0
  9
$EXTMIN
 10
0.0
 20
0.0
 30
0.0
  9
$EXTMAX
 10
0.0
 20
0.0
 30
0.0
  0
ENDSEC
  0
SECTION
  2
TABLES
  0
TABLE
  2
VPORT
 70
0
  0
ENDTAB
  0
TABLE
  2
LTYPE
 70
1
  0
LTYPE
  2
CONTINUOUS
 70
0
  3
Solid line
 72
65
 73
0
 40
0.0
  0
ENDTAB
  0
TABLE
  2
LAYER
 70
1
  0
LAYER
  2
0
 70
64
 62
7
  6
continuous
  0
ENDTAB
  0
TABLE
  2
STYLE
 70
1
  0
STYLE
  2
STANDARD
 70
0
 40
0
 41
1.0
 50
0.0
 71
0
 42
1
 3
ARIAL.TTF
 4

  0
ENDTAB
  0
TABLE
  2
VIEW
 70
0
  0
ENDTAB
  0
ENDSEC
  0
SECTION
  2
BLOCKS
  0
BLOCK
  8
0
  2
FILLET009
 70
0
 10
0.0
 20
0.0
 30
0.0
  3
FILLET009
  0
LINE
  8
0
 62
0
 10
35.0
 20
30.0
 30
0.0
 11
35.0
 21
12.7
 31
0.0
  0
ARC
  8
0
 62
0
 10
34.0
 20
12.7
 30
0.0
 40
1.0
 50
-90.0
 51
-0.0
  0
LINE
  8
0
 62
0
 10
38.0
 20
30.0
 30
0.0
 11
35.0
 21
30.0
 31
0.0
  0
LINE
  8
0
 62
0
 10
34.0
 20
11.7
 30
0.0
 11
21.0
 21
11.7
 31
0.0
  0
LINE
  8
0
 62
0
 10
38.0
 20
33.0
 30
0.0
 11
38.0
 21
30.0
 31
0.0
  0
ARC
  8
0
 62
0
 10
21.0
 20
12.7
 30
0.0
 40
1.0
 50
-180.0
 51
-90.0
  0
LINE
  8
0
 62
0
 10
45.0
 20
33.0
 30
0.0
 11
38.0
 21
33.0
 31
0.0
  0
LINE
  8
0
 62
0
 10
20.0
 20
12.7
 30
0.0
 11
20.0
 21
30.0
 31
0.0
  0
LINE
  8
0
 62
0
 10
45.0
 20
30.0
 30
0.0
 11
45.0
 21
33.0
 31
0.0
  0
LINE
  8
0
 62
0
 10
20.0
 20
30.0
 30
0.0
 11
17.0
 21
30.0
 31
0.0
  0
LINE
  8
0
 62
0
 10
54.0
 20
30.0
 30
0.0
 11
45.0
 21
30.0
 31
0.0
  0
LINE
  8
0
 62
0
 10
17.0
 20
30.0
 30
0.0
 11
17.0
 21
33.0
 31
0.0
  0
LINE
  8
0
 62
0
 10
54.0
 20
30.0
 30
0.0
 11
54.0
 21
6.0
 31
0.0
  0
LINE
  8
0
 62
0
 10
17.0
 20
33.0
 30
0.0
 11
10.0
 21
33.0
 31
0.0
  0
LINE
  8
0
 62
0
 10
45.0
 20
6.0
 30
0.0
 11
54.0
 21
6.0
 31
0.0
  0
LINE
  8
0
 62
0
 10
10.0
 20
33.0
 30
0.0
 11
10.0
 21
30.0
 31
0.0
  0
LINE
  8
0
 62
0
 10
45.0
 20
3.0
 30
0.0
 11
45.0
 21
6.0
 31
0.0
  0
LINE
  8
0
 62
0
 10
10.0
 20
30.0
 30
0.0
 11
0.0
 21
30.0
 31
0.0
  0
LINE
  8
0
 62
0
 10
35.0
 20
3.0
 30
0.0
 11
45.0
 21
3.0
 31
0.0
  0
LINE
  8
0
 62
0
 10
0.0
 20
30.0
 30
0.0
 11
0.0
 21
6.0
 31
0.0
  0
LINE
  8
0
 62
0
 10
35.0
 20
6.0
 30
0.0
 11
35.0
 21
3.0
 31
0.0
  0
LINE
  8
0
 62
0
 10
0.0
 20
6.0
 30
0.0
 11
10.0
 21
6.0
 31
0.0
  0
LINE
  8
0
 62
0
 10
19.0
 20
6.0
 30
0.0
 11
35.0
 21
6.0
 31
0.0
  0
LINE
  8
0
 62
0
 10
10.0
 20
6.0
 30
0.0
 11
10.0
 21
3.0
 31
0.0
  0
LINE
  8
0
 62
0
 10
19.0
 20
3.0
 30
0.0
 11
19.0
 21
6.0
 31
0.0
  0
LINE
  8
0
 62
0
 10
10.0
 20
3.0
 30
0.0
 11
19.0
 21
3.0
 31
0.0
  0
LINE
  8
0
 62
0
 10
48.0
 20
22.9
 30
0.0
 11
51.0
 21
22.9
 31
0.0
  0
LINE
  8
0
 62
0
 10
51.0
 20
22.9
 30
0.0
 11
51.0
 21
13.1
 31
0.0
  0
LINE
  8
0
 62
0
 10
51.0
 20
13.1
 30
0.0
 11
48.0
 21
13.1
 31
0.0
  0
LINE
  8
0
 62
0
 10
48.0
 20
13.1
 30
0.0
 11
48.0
 21
22.9
 31
0.0
  0
LINE
  8
0
 62
0
 10
3.0
 20
22.9
 30
0.0
 11
6.0
 21
22.9
 31
0.0
  0
LINE
  8
0
 62
0
 10
6.0
 20
22.9
 30
0.0
 11
6.0
 21
13.1
 31
0.0
  0
LINE
  8
0
 62
0
 10
6.0
 20
13.1
 30
0.0
 11
3.0
 21
13.1
 31
0.0
  0
LINE
  8
0
 62
0
 10
3.0
 20
13.1
 30
0.0
 11
3.0
 21
22.9
 31
0.0
  0
ENDBLK
  0
ENDSEC
  0
SECTION
  2
ENTITIES
  0
INSERT
  2
FILLET009
  8
0
 62
0
 10
0.0
 20
0.0
 30
0.0
  0
ENDSEC
  0
EOF
