  0
SECTION
  2
HEADER
  9
$ACADVER
  1
AC1009
  9
$INSBASE
 10
0.0
 20
0.0
 30
0.0
  9
$EXTMIN
 10
0.0
 20
0.0
 30
0.0
  9
$EXTMAX
 10
0.0
 20
0.0
 30
0.0
  0
ENDSEC
  0
SECTION
  2
TABLES
  0
TABLE
  2
VPORT
 70
0
  0
ENDTAB
  0
TABLE
  2
LTYPE
 70
1
  0
LTYPE
  2
CONTINUOUS
 70
0
  3
Solid line
 72
65
 73
0
 40
0.0
  0
ENDTAB
  0
TABLE
  2
LAYER
 70
1
  0
LAYER
  2
0
 70
64
 62
7
  6
continuous
  0
ENDTAB
  0
TABLE
  2
STYLE
 70
1
  0
STYLE
  2
STANDARD
 70
0
 40
0
 41
1.0
 50
0.0
 71
0
 42
1
 3
ARIAL.TTF
 4

  0
ENDTAB
  0
TABLE
  2
VIEW
 70
0
  0
ENDTAB
  0
ENDSEC
  0
SECTION
  2
BLOCKS
  0
BLOCK
  8
0
  2
FILLET005
 70
0
 10
0.0
 20
0.0
 30
0.0
  3
FILLET005
  0
LINE
  8
0
 62
0
 10
110.0
 20
30.0
 30
0.0
 11
110.0
 21
26.0
 31
0.0
  0
ARC
  8
0
 62
0
 10
107.0
 20
26.0
 30
0.0
 40
3.0
 50
-90.0
 51
0.0
  0
LINE
  8
0
 62
0
 10
110.0
 20
30.0
 30
0.0
 11
114.0
 21
30.0
 31
0.0
  0
LINE
  8
0
 62
0
 10
73.0
 20
23.0
 30
0.0
 11
107.0
 21
23.0
 31
0.0
  0
LINE
  8
0
 62
0
 10
114.0
 20
30.0
 30
0.0
 11
114.0
 21
33.0
 31
0.0
  0
ARC
  8
0
 62
0
 10
73.0
 20
26.0
 30
0.0
 40
3.0
 50
180.0
 51
-90.0
  0
LINE
  8
0
 62
0
 10
114.0
 20
33.0
 30
0.0
 11
121.0
 21
33.0
 31
0.0
  0
LINE
  8
0
 62
0
 10
70.0
 20
26.0
 30
0.0
 11
70.0
 21
30.0
 31
0.0
  0
LINE
  8
0
 62
0
 10
121.0
 20
33.0
 30
0.0
 11
121.0
 21
23.0
 31
0.0
  0
LINE
  8
0
 62
0
 10
62.0
 20
30.0
 30
0.0
 11
70.0
 21
30.0
 31
0.0
  0
LINE
  8
0
 62
0
 10
121.0
 20
23.0
 30
0.0
 11
124.0
 21
23.0
 31
0.0
  0
LINE
  8
0
 62
0
 10
62.0
 20
33.0
 30
0.0
 11
62.0
 21
30.0
 31
0.0
  0
LINE
  8
0
 62
0
 10
124.0
 20
23.0
 30
0.0
 11
124.0
 21
13.0
 31
0.0
  0
LINE
  8
0
 62
0
 10
52.0
 20
33.0
 30
0.0
 11
62.0
 21
33.0
 31
0.0
  0
LINE
  8
0
 62
0
 10
124.0
 20
13.0
 30
0.0
 11
121.0
 21
13.0
 31
0.0
  0
LINE
  8
0
 62
0
 10
52.0
 20
30.0
 30
0.0
 11
52.0
 21
33.0
 31
0.0
  0
LINE
  8
0
 62
0
 10
121.0
 20
13.0
 30
0.0
 11
121.0
 21
6.0
 31
0.0
  0
LINE
  8
0
 62
0
 10
52.0
 20
30.0
 30
0.0
 11
48.0
 21
30.0
 31
0.0
  0
LINE
  8
0
 62
0
 10
117.0
 20
6.0
 30
0.0
 11
121.0
 21
6.0
 31
0.0
  0
LINE
  8
0
 62
0
 10
48.0
 20
30.0
 30
0.0
 11
48.0
 21
23.0
 31
0.0
  0
LINE
  8
0
 62
0
 10
117.0
 20
3.0
 30
0.0
 11
117.0
 21
6.0
 31
0.0
  0
LINE
  8
0
 62
0
 10
48.0
 20
23.0
 30
0.0
 11
45.0
 21
23.0
 31
0.0
  0
LINE
  8
0
 62
0
 10
107.0
 20
3.0
 30
0.0
 11
117.0
 21
3.0
 31
0.0
  0
LINE
  8
0
 62
0
 10
45.0
 20
23.0
 30
0.0
 11
45.0
 21
13.0
 31
0.0
  0
LINE
  8
0
 62
0
 10
107.0
 20
6.0
 30
0.0
 11
107.0
 21
3.0
 31
0.0
  0
LINE
  8
0
 62
0
 10
45.0
 20
13.0
 30
0.0
 11
48.0
 21
13.0
 31
0.0
  0
LINE
  8
0
 62
0
 10
89.5
 20
6.0
 30
0.0
 11
107.0
 21
6.0
 31
0.0
  0
LINE
  8
0
 62
0
 10
48.0
 20
13.0
 30
0.0
 11
48.0
 21
6.0
 31
0.0
  0
LINE
  8
0
 62
0
 10
89.5
 20
3.0
 30
0.0
 11
89.5
 21
6.0
 31
0.0
  0
LINE
  8
0
 62
0
 10
48.0
 20
6.0
 30
0.0
 11
52.0
 21
6.0
 31
0.0
  0
LINE
  8
0
 62
0
 10
79.5
 20
3.0
 30
0.0
 11
89.5
 21
3.0
 31
0.0
  0
LINE
  8
0
 62
0
 10
52.0
 20
6.0
 30
0.0
 11
52.0
 21
3.0
 31
0.0
  0
LINE
  8
0
 62
0
 10
79.5
 20
6.0
 30
0.0
 11
79.5
 21
3.0
 31
0.0
  0
LINE
  8
0
 62
0
 10
52.0
 20
3.0
 30
0.0
 11
62.0
 21
3.0
 31
0.0
  0
LINE
  8
0
 62
0
 10
62.0
 20
6.0
 30
0.0
 11
79.5
 21
6.0
 31
0.0
  0
LINE
  8
0
 62
0
 10
62.0
 20
3.0
 30
0.0
 11
62.0
 21
6.0
 31
0.0
  0
ENDBLK
  0
ENDSEC
  0
SECTION
  2
ENTITIES
  0
INSERT
  2
FILLET005
  8
0
 62
0
 10
0.0
 20
0.0
 30
0.0
  0
ENDSEC
  0
EOF
