  0
SECTION
  2
HEADER
  9
$ACADVER
  1
AC1009
  9
$INSBASE
 10
0.0
 20
0.0
 30
0.0
  9
$EXTMIN
 10
0.0
 20
0.0
 30
0.0
  9
$EXTMAX
 10
0.0
 20
0.0
 30
0.0
  0
ENDSEC
  0
SECTION
  2
TABLES
  0
TABLE
  2
VPORT
 70
0
  0
ENDTAB
  0
TABLE
  2
LTYPE
 70
1
  0
LTYPE
  2
CONTINUOUS
 70
0
  3
Solid line
 72
65
 73
0
 40
0.0
  0
ENDTAB
  0
TABLE
  2
LAYER
 70
1
  0
LAYER
  2
0
 70
64
 62
7
  6
continuous
  0
ENDTAB
  0
TABLE
  2
STYLE
 70
1
  0
STYLE
  2
STANDARD
 70
0
 40
0
 41
1.0
 50
0.0
 71
0
 42
1
 3
ARIAL.TTF
 4

  0
ENDTAB
  0
TABLE
  2
VIEW
 70
0
  0
ENDTAB
  0
ENDSEC
  0
SECTION
  2
BLOCKS
  0
BLOCK
  8
0
  2
FILLET007
 70
0
 10
0.0
 20
0.0
 30
0.0
  3
FILLET007
  0
LINE
  8
0
 62
0
 10
51.0
 20
68.0
 30
0.0
 11
48.0
 21
68.0
 31
0.0
  0
ARC
  8
0
 62
0
 10
48.0
 20
67.0
 30
0.0
 40
1.0
 50
90.0
 51
-180.0
  0
ARC
  8
0
 62
0
 10
51.0
 20
71.0
 30
0.0
 40
3.0
 50
-90.0
 51
0.0
  0
LINE
  8
0
 62
0
 10
47.0
 20
67.0
 30
0.0
 11
47.0
 21
29.0
 31
0.0
  0
LINE
  8
0
 62
0
 10
54.0
 20
82.0
 30
0.0
 11
54.0
 21
71.0
 31
0.0
  0
ARC
  8
0
 62
0
 10
48.0
 20
29.0
 30
0.0
 40
1.0
 50
-180.0
 51
-90.0
  0
ARC
  8
0
 62
0
 10
51.0
 20
82.0
 30
0.0
 40
3.0
 50
-0.0
 51
90.0
  0
LINE
  8
0
 62
0
 10
48.0
 20
28.0
 30
0.0
 11
51.0
 21
28.0
 31
0.0
  0
LINE
  8
0
 62
0
 10
3.0
 20
85.0
 30
0.0
 11
51.0
 21
85.0
 31
0.0
  0
ARC
  8
0
 62
0
 10
51.0
 20
25.0
 30
0.0
 40
3.0
 50
0.0
 51
90.0
  0
ARC
  8
0
 62
0
 10
3.0
 20
82.0
 30
0.0
 40
3.0
 50
90.0
 51
-180.0
  0
LINE
  8
0
 62
0
 10
54.0
 20
25.0
 30
0.0
 11
54.0
 21
3.0
 31
0.0
  0
LINE
  8
0
 62
0
 10
0.0
 20
82.0
 30
0.0
 11
0.0
 21
3.0
 31
0.0
  0
ARC
  8
0
 62
0
 10
51.0
 20
3.0
 30
0.0
 40
3.0
 50
-90.0
 51
0.0
  0
ARC
  8
0
 62
0
 10
3.0
 20
3.0
 30
0.0
 40
3.0
 50
180.0
 51
-90.0
  0
LINE
  8
0
 62
0
 10
38.0
 20
-3.22779209771e-17
 30
0.0
 11
51.0
 21
-3.22779209771e-17
 31
0.0
  0
LINE
  8
0
 62
0
 10
3.0
 20
-6.16297582204e-33
 30
0.0
 11
17.0
 21
-6.16297582204e-33
 31
0.0
  0
ARC
  8
0
 62
0
 10
38.0
 20
3.0
 30
0.0
 40
3.0
 50
180.0
 51
-90.0
  0
ARC
  8
0
 62
0
 10
17.0
 20
3.0
 30
0.0
 40
3.0
 50
-90.0
 51
0.0
  0
LINE
  8
0
 62
0
 10
35.0
 20
6.0
 30
0.0
 11
35.0
 21
3.0
 31
0.0
  0
LINE
  8
0
 62
0
 10
20.0
 20
3.0
 30
0.0
 11
20.0
 21
6.0
 31
0.0
  0
ARC
  8
0
 62
0
 10
34.0
 20
6.0
 30
0.0
 40
1.0
 50
0.0
 51
90.0
  0
ARC
  8
0
 62
0
 10
21.0
 20
6.0
 30
0.0
 40
1.0
 50
90.0
 51
180.0
  0
LINE
  8
0
 62
0
 10
21.0
 20
7.0
 30
0.0
 11
34.0
 21
7.0
 31
0.0
  0
LINE
  8
0
 62
0
 10
3.0
 20
74.9
 30
0.0
 11
6.0
 21
74.9
 31
0.0
  0
LINE
  8
0
 62
0
 10
6.0
 20
74.9
 30
0.0
 11
6.0
 21
65.1
 31
0.0
  0
LINE
  8
0
 62
0
 10
6.0
 20
65.1
 30
0.0
 11
3.0
 21
65.1
 31
0.0
  0
LINE
  8
0
 62
0
 10
3.0
 20
65.1
 30
0.0
 11
3.0
 21
74.9
 31
0.0
  0
LINE
  8
0
 62
0
 10
48.0
 20
19.9
 30
0.0
 11
51.0
 21
19.9
 31
0.0
  0
LINE
  8
0
 62
0
 10
51.0
 20
19.9
 30
0.0
 11
51.0
 21
10.1
 31
0.0
  0
LINE
  8
0
 62
0
 10
51.0
 20
10.1
 30
0.0
 11
48.0
 21
10.1
 31
0.0
  0
LINE
  8
0
 62
0
 10
48.0
 20
10.1
 30
0.0
 11
48.0
 21
19.9
 31
0.0
  0
LINE
  8
0
 62
0
 10
3.0
 20
19.9
 30
0.0
 11
6.0
 21
19.9
 31
0.0
  0
LINE
  8
0
 62
0
 10
6.0
 20
19.9
 30
0.0
 11
6.0
 21
10.1
 31
0.0
  0
LINE
  8
0
 62
0
 10
6.0
 20
10.1
 30
0.0
 11
3.0
 21
10.1
 31
0.0
  0
LINE
  8
0
 62
0
 10
3.0
 20
10.1
 30
0.0
 11
3.0
 21
19.9
 31
0.0
  0
LINE
  8
0
 62
0
 10
3.0
 20
47.4
 30
0.0
 11
6.0
 21
47.4
 31
0.0
  0
LINE
  8
0
 62
0
 10
6.0
 20
47.4
 30
0.0
 11
6.0
 21
37.6
 31
0.0
  0
LINE
  8
0
 62
0
 10
6.0
 20
37.6
 30
0.0
 11
3.0
 21
37.6
 31
0.0
  0
LINE
  8
0
 62
0
 10
3.0
 20
37.6
 30
0.0
 11
3.0
 21
47.4
 31
0.0
  0
LINE
  8
0
 62
0
 10
35.1
 20
82.0
 30
0.0
 11
44.9
 21
82.0
 31
0.0
  0
LINE
  8
0
 62
0
 10
44.9
 20
82.0
 30
0.0
 11
44.9
 21
79.0
 31
0.0
  0
LINE
  8
0
 62
0
 10
44.9
 20
79.0
 30
0.0
 11
35.1
 21
79.0
 31
0.0
  0
LINE
  8
0
 62
0
 10
35.1
 20
79.0
 30
0.0
 11
35.1
 21
82.0
 31
0.0
  0
LINE
  8
0
 62
0
 10
10.1
 20
82.0
 30
0.0
 11
18.9
 21
82.0
 31
0.0
  0
LINE
  8
0
 62
0
 10
18.9
 20
82.0
 30
0.0
 11
18.9
 21
79.0
 31
0.0
  0
LINE
  8
0
 62
0
 10
18.9
 20
79.0
 30
0.0
 11
10.1
 21
79.0
 31
0.0
  0
LINE
  8
0
 62
0
 10
10.1
 20
79.0
 30
0.0
 11
10.1
 21
82.0
 31
0.0
  0
LINE
  8
0
 62
0
 10
48.0
 20
78.9
 30
0.0
 11
51.0
 21
78.9
 31
0.0
  0
LINE
  8
0
 62
0
 10
51.0
 20
78.9
 30
0.0
 11
51.0
 21
72.1
 31
0.0
  0
LINE
  8
0
 62
0
 10
51.0
 20
72.1
 30
0.0
 11
48.0
 21
72.1
 31
0.0
  0
LINE
  8
0
 62
0
 10
48.0
 20
72.1
 30
0.0
 11
48.0
 21
78.9
 31
0.0
  0
LINE
  8
0
 62
0
 10
10.1
 20
6.0
 30
0.0
 11
16.9
 21
6.0
 31
0.0
  0
LINE
  8
0
 62
0
 10
16.9
 20
6.0
 30
0.0
 11
16.9
 21
3.0
 31
0.0
  0
LINE
  8
0
 62
0
 10
16.9
 20
3.0
 30
0.0
 11
10.1
 21
3.0
 31
0.0
  0
LINE
  8
0
 62
0
 10
10.1
 20
3.0
 30
0.0
 11
10.1
 21
6.0
 31
0.0
  0
LINE
  8
0
 62
0
 10
38.1
 20
3.0
 30
0.0
 11
44.9
 21
3.0
 31
0.0
  0
LINE
  8
0
 62
0
 10
44.9
 20
3.0
 30
0.0
 11
44.9
 21
6.0
 31
0.0
  0
LINE
  8
0
 62
0
 10
44.9
 20
6.0
 30
0.0
 11
38.1
 21
6.0
 31
0.0
  0
LINE
  8
0
 62
0
 10
38.1
 20
6.0
 30
0.0
 11
38.1
 21
3.0
 31
0.0
  0
CIRCLE
  8
0
 62
0
 10
10.0
 20
10.0
 30
0.0
 40
1.5
  0
CIRCLE
  8
0
 62
0
 10
45.0
 20
10.0
 30
0.0
 40
1.5
  0
CIRCLE
  8
0
 62
0
 10
45.0
 20
75.0
 30
0.0
 40
1.5
  0
CIRCLE
  8
0
 62
0
 10
10.0
 20
75.0
 30
0.0
 40
1.5
  0
ENDBLK
  0
ENDSEC
  0
SECTION
  2
ENTITIES
  0
INSERT
  2
FILLET007
  8
0
 62
0
 10
0.0
 20
0.0
 30
0.0
  0
ENDSEC
  0
EOF
