  0
SECTION
  2
HEADER
  9
$ACADVER
  1
AC1009
  9
$INSBASE
 10
0.0
 20
0.0
 30
0.0
  9
$EXTMIN
 10
0.0
 20
0.0
 30
0.0
  9
$EXTMAX
 10
0.0
 20
0.0
 30
0.0
  0
ENDSEC
  0
SECTION
  2
TABLES
  0
TABLE
  2
VPORT
 70
0
  0
ENDTAB
  0
TABLE
  2
LTYPE
 70
1
  0
LTYPE
  2
CONTINUOUS
 70
0
  3
Solid line
 72
65
 73
0
 40
0.0
  0
ENDTAB
  0
TABLE
  2
LAYER
 70
1
  0
LAYER
  2
0
 70
64
 62
7
  6
continuous
  0
ENDTAB
  0
TABLE
  2
STYLE
 70
1
  0
STYLE
  2
STANDARD
 70
0
 40
0
 41
1.0
 50
0.0
 71
0
 42
1
 3
ARIAL.TTF
 4

  0
ENDTAB
  0
TABLE
  2
VIEW
 70
0
  0
ENDTAB
  0
ENDSEC
  0
SECTION
  2
BLOCKS
  0
BLOCK
  8
0
  2
PAD
 70
0
 10
0.0
 20
0.0
 30
0.0
  3
PAD
  0
LINE
  8
0
 62
0
 10
0.0
 20
3.0
 30
0.0
 11
0.0
 21
62.0
 31
0.0
  0
ARC
  8
0
 62
0
 10
3.0
 20
62.0
 30
0.0
 40
3.0
 50
90.0
 51
-180.0
  0
LINE
  8
0
 62
0
 10
3.0
 20
65.0
 30
0.0
 11
107.0
 21
65.0
 31
0.0
  0
ARC
  8
0
 62
0
 10
107.0
 20
62.0
 30
0.0
 40
3.0
 50
-0.0
 51
90.0
  0
LINE
  8
0
 62
0
 10
110.0
 20
62.0
 30
0.0
 11
110.0
 21
3.0
 31
0.0
  0
ARC
  8
0
 62
0
 10
107.0
 20
3.0
 30
0.0
 40
3.0
 50
-90.0
 51
0.0
  0
LINE
  8
0
 62
0
 10
107.0
 20
-4.4408920985e-16
 30
0.0
 11
3.0
 21
-4.4408920985e-16
 31
0.0
  0
ARC
  8
0
 62
0
 10
3.0
 20
3.0
 30
0.0
 40
3.0
 50
-180.0
 51
-90.0
  0
LINE
  8
0
 62
0
 10
104.0
 20
51.85
 30
0.0
 11
107.0
 21
51.85
 31
0.0
  0
LINE
  8
0
 62
0
 10
107.0
 20
51.85
 30
0.0
 11
107.0
 21
13.15
 31
0.0
  0
LINE
  8
0
 62
0
 10
107.0
 20
13.15
 30
0.0
 11
104.0
 21
13.15
 31
0.0
  0
LINE
  8
0
 62
0
 10
104.0
 20
13.15
 30
0.0
 11
104.0
 21
51.85
 31
0.0
  0
LINE
  8
0
 62
0
 10
3.0
 20
51.85
 30
0.0
 11
6.0
 21
51.85
 31
0.0
  0
LINE
  8
0
 62
0
 10
6.0
 20
51.85
 30
0.0
 11
6.0
 21
13.15
 31
0.0
  0
LINE
  8
0
 62
0
 10
6.0
 20
13.15
 30
0.0
 11
3.0
 21
13.15
 31
0.0
  0
LINE
  8
0
 62
0
 10
3.0
 20
13.15
 30
0.0
 11
3.0
 21
51.85
 31
0.0
  0
LINE
  8
0
 62
0
 10
50.15
 20
62.0
 30
0.0
 11
59.85
 21
62.0
 31
0.0
  0
LINE
  8
0
 62
0
 10
59.85
 20
62.0
 30
0.0
 11
59.85
 21
59.0
 31
0.0
  0
LINE
  8
0
 62
0
 10
59.85
 20
59.0
 30
0.0
 11
50.15
 21
59.0
 31
0.0
  0
LINE
  8
0
 62
0
 10
50.15
 20
59.0
 30
0.0
 11
50.15
 21
62.0
 31
0.0
  0
LINE
  8
0
 62
0
 10
50.15
 20
6.0
 30
0.0
 11
59.85
 21
6.0
 31
0.0
  0
LINE
  8
0
 62
0
 10
59.85
 20
6.0
 30
0.0
 11
59.85
 21
3.0
 31
0.0
  0
LINE
  8
0
 62
0
 10
59.85
 20
3.0
 30
0.0
 11
50.15
 21
3.0
 31
0.0
  0
LINE
  8
0
 62
0
 10
50.15
 20
3.0
 30
0.0
 11
50.15
 21
6.0
 31
0.0
  0
LINE
  8
0
 62
0
 10
16.15
 20
6.0
 30
0.0
 11
25.85
 21
6.0
 31
0.0
  0
LINE
  8
0
 62
0
 10
25.85
 20
6.0
 30
0.0
 11
25.85
 21
3.0
 31
0.0
  0
LINE
  8
0
 62
0
 10
25.85
 20
3.0
 30
0.0
 11
16.15
 21
3.0
 31
0.0
  0
LINE
  8
0
 62
0
 10
16.15
 20
3.0
 30
0.0
 11
16.15
 21
6.0
 31
0.0
  0
LINE
  8
0
 62
0
 10
16.15
 20
62.0
 30
0.0
 11
25.85
 21
62.0
 31
0.0
  0
LINE
  8
0
 62
0
 10
25.85
 20
62.0
 30
0.0
 11
25.85
 21
59.0
 31
0.0
  0
LINE
  8
0
 62
0
 10
25.85
 20
59.0
 30
0.0
 11
16.15
 21
59.0
 31
0.0
  0
LINE
  8
0
 62
0
 10
16.15
 20
59.0
 30
0.0
 11
16.15
 21
62.0
 31
0.0
  0
LINE
  8
0
 62
0
 10
84.15
 20
62.0
 30
0.0
 11
93.85
 21
62.0
 31
0.0
  0
LINE
  8
0
 62
0
 10
93.85
 20
62.0
 30
0.0
 11
93.85
 21
59.0
 31
0.0
  0
LINE
  8
0
 62
0
 10
93.85
 20
59.0
 30
0.0
 11
84.15
 21
59.0
 31
0.0
  0
LINE
  8
0
 62
0
 10
84.15
 20
59.0
 30
0.0
 11
84.15
 21
62.0
 31
0.0
  0
LINE
  8
0
 62
0
 10
84.15
 20
6.0
 30
0.0
 11
93.85
 21
6.0
 31
0.0
  0
LINE
  8
0
 62
0
 10
93.85
 20
6.0
 30
0.0
 11
93.85
 21
3.0
 31
0.0
  0
LINE
  8
0
 62
0
 10
93.85
 20
3.0
 30
0.0
 11
84.15
 21
3.0
 31
0.0
  0
LINE
  8
0
 62
0
 10
84.15
 20
3.0
 30
0.0
 11
84.15
 21
6.0
 31
0.0
  0
CIRCLE
  8
0
 62
0
 10
20.0
 20
10.0
 30
0.0
 40
1.5
  0
CIRCLE
  8
0
 62
0
 10
55.0
 20
45.0
 30
0.0
 40
1.5
  0
CIRCLE
  8
0
 62
0
 10
55.0
 20
10.0
 30
0.0
 40
1.5
  0
CIRCLE
  8
0
 62
0
 10
20.0
 20
45.0
 30
0.0
 40
1.5
  0
CIRCLE
  8
0
 62
0
 10
65.0
 20
45.0
 30
0.0
 40
1.5
  0
CIRCLE
  8
0
 62
0
 10
65.0
 20
10.0
 30
0.0
 40
1.5
  0
CIRCLE
  8
0
 62
0
 10
90.0
 20
10.0
 30
0.0
 40
1.5
  0
CIRCLE
  8
0
 62
0
 10
70.0
 20
10.0
 30
0.0
 40
1.5
  0
CIRCLE
  8
0
 62
0
 10
90.0
 20
45.0
 30
0.0
 40
1.5
  0
CIRCLE
  8
0
 62
0
 10
70.0
 20
45.0
 30
0.0
 40
1.5
  0
CIRCLE
  8
0
 62
0
 10
95.0
 20
45.0
 30
0.0
 40
1.5
  0
CIRCLE
  8
0
 62
0
 10
95.0
 20
10.0
 30
0.0
 40
1.5
  0
ENDBLK
  0
ENDSEC
  0
SECTION
  2
ENTITIES
  0
INSERT
  2
PAD
  8
0
 62
0
 10
0.0
 20
0.0
 30
0.0
  0
ENDSEC
  0
EOF
