  0
SECTION
  2
HEADER
  9
$ACADVER
  1
AC1009
  9
$INSBASE
 10
0.0
 20
0.0
 30
0.0
  9
$EXTMIN
 10
0.0
 20
0.0
 30
0.0
  9
$EXTMAX
 10
0.0
 20
0.0
 30
0.0
  0
ENDSEC
  0
SECTION
  2
TABLES
  0
TABLE
  2
VPORT
 70
0
  0
ENDTAB
  0
TABLE
  2
LTYPE
 70
1
  0
LTYPE
  2
CONTINUOUS
 70
0
  3
Solid line
 72
65
 73
0
 40
0.0
  0
ENDTAB
  0
TABLE
  2
LAYER
 70
1
  0
LAYER
  2
0
 70
64
 62
7
  6
continuous
  0
ENDTAB
  0
TABLE
  2
STYLE
 70
1
  0
STYLE
  2
STANDARD
 70
0
 40
0
 41
1.0
 50
0.0
 71
0
 42
1
 3
ARIAL.TTF
 4

  0
ENDTAB
  0
TABLE
  2
VIEW
 70
0
  0
ENDTAB
  0
ENDSEC
  0
SECTION
  2
BLOCKS
  0
BLOCK
  8
0
  2
FILLET003
 70
0
 10
0.0
 20
0.0
 30
0.0
  3
FILLET003
  0
LINE
  8
0
 62
0
 10
-55.5
 20
-17.5
 30
0.0
 11
88.5
 21
-17.5
 31
0.0
  0
ARC
  8
0
 62
0
 10
-55.5
 20
-14.5
 30
0.0
 40
3.0
 50
-180.0
 51
-90.0
  0
ARC
  8
0
 62
0
 10
88.5
 20
-14.5
 30
0.0
 40
3.0
 50
-90.0
 51
-0.0
  0
LINE
  8
0
 62
0
 10
-58.5
 20
131.5
 30
0.0
 11
-58.5
 21
-14.5
 31
0.0
  0
LINE
  8
0
 62
0
 10
91.5
 20
-14.5
 30
0.0
 11
91.5
 21
131.5
 31
0.0
  0
ARC
  8
0
 62
0
 10
-55.5
 20
131.5
 30
0.0
 40
3.0
 50
90.0
 51
-180.0
  0
ARC
  8
0
 62
0
 10
88.5
 20
131.5
 30
0.0
 40
3.0
 50
-0.0
 51
90.0
  0
LINE
  8
0
 62
0
 10
88.5
 20
134.5
 30
0.0
 11
-55.5
 21
134.5
 31
0.0
  0
LINE
  8
0
 62
0
 10
66.6
 20
131.5
 30
0.0
 11
81.4
 21
131.5
 31
0.0
  0
LINE
  8
0
 62
0
 10
81.4
 20
131.5
 30
0.0
 11
81.4
 21
128.5
 31
0.0
  0
LINE
  8
0
 62
0
 10
81.4
 20
128.5
 30
0.0
 11
66.6
 21
128.5
 31
0.0
  0
LINE
  8
0
 62
0
 10
66.6
 20
128.5
 30
0.0
 11
66.6
 21
131.5
 31
0.0
  0
LINE
  8
0
 62
0
 10
66.6
 20
-11.5
 30
0.0
 11
81.4
 21
-11.5
 31
0.0
  0
LINE
  8
0
 62
0
 10
81.4
 20
-11.5
 30
0.0
 11
81.4
 21
-14.5
 31
0.0
  0
LINE
  8
0
 62
0
 10
81.4
 20
-14.5
 30
0.0
 11
66.6
 21
-14.5
 31
0.0
  0
LINE
  8
0
 62
0
 10
66.6
 20
-14.5
 30
0.0
 11
66.6
 21
-11.5
 31
0.0
  0
LINE
  8
0
 62
0
 10
-48.4
 20
131.5
 30
0.0
 11
-33.6
 21
131.5
 31
0.0
  0
LINE
  8
0
 62
0
 10
-33.6
 20
131.5
 30
0.0
 11
-33.6
 21
128.5
 31
0.0
  0
LINE
  8
0
 62
0
 10
-33.6
 20
128.5
 30
0.0
 11
-48.4
 21
128.5
 31
0.0
  0
LINE
  8
0
 62
0
 10
-48.4
 20
128.5
 30
0.0
 11
-48.4
 21
131.5
 31
0.0
  0
LINE
  8
0
 62
0
 10
-48.4
 20
-11.5
 30
0.0
 11
-33.6
 21
-11.5
 31
0.0
  0
LINE
  8
0
 62
0
 10
-33.6
 20
-11.5
 30
0.0
 11
-33.6
 21
-14.5
 31
0.0
  0
LINE
  8
0
 62
0
 10
-33.6
 20
-14.5
 30
0.0
 11
-48.4
 21
-14.5
 31
0.0
  0
LINE
  8
0
 62
0
 10
-48.4
 20
-14.5
 30
0.0
 11
-48.4
 21
-11.5
 31
0.0
  0
CIRCLE
  8
0
 62
0
 10
-53.5
 20
-13.0
 30
0.0
 40
1.5
  0
CIRCLE
  8
0
 62
0
 10
86.5
 20
-13.0
 30
0.0
 40
1.5
  0
CIRCLE
  8
0
 62
0
 10
86.5
 20
130.0
 30
0.0
 40
1.5
  0
CIRCLE
  8
0
 62
0
 10
-53.5
 20
130.0
 30
0.0
 40
1.5
  0
CIRCLE
  8
0
 62
0
 10
-48.5
 20
116.0
 30
0.0
 40
1.5
  0
ENDBLK
  0
ENDSEC
  0
SECTION
  2
ENTITIES
  0
INSERT
  2
FILLET003
  8
0
 62
0
 10
0.0
 20
0.0
 30
0.0
  0
ENDSEC
  0
EOF
