  0
SECTION
  2
HEADER
  9
$ACADVER
  1
AC1009
  9
$INSBASE
 10
0.0
 20
0.0
 30
0.0
  9
$EXTMIN
 10
0.0
 20
0.0
 30
0.0
  9
$EXTMAX
 10
0.0
 20
0.0
 30
0.0
  0
ENDSEC
  0
SECTION
  2
TABLES
  0
TABLE
  2
VPORT
 70
0
  0
ENDTAB
  0
TABLE
  2
LTYPE
 70
1
  0
LTYPE
  2
CONTINUOUS
 70
0
  3
Solid line
 72
65
 73
0
 40
0.0
  0
ENDTAB
  0
TABLE
  2
LAYER
 70
1
  0
LAYER
  2
0
 70
64
 62
7
  6
continuous
  0
ENDTAB
  0
TABLE
  2
STYLE
 70
1
  0
STYLE
  2
STANDARD
 70
0
 40
0
 41
1.0
 50
0.0
 71
0
 42
1
 3
ARIAL.TTF
 4

  0
ENDTAB
  0
TABLE
  2
VIEW
 70
0
  0
ENDTAB
  0
ENDSEC
  0
SECTION
  2
BLOCKS
  0
BLOCK
  8
0
  2
FILLET001
 70
0
 10
0.0
 20
0.0
 30
0.0
  3
FILLET001
  0
LINE
  8
0
 62
0
 10
-14.0
 20
107.5
 30
0.0
 11
-14.0
 21
109.5
 31
0.0
  0
ARC
  8
0
 62
0
 10
-13.0
 20
109.5
 30
0.0
 40
1.0
 50
90.0
 51
-180.0
  0
LINE
  8
0
 62
0
 10
-22.0
 20
107.5
 30
0.0
 11
-14.0
 21
107.5
 31
0.0
  0
LINE
  8
0
 62
0
 10
-13.0
 20
110.5
 30
0.0
 11
-5.0
 21
110.5
 31
0.0
  0
LINE
  8
0
 62
0
 10
-22.0
 20
107.5
 30
0.0
 11
-22.0
 21
57.5
 31
0.0
  0
ARC
  8
0
 62
0
 10
-5.0
 20
109.5
 30
0.0
 40
1.0
 50
-0.0
 51
90.0
  0
LINE
  8
0
 62
0
 10
-22.0
 20
57.5
 30
0.0
 11
-16.5
 21
57.5
 31
0.0
  0
LINE
  8
0
 62
0
 10
-4.0
 20
109.5
 30
0.0
 11
-4.0
 21
107.5
 31
0.0
  0
LINE
  8
0
 62
0
 10
-16.5
 20
57.5
 30
0.0
 11
-16.5
 21
47.5
 31
0.0
  0
LINE
  8
0
 62
0
 10
-4.0
 20
107.5
 30
0.0
 11
4.0
 21
107.5
 31
0.0
  0
LINE
  8
0
 62
0
 10
-16.5
 20
47.5
 30
0.0
 11
-19.5
 21
47.5
 31
0.0
  0
LINE
  8
0
 62
0
 10
4.0
 20
107.5
 30
0.0
 11
4.0
 21
109.5
 31
0.0
  0
LINE
  8
0
 62
0
 10
-19.5
 20
47.5
 30
0.0
 11
-19.5
 21
32.5
 31
0.0
  0
ARC
  8
0
 62
0
 10
5.0
 20
109.5
 30
0.0
 40
1.0
 50
90.0
 51
-180.0
  0
LINE
  8
0
 62
0
 10
-19.5
 20
32.5
 30
0.0
 11
-16.5
 21
32.5
 31
0.0
  0
LINE
  8
0
 62
0
 10
5.0
 20
110.5
 30
0.0
 11
13.0
 21
110.5
 31
0.0
  0
LINE
  8
0
 62
0
 10
-16.5
 20
32.5
 30
0.0
 11
-16.5
 21
-16.0
 31
0.0
  0
ARC
  8
0
 62
0
 10
13.0
 20
109.5
 30
0.0
 40
1.0
 50
-0.0
 51
90.0
  0
LINE
  8
0
 62
0
 10
-16.5
 20
-16.0
 30
0.0
 11
-11.5
 21
-16.0
 31
0.0
  0
LINE
  8
0
 62
0
 10
14.0
 20
109.5
 30
0.0
 11
14.0
 21
107.5
 31
0.0
  0
LINE
  8
0
 62
0
 10
-11.5
 20
-16.0
 30
0.0
 11
-11.5
 21
-14.75
 31
0.0
  0
LINE
  8
0
 62
0
 10
14.0
 20
107.5
 30
0.0
 11
22.0
 21
107.5
 31
0.0
  0
LINE
  8
0
 62
0
 10
-11.5
 20
-14.75
 30
0.0
 11
-9.2
 21
-14.75
 31
0.0
  0
LINE
  8
0
 62
0
 10
22.0
 20
57.5
 30
0.0
 11
22.0
 21
107.5
 31
0.0
  0
LINE
  8
0
 62
0
 10
-9.2
 20
-14.75
 30
0.0
 11
-9.2
 21
-16.0
 31
0.0
  0
LINE
  8
0
 62
0
 10
16.5
 20
57.5
 30
0.0
 11
22.0
 21
57.5
 31
0.0
  0
LINE
  8
0
 62
0
 10
-9.2
 20
-16.0
 30
0.0
 11
-6.2
 21
-16.0
 31
0.0
  0
LINE
  8
0
 62
0
 10
16.5
 20
57.5
 30
0.0
 11
16.5
 21
54.0
 31
0.0
  0
LINE
  8
0
 62
0
 10
-6.2
 20
-16.0
 30
0.0
 11
-6.2
 21
-19.0
 31
0.0
  0
LINE
  8
0
 62
0
 10
16.5
 20
54.0
 30
0.0
 11
11.5
 21
54.0
 31
0.0
  0
LINE
  8
0
 62
0
 10
-6.2
 20
-19.0
 30
0.0
 11
-9.2
 21
-19.0
 31
0.0
  0
LINE
  8
0
 62
0
 10
11.5
 20
54.0
 30
0.0
 11
11.5
 21
55.25
 31
0.0
  0
LINE
  8
0
 62
0
 10
-9.2
 20
-19.0
 30
0.0
 11
-9.2
 21
-20.25
 31
0.0
  0
LINE
  8
0
 62
0
 10
11.5
 20
55.25
 30
0.0
 11
9.2
 21
55.25
 31
0.0
  0
LINE
  8
0
 62
0
 10
-9.2
 20
-20.25
 30
0.0
 11
-11.5
 21
-20.25
 31
0.0
  0
LINE
  8
0
 62
0
 10
9.2
 20
55.25
 30
0.0
 11
9.2
 21
54.0
 31
0.0
  0
LINE
  8
0
 62
0
 10
-11.5
 20
-20.25
 30
0.0
 11
-11.5
 21
-19.0
 31
0.0
  0
LINE
  8
0
 62
0
 10
9.2
 20
54.0
 30
0.0
 11
6.2
 21
54.0
 31
0.0
  0
LINE
  8
0
 62
0
 10
-11.5
 20
-19.0
 30
0.0
 11
-16.5
 21
-19.0
 31
0.0
  0
LINE
  8
0
 62
0
 10
6.2
 20
54.0
 30
0.0
 11
6.2
 21
51.0
 31
0.0
  0
LINE
  8
0
 62
0
 10
-16.5
 20
-19.0
 30
0.0
 11
-16.5
 21
-67.5
 31
0.0
  0
LINE
  8
0
 62
0
 10
6.2
 20
51.0
 30
0.0
 11
9.2
 21
51.0
 31
0.0
  0
LINE
  8
0
 62
0
 10
-16.5
 20
-67.5
 30
0.0
 11
-19.5
 21
-67.5
 31
0.0
  0
LINE
  8
0
 62
0
 10
9.2
 20
51.0
 30
0.0
 11
9.2
 21
49.75
 31
0.0
  0
LINE
  8
0
 62
0
 10
-19.5
 20
-67.5
 30
0.0
 11
-19.5
 21
-82.5
 31
0.0
  0
LINE
  8
0
 62
0
 10
9.2
 20
49.75
 30
0.0
 11
11.5
 21
49.75
 31
0.0
  0
LINE
  8
0
 62
0
 10
-19.5
 20
-82.5
 30
0.0
 11
-16.5
 21
-82.5
 31
0.0
  0
LINE
  8
0
 62
0
 10
11.5
 20
49.75
 30
0.0
 11
11.5
 21
51.0
 31
0.0
  0
LINE
  8
0
 62
0
 10
-16.5
 20
-82.5
 30
0.0
 11
-16.5
 21
-92.5
 31
0.0
  0
LINE
  8
0
 62
0
 10
11.5
 20
51.0
 30
0.0
 11
16.5
 21
51.0
 31
0.0
  0
LINE
  8
0
 62
0
 10
-16.5
 20
-92.5
 30
0.0
 11
-22.0
 21
-92.5
 31
0.0
  0
LINE
  8
0
 62
0
 10
16.5
 20
51.0
 30
0.0
 11
16.5
 21
47.5
 31
0.0
  0
LINE
  8
0
 62
0
 10
-22.0
 20
-92.5
 30
0.0
 11
-22.0
 21
-107.5
 31
0.0
  0
LINE
  8
0
 62
0
 10
19.5
 20
47.5
 30
0.0
 11
16.5
 21
47.5
 31
0.0
  0
LINE
  8
0
 62
0
 10
-14.0
 20
-107.5
 30
0.0
 11
-22.0
 21
-107.5
 31
0.0
  0
LINE
  8
0
 62
0
 10
19.5
 20
32.5
 30
0.0
 11
19.5
 21
47.5
 31
0.0
  0
LINE
  8
0
 62
0
 10
-14.0
 20
-109.5
 30
0.0
 11
-14.0
 21
-107.5
 31
0.0
  0
LINE
  8
0
 62
0
 10
16.5
 20
32.5
 30
0.0
 11
19.5
 21
32.5
 31
0.0
  0
ARC
  8
0
 62
0
 10
-13.0
 20
-109.5
 30
0.0
 40
1.0
 50
-180.0
 51
-90.0
  0
LINE
  8
0
 62
0
 10
16.5
 20
-67.5
 30
0.0
 11
16.5
 21
32.5
 31
0.0
  0
LINE
  8
0
 62
0
 10
-5.0
 20
-110.5
 30
0.0
 11
-13.0
 21
-110.5
 31
0.0
  0
LINE
  8
0
 62
0
 10
19.5
 20
-67.5
 30
0.0
 11
16.5
 21
-67.5
 31
0.0
  0
ARC
  8
0
 62
0
 10
-5.0
 20
-109.5
 30
0.0
 40
1.0
 50
-90.0
 51
-0.0
  0
LINE
  8
0
 62
0
 10
19.5
 20
-82.5
 30
0.0
 11
19.5
 21
-67.5
 31
0.0
  0
LINE
  8
0
 62
0
 10
-4.0
 20
-107.5
 30
0.0
 11
-4.0
 21
-109.5
 31
0.0
  0
LINE
  8
0
 62
0
 10
16.5
 20
-82.5
 30
0.0
 11
19.5
 21
-82.5
 31
0.0
  0
LINE
  8
0
 62
0
 10
-4.0
 20
-107.5
 30
0.0
 11
-1.5
 21
-107.5
 31
0.0
  0
LINE
  8
0
 62
0
 10
16.5
 20
-82.5
 30
0.0
 11
16.5
 21
-86.0
 31
0.0
  0
LINE
  8
0
 62
0
 10
-1.5
 20
-107.5
 30
0.0
 11
-1.5
 21
-102.5
 31
0.0
  0
LINE
  8
0
 62
0
 10
16.5
 20
-86.0
 30
0.0
 11
11.5
 21
-86.0
 31
0.0
  0
LINE
  8
0
 62
0
 10
-1.5
 20
-102.5
 30
0.0
 11
-2.75
 21
-102.5
 31
0.0
  0
LINE
  8
0
 62
0
 10
11.5
 20
-86.0
 30
0.0
 11
11.5
 21
-84.75
 31
0.0
  0
LINE
  8
0
 62
0
 10
-2.75
 20
-102.5
 30
0.0
 11
-2.75
 21
-100.2
 31
0.0
  0
LINE
  8
0
 62
0
 10
11.5
 20
-84.75
 30
0.0
 11
9.2
 21
-84.75
 31
0.0
  0
LINE
  8
0
 62
0
 10
-2.75
 20
-100.2
 30
0.0
 11
-1.5
 21
-100.2
 31
0.0
  0
LINE
  8
0
 62
0
 10
9.2
 20
-84.75
 30
0.0
 11
9.2
 21
-86.0
 31
0.0
  0
LINE
  8
0
 62
0
 10
-1.5
 20
-100.2
 30
0.0
 11
-1.5
 21
-97.2
 31
0.0
  0
LINE
  8
0
 62
0
 10
9.2
 20
-86.0
 30
0.0
 11
6.2
 21
-86.0
 31
0.0
  0
LINE
  8
0
 62
0
 10
-1.5
 20
-97.2
 30
0.0
 11
1.5
 21
-97.2
 31
0.0
  0
LINE
  8
0
 62
0
 10
6.2
 20
-86.0
 30
0.0
 11
6.2
 21
-89.0
 31
0.0
  0
LINE
  8
0
 62
0
 10
1.5
 20
-97.2
 30
0.0
 11
1.5
 21
-100.2
 31
0.0
  0
LINE
  8
0
 62
0
 10
6.2
 20
-89.0
 30
0.0
 11
9.2
 21
-89.0
 31
0.0
  0
LINE
  8
0
 62
0
 10
1.5
 20
-100.2
 30
0.0
 11
2.75
 21
-100.2
 31
0.0
  0
LINE
  8
0
 62
0
 10
9.2
 20
-89.0
 30
0.0
 11
9.2
 21
-90.25
 31
0.0
  0
LINE
  8
0
 62
0
 10
2.75
 20
-100.2
 30
0.0
 11
2.75
 21
-102.5
 31
0.0
  0
LINE
  8
0
 62
0
 10
9.2
 20
-90.25
 30
0.0
 11
11.5
 21
-90.25
 31
0.0
  0
LINE
  8
0
 62
0
 10
2.75
 20
-102.5
 30
0.0
 11
1.5
 21
-102.5
 31
0.0
  0
LINE
  8
0
 62
0
 10
11.5
 20
-90.25
 30
0.0
 11
11.5
 21
-89.0
 31
0.0
  0
LINE
  8
0
 62
0
 10
1.5
 20
-102.5
 30
0.0
 11
1.5
 21
-107.5
 31
0.0
  0
LINE
  8
0
 62
0
 10
11.5
 20
-89.0
 30
0.0
 11
16.5
 21
-89.0
 31
0.0
  0
LINE
  8
0
 62
0
 10
1.5
 20
-107.5
 30
0.0
 11
4.0
 21
-107.5
 31
0.0
  0
LINE
  8
0
 62
0
 10
16.5
 20
-89.0
 30
0.0
 11
16.5
 21
-92.5
 31
0.0
  0
LINE
  8
0
 62
0
 10
4.0
 20
-109.5
 30
0.0
 11
4.0
 21
-107.5
 31
0.0
  0
LINE
  8
0
 62
0
 10
22.0
 20
-92.5
 30
0.0
 11
16.5
 21
-92.5
 31
0.0
  0
ARC
  8
0
 62
0
 10
5.0
 20
-109.5
 30
0.0
 40
1.0
 50
-180.0
 51
-90.0
  0
LINE
  8
0
 62
0
 10
22.0
 20
-107.5
 30
0.0
 11
22.0
 21
-92.5
 31
0.0
  0
LINE
  8
0
 62
0
 10
13.0
 20
-110.5
 30
0.0
 11
5.0
 21
-110.5
 31
0.0
  0
LINE
  8
0
 62
0
 10
22.0
 20
-107.5
 30
0.0
 11
14.0
 21
-107.5
 31
0.0
  0
ARC
  8
0
 62
0
 10
13.0
 20
-109.5
 30
0.0
 40
1.0
 50
-90.0
 51
-0.0
  0
LINE
  8
0
 62
0
 10
14.0
 20
-107.5
 30
0.0
 11
14.0
 21
-109.5
 31
0.0
  0
LINE
  8
0
 62
0
 10
-3.0
 20
-77.5
 30
0.0
 11
3.0
 21
-77.5
 31
0.0
  0
ARC
  8
0
 62
0
 10
-3.0
 20
-75.5
 30
0.0
 40
2.0
 50
-180.0
 51
-90.0
  0
ARC
  8
0
 62
0
 10
3.0
 20
-75.5
 30
0.0
 40
2.0
 50
-90.0
 51
-0.0
  0
LINE
  8
0
 62
0
 10
-5.0
 20
-34.5
 30
0.0
 11
-5.0
 21
-75.5
 31
0.0
  0
LINE
  8
0
 62
0
 10
5.0
 20
-75.5
 30
0.0
 11
5.0
 21
-34.5
 31
0.0
  0
ARC
  8
0
 62
0
 10
-3.0
 20
-34.5
 30
0.0
 40
2.0
 50
90.0
 51
-180.0
  0
ARC
  8
0
 62
0
 10
3.0
 20
-34.5
 30
0.0
 40
2.0
 50
-0.0
 51
90.0
  0
LINE
  8
0
 62
0
 10
3.0
 20
-32.5
 30
0.0
 11
-3.0
 21
-32.5
 31
0.0
  0
LINE
  8
0
 62
0
 10
-1.5
 20
71.55
 30
0.0
 11
-1.5
 21
81.35
 31
0.0
  0
LINE
  8
0
 62
0
 10
1.5
 20
71.55
 30
0.0
 11
-1.5
 21
71.55
 31
0.0
  0
LINE
  8
0
 62
0
 10
1.5
 20
81.35
 30
0.0
 11
1.5
 21
71.55
 31
0.0
  0
LINE
  8
0
 62
0
 10
-1.5
 20
81.35
 30
0.0
 11
1.5
 21
81.35
 31
0.0
  0
LINE
  8
0
 62
0
 10
-1.5
 20
89.65
 30
0.0
 11
-1.5
 21
99.45
 31
0.0
  0
LINE
  8
0
 62
0
 10
1.5
 20
89.65
 30
0.0
 11
-1.5
 21
89.65
 31
0.0
  0
LINE
  8
0
 62
0
 10
1.5
 20
99.45
 30
0.0
 11
1.5
 21
89.65
 31
0.0
  0
LINE
  8
0
 62
0
 10
-1.5
 20
99.45
 30
0.0
 11
1.5
 21
99.45
 31
0.0
  0
CIRCLE
  8
0
 62
0
 10
17.5
 20
103.0
 30
0.0
 40
1.5
  0
CIRCLE
  8
0
 62
0
 10
-12.5
 20
95.5
 30
0.0
 40
1.5
  0
CIRCLE
  8
0
 62
0
 10
12.5
 20
95.5
 30
0.0
 40
1.5
  0
CIRCLE
  8
0
 62
0
 10
-10.0
 20
90.5
 30
0.0
 40
1.5
  0
CIRCLE
  8
0
 62
0
 10
10.0
 20
90.5
 30
0.0
 40
1.5
  0
CIRCLE
  8
0
 62
0
 10
3.28142035639e-24
 20
85.5
 30
0.0
 40
1.5
  0
CIRCLE
  8
0
 62
0
 10
-10.0
 20
80.5
 30
0.0
 40
1.5
  0
CIRCLE
  8
0
 62
0
 10
-12.5
 20
75.5
 30
0.0
 40
1.5
  0
CIRCLE
  8
0
 62
0
 10
-17.5
 20
68.0
 30
0.0
 40
1.5
  0
CIRCLE
  8
0
 62
0
 10
10.0
 20
80.5
 30
0.0
 40
1.5
  0
CIRCLE
  8
0
 62
0
 10
12.5
 20
75.5
 30
0.0
 40
1.5
  0
CIRCLE
  8
0
 62
0
 10
17.5
 20
68.0
 30
0.0
 40
1.5
  0
CIRCLE
  8
0
 62
0
 10
-17.5
 20
103.0
 30
0.0
 40
1.5
  0
LINE
  8
0
 62
0
 10
-5.0
 20
-0.5
 30
0.0
 11
-5.0
 21
40.5
 31
0.0
  0
ARC
  8
0
 62
0
 10
-3.0
 20
-0.5
 30
0.0
 40
2.0
 50
180.0
 51
-90.0
  0
ARC
  8
0
 62
0
 10
-3.0
 20
40.5
 30
0.0
 40
2.0
 50
90.0
 51
-180.0
  0
LINE
  8
0
 62
0
 10
3.0
 20
-2.5
 30
0.0
 11
-3.0
 21
-2.5
 31
0.0
  0
LINE
  8
0
 62
0
 10
-3.0
 20
42.5
 30
0.0
 11
3.0
 21
42.5
 31
0.0
  0
ARC
  8
0
 62
0
 10
3.0
 20
-0.5
 30
0.0
 40
2.0
 50
-90.0
 51
-0.0
  0
ARC
  8
0
 62
0
 10
3.0
 20
40.5
 30
0.0
 40
2.0
 50
-0.0
 51
90.0
  0
LINE
  8
0
 62
0
 10
5.0
 20
40.5
 30
0.0
 11
5.0
 21
-0.5
 31
0.0
  0
ENDBLK
  0
ENDSEC
  0
SECTION
  2
ENTITIES
  0
INSERT
  2
FILLET001
  8
0
 62
0
 10
0.0
 20
0.0
 30
0.0
  0
ENDSEC
  0
EOF
