  0
SECTION
  2
HEADER
  9
$ACADVER
  1
AC1009
  9
$INSBASE
 10
0.0
 20
0.0
 30
0.0
  9
$EXTMIN
 10
0.0
 20
0.0
 30
0.0
  9
$EXTMAX
 10
0.0
 20
0.0
 30
0.0
  0
ENDSEC
  0
SECTION
  2
TABLES
  0
TABLE
  2
VPORT
 70
0
  0
ENDTAB
  0
TABLE
  2
LTYPE
 70
1
  0
LTYPE
  2
CONTINUOUS
 70
0
  3
Solid line
 72
65
 73
0
 40
0.0
  0
ENDTAB
  0
TABLE
  2
LAYER
 70
1
  0
LAYER
  2
0
 70
64
 62
7
  6
continuous
  0
ENDTAB
  0
TABLE
  2
STYLE
 70
1
  0
STYLE
  2
STANDARD
 70
0
 40
0
 41
1.0
 50
0.0
 71
0
 42
1
 3
ARIAL.TTF
 4

  0
ENDTAB
  0
TABLE
  2
VIEW
 70
0
  0
ENDTAB
  0
ENDSEC
  0
SECTION
  2
BLOCKS
  0
BLOCK
  8
0
  2
FILLET002
 70
0
 10
0.0
 20
0.0
 30
0.0
  3
FILLET002
  0
LINE
  8
0
 62
0
 10
-88.5
 20
-17.5
 30
0.0
 11
55.5
 21
-17.5
 31
0.0
  0
ARC
  8
0
 62
0
 10
-88.5
 20
-14.5
 30
0.0
 40
3.0
 50
-180.0
 51
-90.0
  0
ARC
  8
0
 62
0
 10
55.5
 20
-14.5
 30
0.0
 40
3.0
 50
-90.0
 51
-0.0
  0
LINE
  8
0
 62
0
 10
-91.5
 20
131.5
 30
0.0
 11
-91.5
 21
-14.5
 31
0.0
  0
LINE
  8
0
 62
0
 10
58.5
 20
-14.5
 30
0.0
 11
58.5
 21
131.5
 31
0.0
  0
ARC
  8
0
 62
0
 10
-88.5
 20
131.5
 30
0.0
 40
3.0
 50
90.0
 51
-180.0
  0
ARC
  8
0
 62
0
 10
55.5
 20
131.5
 30
0.0
 40
3.0
 50
-0.0
 51
90.0
  0
LINE
  8
0
 62
0
 10
55.5
 20
134.5
 30
0.0
 11
-88.5
 21
134.5
 31
0.0
  0
LINE
  8
0
 62
0
 10
-47.5
 20
23.5
 30
0.0
 11
-51.5
 21
23.5
 31
0.0
  0
LINE
  8
0
 62
0
 10
-51.5
 20
23.5
 30
0.0
 11
-51.5
 21
93.5
 31
0.0
  0
LINE
  8
0
 62
0
 10
-51.5
 20
93.5
 30
0.0
 11
8.5
 21
93.5
 31
0.0
  0
LINE
  8
0
 62
0
 10
8.5
 20
93.5
 30
0.0
 11
8.5
 21
89.5
 31
0.0
  0
LINE
  8
0
 62
0
 10
8.5
 20
89.5
 30
0.0
 11
-47.5
 21
89.5
 31
0.0
  0
LINE
  8
0
 62
0
 10
-47.5
 20
89.5
 30
0.0
 11
-47.5
 21
23.5
 31
0.0
  0
LINE
  8
0
 62
0
 10
-41.5
 20
23.5
 30
0.0
 11
-41.5
 21
27.5
 31
0.0
  0
LINE
  8
0
 62
0
 10
-41.5
 20
27.5
 30
0.0
 11
14.5
 21
27.5
 31
0.0
  0
LINE
  8
0
 62
0
 10
14.5
 20
27.5
 30
0.0
 11
14.5
 21
93.5
 31
0.0
  0
LINE
  8
0
 62
0
 10
14.5
 20
93.5
 30
0.0
 11
18.5
 21
93.5
 31
0.0
  0
LINE
  8
0
 62
0
 10
18.5
 20
93.5
 30
0.0
 11
18.5
 21
23.5
 31
0.0
  0
LINE
  8
0
 62
0
 10
18.5
 20
23.5
 30
0.0
 11
-41.5
 21
23.5
 31
0.0
  0
LINE
  8
0
 62
0
 10
-31.5
 20
36.5
 30
0.0
 11
-38.5
 21
36.5
 31
0.0
  0
LINE
  8
0
 62
0
 10
-38.5
 20
36.5
 30
0.0
 11
-38.5
 21
80.5
 31
0.0
  0
LINE
  8
0
 62
0
 10
-38.5
 20
80.5
 30
0.0
 11
-31.5
 21
80.5
 31
0.0
  0
LINE
  8
0
 62
0
 10
-31.5
 20
80.5
 30
0.0
 11
-31.5
 21
54.5
 31
0.0
  0
LINE
  8
0
 62
0
 10
-31.5
 20
54.5
 30
0.0
 11
5.5
 21
54.5
 31
0.0
  0
LINE
  8
0
 62
0
 10
5.5
 20
54.5
 30
0.0
 11
5.5
 21
47.5
 31
0.0
  0
LINE
  8
0
 62
0
 10
5.5
 20
47.5
 30
0.0
 11
-31.5
 21
47.5
 31
0.0
  0
LINE
  8
0
 62
0
 10
-31.5
 20
47.5
 30
0.0
 11
-31.5
 21
36.5
 31
0.0
  0
LINE
  8
0
 62
0
 10
-23.5
 20
69.5
 30
0.0
 11
-23.5
 21
62.5
 31
0.0
  0
LINE
  8
0
 62
0
 10
-16.5
 20
69.5
 30
0.0
 11
-23.5
 21
69.5
 31
0.0
  0
LINE
  8
0
 62
0
 10
-16.5
 20
80.5
 30
0.0
 11
-16.5
 21
69.5
 31
0.0
  0
LINE
  8
0
 62
0
 10
-9.5
 20
80.5
 30
0.0
 11
-16.5
 21
80.5
 31
0.0
  0
LINE
  8
0
 62
0
 10
-9.5
 20
69.5
 30
0.0
 11
-9.5
 21
80.5
 31
0.0
  0
LINE
  8
0
 62
0
 10
5.5
 20
69.5
 30
0.0
 11
-9.5
 21
69.5
 31
0.0
  0
LINE
  8
0
 62
0
 10
5.5
 20
62.5
 30
0.0
 11
5.5
 21
69.5
 31
0.0
  0
LINE
  8
0
 62
0
 10
-23.5
 20
62.5
 30
0.0
 11
5.5
 21
62.5
 31
0.0
  0
LINE
  8
0
 62
0
 10
33.55
 20
131.5
 30
0.0
 11
48.45
 21
131.5
 31
0.0
  0
LINE
  8
0
 62
0
 10
48.45
 20
131.5
 30
0.0
 11
48.45
 21
128.5
 31
0.0
  0
LINE
  8
0
 62
0
 10
48.45
 20
128.5
 30
0.0
 11
33.55
 21
128.5
 31
0.0
  0
LINE
  8
0
 62
0
 10
33.55
 20
128.5
 30
0.0
 11
33.55
 21
131.5
 31
0.0
  0
LINE
  8
0
 62
0
 10
-81.45
 20
131.5
 30
0.0
 11
-66.55
 21
131.5
 31
0.0
  0
LINE
  8
0
 62
0
 10
-66.55
 20
131.5
 30
0.0
 11
-66.55
 21
128.5
 31
0.0
  0
LINE
  8
0
 62
0
 10
-66.55
 20
128.5
 30
0.0
 11
-81.45
 21
128.5
 31
0.0
  0
LINE
  8
0
 62
0
 10
-81.45
 20
128.5
 30
0.0
 11
-81.45
 21
131.5
 31
0.0
  0
LINE
  8
0
 62
0
 10
33.55
 20
-11.5
 30
0.0
 11
48.45
 21
-11.5
 31
0.0
  0
LINE
  8
0
 62
0
 10
48.45
 20
-11.5
 30
0.0
 11
48.45
 21
-14.5
 31
0.0
  0
LINE
  8
0
 62
0
 10
48.45
 20
-14.5
 30
0.0
 11
33.55
 21
-14.5
 31
0.0
  0
LINE
  8
0
 62
0
 10
33.55
 20
-14.5
 30
0.0
 11
33.55
 21
-11.5
 31
0.0
  0
LINE
  8
0
 62
0
 10
-81.45
 20
-11.5
 30
0.0
 11
-66.55
 21
-11.5
 31
0.0
  0
LINE
  8
0
 62
0
 10
-66.55
 20
-11.5
 30
0.0
 11
-66.55
 21
-14.5
 31
0.0
  0
LINE
  8
0
 62
0
 10
-66.55
 20
-14.5
 30
0.0
 11
-81.45
 21
-14.5
 31
0.0
  0
LINE
  8
0
 62
0
 10
-81.45
 20
-14.5
 30
0.0
 11
-81.45
 21
-11.5
 31
0.0
  0
CIRCLE
  8
0
 62
0
 10
-16.5
 20
-13.0
 30
0.0
 40
1.5
  0
CIRCLE
  8
0
 62
0
 10
-16.5
 20
130.0
 30
0.0
 40
1.5
  0
ENDBLK
  0
ENDSEC
  0
SECTION
  2
ENTITIES
  0
INSERT
  2
FILLET002
  8
0
 62
0
 10
0.0
 20
0.0
 30
0.0
  0
ENDSEC
  0
EOF
