  0
SECTION
  2
HEADER
  9
$ACADVER
  1
AC1009
  9
$INSBASE
 10
0.0
 20
0.0
 30
0.0
  9
$EXTMIN
 10
0.0
 20
0.0
 30
0.0
  9
$EXTMAX
 10
0.0
 20
0.0
 30
0.0
  0
ENDSEC
  0
SECTION
  2
TABLES
  0
TABLE
  2
VPORT
 70
0
  0
ENDTAB
  0
TABLE
  2
LTYPE
 70
1
  0
LTYPE
  2
CONTINUOUS
 70
0
  3
Solid line
 72
65
 73
0
 40
0.0
  0
ENDTAB
  0
TABLE
  2
LAYER
 70
1
  0
LAYER
  2
0
 70
64
 62
7
  6
continuous
  0
ENDTAB
  0
TABLE
  2
STYLE
 70
1
  0
STYLE
  2
STANDARD
 70
0
 40
0
 41
1.0
 50
0.0
 71
0
 42
1
 3
ARIAL.TTF
 4

  0
ENDTAB
  0
TABLE
  2
VIEW
 70
0
  0
ENDTAB
  0
ENDSEC
  0
SECTION
  2
BLOCKS
  0
BLOCK
  8
0
  2
FILLET002
 70
0
 10
0.0
 20
0.0
 30
0.0
  3
FILLET002
  0
LINE
  8
0
 62
0
 10
197.05
 20
-1.5
 30
0.0
 11
193.05
 21
-1.5
 31
0.0
  0
ARC
  8
0
 62
0
 10
197.05
 20
-0.5
 30
0.0
 40
1.0
 50
-90.0
 51
-0.0
  0
LINE
  8
0
 62
0
 10
193.05
 20
-1.5
 30
0.0
 11
193.05
 21
-2.75
 31
0.0
  0
LINE
  8
0
 62
0
 10
198.05
 20
0.5
 30
0.0
 11
198.05
 21
-0.5
 31
0.0
  0
LINE
  8
0
 62
0
 10
190.75
 20
-2.75
 30
0.0
 11
193.05
 21
-2.75
 31
0.0
  0
ARC
  8
0
 62
0
 10
197.05
 20
0.5
 30
0.0
 40
1.0
 50
0.0
 51
90.0
  0
LINE
  8
0
 62
0
 10
190.75
 20
-1.5
 30
0.0
 11
190.75
 21
-2.75
 31
0.0
  0
LINE
  8
0
 62
0
 10
193.05
 20
1.5
 30
0.0
 11
197.05
 21
1.5
 31
0.0
  0
LINE
  8
0
 62
0
 10
186.75
 20
-1.5
 30
0.0
 11
190.75
 21
-1.5
 31
0.0
  0
LINE
  8
0
 62
0
 10
193.05
 20
2.75
 30
0.0
 11
193.05
 21
1.5
 31
0.0
  0
LINE
  8
0
 62
0
 10
186.75
 20
-4.1
 30
0.0
 11
186.75
 21
-1.5
 31
0.0
  0
LINE
  8
0
 62
0
 10
193.05
 20
2.75
 30
0.0
 11
190.75
 21
2.75
 31
0.0
  0
LINE
  8
0
 62
0
 10
184.75
 20
-4.1
 30
0.0
 11
186.75
 21
-4.1
 31
0.0
  0
LINE
  8
0
 62
0
 10
190.75
 20
2.75
 30
0.0
 11
190.75
 21
1.5
 31
0.0
  0
ARC
  8
0
 62
0
 10
184.75
 20
-5.1
 30
0.0
 40
1.0
 50
90.0
 51
-180.0
  0
LINE
  8
0
 62
0
 10
190.75
 20
1.5
 30
0.0
 11
186.75
 21
1.5
 31
0.0
  0
LINE
  8
0
 62
0
 10
183.75
 20
-13.0
 30
0.0
 11
183.75
 21
-5.1
 31
0.0
  0
LINE
  8
0
 62
0
 10
186.75
 20
1.5
 30
0.0
 11
186.75
 21
4.1
 31
0.0
  0
ARC
  8
0
 62
0
 10
184.75
 20
-13.0
 30
0.0
 40
1.0
 50
-180.0
 51
-90.0
  0
LINE
  8
0
 62
0
 10
186.75
 20
4.1
 30
0.0
 11
184.75
 21
4.1
 31
0.0
  0
LINE
  8
0
 62
0
 10
186.75
 20
-14.0
 30
0.0
 11
184.75
 21
-14.0
 31
0.0
  0
ARC
  8
0
 62
0
 10
184.75
 20
5.1
 30
0.0
 40
1.0
 50
-180.0
 51
-90.0
  0
LINE
  8
0
 62
0
 10
186.75
 20
-22.0
 30
0.0
 11
186.75
 21
-14.0
 31
0.0
  0
LINE
  8
0
 62
0
 10
183.75
 20
5.1
 30
0.0
 11
183.75
 21
13.0
 31
0.0
  0
LINE
  8
0
 62
0
 10
194.75
 20
-22.0
 30
0.0
 11
186.75
 21
-22.0
 31
0.0
  0
ARC
  8
0
 62
0
 10
184.75
 20
13.0
 30
0.0
 40
1.0
 50
90.0
 51
-180.0
  0
LINE
  8
0
 62
0
 10
194.75
 20
-24.0
 30
0.0
 11
194.75
 21
-22.0
 31
0.0
  0
LINE
  8
0
 62
0
 10
184.75
 20
14.0
 30
0.0
 11
186.75
 21
14.0
 31
0.0
  0
ARC
  8
0
 62
0
 10
195.75
 20
-24.0
 30
0.0
 40
1.0
 50
-180.0
 51
-90.0
  0
LINE
  8
0
 62
0
 10
186.75
 20
14.0
 30
0.0
 11
186.75
 21
15.0
 31
0.0
  0
LINE
  8
0
 62
0
 10
203.65
 20
-25.0
 30
0.0
 11
195.75
 21
-25.0
 31
0.0
  0
LINE
  8
0
 62
0
 10
186.75
 20
15.0
 30
0.0
 11
195.093145751
 21
15.0
 31
0.0
  0
ARC
  8
0
 62
0
 10
203.65
 20
-24.0
 30
0.0
 40
1.0
 50
-90.0
 51
-0.0
  0
ARC
  8
0
 62
0
 10
195.093145751
 20
11.0
 30
0.0
 40
4.0
 50
45.0
 51
90.0
  0
LINE
  8
0
 62
0
 10
204.65
 20
-22.0
 30
0.0
 11
204.65
 21
-24.0
 31
0.0
  0
LINE
  8
0
 62
0
 10
197.921572875
 20
13.8284271247
 30
0.0
 11
222.578427125
 21
-10.8284271247
 31
0.0
  0
LINE
  8
0
 62
0
 10
207.25
 20
-22.0
 30
0.0
 11
204.65
 21
-22.0
 31
0.0
  0
ARC
  8
0
 62
0
 10
219.75
 20
-13.6568542495
 30
0.0
 40
4.0
 50
-0.0
 51
45.0
  0
LINE
  8
0
 62
0
 10
207.25
 20
-18.0
 30
0.0
 11
207.25
 21
-22.0
 31
0.0
  0
LINE
  8
0
 62
0
 10
223.75
 20
-13.6568542495
 30
0.0
 11
223.75
 21
-22.0
 31
0.0
  0
LINE
  8
0
 62
0
 10
206.0
 20
-18.0
 30
0.0
 11
207.25
 21
-18.0
 31
0.0
  0
LINE
  8
0
 62
0
 10
223.75
 20
-22.0
 30
0.0
 11
222.75
 21
-22.0
 31
0.0
  0
LINE
  8
0
 62
0
 10
206.0
 20
-15.7
 30
0.0
 11
206.0
 21
-18.0
 31
0.0
  0
LINE
  8
0
 62
0
 10
222.75
 20
-22.0
 30
0.0
 11
222.75
 21
-24.0
 31
0.0
  0
LINE
  8
0
 62
0
 10
206.0
 20
-15.7
 30
0.0
 11
207.25
 21
-15.7
 31
0.0
  0
ARC
  8
0
 62
0
 10
221.75
 20
-24.0
 30
0.0
 40
1.0
 50
-90.0
 51
-0.0
  0
LINE
  8
0
 62
0
 10
207.25
 20
-15.7
 30
0.0
 11
207.25
 21
-11.7
 31
0.0
  0
LINE
  8
0
 62
0
 10
221.75
 20
-25.0
 30
0.0
 11
213.85
 21
-25.0
 31
0.0
  0
ARC
  8
0
 62
0
 10
208.25
 20
-11.7
 30
0.0
 40
1.0
 50
90.0
 51
-180.0
  0
ARC
  8
0
 62
0
 10
213.85
 20
-24.0
 30
0.0
 40
1.0
 50
-180.0
 51
-90.0
  0
LINE
  8
0
 62
0
 10
208.25
 20
-10.7
 30
0.0
 11
209.25
 21
-10.7
 31
0.0
  0
LINE
  8
0
 62
0
 10
212.85
 20
-24.0
 30
0.0
 11
212.85
 21
-22.0
 31
0.0
  0
ARC
  8
0
 62
0
 10
209.25
 20
-11.7
 30
0.0
 40
1.0
 50
-0.0
 51
90.0
  0
LINE
  8
0
 62
0
 10
212.85
 20
-22.0
 30
0.0
 11
210.25
 21
-22.0
 31
0.0
  0
LINE
  8
0
 62
0
 10
210.25
 20
-11.7
 30
0.0
 11
210.25
 21
-15.7
 31
0.0
  0
LINE
  8
0
 62
0
 10
210.25
 20
-22.0
 30
0.0
 11
210.25
 21
-18.0
 31
0.0
  0
LINE
  8
0
 62
0
 10
210.25
 20
-15.7
 30
0.0
 11
211.5
 21
-15.7
 31
0.0
  0
LINE
  8
0
 62
0
 10
210.25
 20
-18.0
 30
0.0
 11
211.5
 21
-18.0
 31
0.0
  0
LINE
  8
0
 62
0
 10
211.5
 20
-18.0
 30
0.0
 11
211.5
 21
-15.7
 31
0.0
  0
ENDBLK
  0
ENDSEC
  0
SECTION
  2
ENTITIES
  0
INSERT
  2
FILLET002
  8
0
 62
0
 10
0.0
 20
0.0
 30
0.0
  0
ENDSEC
  0
EOF
