  0
SECTION
  2
HEADER
  9
$ACADVER
  1
AC1009
  9
$INSBASE
 10
0.0
 20
0.0
 30
0.0
  9
$EXTMIN
 10
0.0
 20
0.0
 30
0.0
  9
$EXTMAX
 10
0.0
 20
0.0
 30
0.0
  0
ENDSEC
  0
SECTION
  2
TABLES
  0
TABLE
  2
VPORT
 70
0
  0
ENDTAB
  0
TABLE
  2
LTYPE
 70
1
  0
LTYPE
  2
CONTINUOUS
 70
0
  3
Solid line
 72
65
 73
0
 40
0.0
  0
ENDTAB
  0
TABLE
  2
LAYER
 70
1
  0
LAYER
  2
0
 70
64
 62
7
  6
continuous
  0
ENDTAB
  0
TABLE
  2
STYLE
 70
1
  0
STYLE
  2
STANDARD
 70
0
 40
0
 41
1.0
 50
0.0
 71
0
 42
1
 3
ARIAL.TTF
 4

  0
ENDTAB
  0
TABLE
  2
VIEW
 70
0
  0
ENDTAB
  0
ENDSEC
  0
SECTION
  2
BLOCKS
  0
BLOCK
  8
0
  2
FILLET009
 70
0
 10
0.0
 20
0.0
 30
0.0
  3
FILLET009
  0
LINE
  8
0
 62
0
 10
35.7
 20
22.0
 30
0.0
 11
189.7
 21
22.0
 31
0.0
  0
ARC
  8
0
 62
0
 10
35.7
 20
19.0
 30
0.0
 40
3.0
 50
90.0
 51
-180.0
  0
ARC
  8
0
 62
0
 10
189.7
 20
19.0
 30
0.0
 40
3.0
 50
-0.0
 51
90.0
  0
LINE
  8
0
 62
0
 10
32.7
 20
19.0
 30
0.0
 11
32.7
 21
-19.0
 31
0.0
  0
LINE
  8
0
 62
0
 10
192.7
 20
19.0
 30
0.0
 11
192.7
 21
-19.0
 31
0.0
  0
ARC
  8
0
 62
0
 10
35.7
 20
-19.0
 30
0.0
 40
3.0
 50
-180.0
 51
-90.0
  0
ARC
  8
0
 62
0
 10
189.7
 20
-19.0
 30
0.0
 40
3.0
 50
-90.0
 51
-0.0
  0
LINE
  8
0
 62
0
 10
35.7
 20
-22.0
 30
0.0
 11
189.7
 21
-22.0
 31
0.0
  0
CIRCLE
  8
0
 62
0
 10
112.7
 20
0.0
 30
0.0
 40
10.0
  0
LINE
  8
0
 62
0
 10
39.7
 20
4.2
 30
0.0
 11
39.7
 21
13.9
 31
0.0
  0
LINE
  8
0
 62
0
 10
42.7
 20
4.2
 30
0.0
 11
39.7
 21
4.2
 31
0.0
  0
LINE
  8
0
 62
0
 10
42.7
 20
13.9
 30
0.0
 11
42.7
 21
4.2
 31
0.0
  0
LINE
  8
0
 62
0
 10
39.7
 20
13.9
 30
0.0
 11
42.7
 21
13.9
 31
0.0
  0
LINE
  8
0
 62
0
 10
182.7
 20
-13.9
 30
0.0
 11
182.7
 21
-4.2
 31
0.0
  0
LINE
  8
0
 62
0
 10
185.7
 20
-13.9
 30
0.0
 11
182.7
 21
-13.9
 31
0.0
  0
LINE
  8
0
 62
0
 10
185.7
 20
-4.2
 30
0.0
 11
185.7
 21
-13.9
 31
0.0
  0
LINE
  8
0
 62
0
 10
182.7
 20
-4.2
 30
0.0
 11
185.7
 21
-4.2
 31
0.0
  0
LINE
  8
0
 62
0
 10
182.7
 20
4.2
 30
0.0
 11
182.7
 21
13.9
 31
0.0
  0
LINE
  8
0
 62
0
 10
185.7
 20
4.2
 30
0.0
 11
182.7
 21
4.2
 31
0.0
  0
LINE
  8
0
 62
0
 10
185.7
 20
13.9
 30
0.0
 11
185.7
 21
4.2
 31
0.0
  0
LINE
  8
0
 62
0
 10
182.7
 20
13.9
 30
0.0
 11
185.7
 21
13.9
 31
0.0
  0
LINE
  8
0
 62
0
 10
39.7
 20
-13.9
 30
0.0
 11
39.7
 21
-4.2
 31
0.0
  0
LINE
  8
0
 62
0
 10
42.7
 20
-13.9
 30
0.0
 11
39.7
 21
-13.9
 31
0.0
  0
LINE
  8
0
 62
0
 10
42.7
 20
-4.2
 30
0.0
 11
42.7
 21
-13.9
 31
0.0
  0
LINE
  8
0
 62
0
 10
39.7
 20
-4.2
 30
0.0
 11
42.7
 21
-4.2
 31
0.0
  0
CIRCLE
  8
0
 62
0
 10
52.7
 20
2.5
 30
0.0
 40
1.6
  0
CIRCLE
  8
0
 62
0
 10
41.2
 20
0.0
 30
0.0
 40
1.6
  0
CIRCLE
  8
0
 62
0
 10
57.7
 20
2.5
 30
0.0
 40
1.6
  0
CIRCLE
  8
0
 62
0
 10
47.7
 20
2.5
 30
0.0
 40
1.6
  0
CIRCLE
  8
0
 62
0
 10
47.7
 20
-2.5
 30
0.0
 40
1.6
  0
CIRCLE
  8
0
 62
0
 10
52.7
 20
-2.5
 30
0.0
 40
1.6
  0
CIRCLE
  8
0
 62
0
 10
57.7
 20
-2.5
 30
0.0
 40
1.6
  0
CIRCLE
  8
0
 62
0
 10
57.7
 20
-12.5
 30
0.0
 40
1.6
  0
CIRCLE
  8
0
 62
0
 10
57.7
 20
-7.5
 30
0.0
 40
1.6
  0
CIRCLE
  8
0
 62
0
 10
52.7
 20
-7.5
 30
0.0
 40
1.6
  0
CIRCLE
  8
0
 62
0
 10
52.7
 20
-12.5
 30
0.0
 40
1.6
  0
CIRCLE
  8
0
 62
0
 10
47.7
 20
12.5
 30
0.0
 40
1.6
  0
CIRCLE
  8
0
 62
0
 10
57.7
 20
7.5
 30
0.0
 40
1.6
  0
CIRCLE
  8
0
 62
0
 10
52.7
 20
7.5
 30
0.0
 40
1.6
  0
CIRCLE
  8
0
 62
0
 10
47.7
 20
-12.5
 30
0.0
 40
1.6
  0
CIRCLE
  8
0
 62
0
 10
52.7
 20
12.5
 30
0.0
 40
1.6
  0
CIRCLE
  8
0
 62
0
 10
57.7
 20
12.5
 30
0.0
 40
1.6
  0
CIRCLE
  8
0
 62
0
 10
47.7
 20
7.5
 30
0.0
 40
1.6
  0
CIRCLE
  8
0
 62
0
 10
47.7
 20
-7.5
 30
0.0
 40
1.6
  0
CIRCLE
  8
0
 62
0
 10
62.7
 20
2.5
 30
0.0
 40
1.6
  0
CIRCLE
  8
0
 62
0
 10
62.7
 20
-2.5
 30
0.0
 40
1.6
  0
CIRCLE
  8
0
 62
0
 10
62.7
 20
12.5
 30
0.0
 40
1.6
  0
CIRCLE
  8
0
 62
0
 10
62.7
 20
7.5
 30
0.0
 40
1.6
  0
CIRCLE
  8
0
 62
0
 10
62.7
 20
-7.5
 30
0.0
 40
1.6
  0
CIRCLE
  8
0
 62
0
 10
62.7
 20
-12.5
 30
0.0
 40
1.6
  0
CIRCLE
  8
0
 62
0
 10
184.2
 20
0.0
 30
0.0
 40
1.6
  0
CIRCLE
  8
0
 62
0
 10
67.7
 20
-2.5
 30
0.0
 40
1.6
  0
CIRCLE
  8
0
 62
0
 10
72.7
 20
-2.5
 30
0.0
 40
1.6
  0
CIRCLE
  8
0
 62
0
 10
82.7
 20
-2.5
 30
0.0
 40
1.6
  0
CIRCLE
  8
0
 62
0
 10
77.7
 20
2.5
 30
0.0
 40
1.6
  0
CIRCLE
  8
0
 62
0
 10
67.7
 20
2.5
 30
0.0
 40
1.6
  0
CIRCLE
  8
0
 62
0
 10
82.7
 20
2.5
 30
0.0
 40
1.6
  0
CIRCLE
  8
0
 62
0
 10
87.7
 20
2.5
 30
0.0
 40
1.6
  0
CIRCLE
  8
0
 62
0
 10
92.7
 20
2.5
 30
0.0
 40
1.6
  0
CIRCLE
  8
0
 62
0
 10
132.7
 20
2.5
 30
0.0
 40
1.6
  0
CIRCLE
  8
0
 62
0
 10
137.7
 20
2.5
 30
0.0
 40
1.6
  0
CIRCLE
  8
0
 62
0
 10
142.7
 20
2.5
 30
0.0
 40
1.6
  0
CIRCLE
  8
0
 62
0
 10
147.7
 20
2.5
 30
0.0
 40
1.6
  0
CIRCLE
  8
0
 62
0
 10
152.7
 20
2.5
 30
0.0
 40
1.6
  0
CIRCLE
  8
0
 62
0
 10
157.7
 20
2.5
 30
0.0
 40
1.6
  0
CIRCLE
  8
0
 62
0
 10
162.7
 20
2.5
 30
0.0
 40
1.6
  0
CIRCLE
  8
0
 62
0
 10
167.7
 20
2.5
 30
0.0
 40
1.6
  0
CIRCLE
  8
0
 62
0
 10
172.7
 20
2.5
 30
0.0
 40
1.6
  0
CIRCLE
  8
0
 62
0
 10
177.7
 20
2.5
 30
0.0
 40
1.6
  0
CIRCLE
  8
0
 62
0
 10
77.7
 20
-2.5
 30
0.0
 40
1.6
  0
CIRCLE
  8
0
 62
0
 10
72.7
 20
2.5
 30
0.0
 40
1.6
  0
CIRCLE
  8
0
 62
0
 10
177.7
 20
-2.5
 30
0.0
 40
1.6
  0
CIRCLE
  8
0
 62
0
 10
172.7
 20
-2.5
 30
0.0
 40
1.6
  0
CIRCLE
  8
0
 62
0
 10
167.7
 20
-2.5
 30
0.0
 40
1.6
  0
CIRCLE
  8
0
 62
0
 10
162.7
 20
-2.5
 30
0.0
 40
1.6
  0
CIRCLE
  8
0
 62
0
 10
157.7
 20
-2.5
 30
0.0
 40
1.6
  0
CIRCLE
  8
0
 62
0
 10
152.7
 20
-2.5
 30
0.0
 40
1.6
  0
CIRCLE
  8
0
 62
0
 10
147.7
 20
-2.5
 30
0.0
 40
1.6
  0
CIRCLE
  8
0
 62
0
 10
142.7
 20
-2.5
 30
0.0
 40
1.6
  0
CIRCLE
  8
0
 62
0
 10
137.7
 20
-2.5
 30
0.0
 40
1.6
  0
CIRCLE
  8
0
 62
0
 10
132.7
 20
-2.5
 30
0.0
 40
1.6
  0
CIRCLE
  8
0
 62
0
 10
92.7
 20
-2.5
 30
0.0
 40
1.6
  0
CIRCLE
  8
0
 62
0
 10
87.7
 20
-2.5
 30
0.0
 40
1.6
  0
CIRCLE
  8
0
 62
0
 10
157.7
 20
12.5
 30
0.0
 40
1.6
  0
CIRCLE
  8
0
 62
0
 10
82.7
 20
12.5
 30
0.0
 40
1.6
  0
CIRCLE
  8
0
 62
0
 10
92.7
 20
12.5
 30
0.0
 40
1.6
  0
CIRCLE
  8
0
 62
0
 10
177.7
 20
12.5
 30
0.0
 40
1.6
  0
CIRCLE
  8
0
 62
0
 10
172.7
 20
12.5
 30
0.0
 40
1.6
  0
CIRCLE
  8
0
 62
0
 10
167.7
 20
12.5
 30
0.0
 40
1.6
  0
CIRCLE
  8
0
 62
0
 10
162.7
 20
12.5
 30
0.0
 40
1.6
  0
CIRCLE
  8
0
 62
0
 10
152.7
 20
12.5
 30
0.0
 40
1.6
  0
CIRCLE
  8
0
 62
0
 10
147.7
 20
12.5
 30
0.0
 40
1.6
  0
CIRCLE
  8
0
 62
0
 10
142.7
 20
12.5
 30
0.0
 40
1.6
  0
CIRCLE
  8
0
 62
0
 10
137.7
 20
12.5
 30
0.0
 40
1.6
  0
CIRCLE
  8
0
 62
0
 10
132.7
 20
12.5
 30
0.0
 40
1.6
  0
CIRCLE
  8
0
 62
0
 10
82.7
 20
-12.5
 30
0.0
 40
1.6
  0
CIRCLE
  8
0
 62
0
 10
67.7
 20
-12.5
 30
0.0
 40
1.6
  0
CIRCLE
  8
0
 62
0
 10
87.7
 20
12.5
 30
0.0
 40
1.6
  0
CIRCLE
  8
0
 62
0
 10
72.7
 20
12.5
 30
0.0
 40
1.6
  0
CIRCLE
  8
0
 62
0
 10
67.7
 20
12.5
 30
0.0
 40
1.6
  0
CIRCLE
  8
0
 62
0
 10
87.7
 20
-12.5
 30
0.0
 40
1.6
  0
CIRCLE
  8
0
 62
0
 10
92.7
 20
-12.5
 30
0.0
 40
1.6
  0
CIRCLE
  8
0
 62
0
 10
132.7
 20
-12.5
 30
0.0
 40
1.6
  0
CIRCLE
  8
0
 62
0
 10
137.7
 20
-12.5
 30
0.0
 40
1.6
  0
CIRCLE
  8
0
 62
0
 10
142.7
 20
-12.5
 30
0.0
 40
1.6
  0
CIRCLE
  8
0
 62
0
 10
147.7
 20
-12.5
 30
0.0
 40
1.6
  0
CIRCLE
  8
0
 62
0
 10
152.7
 20
-12.5
 30
0.0
 40
1.6
  0
CIRCLE
  8
0
 62
0
 10
157.7
 20
-12.5
 30
0.0
 40
1.6
  0
CIRCLE
  8
0
 62
0
 10
162.7
 20
-12.5
 30
0.0
 40
1.6
  0
CIRCLE
  8
0
 62
0
 10
167.7
 20
-12.5
 30
0.0
 40
1.6
  0
CIRCLE
  8
0
 62
0
 10
77.7
 20
-12.5
 30
0.0
 40
1.6
  0
CIRCLE
  8
0
 62
0
 10
172.7
 20
-12.5
 30
0.0
 40
1.6
  0
CIRCLE
  8
0
 62
0
 10
77.7
 20
12.5
 30
0.0
 40
1.6
  0
CIRCLE
  8
0
 62
0
 10
72.7
 20
-12.5
 30
0.0
 40
1.6
  0
CIRCLE
  8
0
 62
0
 10
177.7
 20
-7.5
 30
0.0
 40
1.6
  0
CIRCLE
  8
0
 62
0
 10
172.7
 20
-7.5
 30
0.0
 40
1.6
  0
CIRCLE
  8
0
 62
0
 10
167.7
 20
-7.5
 30
0.0
 40
1.6
  0
CIRCLE
  8
0
 62
0
 10
162.7
 20
-7.5
 30
0.0
 40
1.6
  0
CIRCLE
  8
0
 62
0
 10
157.7
 20
-7.5
 30
0.0
 40
1.6
  0
CIRCLE
  8
0
 62
0
 10
152.7
 20
-7.5
 30
0.0
 40
1.6
  0
CIRCLE
  8
0
 62
0
 10
147.7
 20
-7.5
 30
0.0
 40
1.6
  0
CIRCLE
  8
0
 62
0
 10
142.7
 20
-7.5
 30
0.0
 40
1.6
  0
CIRCLE
  8
0
 62
0
 10
137.7
 20
-7.5
 30
0.0
 40
1.6
  0
CIRCLE
  8
0
 62
0
 10
132.7
 20
-7.5
 30
0.0
 40
1.6
  0
CIRCLE
  8
0
 62
0
 10
92.7
 20
-7.5
 30
0.0
 40
1.6
  0
CIRCLE
  8
0
 62
0
 10
87.7
 20
-7.5
 30
0.0
 40
1.6
  0
CIRCLE
  8
0
 62
0
 10
82.7
 20
-7.5
 30
0.0
 40
1.6
  0
CIRCLE
  8
0
 62
0
 10
77.7
 20
-7.5
 30
0.0
 40
1.6
  0
CIRCLE
  8
0
 62
0
 10
72.7
 20
-7.5
 30
0.0
 40
1.6
  0
CIRCLE
  8
0
 62
0
 10
177.7
 20
-12.5
 30
0.0
 40
1.6
  0
CIRCLE
  8
0
 62
0
 10
67.7
 20
-7.5
 30
0.0
 40
1.6
  0
CIRCLE
  8
0
 62
0
 10
67.7
 20
7.5
 30
0.0
 40
1.6
  0
CIRCLE
  8
0
 62
0
 10
72.7
 20
7.5
 30
0.0
 40
1.6
  0
CIRCLE
  8
0
 62
0
 10
77.7
 20
7.5
 30
0.0
 40
1.6
  0
CIRCLE
  8
0
 62
0
 10
82.7
 20
7.5
 30
0.0
 40
1.6
  0
CIRCLE
  8
0
 62
0
 10
87.7
 20
7.5
 30
0.0
 40
1.6
  0
CIRCLE
  8
0
 62
0
 10
92.7
 20
7.5
 30
0.0
 40
1.6
  0
CIRCLE
  8
0
 62
0
 10
177.7
 20
7.5
 30
0.0
 40
1.6
  0
CIRCLE
  8
0
 62
0
 10
137.7
 20
7.5
 30
0.0
 40
1.6
  0
CIRCLE
  8
0
 62
0
 10
142.7
 20
7.5
 30
0.0
 40
1.6
  0
CIRCLE
  8
0
 62
0
 10
147.7
 20
7.5
 30
0.0
 40
1.6
  0
CIRCLE
  8
0
 62
0
 10
152.7
 20
7.5
 30
0.0
 40
1.6
  0
CIRCLE
  8
0
 62
0
 10
157.7
 20
7.5
 30
0.0
 40
1.6
  0
CIRCLE
  8
0
 62
0
 10
162.7
 20
7.5
 30
0.0
 40
1.6
  0
CIRCLE
  8
0
 62
0
 10
167.7
 20
7.5
 30
0.0
 40
1.6
  0
CIRCLE
  8
0
 62
0
 10
172.7
 20
7.5
 30
0.0
 40
1.6
  0
CIRCLE
  8
0
 62
0
 10
132.7
 20
7.5
 30
0.0
 40
1.6
  0
ENDBLK
  0
ENDSEC
  0
SECTION
  2
ENTITIES
  0
INSERT
  2
FILLET009
  8
0
 62
0
 10
0.0
 20
0.0
 30
0.0
  0
ENDSEC
  0
EOF
