  0
SECTION
  2
HEADER
  9
$ACADVER
  1
AC1009
  9
$INSBASE
 10
0.0
 20
0.0
 30
0.0
  9
$EXTMIN
 10
0.0
 20
0.0
 30
0.0
  9
$EXTMAX
 10
0.0
 20
0.0
 30
0.0
  0
ENDSEC
  0
SECTION
  2
TABLES
  0
TABLE
  2
VPORT
 70
0
  0
ENDTAB
  0
TABLE
  2
LTYPE
 70
1
  0
LTYPE
  2
CONTINUOUS
 70
0
  3
Solid line
 72
65
 73
0
 40
0.0
  0
ENDTAB
  0
TABLE
  2
LAYER
 70
1
  0
LAYER
  2
0
 70
64
 62
7
  6
continuous
  0
ENDTAB
  0
TABLE
  2
STYLE
 70
1
  0
STYLE
  2
STANDARD
 70
0
 40
0
 41
1.0
 50
0.0
 71
0
 42
1
 3
ARIAL.TTF
 4

  0
ENDTAB
  0
TABLE
  2
VIEW
 70
0
  0
ENDTAB
  0
ENDSEC
  0
SECTION
  2
BLOCKS
  0
BLOCK
  8
0
  2
FILLET005
 70
0
 10
0.0
 20
0.0
 30
0.0
  3
FILLET005
  0
LINE
  8
0
 62
0
 10
13.5
 20
54.3
 30
0.0
 11
36.5
 21
54.3
 31
0.0
  0
ARC
  8
0
 62
0
 10
13.5
 20
53.3
 30
0.0
 40
1.0
 50
90.0
 51
-180.0
  0
ARC
  8
0
 62
0
 10
36.5
 20
53.3
 30
0.0
 40
1.0
 50
-0.0
 51
90.0
  0
LINE
  8
0
 62
0
 10
12.5
 20
48.3
 30
0.0
 11
12.5
 21
53.3
 31
0.0
  0
LINE
  8
0
 62
0
 10
37.5
 20
53.3
 30
0.0
 11
37.5
 21
48.3
 31
0.0
  0
ARC
  8
0
 62
0
 10
13.5
 20
48.3
 30
0.0
 40
1.0
 50
-180.0
 51
-90.0
  0
ARC
  8
0
 62
0
 10
36.5
 20
48.3
 30
0.0
 40
1.0
 50
-90.0
 51
-0.0
  0
LINE
  8
0
 62
0
 10
36.5
 20
47.3
 30
0.0
 11
13.5
 21
47.3
 31
0.0
  0
LINE
  8
0
 62
0
 10
50.0
 20
59.6
 30
0.0
 11
40.0
 21
59.6
 31
0.0
  0
LINE
  8
0
 62
0
 10
40.0
 20
59.6
 30
0.0
 11
40.0
 21
62.6
 31
0.0
  0
LINE
  8
0
 62
0
 10
40.0
 20
62.6
 30
0.0
 11
30.0
 21
62.6
 31
0.0
  0
LINE
  8
0
 62
0
 10
30.0
 20
62.6
 30
0.0
 11
30.0
 21
59.6
 31
0.0
  0
LINE
  8
0
 62
0
 10
30.0
 20
59.6
 30
0.0
 11
20.0
 21
59.6
 31
0.0
  0
LINE
  8
0
 62
0
 10
20.0
 20
59.6
 30
0.0
 11
20.0
 21
62.6
 31
0.0
  0
LINE
  8
0
 62
0
 10
20.0
 20
62.6
 30
0.0
 11
10.0
 21
62.6
 31
0.0
  0
LINE
  8
0
 62
0
 10
10.0
 20
62.6
 30
0.0
 11
10.0
 21
59.6
 31
0.0
  0
LINE
  8
0
 62
0
 10
10.0
 20
59.6
 30
0.0
 11
0.0
 21
59.6
 31
0.0
  0
LINE
  8
0
 62
0
 10
0.0
 20
59.6
 30
0.0
 11
0.0
 21
36.0
 31
0.0
  0
LINE
  8
0
 62
0
 10
0.0
 20
36.0
 30
0.0
 11
10.0
 21
36.0
 31
0.0
  0
LINE
  8
0
 62
0
 10
10.0
 20
36.0
 30
0.0
 11
10.0
 21
33.0
 31
0.0
  0
LINE
  8
0
 62
0
 10
10.0
 20
33.0
 30
0.0
 11
20.0
 21
33.0
 31
0.0
  0
LINE
  8
0
 62
0
 10
20.0
 20
33.0
 30
0.0
 11
20.0
 21
36.0
 31
0.0
  0
LINE
  8
0
 62
0
 10
20.0
 20
36.0
 30
0.0
 11
30.0
 21
36.0
 31
0.0
  0
LINE
  8
0
 62
0
 10
30.0
 20
36.0
 30
0.0
 11
30.0
 21
33.0
 31
0.0
  0
LINE
  8
0
 62
0
 10
30.0
 20
33.0
 30
0.0
 11
40.0
 21
33.0
 31
0.0
  0
LINE
  8
0
 62
0
 10
40.0
 20
33.0
 30
0.0
 11
40.0
 21
36.0
 31
0.0
  0
LINE
  8
0
 62
0
 10
40.0
 20
36.0
 30
0.0
 11
50.0
 21
36.0
 31
0.0
  0
LINE
  8
0
 62
0
 10
50.0
 20
59.6
 30
0.0
 11
50.0
 21
36.0
 31
0.0
  0
LINE
  8
0
 62
0
 10
44.0
 20
45.9
 30
0.0
 11
47.0
 21
45.9
 31
0.0
  0
LINE
  8
0
 62
0
 10
47.0
 20
45.9
 30
0.0
 11
47.0
 21
39.1
 31
0.0
  0
LINE
  8
0
 62
0
 10
47.0
 20
39.1
 30
0.0
 11
44.0
 21
39.1
 31
0.0
  0
LINE
  8
0
 62
0
 10
44.0
 20
39.1
 30
0.0
 11
44.0
 21
45.9
 31
0.0
  0
LINE
  8
0
 62
0
 10
3.0
 20
45.9
 30
0.0
 11
6.0
 21
45.9
 31
0.0
  0
LINE
  8
0
 62
0
 10
6.0
 20
45.9
 30
0.0
 11
6.0
 21
39.1
 31
0.0
  0
LINE
  8
0
 62
0
 10
6.0
 20
39.1
 30
0.0
 11
3.0
 21
39.1
 31
0.0
  0
LINE
  8
0
 62
0
 10
3.0
 20
39.1
 30
0.0
 11
3.0
 21
45.9
 31
0.0
  0
LINE
  8
0
 62
0
 10
44.0
 20
56.5
 30
0.0
 11
47.0
 21
56.5
 31
0.0
  0
LINE
  8
0
 62
0
 10
47.0
 20
56.5
 30
0.0
 11
47.0
 21
49.7
 31
0.0
  0
LINE
  8
0
 62
0
 10
47.0
 20
49.7
 30
0.0
 11
44.0
 21
49.7
 31
0.0
  0
LINE
  8
0
 62
0
 10
44.0
 20
49.7
 30
0.0
 11
44.0
 21
56.5
 31
0.0
  0
LINE
  8
0
 62
0
 10
3.0
 20
56.5
 30
0.0
 11
6.0
 21
56.5
 31
0.0
  0
LINE
  8
0
 62
0
 10
6.0
 20
56.5
 30
0.0
 11
6.0
 21
49.7
 31
0.0
  0
LINE
  8
0
 62
0
 10
6.0
 20
49.7
 30
0.0
 11
3.0
 21
49.7
 31
0.0
  0
LINE
  8
0
 62
0
 10
3.0
 20
49.7
 30
0.0
 11
3.0
 21
56.5
 31
0.0
  0
ENDBLK
  0
ENDSEC
  0
SECTION
  2
ENTITIES
  0
INSERT
  2
FILLET005
  8
0
 62
0
 10
0.0
 20
0.0
 30
0.0
  0
ENDSEC
  0
EOF
