  0
SECTION
  2
HEADER
  9
$ACADVER
  1
AC1009
  9
$INSBASE
 10
0.0
 20
0.0
 30
0.0
  9
$EXTMIN
 10
0.0
 20
0.0
 30
0.0
  9
$EXTMAX
 10
0.0
 20
0.0
 30
0.0
  0
ENDSEC
  0
SECTION
  2
TABLES
  0
TABLE
  2
VPORT
 70
0
  0
ENDTAB
  0
TABLE
  2
LTYPE
 70
1
  0
LTYPE
  2
CONTINUOUS
 70
0
  3
Solid line
 72
65
 73
0
 40
0.0
  0
ENDTAB
  0
TABLE
  2
LAYER
 70
1
  0
LAYER
  2
0
 70
64
 62
7
  6
continuous
  0
ENDTAB
  0
TABLE
  2
STYLE
 70
1
  0
STYLE
  2
STANDARD
 70
0
 40
0
 41
1.0
 50
0.0
 71
0
 42
1
 3
ARIAL.TTF
 4

  0
ENDTAB
  0
TABLE
  2
VIEW
 70
0
  0
ENDTAB
  0
ENDSEC
  0
SECTION
  2
BLOCKS
  0
BLOCK
  8
0
  2
FILLET
 70
0
 10
0.0
 20
0.0
 30
0.0
  3
FILLET
  0
LINE
  8
0
 62
0
 10
17.5
 20
-3.0
 30
0.0
 11
17.5
 21
0.0
 31
0.0
  0
ARC
  8
0
 62
0
 10
18.5
 20
-1.19348975147e-15
 30
0.0
 40
1.0
 50
90.0
 51
180.0
  0
ARC
  8
0
 62
0
 10
14.5
 20
-3.0
 30
0.0
 40
3.0
 50
-90.0
 51
0.0
  0
LINE
  8
0
 62
0
 10
18.5
 20
1.0
 30
0.0
 11
31.5
 21
1.0
 31
0.0
  0
LINE
  8
0
 62
0
 10
3.0
 20
-6.0
 30
0.0
 11
14.5
 21
-6.0
 31
0.0
  0
ARC
  8
0
 62
0
 10
31.5
 20
-2.88657986403e-15
 30
0.0
 40
1.0
 50
0.0
 51
90.0
  0
ARC
  8
0
 62
0
 10
3.0
 20
-3.0
 30
0.0
 40
3.0
 50
180.0
 51
-90.0
  0
LINE
  8
0
 62
0
 10
32.5
 20
0.0
 30
0.0
 11
32.5
 21
-3.0
 31
0.0
  0
LINE
  8
0
 62
0
 10
0.0
 20
36.0
 30
0.0
 11
0.0
 21
-3.0
 31
0.0
  0
ARC
  8
0
 62
0
 10
35.5
 20
-3.0
 30
0.0
 40
3.0
 50
180.0
 51
-90.0
  0
ARC
  8
0
 62
0
 10
3.0
 20
36.0
 30
0.0
 40
3.0
 50
90.0
 51
-180.0
  0
LINE
  8
0
 62
0
 10
35.5
 20
-6.0
 30
0.0
 11
47.0
 21
-6.0
 31
0.0
  0
LINE
  8
0
 62
0
 10
3.0
 20
39.0
 30
0.0
 11
47.0
 21
39.0
 31
0.0
  0
ARC
  8
0
 62
0
 10
47.0
 20
-3.0
 30
0.0
 40
3.0
 50
-90.0
 51
0.0
  0
ARC
  8
0
 62
0
 10
47.0
 20
36.0
 30
0.0
 40
3.0
 50
-0.0
 51
90.0
  0
LINE
  8
0
 62
0
 10
50.0
 20
36.0
 30
0.0
 11
50.0
 21
-3.0
 31
0.0
  0
LINE
  8
0
 62
0
 10
3.1
 20
0.0
 30
0.0
 11
12.9
 21
0.0
 31
0.0
  0
LINE
  8
0
 62
0
 10
12.9
 20
0.0
 30
0.0
 11
12.9
 21
-3.0
 31
0.0
  0
LINE
  8
0
 62
0
 10
12.9
 20
-3.0
 30
0.0
 11
3.1
 21
-3.0
 31
0.0
  0
LINE
  8
0
 62
0
 10
3.1
 20
-3.0
 30
0.0
 11
3.1
 21
0.0
 31
0.0
  0
LINE
  8
0
 62
0
 10
30.1
 20
36.0
 30
0.0
 11
39.9
 21
36.0
 31
0.0
  0
LINE
  8
0
 62
0
 10
39.9
 20
36.0
 30
0.0
 11
39.9
 21
33.0
 31
0.0
  0
LINE
  8
0
 62
0
 10
39.9
 20
33.0
 30
0.0
 11
30.1
 21
33.0
 31
0.0
  0
LINE
  8
0
 62
0
 10
30.1
 20
33.0
 30
0.0
 11
30.1
 21
36.0
 31
0.0
  0
LINE
  8
0
 62
0
 10
3.0
 20
13.9
 30
0.0
 11
6.0
 21
13.9
 31
0.0
  0
LINE
  8
0
 62
0
 10
6.0
 20
13.9
 30
0.0
 11
6.0
 21
4.1
 31
0.0
  0
LINE
  8
0
 62
0
 10
6.0
 20
4.1
 30
0.0
 11
3.0
 21
4.1
 31
0.0
  0
LINE
  8
0
 62
0
 10
3.0
 20
4.1
 30
0.0
 11
3.0
 21
13.9
 31
0.0
  0
LINE
  8
0
 62
0
 10
10.1
 20
36.0
 30
0.0
 11
19.9
 21
36.0
 31
0.0
  0
LINE
  8
0
 62
0
 10
19.9
 20
36.0
 30
0.0
 11
19.9
 21
33.0
 31
0.0
  0
LINE
  8
0
 62
0
 10
19.9
 20
33.0
 30
0.0
 11
10.1
 21
33.0
 31
0.0
  0
LINE
  8
0
 62
0
 10
10.1
 20
33.0
 30
0.0
 11
10.1
 21
36.0
 31
0.0
  0
LINE
  8
0
 62
0
 10
44.0
 20
13.9
 30
0.0
 11
47.0
 21
13.9
 31
0.0
  0
LINE
  8
0
 62
0
 10
47.0
 20
13.9
 30
0.0
 11
47.0
 21
4.1
 31
0.0
  0
LINE
  8
0
 62
0
 10
47.0
 20
4.1
 30
0.0
 11
44.0
 21
4.1
 31
0.0
  0
LINE
  8
0
 62
0
 10
44.0
 20
4.1
 30
0.0
 11
44.0
 21
13.9
 31
0.0
  0
LINE
  8
0
 62
0
 10
37.1
 20
0.0
 30
0.0
 11
46.9
 21
0.0
 31
0.0
  0
LINE
  8
0
 62
0
 10
46.9
 20
0.0
 30
0.0
 11
46.9
 21
-3.0
 31
0.0
  0
LINE
  8
0
 62
0
 10
46.9
 20
-3.0
 30
0.0
 11
37.1
 21
-3.0
 31
0.0
  0
LINE
  8
0
 62
0
 10
37.1
 20
-3.0
 30
0.0
 11
37.1
 21
0.0
 31
0.0
  0
LINE
  8
0
 62
0
 10
44.0
 20
28.9
 30
0.0
 11
47.0
 21
28.9
 31
0.0
  0
LINE
  8
0
 62
0
 10
47.0
 20
28.9
 30
0.0
 11
47.0
 21
19.1
 31
0.0
  0
LINE
  8
0
 62
0
 10
47.0
 20
19.1
 30
0.0
 11
44.0
 21
19.1
 31
0.0
  0
LINE
  8
0
 62
0
 10
44.0
 20
19.1
 30
0.0
 11
44.0
 21
28.9
 31
0.0
  0
LINE
  8
0
 62
0
 10
3.0
 20
28.9
 30
0.0
 11
6.0
 21
28.9
 31
0.0
  0
LINE
  8
0
 62
0
 10
6.0
 20
28.9
 30
0.0
 11
6.0
 21
19.1
 31
0.0
  0
LINE
  8
0
 62
0
 10
6.0
 20
19.1
 30
0.0
 11
3.0
 21
19.1
 31
0.0
  0
LINE
  8
0
 62
0
 10
3.0
 20
19.1
 30
0.0
 11
3.0
 21
28.9
 31
0.0
  0
CIRCLE
  8
0
 62
0
 10
40.0
 20
29.0
 30
0.0
 40
1.5
  0
CIRCLE
  8
0
 62
0
 10
10.0
 20
29.0
 30
0.0
 40
1.5
  0
CIRCLE
  8
0
 62
0
 10
10.0
 20
4.0
 30
0.0
 40
1.5
  0
CIRCLE
  8
0
 62
0
 10
40.0
 20
4.0
 30
0.0
 40
1.5
  0
LINE
  8
0
 62
0
 10
13.5
 20
25.1
 30
0.0
 11
36.5
 21
25.1
 31
0.0
  0
ARC
  8
0
 62
0
 10
13.5
 20
24.1
 30
0.0
 40
1.0
 50
90.0
 51
-180.0
  0
ARC
  8
0
 62
0
 10
36.5
 20
24.1
 30
0.0
 40
1.0
 50
0.0
 51
90.0
  0
LINE
  8
0
 62
0
 10
12.5
 20
20.1
 30
0.0
 11
12.5
 21
24.1
 31
0.0
  0
LINE
  8
0
 62
0
 10
37.5
 20
24.1
 30
0.0
 11
37.5
 21
20.1
 31
0.0
  0
ARC
  8
0
 62
0
 10
13.5
 20
20.1
 30
0.0
 40
1.0
 50
180.0
 51
-90.0
  0
ARC
  8
0
 62
0
 10
36.5
 20
20.1
 30
0.0
 40
1.0
 50
-90.0
 51
-0.0
  0
LINE
  8
0
 62
0
 10
13.5
 20
19.1
 30
0.0
 11
36.5
 21
19.1
 31
0.0
  0
ENDBLK
  0
ENDSEC
  0
SECTION
  2
ENTITIES
  0
INSERT
  2
FILLET
  8
0
 62
0
 10
0.0
 20
0.0
 30
0.0
  0
ENDSEC
  0
EOF
