  0
SECTION
  2
HEADER
  9
$ACADVER
  1
AC1009
  9
$INSBASE
 10
0.0
 20
0.0
 30
0.0
  9
$EXTMIN
 10
0.0
 20
0.0
 30
0.0
  9
$EXTMAX
 10
0.0
 20
0.0
 30
0.0
  0
ENDSEC
  0
SECTION
  2
TABLES
  0
TABLE
  2
VPORT
 70
0
  0
ENDTAB
  0
TABLE
  2
LTYPE
 70
1
  0
LTYPE
  2
CONTINUOUS
 70
0
  3
Solid line
 72
65
 73
0
 40
0.0
  0
ENDTAB
  0
TABLE
  2
LAYER
 70
1
  0
LAYER
  2
0
 70
64
 62
7
  6
continuous
  0
ENDTAB
  0
TABLE
  2
STYLE
 70
1
  0
STYLE
  2
STANDARD
 70
0
 40
0
 41
1.0
 50
0.0
 71
0
 42
1
 3
ARIAL.TTF
 4

  0
ENDTAB
  0
TABLE
  2
VIEW
 70
0
  0
ENDTAB
  0
ENDSEC
  0
SECTION
  2
BLOCKS
  0
BLOCK
  8
0
  2
FILLET002
 70
0
 10
0.0
 20
0.0
 30
0.0
  3
FILLET002
  0
LINE
  8
0
 62
0
 10
9.99200722163e-16
 20
-3.0
 30
0.0
 11
1.89848137211e-14
 21
51.0
 31
0.0
  0
ARC
  8
0
 62
0
 10
3.0
 20
-3.0
 30
0.0
 40
3.0
 50
-180.0
 51
-90.0
  0
ARC
  8
0
 62
0
 10
3.0
 20
51.0
 30
0.0
 40
3.0
 50
90.0
 51
-180.0
  0
LINE
  8
0
 62
0
 10
47.0
 20
-6.0
 30
0.0
 11
3.0
 21
-6.0
 31
0.0
  0
LINE
  8
0
 62
0
 10
3.0
 20
54.0
 30
0.0
 11
47.0
 21
54.0
 31
0.0
  0
ARC
  8
0
 62
0
 10
47.0
 20
-3.0
 30
0.0
 40
3.0
 50
-90.0
 51
-0.0
  0
ARC
  8
0
 62
0
 10
47.0
 20
51.0
 30
0.0
 40
3.0
 50
-0.0
 51
90.0
  0
LINE
  8
0
 62
0
 10
50.0
 20
51.0
 30
0.0
 11
50.0
 21
-3.0
 31
0.0
  0
LINE
  8
0
 62
0
 10
10.1
 20
48.0
 30
0.0
 11
10.1
 21
51.0
 31
0.0
  0
LINE
  8
0
 62
0
 10
10.1
 20
51.0
 30
0.0
 11
19.9
 21
51.0
 31
0.0
  0
LINE
  8
0
 62
0
 10
19.9
 20
51.0
 30
0.0
 11
19.9
 21
48.0
 31
0.0
  0
LINE
  8
0
 62
0
 10
19.9
 20
48.0
 30
0.0
 11
10.1
 21
48.0
 31
0.0
  0
LINE
  8
0
 62
0
 10
3.0
 20
4.1
 30
0.0
 11
3.0
 21
13.9
 31
0.0
  0
LINE
  8
0
 62
0
 10
3.0
 20
13.9
 30
0.0
 11
6.0
 21
13.9
 31
0.0
  0
LINE
  8
0
 62
0
 10
6.0
 20
13.9
 30
0.0
 11
6.0
 21
4.1
 31
0.0
  0
LINE
  8
0
 62
0
 10
6.0
 20
4.1
 30
0.0
 11
3.0
 21
4.1
 31
0.0
  0
LINE
  8
0
 62
0
 10
44.0
 20
4.1
 30
0.0
 11
44.0
 21
13.9
 31
0.0
  0
LINE
  8
0
 62
0
 10
44.0
 20
13.9
 30
0.0
 11
47.0
 21
13.9
 31
0.0
  0
LINE
  8
0
 62
0
 10
47.0
 20
13.9
 30
0.0
 11
47.0
 21
4.1
 31
0.0
  0
LINE
  8
0
 62
0
 10
47.0
 20
4.1
 30
0.0
 11
44.0
 21
4.1
 31
0.0
  0
LINE
  8
0
 62
0
 10
30.1
 20
48.0
 30
0.0
 11
30.1
 21
51.0
 31
0.0
  0
LINE
  8
0
 62
0
 10
30.1
 20
51.0
 30
0.0
 11
39.9
 21
51.0
 31
0.0
  0
LINE
  8
0
 62
0
 10
39.9
 20
51.0
 30
0.0
 11
39.9
 21
48.0
 31
0.0
  0
LINE
  8
0
 62
0
 10
39.9
 20
48.0
 30
0.0
 11
30.1
 21
48.0
 31
0.0
  0
LINE
  8
0
 62
0
 10
10.1
 20
-3.0
 30
0.0
 11
10.1
 21
-3.5527136788e-15
 31
0.0
  0
LINE
  8
0
 62
0
 10
10.1
 20
-3.5527136788e-15
 30
0.0
 11
19.9
 21
-6.8167693712e-15
 31
0.0
  0
LINE
  8
0
 62
0
 10
19.9
 20
-6.2172489379e-15
 30
0.0
 11
19.9
 21
-3.0
 31
0.0
  0
LINE
  8
0
 62
0
 10
19.9
 20
-3.0
 30
0.0
 11
10.1
 21
-3.0
 31
0.0
  0
LINE
  8
0
 62
0
 10
44.0
 20
34.1
 30
0.0
 11
44.0
 21
43.9
 31
0.0
  0
LINE
  8
0
 62
0
 10
44.0
 20
43.9
 30
0.0
 11
47.0
 21
43.9
 31
0.0
  0
LINE
  8
0
 62
0
 10
47.0
 20
43.9
 30
0.0
 11
47.0
 21
34.1
 31
0.0
  0
LINE
  8
0
 62
0
 10
47.0
 20
34.1
 30
0.0
 11
44.0
 21
34.1
 31
0.0
  0
LINE
  8
0
 62
0
 10
30.1
 20
-3.0
 30
0.0
 11
30.1
 21
-1.02140518266e-14
 31
0.0
  0
LINE
  8
0
 62
0
 10
30.1
 20
-9.7699626167e-15
 30
0.0
 11
39.9
 21
-1.30340183091e-14
 31
0.0
  0
LINE
  8
0
 62
0
 10
39.9
 20
-1.33226762955e-14
 30
0.0
 11
39.9
 21
-3.0
 31
0.0
  0
LINE
  8
0
 62
0
 10
39.9
 20
-3.0
 30
0.0
 11
30.1
 21
-3.0
 31
0.0
  0
LINE
  8
0
 62
0
 10
3.0
 20
34.1
 30
0.0
 11
3.0
 21
43.9
 31
0.0
  0
LINE
  8
0
 62
0
 10
3.0
 20
43.9
 30
0.0
 11
6.0
 21
43.9
 31
0.0
  0
LINE
  8
0
 62
0
 10
6.0
 20
43.9
 30
0.0
 11
6.0
 21
34.1
 31
0.0
  0
LINE
  8
0
 62
0
 10
6.0
 20
34.1
 30
0.0
 11
3.0
 21
34.1
 31
0.0
  0
CIRCLE
  8
0
 62
0
 10
40.0
 20
4.0
 30
0.0
 40
1.5
  0
CIRCLE
  8
0
 62
0
 10
40.0
 20
44.0
 30
0.0
 40
1.5
  0
CIRCLE
  8
0
 62
0
 10
10.0
 20
44.0
 30
0.0
 40
1.5
  0
CIRCLE
  8
0
 62
0
 10
10.0
 20
4.0
 30
0.0
 40
1.5
  0
ENDBLK
  0
ENDSEC
  0
SECTION
  2
ENTITIES
  0
INSERT
  2
FILLET002
  8
0
 62
0
 10
0.0
 20
0.0
 30
0.0
  0
ENDSEC
  0
EOF
