  0
SECTION
  2
HEADER
  9
$ACADVER
  1
AC1009
  9
$INSBASE
 10
0.0
 20
0.0
 30
0.0
  9
$EXTMIN
 10
0.0
 20
0.0
 30
0.0
  9
$EXTMAX
 10
0.0
 20
0.0
 30
0.0
  0
ENDSEC
  0
SECTION
  2
TABLES
  0
TABLE
  2
VPORT
 70
0
  0
ENDTAB
  0
TABLE
  2
LTYPE
 70
1
  0
LTYPE
  2
CONTINUOUS
 70
0
  3
Solid line
 72
65
 73
0
 40
0.0
  0
ENDTAB
  0
TABLE
  2
LAYER
 70
1
  0
LAYER
  2
0
 70
64
 62
7
  6
continuous
  0
ENDTAB
  0
TABLE
  2
STYLE
 70
1
  0
STYLE
  2
STANDARD
 70
0
 40
0
 41
1.0
 50
0.0
 71
0
 42
1
 3
ARIAL.TTF
 4

  0
ENDTAB
  0
TABLE
  2
VIEW
 70
0
  0
ENDTAB
  0
ENDSEC
  0
SECTION
  2
BLOCKS
  0
BLOCK
  8
0
  2
FILLET004
 70
0
 10
0.0
 20
0.0
 30
0.0
  3
FILLET004
  0
LINE
  8
0
 62
0
 10
17.5
 20
51.0
 30
0.0
 11
17.5
 21
48.0
 31
0.0
  0
ARC
  8
0
 62
0
 10
18.5
 20
48.0
 30
0.0
 40
1.0
 50
-180.0
 51
-90.0
  0
ARC
  8
0
 62
0
 10
14.5
 20
51.0
 30
0.0
 40
3.0
 50
0.0
 51
90.0
  0
LINE
  8
0
 62
0
 10
18.5
 20
47.0
 30
0.0
 11
31.5
 21
47.0
 31
0.0
  0
LINE
  8
0
 62
0
 10
3.0
 20
54.0
 30
0.0
 11
14.5
 21
54.0
 31
0.0
  0
ARC
  8
0
 62
0
 10
31.5
 20
48.0
 30
0.0
 40
1.0
 50
-90.0
 51
-0.0
  0
ARC
  8
0
 62
0
 10
3.0
 20
51.0
 30
0.0
 40
3.0
 50
90.0
 51
180.0
  0
LINE
  8
0
 62
0
 10
32.5
 20
48.0
 30
0.0
 11
32.5
 21
51.0
 31
0.0
  0
LINE
  8
0
 62
0
 10
1.99840144433e-15
 20
-3.0
 30
0.0
 11
3.79696274422e-14
 21
51.0
 31
0.0
  0
ARC
  8
0
 62
0
 10
35.5
 20
51.0
 30
0.0
 40
3.0
 50
90.0
 51
180.0
  0
ARC
  8
0
 62
0
 10
3.0
 20
-3.0
 30
0.0
 40
3.0
 50
180.0
 51
-90.0
  0
LINE
  8
0
 62
0
 10
35.5
 20
54.0
 30
0.0
 11
47.0
 21
54.0
 31
0.0
  0
LINE
  8
0
 62
0
 10
47.0
 20
-6.0
 30
0.0
 11
3.0
 21
-6.0
 31
0.0
  0
ARC
  8
0
 62
0
 10
47.0
 20
51.0
 30
0.0
 40
3.0
 50
-0.0
 51
90.0
  0
ARC
  8
0
 62
0
 10
47.0
 20
-3.0
 30
0.0
 40
3.0
 50
-90.0
 51
0.0
  0
LINE
  8
0
 62
0
 10
50.0
 20
51.0
 30
0.0
 11
50.0
 21
-3.0
 31
0.0
  0
LINE
  8
0
 62
0
 10
3.0
 20
4.1
 30
0.0
 11
3.0
 21
13.9
 31
0.0
  0
LINE
  8
0
 62
0
 10
3.0
 20
13.9
 30
0.0
 11
6.0
 21
13.9
 31
0.0
  0
LINE
  8
0
 62
0
 10
6.0
 20
13.9
 30
0.0
 11
6.0
 21
4.1
 31
0.0
  0
LINE
  8
0
 62
0
 10
6.0
 20
4.1
 30
0.0
 11
3.0
 21
4.1
 31
0.0
  0
LINE
  8
0
 62
0
 10
10.1
 20
-3.0
 30
0.0
 11
10.1
 21
-6.66133814775e-15
 31
0.0
  0
LINE
  8
0
 62
0
 10
10.1
 20
-7.1054273576e-15
 30
0.0
 11
19.9
 21
-1.36335387424e-14
 31
0.0
  0
LINE
  8
0
 62
0
 10
19.9
 20
-1.33226762955e-14
 30
0.0
 11
19.9
 21
-3.0
 31
0.0
  0
LINE
  8
0
 62
0
 10
19.9
 20
-3.0
 30
0.0
 11
10.1
 21
-3.0
 31
0.0
  0
LINE
  8
0
 62
0
 10
44.0
 20
4.1
 30
0.0
 11
44.0
 21
13.9
 31
0.0
  0
LINE
  8
0
 62
0
 10
44.0
 20
13.9
 30
0.0
 11
47.0
 21
13.9
 31
0.0
  0
LINE
  8
0
 62
0
 10
47.0
 20
13.9
 30
0.0
 11
47.0
 21
4.1
 31
0.0
  0
LINE
  8
0
 62
0
 10
47.0
 20
4.1
 30
0.0
 11
44.0
 21
4.1
 31
0.0
  0
LINE
  8
0
 62
0
 10
44.0
 20
34.1
 30
0.0
 11
44.0
 21
43.9
 31
0.0
  0
LINE
  8
0
 62
0
 10
44.0
 20
43.9
 30
0.0
 11
47.0
 21
43.9
 31
0.0
  0
LINE
  8
0
 62
0
 10
47.0
 20
43.9
 30
0.0
 11
47.0
 21
34.1
 31
0.0
  0
LINE
  8
0
 62
0
 10
47.0
 20
34.1
 30
0.0
 11
44.0
 21
34.1
 31
0.0
  0
LINE
  8
0
 62
0
 10
30.1
 20
-3.0
 30
0.0
 11
30.1
 21
-1.99840144433e-14
 31
0.0
  0
LINE
  8
0
 62
0
 10
30.1
 20
-2.04281036531e-14
 30
0.0
 11
39.9
 21
-2.69562150379e-14
 31
0.0
  0
LINE
  8
0
 62
0
 10
39.9
 20
-2.6645352591e-14
 30
0.0
 11
39.9
 21
-3.0
 31
0.0
  0
LINE
  8
0
 62
0
 10
39.9
 20
-3.0
 30
0.0
 11
30.1
 21
-3.0
 31
0.0
  0
LINE
  8
0
 62
0
 10
3.0
 20
34.1
 30
0.0
 11
3.0
 21
43.9
 31
0.0
  0
LINE
  8
0
 62
0
 10
3.0
 20
43.9
 30
0.0
 11
6.0
 21
43.9
 31
0.0
  0
LINE
  8
0
 62
0
 10
6.0
 20
43.9
 30
0.0
 11
6.0
 21
34.1
 31
0.0
  0
LINE
  8
0
 62
0
 10
6.0
 20
34.1
 30
0.0
 11
3.0
 21
34.1
 31
0.0
  0
LINE
  8
0
 62
0
 10
6.1
 20
48.0
 30
0.0
 11
6.1
 21
51.0
 31
0.0
  0
LINE
  8
0
 62
0
 10
6.1
 20
51.0
 30
0.0
 11
12.9
 21
51.0
 31
0.0
  0
LINE
  8
0
 62
0
 10
12.9
 20
51.0
 30
0.0
 11
12.9
 21
48.0
 31
0.0
  0
LINE
  8
0
 62
0
 10
12.9
 20
48.0
 30
0.0
 11
6.1
 21
48.0
 31
0.0
  0
LINE
  8
0
 62
0
 10
37.1
 20
48.0
 30
0.0
 11
37.1
 21
51.0
 31
0.0
  0
LINE
  8
0
 62
0
 10
37.1
 20
51.0
 30
0.0
 11
43.9
 21
51.0
 31
0.0
  0
LINE
  8
0
 62
0
 10
43.9
 20
51.0
 30
0.0
 11
43.9
 21
48.0
 31
0.0
  0
LINE
  8
0
 62
0
 10
43.9
 20
48.0
 30
0.0
 11
37.1
 21
48.0
 31
0.0
  0
CIRCLE
  8
0
 62
0
 10
40.0
 20
44.0
 30
0.0
 40
1.5
  0
CIRCLE
  8
0
 62
0
 10
10.0
 20
44.0
 30
0.0
 40
1.5
  0
CIRCLE
  8
0
 62
0
 10
40.0
 20
4.0
 30
0.0
 40
1.5
  0
CIRCLE
  8
0
 62
0
 10
10.0
 20
4.0
 30
0.0
 40
1.5
  0
LINE
  8
0
 62
0
 10
17.5
 20
5.5
 30
0.0
 11
17.5
 21
9.5
 31
0.0
  0
ARC
  8
0
 62
0
 10
18.5
 20
5.5
 30
0.0
 40
1.0
 50
180.0
 51
-90.0
  0
ARC
  8
0
 62
0
 10
18.5
 20
9.5
 30
0.0
 40
1.0
 50
90.0
 51
-180.0
  0
LINE
  8
0
 62
0
 10
31.5
 20
4.5
 30
0.0
 11
18.5
 21
4.5
 31
0.0
  0
LINE
  8
0
 62
0
 10
18.5
 20
10.5
 30
0.0
 11
31.5
 21
10.5
 31
0.0
  0
ARC
  8
0
 62
0
 10
31.5
 20
5.5
 30
0.0
 40
1.0
 50
-90.0
 51
0.0
  0
ARC
  8
0
 62
0
 10
31.5
 20
9.5
 30
0.0
 40
1.0
 50
0.0
 51
90.0
  0
LINE
  8
0
 62
0
 10
32.5
 20
9.5
 30
0.0
 11
32.5
 21
5.5
 31
0.0
  0
LINE
  8
0
 62
0
 10
34.0
 20
13.0
 30
0.0
 11
34.0
 21
19.0
 31
0.0
  0
ARC
  8
0
 62
0
 10
35.0
 20
13.0
 30
0.0
 40
1.0
 50
-180.0
 51
-90.0
  0
ARC
  8
0
 62
0
 10
35.0
 20
19.0
 30
0.0
 40
1.0
 50
90.0
 51
180.0
  0
LINE
  8
0
 62
0
 10
36.0
 20
12.0
 30
0.0
 11
35.0
 21
12.0
 31
0.0
  0
LINE
  8
0
 62
0
 10
35.0
 20
20.0
 30
0.0
 11
36.0
 21
20.0
 31
0.0
  0
ARC
  8
0
 62
0
 10
36.0
 20
13.0
 30
0.0
 40
1.0
 50
-90.0
 51
-0.0
  0
ARC
  8
0
 62
0
 10
36.0
 20
19.0
 30
0.0
 40
1.0
 50
0.0
 51
90.0
  0
LINE
  8
0
 62
0
 10
37.0
 20
19.0
 30
0.0
 11
37.0
 21
13.0
 31
0.0
  0
ENDBLK
  0
ENDSEC
  0
SECTION
  2
ENTITIES
  0
INSERT
  2
FILLET004
  8
0
 62
0
 10
0.0
 20
0.0
 30
0.0
  0
ENDSEC
  0
EOF
