  0
SECTION
  2
HEADER
  9
$ACADVER
  1
AC1009
  9
$INSBASE
 10
0.0
 20
0.0
 30
0.0
  9
$EXTMIN
 10
0.0
 20
0.0
 30
0.0
  9
$EXTMAX
 10
0.0
 20
0.0
 30
0.0
  0
ENDSEC
  0
SECTION
  2
TABLES
  0
TABLE
  2
VPORT
 70
0
  0
ENDTAB
  0
TABLE
  2
LTYPE
 70
1
  0
LTYPE
  2
CONTINUOUS
 70
0
  3
Solid line
 72
65
 73
0
 40
0.0
  0
ENDTAB
  0
TABLE
  2
LAYER
 70
1
  0
LAYER
  2
0
 70
64
 62
7
  6
continuous
  0
ENDTAB
  0
TABLE
  2
STYLE
 70
1
  0
STYLE
  2
STANDARD
 70
0
 40
0
 41
1.0
 50
0.0
 71
0
 42
1
 3
ARIAL.TTF
 4

  0
ENDTAB
  0
TABLE
  2
VIEW
 70
0
  0
ENDTAB
  0
ENDSEC
  0
SECTION
  2
BLOCKS
  0
BLOCK
  8
0
  2
FILLET001
 70
0
 10
0.0
 20
0.0
 30
0.0
  3
FILLET001
  0
LINE
  8
0
 62
0
 10
35.0
 20
20.6
 30
0.0
 11
35.0
 21
6.7
 31
0.0
  0
ARC
  8
0
 62
0
 10
34.0
 20
6.7
 30
0.0
 40
1.0
 50
-90.0
 51
-0.0
  0
LINE
  8
0
 62
0
 10
40.0
 20
20.6
 30
0.0
 11
35.0
 21
20.6
 31
0.0
  0
LINE
  8
0
 62
0
 10
34.0
 20
5.7
 30
0.0
 11
21.0
 21
5.7
 31
0.0
  0
LINE
  8
0
 62
0
 10
40.0
 20
23.6
 30
0.0
 11
40.0
 21
20.6
 31
0.0
  0
ARC
  8
0
 62
0
 10
21.0
 20
6.7
 30
0.0
 40
1.0
 50
-180.0
 51
-90.0
  0
LINE
  8
0
 62
0
 10
50.0
 20
23.6
 30
0.0
 11
40.0
 21
23.6
 31
0.0
  0
LINE
  8
0
 62
0
 10
20.0
 20
6.7
 30
0.0
 11
20.0
 21
20.6
 31
0.0
  0
LINE
  8
0
 62
0
 10
50.0
 20
20.6
 30
0.0
 11
50.0
 21
23.6
 31
0.0
  0
LINE
  8
0
 62
0
 10
20.0
 20
20.6
 30
0.0
 11
15.0
 21
20.6
 31
0.0
  0
LINE
  8
0
 62
0
 10
55.0
 20
20.6
 30
0.0
 11
50.0
 21
20.6
 31
0.0
  0
LINE
  8
0
 62
0
 10
15.0
 20
20.6
 30
0.0
 11
15.0
 21
23.6
 31
0.0
  0
LINE
  8
0
 62
0
 10
55.0
 20
20.6
 30
0.0
 11
55.0
 21
0.0
 31
0.0
  0
LINE
  8
0
 62
0
 10
15.0
 20
23.6
 30
0.0
 11
5.0
 21
23.6
 31
0.0
  0
LINE
  8
0
 62
0
 10
45.0
 20
4.4408920985e-16
 30
0.0
 11
55.0
 21
4.4408920985e-16
 31
0.0
  0
LINE
  8
0
 62
0
 10
5.0
 20
23.6
 30
0.0
 11
5.0
 21
20.6
 31
0.0
  0
LINE
  8
0
 62
0
 10
45.0
 20
-3.0
 30
0.0
 11
45.0
 21
4.4408920985e-16
 31
0.0
  0
LINE
  8
0
 62
0
 10
5.0
 20
20.6
 30
0.0
 11
0.0
 21
20.6
 31
0.0
  0
LINE
  8
0
 62
0
 10
35.0
 20
-3.0
 30
0.0
 11
45.0
 21
-3.0
 31
0.0
  0
LINE
  8
0
 62
0
 10
0.0
 20
20.6
 30
0.0
 11
0.0
 21
0.0
 31
0.0
  0
LINE
  8
0
 62
0
 10
35.0
 20
2.56739074445e-16
 30
0.0
 11
35.0
 21
-3.0
 31
0.0
  0
LINE
  8
0
 62
0
 10
0.0
 20
0.0
 30
0.0
 11
10.0
 21
0.0
 31
0.0
  0
LINE
  8
0
 62
0
 10
20.0
 20
2.56739074445e-16
 30
0.0
 11
35.0
 21
2.56739074445e-16
 31
0.0
  0
LINE
  8
0
 62
0
 10
10.0
 20
0.0
 30
0.0
 11
10.0
 21
-3.0
 31
0.0
  0
LINE
  8
0
 62
0
 10
20.0
 20
-3.0
 30
0.0
 11
20.0
 21
4.4408920985e-16
 31
0.0
  0
LINE
  8
0
 62
0
 10
10.0
 20
-3.0
 30
0.0
 11
20.0
 21
-3.0
 31
0.0
  0
LINE
  8
0
 62
0
 10
49.0
 20
15.2
 30
0.0
 11
52.0
 21
15.2
 31
0.0
  0
LINE
  8
0
 62
0
 10
52.0
 20
15.2
 30
0.0
 11
52.0
 21
5.4
 31
0.0
  0
LINE
  8
0
 62
0
 10
52.0
 20
5.4
 30
0.0
 11
49.0
 21
5.4
 31
0.0
  0
LINE
  8
0
 62
0
 10
49.0
 20
5.4
 30
0.0
 11
49.0
 21
15.2
 31
0.0
  0
LINE
  8
0
 62
0
 10
3.0
 20
15.2
 30
0.0
 11
6.0
 21
15.2
 31
0.0
  0
LINE
  8
0
 62
0
 10
6.0
 20
15.2
 30
0.0
 11
6.0
 21
5.4
 31
0.0
  0
LINE
  8
0
 62
0
 10
6.0
 20
5.4
 30
0.0
 11
3.0
 21
5.4
 31
0.0
  0
LINE
  8
0
 62
0
 10
3.0
 20
5.4
 30
0.0
 11
3.0
 21
15.2
 31
0.0
  0
ENDBLK
  0
ENDSEC
  0
SECTION
  2
ENTITIES
  0
INSERT
  2
FILLET001
  8
0
 62
0
 10
0.0
 20
0.0
 30
0.0
  0
ENDSEC
  0
EOF
