  0
SECTION
  2
HEADER
  9
$ACADVER
  1
AC1009
  9
$INSBASE
 10
0.0
 20
0.0
 30
0.0
  9
$EXTMIN
 10
0.0
 20
0.0
 30
0.0
  9
$EXTMAX
 10
0.0
 20
0.0
 30
0.0
  0
ENDSEC
  0
SECTION
  2
TABLES
  0
TABLE
  2
VPORT
 70
0
  0
ENDTAB
  0
TABLE
  2
LTYPE
 70
1
  0
LTYPE
  2
CONTINUOUS
 70
0
  3
Solid line
 72
65
 73
0
 40
0.0
  0
ENDTAB
  0
TABLE
  2
LAYER
 70
1
  0
LAYER
  2
0
 70
64
 62
7
  6
continuous
  0
ENDTAB
  0
TABLE
  2
STYLE
 70
1
  0
STYLE
  2
STANDARD
 70
0
 40
0
 41
1.0
 50
0.0
 71
0
 42
1
 3
ARIAL.TTF
 4

  0
ENDTAB
  0
TABLE
  2
VIEW
 70
0
  0
ENDTAB
  0
ENDSEC
  0
SECTION
  2
BLOCKS
  0
BLOCK
  8
0
  2
BODY007
 70
0
 10
0.0
 20
0.0
 30
0.0
  3
BODY007
  0
LINE
  8
0
 62
0
 10
-28.0
 20
3.0
 30
0.0
 11
-35.0
 21
3.0
 31
0.0
  0
LINE
  8
0
 62
0
 10
-28.0
 20
3.0
 30
0.0
 11
-28.0
 21
0.0
 31
0.0
  0
LINE
  8
0
 62
0
 10
-28.0
 20
0.0
 30
0.0
 11
-19.5
 21
0.0
 31
0.0
  0
LINE
  8
0
 62
0
 10
-19.5
 20
0.0
 30
0.0
 11
-19.5
 21
7.0
 31
0.0
  0
LINE
  8
0
 62
0
 10
-19.5
 20
7.0
 30
0.0
 11
-20.75
 21
7.0
 31
0.0
  0
LINE
  8
0
 62
0
 10
-20.75
 20
7.0
 30
0.0
 11
-20.75
 21
9.3
 31
0.0
  0
LINE
  8
0
 62
0
 10
-20.75
 20
9.3
 30
0.0
 11
-19.5
 21
9.3
 31
0.0
  0
LINE
  8
0
 62
0
 10
-19.5
 20
9.3
 30
0.0
 11
-19.5
 21
12.3
 31
0.0
  0
LINE
  8
0
 62
0
 10
-19.5
 20
12.3
 30
0.0
 11
-16.5
 21
12.3
 31
0.0
  0
LINE
  8
0
 62
0
 10
-16.5
 20
12.3
 30
0.0
 11
-16.5
 21
9.3
 31
0.0
  0
LINE
  8
0
 62
0
 10
-16.5
 20
9.3
 30
0.0
 11
-15.25
 21
9.3
 31
0.0
  0
LINE
  8
0
 62
0
 10
-15.25
 20
9.3
 30
0.0
 11
-15.25
 21
7.0
 31
0.0
  0
LINE
  8
0
 62
0
 10
-15.25
 20
7.0
 30
0.0
 11
-16.5
 21
7.0
 31
0.0
  0
LINE
  8
0
 62
0
 10
-16.5
 20
7.0
 30
0.0
 11
-16.5
 21
0.0
 31
0.0
  0
LINE
  8
0
 62
0
 10
-16.5
 20
-7.39010019903e-17
 30
0.0
 11
-8.0
 21
-7.39010019903e-17
 31
0.0
  0
LINE
  8
0
 62
0
 10
-8.0
 20
-7.39010019903e-17
 30
0.0
 11
-8.0
 21
3.0
 31
0.0
  0
LINE
  8
0
 62
0
 10
-8.0
 20
3.0
 30
0.0
 11
1.0
 21
3.0
 31
0.0
  0
POLYLINE
  8
0
 62
0
 70
0
 66
1
 10
0.0
 20
0.0
 30
0.0
  0
VERTEX
  8
0
 10
1.0
 20
3.0
 30
0.0
  0
VERTEX
  8
0
 10
0.656070316853
 20
9.40924466351
 30
0.0
  0
VERTEX
  8
0
 10
-0.280235019025
 20
15.6073854472
 30
0.0
  0
VERTEX
  8
0
 10
-1.77865662476
 20
21.3941117175
 30
0.0
  0
VERTEX
  8
0
 10
-3.79076872369
 20
26.5824088766
 30
0.0
  0
VERTEX
  8
0
 10
-6.25154416274
 20
31.0046022736
 30
0.0
  0
VERTEX
  8
0
 10
-9.08145595075
 20
34.5177760905
 30
0.0
  0
VERTEX
  8
0
 10
-12.1890474004
 20
37.0083920746
 30
0.0
  0
VERTEX
  8
0
 10
-15.4738878126
 20
38.3959588524
 30
0.0
  0
VERTEX
  8
0
 10
-18.8298181814
 20
38.6356332377
 30
0.0
  0
VERTEX
  8
0
 10
-22.1483820256
 20
37.7196694677
 30
0.0
  0
VERTEX
  8
0
 10
-25.3223304703
 20
35.6776695297
 30
0.0
  0
SEQEND
  8
0
  0
LINE
  8
0
 62
0
 10
-41.0
 20
20.0
 30
0.0
 11
-25.3223304703
 21
35.6776695297
 31
0.0
  0
LINE
  8
0
 62
0
 10
-41.0
 20
20.0
 30
0.0
 11
-43.1213203436
 21
22.1213203436
 31
0.0
  0
ARC
  8
0
 62
0
 10
-46.1486686532
 20
24.7357346589
 30
0.0
 40
4.0
 50
-40.8138505265
 51
52.7694711719
  0
POLYLINE
  8
0
 62
0
 70
0
 66
1
 10
0.0
 20
0.0
 30
0.0
  0
VERTEX
  8
0
 10
-43.7285748815
 20
27.920565288
 30
0.0
  0
VERTEX
  8
0
 10
-46.2699484102
 20
27.4891936058
 30
0.0
  0
VERTEX
  8
0
 10
-48.5597888735
 20
24.6556960159
 30
0.0
  0
SEQEND
  8
0
  0
POLYLINE
  8
0
 62
0
 70
0
 66
1
 10
0.0
 20
0.0
 30
0.0
  0
VERTEX
  8
0
 10
-48.5597888735
 20
24.6556960159
 30
0.0
  0
VERTEX
  8
0
 10
-49.1813076446
 20
21.834036029
 30
0.0
  0
VERTEX
  8
0
 10
-48.361023703
 20
18.549733496
 30
0.0
  0
VERTEX
  8
0
 10
-46.1792321564
 20
15.124278832
 30
0.0
  0
VERTEX
  8
0
 10
-42.8495019626
 20
11.892979406
 30
0.0
  0
VERTEX
  8
0
 10
-38.6977703126
 20
9.17213731957
 30
0.0
  0
SEQEND
  8
0
  0
ARC
  8
0
 62
0
 10
-42.0
 20
3.0
 30
0.0
 40
7.0
 50
-0.0
 51
61.8522356544
  0
ENDBLK
  0
ENDSEC
  0
SECTION
  2
ENTITIES
  0
INSERT
  2
BODY007
  8
0
 62
0
 10
0.0
 20
0.0
 30
0.0
  0
ENDSEC
  0
EOF
