  0
SECTION
  2
HEADER
  9
$ACADVER
  1
AC1009
  9
$INSBASE
 10
0.0
 20
0.0
 30
0.0
  9
$EXTMIN
 10
0.0
 20
0.0
 30
0.0
  9
$EXTMAX
 10
0.0
 20
0.0
 30
0.0
  0
ENDSEC
  0
SECTION
  2
TABLES
  0
TABLE
  2
VPORT
 70
0
  0
ENDTAB
  0
TABLE
  2
LTYPE
 70
1
  0
LTYPE
  2
CONTINUOUS
 70
0
  3
Solid line
 72
65
 73
0
 40
0.0
  0
ENDTAB
  0
TABLE
  2
LAYER
 70
1
  0
LAYER
  2
0
 70
64
 62
7
  6
continuous
  0
ENDTAB
  0
TABLE
  2
STYLE
 70
1
  0
STYLE
  2
STANDARD
 70
0
 40
0
 41
1.0
 50
0.0
 71
0
 42
1
 3
ARIAL.TTF
 4

  0
ENDTAB
  0
TABLE
  2
VIEW
 70
0
  0
ENDTAB
  0
ENDSEC
  0
SECTION
  2
BLOCKS
  0
BLOCK
  8
0
  2
BODY008
 70
0
 10
0.0
 20
0.0
 30
0.0
  3
BODY008
  0
LINE
  8
0
 62
0
 10
-28.0
 20
3.0
 30
0.0
 11
-35.0
 21
3.0
 31
0.0
  0
LINE
  8
0
 62
0
 10
-28.0
 20
3.0
 30
0.0
 11
-28.0
 21
4.4408920985e-16
 31
0.0
  0
LINE
  8
0
 62
0
 10
-28.0
 20
2.6499096051e-16
 30
0.0
 11
-19.5
 21
2.6499096051e-16
 31
0.0
  0
LINE
  8
0
 62
0
 10
-19.5
 20
2.6499096051e-16
 30
0.0
 11
-19.5
 21
7.0
 31
0.0
  0
LINE
  8
0
 62
0
 10
-19.5
 20
7.0
 30
0.0
 11
-20.75
 21
7.0
 31
0.0
  0
LINE
  8
0
 62
0
 10
-20.75
 20
7.0
 30
0.0
 11
-20.75
 21
9.3
 31
0.0
  0
LINE
  8
0
 62
0
 10
-20.75
 20
9.3
 30
0.0
 11
-19.5
 21
9.3
 31
0.0
  0
LINE
  8
0
 62
0
 10
-19.5
 20
9.3
 30
0.0
 11
-19.5
 21
12.3
 31
0.0
  0
LINE
  8
0
 62
0
 10
-19.5
 20
12.3
 30
0.0
 11
-16.5
 21
12.3
 31
0.0
  0
LINE
  8
0
 62
0
 10
-16.5
 20
12.3
 30
0.0
 11
-16.5
 21
9.3
 31
0.0
  0
LINE
  8
0
 62
0
 10
-16.5
 20
9.3
 30
0.0
 11
-15.25
 21
9.3
 31
0.0
  0
LINE
  8
0
 62
0
 10
-15.25
 20
9.3
 30
0.0
 11
-15.25
 21
7.0
 31
0.0
  0
LINE
  8
0
 62
0
 10
-15.25
 20
7.0
 30
0.0
 11
-16.5
 21
7.0
 31
0.0
  0
LINE
  8
0
 62
0
 10
-16.5
 20
7.0
 30
0.0
 11
-16.5
 21
0.0
 31
0.0
  0
LINE
  8
0
 62
0
 10
-16.5
 20
0.0
 30
0.0
 11
-8.0
 21
0.0
 31
0.0
  0
LINE
  8
0
 62
0
 10
-8.0
 20
0.0
 30
0.0
 11
-8.0
 21
3.0
 31
0.0
  0
LINE
  8
0
 62
0
 10
-8.0
 20
3.0
 30
0.0
 11
1.0
 21
3.0
 31
0.0
  0
POLYLINE
  8
0
 62
0
 70
0
 66
1
 10
0.0
 20
0.0
 30
0.0
  0
VERTEX
  8
0
 10
1.0
 20
3.0
 30
0.0
  0
VERTEX
  8
0
 10
0.232164679143
 20
9.76782138984
 30
0.0
  0
VERTEX
  8
0
 10
-0.998242414097
 20
16.3324884554
 30
0.0
  0
VERTEX
  8
0
 10
-2.6610851418
 20
22.5332139961
 30
0.0
  0
VERTEX
  8
0
 10
-4.71563579842
 20
28.2181247652
 30
0.0
  0
VERTEX
  8
0
 10
-7.11157264712
 20
33.2479812735
 30
0.0
  0
VERTEX
  8
0
 10
-9.79021244093
 20
37.4995881573
 30
0.0
  0
VERTEX
  8
0
 10
-12.6859477409
 20
40.8688115798
 30
0.0
  0
VERTEX
  8
0
 10
-15.7278538271
 20
43.2731297624
 30
0.0
  0
VERTEX
  8
0
 10
-18.8414258452
 20
44.6536541756
 30
0.0
  0
VERTEX
  8
0
 10
-21.9504036401
 20
44.9765718851
 30
0.0
  0
VERTEX
  8
0
 10
-24.9786395821
 20
44.2339737261
 30
0.0
  0
VERTEX
  8
0
 10
-27.8519636371
 20
42.4440480206
 30
0.0
  0
VERTEX
  8
0
 10
-30.5
 20
39.6506350946
 30
0.0
  0
SEQEND
  8
0
  0
LINE
  8
0
 62
0
 10
-41.8452994616
 20
20.0
 30
0.0
 11
-30.5
 21
39.6506350946
 31
0.0
  0
LINE
  8
0
 62
0
 10
-41.8452994616
 20
20.0
 30
0.0
 11
-44.443375673
 21
21.5
 31
0.0
  0
ARC
  8
0
 62
0
 10
-47.9254421925
 20
23.4685560072
 30
0.0
 40
4.0
 50
-29.4812691724
 51
69.9615083544
  0
POLYLINE
  8
0
 62
0
 70
0
 66
1
 10
0.0
 20
0.0
 30
0.0
  0
VERTEX
  8
0
 10
-46.5548367638
 20
27.2264065575
 30
0.0
  0
VERTEX
  8
0
 10
-49.3210353531
 20
26.4404000024
 30
0.0
  0
VERTEX
  8
0
 10
-51.2126381223
 20
23.2824381874
 30
0.0
  0
SEQEND
  8
0
  0
POLYLINE
  8
0
 62
0
 70
0
 66
1
 10
0.0
 20
0.0
 30
0.0
  0
VERTEX
  8
0
 10
-51.2126381223
 20
23.2824381874
 30
0.0
  0
VERTEX
  8
0
 10
-51.2704639732
 20
19.8095761046
 30
0.0
  0
VERTEX
  8
0
 10
-49.0528282107
 20
15.9734335234
 30
0.0
  0
VERTEX
  8
0
 10
-44.8973457769
 20
12.3580283773
 30
0.0
  0
VERTEX
  8
0
 10
-39.4366512026
 20
9.51377332602
 30
0.0
  0
SEQEND
  8
0
  0
ARC
  8
0
 62
0
 10
-42.0
 20
3.0
 30
0.0
 40
7.0
 50
-0.0
 51
68.5189989583
  0
ENDBLK
  0
ENDSEC
  0
SECTION
  2
ENTITIES
  0
INSERT
  2
BODY008
  8
0
 62
0
 10
0.0
 20
0.0
 30
0.0
  0
ENDSEC
  0
EOF
