  0
SECTION
  2
HEADER
  9
$ACADVER
  1
AC1009
  9
$INSBASE
 10
0.0
 20
0.0
 30
0.0
  9
$EXTMIN
 10
0.0
 20
0.0
 30
0.0
  9
$EXTMAX
 10
0.0
 20
0.0
 30
0.0
  0
ENDSEC
  0
SECTION
  2
TABLES
  0
TABLE
  2
VPORT
 70
0
  0
ENDTAB
  0
TABLE
  2
LTYPE
 70
1
  0
LTYPE
  2
CONTINUOUS
 70
0
  3
Solid line
 72
65
 73
0
 40
0.0
  0
ENDTAB
  0
TABLE
  2
LAYER
 70
1
  0
LAYER
  2
0
 70
64
 62
7
  6
continuous
  0
ENDTAB
  0
TABLE
  2
STYLE
 70
1
  0
STYLE
  2
STANDARD
 70
0
 40
0
 41
1.0
 50
0.0
 71
0
 42
1
 3
ARIAL.TTF
 4

  0
ENDTAB
  0
TABLE
  2
VIEW
 70
0
  0
ENDTAB
  0
ENDSEC
  0
SECTION
  2
BLOCKS
  0
BLOCK
  8
0
  2
FILLET001
 70
0
 10
0.0
 20
0.0
 30
0.0
  3
FILLET001
  0
LINE
  8
0
 62
0
 10
52.0
 20
21.0
 30
0.0
 11
49.0
 21
21.0
 31
0.0
  0
ARC
  8
0
 62
0
 10
52.0
 20
18.0
 30
0.0
 40
3.0
 50
-0.0
 51
90.0
  0
ARC
  8
0
 62
0
 10
49.0
 20
22.0
 30
0.0
 40
1.0
 50
-180.0
 51
-90.0
  0
LINE
  8
0
 62
0
 10
55.0
 20
11.0
 30
0.0
 11
55.0
 21
18.0
 31
0.0
  0
LINE
  8
0
 62
0
 10
48.0
 20
22.0
 30
0.0
 11
48.0
 21
35.0
 31
0.0
  0
ARC
  8
0
 62
0
 10
41.0
 20
11.0
 30
0.0
 40
14.0
 50
-90.0
 51
-0.0
  0
ARC
  8
0
 62
0
 10
49.0
 20
35.0
 30
0.0
 40
1.0
 50
90.0
 51
-180.0
  0
LINE
  8
0
 62
0
 10
14.5
 20
-3.0
 30
0.0
 11
41.0
 21
-3.0
 31
0.0
  0
LINE
  8
0
 62
0
 10
49.0
 20
36.0
 30
0.0
 11
52.0
 21
36.0
 31
0.0
  0
LINE
  8
0
 62
0
 10
14.5
 20
-1.09996446316e-16
 30
0.0
 11
14.5
 21
-3.0
 31
0.0
  0
ARC
  8
0
 62
0
 10
52.0
 20
39.0
 30
0.0
 40
3.0
 50
-90.0
 51
-0.0
  0
LINE
  8
0
 62
0
 10
11.5
 20
-1.09996446316e-16
 30
0.0
 11
14.5
 21
-1.09996446316e-16
 31
0.0
  0
LINE
  8
0
 62
0
 10
55.0
 20
39.0
 30
0.0
 11
55.0
 21
46.0
 31
0.0
  0
LINE
  8
0
 62
0
 10
11.5
 20
-3.0
 30
0.0
 11
11.5
 21
0.0
 31
0.0
  0
ARC
  8
0
 62
0
 10
41.0
 20
46.0
 30
0.0
 40
14.0
 50
-0.0
 51
90.0
  0
LINE
  8
0
 62
0
 10
-11.5
 20
-3.0
 30
0.0
 11
11.5
 21
-3.0
 31
0.0
  0
LINE
  8
0
 62
0
 10
41.0
 20
60.0
 30
0.0
 11
14.5
 21
60.0
 31
0.0
  0
LINE
  8
0
 62
0
 10
-11.5
 20
1.09996446316e-16
 30
0.0
 11
-11.5
 21
-3.0
 31
0.0
  0
LINE
  8
0
 62
0
 10
14.5
 20
60.0
 30
0.0
 11
14.5
 21
57.0
 31
0.0
  0
LINE
  8
0
 62
0
 10
-14.5
 20
1.09996446316e-16
 30
0.0
 11
-11.5
 21
1.09996446316e-16
 31
0.0
  0
LINE
  8
0
 62
0
 10
14.5
 20
57.0
 30
0.0
 11
11.5
 21
57.0
 31
0.0
  0
LINE
  8
0
 62
0
 10
-14.5
 20
-3.0
 30
0.0
 11
-14.5
 21
0.0
 31
0.0
  0
LINE
  8
0
 62
0
 10
11.5
 20
57.0
 30
0.0
 11
11.5
 21
60.0
 31
0.0
  0
LINE
  8
0
 62
0
 10
-43.0
 20
-3.0
 30
0.0
 11
-14.5
 21
-3.0
 31
0.0
  0
LINE
  8
0
 62
0
 10
11.5
 20
60.0
 30
0.0
 11
-11.5
 21
60.0
 31
0.0
  0
ARC
  8
0
 62
0
 10
-43.0
 20
13.0
 30
0.0
 40
16.0
 50
180.0
 51
-90.0
  0
LINE
  8
0
 62
0
 10
-11.5
 20
60.0
 30
0.0
 11
-11.5
 21
57.0
 31
0.0
  0
LINE
  8
0
 62
0
 10
-59.0
 20
14.0
 30
0.0
 11
-59.0
 21
13.0
 31
0.0
  0
LINE
  8
0
 62
0
 10
-11.5
 20
57.0
 30
0.0
 11
-14.5
 21
57.0
 31
0.0
  0
LINE
  8
0
 62
0
 10
-56.0
 20
14.0
 30
0.0
 11
-59.0
 21
14.0
 31
0.0
  0
LINE
  8
0
 62
0
 10
-14.5
 20
57.0
 30
0.0
 11
-14.5
 21
60.0
 31
0.0
  0
LINE
  8
0
 62
0
 10
-56.0
 20
17.0
 30
0.0
 11
-56.0
 21
14.0
 31
0.0
  0
LINE
  8
0
 62
0
 10
-14.5
 20
60.0
 30
0.0
 11
-43.0
 21
60.0
 31
0.0
  0
LINE
  8
0
 62
0
 10
-59.0
 20
17.0
 30
0.0
 11
-56.0
 21
17.0
 31
0.0
  0
ARC
  8
0
 62
0
 10
-43.0
 20
44.0
 30
0.0
 40
16.0
 50
90.0
 51
-180.0
  0
LINE
  8
0
 62
0
 10
-59.0
 20
40.0
 30
0.0
 11
-59.0
 21
17.0
 31
0.0
  0
LINE
  8
0
 62
0
 10
-59.0
 20
44.0
 30
0.0
 11
-59.0
 21
43.0
 31
0.0
  0
LINE
  8
0
 62
0
 10
-56.0
 20
40.0
 30
0.0
 11
-59.0
 21
40.0
 31
0.0
  0
LINE
  8
0
 62
0
 10
-59.0
 20
43.0
 30
0.0
 11
-56.0
 21
43.0
 31
0.0
  0
LINE
  8
0
 62
0
 10
-56.0
 20
43.0
 30
0.0
 11
-56.0
 21
40.0
 31
0.0
  0
LINE
  8
0
 62
0
 10
-44.9
 20
7.0
 30
0.0
 11
-44.9
 21
4.0
 31
0.0
  0
LINE
  8
0
 62
0
 10
-25.1
 20
7.0
 30
0.0
 11
-44.9
 21
7.0
 31
0.0
  0
LINE
  8
0
 62
0
 10
-25.1
 20
4.0
 30
0.0
 11
-25.1
 21
7.0
 31
0.0
  0
LINE
  8
0
 62
0
 10
-44.9
 20
4.0
 30
0.0
 11
-25.1
 21
4.0
 31
0.0
  0
LINE
  8
0
 62
0
 10
-44.9
 20
53.0
 30
0.0
 11
-25.1
 21
53.0
 31
0.0
  0
LINE
  8
0
 62
0
 10
-25.1
 20
53.0
 30
0.0
 11
-25.1
 21
50.0
 31
0.0
  0
LINE
  8
0
 62
0
 10
-25.1
 20
50.0
 30
0.0
 11
-44.9
 21
50.0
 31
0.0
  0
LINE
  8
0
 62
0
 10
-44.9
 20
50.0
 30
0.0
 11
-44.9
 21
53.0
 31
0.0
  0
LINE
  8
0
 62
0
 10
44.9
 20
4.0
 30
0.0
 11
25.1
 21
4.0
 31
0.0
  0
LINE
  8
0
 62
0
 10
25.1
 20
4.0
 30
0.0
 11
25.1
 21
7.0
 31
0.0
  0
LINE
  8
0
 62
0
 10
25.1
 20
7.0
 30
0.0
 11
44.9
 21
7.0
 31
0.0
  0
LINE
  8
0
 62
0
 10
44.9
 20
7.0
 30
0.0
 11
44.9
 21
4.0
 31
0.0
  0
LINE
  8
0
 62
0
 10
44.9
 20
50.0
 30
0.0
 11
44.9
 21
53.0
 31
0.0
  0
LINE
  8
0
 62
0
 10
25.1
 20
50.0
 30
0.0
 11
44.9
 21
50.0
 31
0.0
  0
LINE
  8
0
 62
0
 10
25.1
 20
53.0
 30
0.0
 11
25.1
 21
50.0
 31
0.0
  0
LINE
  8
0
 62
0
 10
44.9
 20
53.0
 30
0.0
 11
25.1
 21
53.0
 31
0.0
  0
LINE
  8
0
 62
0
 10
-52.0
 20
45.9
 30
0.0
 11
-49.0
 21
45.9
 31
0.0
  0
LINE
  8
0
 62
0
 10
-49.0
 20
45.9
 30
0.0
 11
-49.0
 21
36.1
 31
0.0
  0
LINE
  8
0
 62
0
 10
-49.0
 20
36.1
 30
0.0
 11
-52.0
 21
36.1
 31
0.0
  0
LINE
  8
0
 62
0
 10
-52.0
 20
36.1
 30
0.0
 11
-52.0
 21
45.9
 31
0.0
  0
LINE
  8
0
 62
0
 10
-52.0
 20
20.9
 30
0.0
 11
-52.0
 21
11.1
 31
0.0
  0
LINE
  8
0
 62
0
 10
-49.0
 20
20.9
 30
0.0
 11
-52.0
 21
20.9
 31
0.0
  0
LINE
  8
0
 62
0
 10
-49.0
 20
11.1
 30
0.0
 11
-49.0
 21
20.9
 31
0.0
  0
LINE
  8
0
 62
0
 10
-52.0
 20
11.1
 30
0.0
 11
-49.0
 21
11.1
 31
0.0
  0
LINE
  8
0
 62
0
 10
52.0
 20
39.1
 30
0.0
 11
52.0
 21
45.9
 31
0.0
  0
LINE
  8
0
 62
0
 10
49.0
 20
39.1
 30
0.0
 11
52.0
 21
39.1
 31
0.0
  0
LINE
  8
0
 62
0
 10
49.0
 20
45.9
 30
0.0
 11
49.0
 21
39.1
 31
0.0
  0
LINE
  8
0
 62
0
 10
52.0
 20
45.9
 30
0.0
 11
49.0
 21
45.9
 31
0.0
  0
LINE
  8
0
 62
0
 10
52.0
 20
11.1
 30
0.0
 11
49.0
 21
11.1
 31
0.0
  0
LINE
  8
0
 62
0
 10
49.0
 20
11.1
 30
0.0
 11
49.0
 21
17.9
 31
0.0
  0
LINE
  8
0
 62
0
 10
49.0
 20
17.9
 30
0.0
 11
52.0
 21
17.9
 31
0.0
  0
LINE
  8
0
 62
0
 10
52.0
 20
17.9
 30
0.0
 11
52.0
 21
11.1
 31
0.0
  0
CIRCLE
  8
0
 62
0
 10
-45.0
 20
11.0
 30
0.0
 40
1.5
  0
CIRCLE
  8
0
 62
0
 10
45.0
 20
11.0
 30
0.0
 40
1.5
  0
CIRCLE
  8
0
 62
0
 10
45.0
 20
46.0
 30
0.0
 40
1.5
  0
CIRCLE
  8
0
 62
0
 10
-45.0
 20
46.0
 30
0.0
 40
1.5
  0
ENDBLK
  0
ENDSEC
  0
SECTION
  2
ENTITIES
  0
INSERT
  2
FILLET001
  8
0
 62
0
 10
0.0
 20
0.0
 30
0.0
  0
ENDSEC
  0
EOF
