  0
SECTION
  2
HEADER
  9
$ACADVER
  1
AC1009
  9
$INSBASE
 10
0.0
 20
0.0
 30
0.0
  9
$EXTMIN
 10
0.0
 20
0.0
 30
0.0
  9
$EXTMAX
 10
0.0
 20
0.0
 30
0.0
  0
ENDSEC
  0
SECTION
  2
TABLES
  0
TABLE
  2
VPORT
 70
0
  0
ENDTAB
  0
TABLE
  2
LTYPE
 70
1
  0
LTYPE
  2
CONTINUOUS
 70
0
  3
Solid line
 72
65
 73
0
 40
0.0
  0
ENDTAB
  0
TABLE
  2
LAYER
 70
1
  0
LAYER
  2
0
 70
64
 62
7
  6
continuous
  0
ENDTAB
  0
TABLE
  2
STYLE
 70
1
  0
STYLE
  2
STANDARD
 70
0
 40
0
 41
1.0
 50
0.0
 71
0
 42
1
 3
ARIAL.TTF
 4

  0
ENDTAB
  0
TABLE
  2
VIEW
 70
0
  0
ENDTAB
  0
ENDSEC
  0
SECTION
  2
BLOCKS
  0
BLOCK
  8
0
  2
BODY010
 70
0
 10
0.0
 20
0.0
 30
0.0
  3
BODY010
  0
LINE
  8
0
 62
0
 10
-76.5
 20
3.0
 30
0.0
 11
-66.5
 21
3.0
 31
0.0
  0
LINE
  8
0
 62
0
 10
-66.5
 20
3.0
 30
0.0
 11
-66.5
 21
0.0
 31
0.0
  0
LINE
  8
0
 62
0
 10
-66.5
 20
-1.1e-16
 30
0.0
 11
-56.5
 21
-1.1e-16
 31
0.0
  0
LINE
  8
0
 62
0
 10
-56.5
 20
-1.1e-16
 30
0.0
 11
-56.5
 21
3.0
 31
0.0
  0
LINE
  8
0
 62
0
 10
-56.5
 20
3.0
 30
0.0
 11
-41.5
 21
3.0
 31
0.0
  0
LINE
  8
0
 62
0
 10
-41.5
 20
3.0
 30
0.0
 11
-41.5
 21
0.0
 31
0.0
  0
LINE
  8
0
 62
0
 10
-41.5
 20
1.1e-16
 30
0.0
 11
-31.5
 21
1.1e-16
 31
0.0
  0
LINE
  8
0
 62
0
 10
-31.5
 20
1.1e-16
 30
0.0
 11
-31.5
 21
3.0
 31
0.0
  0
LINE
  8
0
 62
0
 10
-31.5
 20
3.0
 30
0.0
 11
-21.5
 21
3.0
 31
0.0
  0
LINE
  8
0
 62
0
 10
-21.5
 20
3.0
 30
0.0
 11
-21.5
 21
17.0
 31
0.0
  0
LINE
  8
0
 62
0
 10
-21.5
 20
17.0
 30
0.0
 11
-31.5
 21
17.0
 31
0.0
  0
LINE
  8
0
 62
0
 10
-31.5
 20
17.0
 30
0.0
 11
-31.5
 21
20.0
 31
0.0
  0
LINE
  8
0
 62
0
 10
-31.5
 20
20.0
 30
0.0
 11
-41.5
 21
20.0
 31
0.0
  0
LINE
  8
0
 62
0
 10
-41.5
 20
20.0
 30
0.0
 11
-41.5
 21
17.0
 31
0.0
  0
LINE
  8
0
 62
0
 10
-41.5
 20
17.0
 30
0.0
 11
-56.5
 21
17.0
 31
0.0
  0
LINE
  8
0
 62
0
 10
-56.5
 20
17.0
 30
0.0
 11
-56.5
 21
20.0
 31
0.0
  0
LINE
  8
0
 62
0
 10
-56.5
 20
20.0
 30
0.0
 11
-66.5
 21
20.0
 31
0.0
  0
LINE
  8
0
 62
0
 10
-66.5
 20
20.0
 30
0.0
 11
-66.5
 21
17.0
 31
0.0
  0
LINE
  8
0
 62
0
 10
-66.5
 20
17.0
 30
0.0
 11
-76.5
 21
17.0
 31
0.0
  0
LINE
  8
0
 62
0
 10
-76.5
 20
17.0
 30
0.0
 11
-76.5
 21
3.0
 31
0.0
  0
LINE
  8
0
 62
0
 10
-27.5
 20
13.4
 30
0.0
 11
-24.5
 21
13.4
 31
0.0
  0
LINE
  8
0
 62
0
 10
-24.5
 20
13.4
 30
0.0
 11
-24.5
 21
6.6
 31
0.0
  0
LINE
  8
0
 62
0
 10
-24.5
 20
6.6
 30
0.0
 11
-27.5
 21
6.6
 31
0.0
  0
LINE
  8
0
 62
0
 10
-27.5
 20
6.6
 30
0.0
 11
-27.5
 21
13.4
 31
0.0
  0
LINE
  8
0
 62
0
 10
-73.5
 20
13.4
 30
0.0
 11
-70.5
 21
13.4
 31
0.0
  0
LINE
  8
0
 62
0
 10
-70.5
 20
13.4
 30
0.0
 11
-70.5
 21
6.6
 31
0.0
  0
LINE
  8
0
 62
0
 10
-70.5
 20
6.6
 30
0.0
 11
-73.5
 21
6.6
 31
0.0
  0
LINE
  8
0
 62
0
 10
-73.5
 20
6.6
 30
0.0
 11
-73.5
 21
13.4
 31
0.0
  0
ENDBLK
  0
ENDSEC
  0
SECTION
  2
ENTITIES
  0
INSERT
  2
BODY010
  8
0
 62
0
 10
0.0
 20
0.0
 30
0.0
  0
ENDSEC
  0
EOF
