  0
SECTION
  2
HEADER
  9
$ACADVER
  1
AC1009
  9
$INSBASE
 10
0.0
 20
0.0
 30
0.0
  9
$EXTMIN
 10
0.0
 20
0.0
 30
0.0
  9
$EXTMAX
 10
0.0
 20
0.0
 30
0.0
  0
ENDSEC
  0
SECTION
  2
TABLES
  0
TABLE
  2
VPORT
 70
0
  0
ENDTAB
  0
TABLE
  2
LTYPE
 70
1
  0
LTYPE
  2
CONTINUOUS
 70
0
  3
Solid line
 72
65
 73
0
 40
0.0
  0
ENDTAB
  0
TABLE
  2
LAYER
 70
1
  0
LAYER
  2
0
 70
64
 62
7
  6
continuous
  0
ENDTAB
  0
TABLE
  2
STYLE
 70
1
  0
STYLE
  2
STANDARD
 70
0
 40
0
 41
1.0
 50
0.0
 71
0
 42
1
 3
ARIAL.TTF
 4

  0
ENDTAB
  0
TABLE
  2
VIEW
 70
0
  0
ENDTAB
  0
ENDSEC
  0
SECTION
  2
BLOCKS
  0
BLOCK
  8
0
  2
FILLET002
 70
0
 10
0.0
 20
0.0
 30
0.0
  3
FILLET002
  0
LINE
  8
0
 62
0
 10
70.0
 20
3.0
 30
0.0
 11
70.0
 21
13.0
 31
0.0
  0
ARC
  8
0
 62
0
 10
71.0
 20
13.0
 30
0.0
 40
1.0
 50
90.0
 51
-180.0
  0
LINE
  8
0
 62
0
 10
67.0
 20
3.0
 30
0.0
 11
70.0
 21
3.0
 31
0.0
  0
LINE
  8
0
 62
0
 10
71.0
 20
14.0
 30
0.0
 11
84.0
 21
14.0
 31
0.0
  0
LINE
  8
0
 62
0
 10
67.0
 20
0.0
 30
0.0
 11
67.0
 21
3.0
 31
0.0
  0
ARC
  8
0
 62
0
 10
84.0
 20
13.0
 30
0.0
 40
1.0
 50
-0.0
 51
90.0
  0
LINE
  8
0
 62
0
 10
60.0
 20
0.0
 30
0.0
 11
67.0
 21
0.0
 31
0.0
  0
LINE
  8
0
 62
0
 10
85.0
 20
13.0
 30
0.0
 11
85.0
 21
3.0
 31
0.0
  0
LINE
  8
0
 62
0
 10
60.0
 20
3.0
 30
0.0
 11
60.0
 21
0.0
 31
0.0
  0
LINE
  8
0
 62
0
 10
85.0
 20
3.0
 30
0.0
 11
88.0
 21
3.0
 31
0.0
  0
LINE
  8
0
 62
0
 10
53.0
 20
3.0
 30
0.0
 11
60.0
 21
3.0
 31
0.0
  0
LINE
  8
0
 62
0
 10
88.0
 20
3.0
 30
0.0
 11
88.0
 21
0.0
 31
0.0
  0
LINE
  8
0
 62
0
 10
53.0
 20
6.6
 30
0.0
 11
53.0
 21
3.0
 31
0.0
  0
LINE
  8
0
 62
0
 10
88.0
 20
0.0
 30
0.0
 11
95.0
 21
0.0
 31
0.0
  0
LINE
  8
0
 62
0
 10
56.0
 20
6.6
 30
0.0
 11
53.0
 21
6.6
 31
0.0
  0
LINE
  8
0
 62
0
 10
95.0
 20
0.0
 30
0.0
 11
95.0
 21
3.0
 31
0.0
  0
LINE
  8
0
 62
0
 10
56.0
 20
13.4
 30
0.0
 11
56.0
 21
6.6
 31
0.0
  0
LINE
  8
0
 62
0
 10
102.0
 20
3.0
 30
0.0
 11
95.0
 21
3.0
 31
0.0
  0
LINE
  8
0
 62
0
 10
53.0
 20
13.4
 30
0.0
 11
56.0
 21
13.4
 31
0.0
  0
LINE
  8
0
 62
0
 10
102.0
 20
3.0
 30
0.0
 11
102.0
 21
6.6
 31
0.0
  0
LINE
  8
0
 62
0
 10
53.0
 20
17.0
 30
0.0
 11
53.0
 21
13.4
 31
0.0
  0
LINE
  8
0
 62
0
 10
102.0
 20
6.6
 30
0.0
 11
99.0
 21
6.6
 31
0.0
  0
LINE
  8
0
 62
0
 10
53.0
 20
17.0
 30
0.0
 11
60.0
 21
17.0
 31
0.0
  0
LINE
  8
0
 62
0
 10
99.0
 20
6.6
 30
0.0
 11
99.0
 21
13.4
 31
0.0
  0
LINE
  8
0
 62
0
 10
60.0
 20
20.0
 30
0.0
 11
60.0
 21
17.0
 31
0.0
  0
LINE
  8
0
 62
0
 10
99.0
 20
13.4
 30
0.0
 11
102.0
 21
13.4
 31
0.0
  0
LINE
  8
0
 62
0
 10
70.0
 20
20.0
 30
0.0
 11
60.0
 21
20.0
 31
0.0
  0
LINE
  8
0
 62
0
 10
102.0
 20
13.4
 30
0.0
 11
102.0
 21
17.0
 31
0.0
  0
LINE
  8
0
 62
0
 10
70.0
 20
17.0
 30
0.0
 11
70.0
 21
20.0
 31
0.0
  0
LINE
  8
0
 62
0
 10
102.0
 20
17.0
 30
0.0
 11
95.0
 21
17.0
 31
0.0
  0
LINE
  8
0
 62
0
 10
85.0
 20
17.0
 30
0.0
 11
70.0
 21
17.0
 31
0.0
  0
LINE
  8
0
 62
0
 10
95.0
 20
17.0
 30
0.0
 11
95.0
 21
20.0
 31
0.0
  0
LINE
  8
0
 62
0
 10
85.0
 20
20.0
 30
0.0
 11
85.0
 21
17.0
 31
0.0
  0
LINE
  8
0
 62
0
 10
95.0
 20
20.0
 30
0.0
 11
85.0
 21
20.0
 31
0.0
  0
ENDBLK
  0
ENDSEC
  0
SECTION
  2
ENTITIES
  0
INSERT
  2
FILLET002
  8
0
 62
0
 10
0.0
 20
0.0
 30
0.0
  0
ENDSEC
  0
EOF
