  0
SECTION
  2
HEADER
  9
$ACADVER
  1
AC1009
  9
$INSBASE
 10
0.0
 20
0.0
 30
0.0
  9
$EXTMIN
 10
0.0
 20
0.0
 30
0.0
  9
$EXTMAX
 10
0.0
 20
0.0
 30
0.0
  0
ENDSEC
  0
SECTION
  2
TABLES
  0
TABLE
  2
VPORT
 70
0
  0
ENDTAB
  0
TABLE
  2
LTYPE
 70
1
  0
LTYPE
  2
CONTINUOUS
 70
0
  3
Solid line
 72
65
 73
0
 40
0.0
  0
ENDTAB
  0
TABLE
  2
LAYER
 70
1
  0
LAYER
  2
0
 70
64
 62
7
  6
continuous
  0
ENDTAB
  0
TABLE
  2
STYLE
 70
1
  0
STYLE
  2
STANDARD
 70
0
 40
0
 41
1.0
 50
0.0
 71
0
 42
1
 3
ARIAL.TTF
 4

  0
ENDTAB
  0
TABLE
  2
VIEW
 70
0
  0
ENDTAB
  0
ENDSEC
  0
SECTION
  2
BLOCKS
  0
BLOCK
  8
0
  2
BODY013
 70
0
 10
0.0
 20
0.0
 30
0.0
  3
BODY013
  0
LINE
  8
0
 62
0
 10
-59.7225301836
 20
42.7225301836
 30
0.0
 11
-59.7225301836
 21
14.2774698164
 31
0.0
  0
ARC
  8
0
 62
0
 10
-41.7225301836
 20
14.2774698164
 30
0.0
 40
18.0
 50
180.0
 51
-90.0
  0
LINE
  8
0
 62
0
 10
-41.7225301836
 20
-3.72253018363
 30
0.0
 11
41.7225301836
 21
-3.72253018363
 31
0.0
  0
ARC
  8
0
 62
0
 10
41.7225301836
 20
14.2774698164
 30
0.0
 40
18.0
 50
-90.0
 51
-0.0
  0
LINE
  8
0
 62
0
 10
59.7225301836
 20
14.2774698164
 30
0.0
 11
59.7225301836
 21
42.7225301836
 31
0.0
  0
ARC
  8
0
 62
0
 10
41.7225301836
 20
42.7225301836
 30
0.0
 40
18.0
 50
-0.0
 51
90.0
  0
LINE
  8
0
 62
0
 10
41.7225301836
 20
60.7225301836
 30
0.0
 11
-41.7225301836
 21
60.7225301836
 31
0.0
  0
ARC
  8
0
 62
0
 10
-41.7225301836
 20
42.7225301836
 30
0.0
 40
18.0
 50
90.0
 51
-180.0
  0
LINE
  8
0
 62
0
 10
-44.9
 20
7.0
 30
0.0
 11
-44.9
 21
4.0
 31
0.0
  0
LINE
  8
0
 62
0
 10
-25.1
 20
7.0
 30
0.0
 11
-44.9
 21
7.0
 31
0.0
  0
LINE
  8
0
 62
0
 10
-25.1
 20
4.0
 30
0.0
 11
-25.1
 21
7.0
 31
0.0
  0
LINE
  8
0
 62
0
 10
-44.9
 20
4.0
 30
0.0
 11
-25.1
 21
4.0
 31
0.0
  0
LINE
  8
0
 62
0
 10
44.9
 20
4.0
 30
0.0
 11
25.1
 21
4.0
 31
0.0
  0
LINE
  8
0
 62
0
 10
25.1
 20
4.0
 30
0.0
 11
25.1
 21
7.0
 31
0.0
  0
LINE
  8
0
 62
0
 10
25.1
 20
7.0
 30
0.0
 11
44.9
 21
7.0
 31
0.0
  0
LINE
  8
0
 62
0
 10
44.9
 20
7.0
 30
0.0
 11
44.9
 21
4.0
 31
0.0
  0
LINE
  8
0
 62
0
 10
44.9
 20
50.0
 30
0.0
 11
44.9
 21
53.0
 31
0.0
  0
LINE
  8
0
 62
0
 10
25.1
 20
50.0
 30
0.0
 11
44.9
 21
50.0
 31
0.0
  0
LINE
  8
0
 62
0
 10
25.1
 20
53.0
 30
0.0
 11
25.1
 21
50.0
 31
0.0
  0
LINE
  8
0
 62
0
 10
44.9
 20
53.0
 30
0.0
 11
25.1
 21
53.0
 31
0.0
  0
LINE
  8
0
 62
0
 10
-44.9
 20
53.0
 30
0.0
 11
-25.1
 21
53.0
 31
0.0
  0
LINE
  8
0
 62
0
 10
-25.1
 20
53.0
 30
0.0
 11
-25.1
 21
50.0
 31
0.0
  0
LINE
  8
0
 62
0
 10
-25.1
 20
50.0
 30
0.0
 11
-44.9
 21
50.0
 31
0.0
  0
LINE
  8
0
 62
0
 10
-44.9
 20
50.0
 30
0.0
 11
-44.9
 21
53.0
 31
0.0
  0
LINE
  8
0
 62
0
 10
-52.0
 20
20.9
 30
0.0
 11
-52.0
 21
11.1
 31
0.0
  0
LINE
  8
0
 62
0
 10
-49.0
 20
20.9
 30
0.0
 11
-52.0
 21
20.9
 31
0.0
  0
LINE
  8
0
 62
0
 10
-49.0
 20
11.1
 30
0.0
 11
-49.0
 21
20.9
 31
0.0
  0
LINE
  8
0
 62
0
 10
-52.0
 20
11.1
 30
0.0
 11
-49.0
 21
11.1
 31
0.0
  0
LINE
  8
0
 62
0
 10
52.0
 20
11.1
 30
0.0
 11
49.0
 21
11.1
 31
0.0
  0
LINE
  8
0
 62
0
 10
49.0
 20
11.1
 30
0.0
 11
49.0
 21
20.9
 31
0.0
  0
LINE
  8
0
 62
0
 10
49.0
 20
20.9
 30
0.0
 11
52.0
 21
20.9
 31
0.0
  0
LINE
  8
0
 62
0
 10
52.0
 20
20.9
 30
0.0
 11
52.0
 21
11.1
 31
0.0
  0
LINE
  8
0
 62
0
 10
-52.0
 20
45.9
 30
0.0
 11
-49.0
 21
45.9
 31
0.0
  0
LINE
  8
0
 62
0
 10
-49.0
 20
45.9
 30
0.0
 11
-49.0
 21
36.1
 31
0.0
  0
LINE
  8
0
 62
0
 10
-49.0
 20
36.1
 30
0.0
 11
-52.0
 21
36.1
 31
0.0
  0
LINE
  8
0
 62
0
 10
-52.0
 20
36.1
 30
0.0
 11
-52.0
 21
45.9
 31
0.0
  0
LINE
  8
0
 62
0
 10
52.0
 20
36.1
 30
0.0
 11
52.0
 21
45.9
 31
0.0
  0
LINE
  8
0
 62
0
 10
49.0
 20
36.1
 30
0.0
 11
52.0
 21
36.1
 31
0.0
  0
LINE
  8
0
 62
0
 10
49.0
 20
45.9
 30
0.0
 11
49.0
 21
36.1
 31
0.0
  0
LINE
  8
0
 62
0
 10
52.0
 20
45.9
 30
0.0
 11
49.0
 21
45.9
 31
0.0
  0
CIRCLE
  8
0
 62
0
 10
-45.0
 20
11.0
 30
0.0
 40
1.5
  0
CIRCLE
  8
0
 62
0
 10
45.0
 20
11.0
 30
0.0
 40
1.5
  0
CIRCLE
  8
0
 62
0
 10
45.0
 20
46.0
 30
0.0
 40
1.5
  0
CIRCLE
  8
0
 62
0
 10
-45.0
 20
46.0
 30
0.0
 40
1.5
  0
ENDBLK
  0
ENDSEC
  0
SECTION
  2
ENTITIES
  0
INSERT
  2
BODY013
  8
0
 62
0
 10
0.0
 20
0.0
 30
0.0
  0
ENDSEC
  0
EOF
