  0
SECTION
  2
HEADER
  9
$ACADVER
  1
AC1009
  9
$INSBASE
 10
0.0
 20
0.0
 30
0.0
  9
$EXTMIN
 10
0.0
 20
0.0
 30
0.0
  9
$EXTMAX
 10
0.0
 20
0.0
 30
0.0
  0
ENDSEC
  0
SECTION
  2
TABLES
  0
TABLE
  2
VPORT
 70
0
  0
ENDTAB
  0
TABLE
  2
LTYPE
 70
1
  0
LTYPE
  2
CONTINUOUS
 70
0
  3
Solid line
 72
65
 73
0
 40
0.0
  0
ENDTAB
  0
TABLE
  2
LAYER
 70
1
  0
LAYER
  2
0
 70
64
 62
7
  6
continuous
  0
ENDTAB
  0
TABLE
  2
STYLE
 70
1
  0
STYLE
  2
STANDARD
 70
0
 40
0
 41
1.0
 50
0.0
 71
0
 42
1
 3
ARIAL.TTF
 4

  0
ENDTAB
  0
TABLE
  2
VIEW
 70
0
  0
ENDTAB
  0
ENDSEC
  0
SECTION
  2
BLOCKS
  0
BLOCK
  8
0
  2
PAD013
 70
0
 10
0.0
 20
0.0
 30
0.0
  3
PAD013
  0
LINE
  8
0
 62
0
 10
0.0
 20
-21.5
 30
0.0
 11
-14.8908729653
 21
-21.5
 31
0.0
  0
LINE
  8
0
 62
0
 10
-14.8908729653
 20
-21.5
 30
0.0
 11
-14.8908729653
 21
-24.5
 31
0.0
  0
LINE
  8
0
 62
0
 10
-14.8908729653
 20
-24.5
 30
0.0
 11
-24.8908729653
 21
-24.5
 31
0.0
  0
LINE
  8
0
 62
0
 10
-24.8908729653
 20
-24.5
 30
0.0
 11
-24.8908729653
 21
-21.5
 31
0.0
  0
LINE
  8
0
 62
0
 10
-24.8908729653
 20
-21.5
 30
0.0
 11
-38.8908729653
 21
-21.5
 31
0.0
  0
LINE
  8
0
 62
0
 10
-38.8908729653
 20
-21.5
 30
0.0
 11
-38.8908729653
 21
-7.5
 31
0.0
  0
LINE
  8
0
 62
0
 10
-38.8908729653
 20
-7.5
 30
0.0
 11
-41.8908729653
 21
-7.5
 31
0.0
  0
LINE
  8
0
 62
0
 10
-41.8908729653
 20
-7.5
 30
0.0
 11
-41.8908729653
 21
2.5
 31
0.0
  0
LINE
  8
0
 62
0
 10
-41.8908729653
 20
2.5
 30
0.0
 11
-38.8908729653
 21
2.5
 31
0.0
  0
LINE
  8
0
 62
0
 10
-38.8908729653
 20
2.5
 30
0.0
 11
-38.8908729653
 21
17.3908729652
 31
0.0
  0
LINE
  8
0
 62
0
 10
-38.8908729653
 20
17.3908729652
 30
0.0
 11
-35.3553390593
 21
13.8553390593
 31
0.0
  0
LINE
  8
0
 62
0
 10
-35.3553390593
 20
13.8553390593
 30
0.0
 11
-33.2340187158
 21
15.9766594029
 31
0.0
  0
LINE
  8
0
 62
0
 10
-33.2340187158
 20
15.9766594029
 30
0.0
 11
-26.1629509039
 21
8.90559159101
 31
0.0
  0
LINE
  8
0
 62
0
 10
-26.1629509039
 20
8.90559159101
 30
0.0
 11
-28.2842712475
 21
6.78427124745
 31
0.0
  0
LINE
  8
0
 62
0
 10
-28.2842712475
 20
6.78427124745
 30
0.0
 11
-20.5060966544
 21
-0.993903345599
 31
0.0
  0
LINE
  8
0
 62
0
 10
-20.5060966544
 20
-0.993903345599
 30
0.0
 11
-23.3345237792
 21
-3.82233047035
 31
0.0
  0
LINE
  8
0
 62
0
 10
-23.3345237792
 20
-3.82233047035
 30
0.0
 11
-24.2184072556
 21
-2.93844699386
 31
0.0
  0
LINE
  8
0
 62
0
 10
-24.2184072556
 20
-2.93844699386
 30
0.0
 11
-25.8447528524
 21
-4.56479259059
 31
0.0
  0
LINE
  8
0
 62
0
 10
-25.8447528524
 20
-4.56479259059
 30
0.0
 11
-24.9608693759
 21
-5.44867606708
 31
0.0
  0
LINE
  8
0
 62
0
 10
-24.9608693759
 20
-5.44867606708
 30
0.0
 11
-27.0821897195
 21
-7.56999641064
 31
0.0
  0
LINE
  8
0
 62
0
 10
-27.0821897195
 20
-7.56999641064
 30
0.0
 11
-24.9608693759
 21
-9.6913167542
 31
0.0
  0
LINE
  8
0
 62
0
 10
-24.9608693759
 20
-9.6913167542
 30
0.0
 11
-22.8395490323
 21
-7.56999641064
 31
0.0
  0
LINE
  8
0
 62
0
 10
-22.8395490323
 20
-7.56999641064
 30
0.0
 11
-21.9556655558
 21
-8.45387988712
 31
0.0
  0
LINE
  8
0
 62
0
 10
-21.9556655558
 20
-8.45387988712
 30
0.0
 11
-20.3293199591
 21
-6.82753429039
 31
0.0
  0
LINE
  8
0
 62
0
 10
-20.3293199591
 20
-6.82753429039
 30
0.0
 11
-21.2132034356
 21
-5.94365081391
 31
0.0
  0
LINE
  8
0
 62
0
 10
-21.2132034356
 20
-5.94365081391
 30
0.0
 11
-18.3847763109
 21
-3.11522368916
 31
0.0
  0
LINE
  8
0
 62
0
 10
-18.3847763109
 20
-3.11522368916
 30
0.0
 11
-10.6066017178
 21
-10.8933982822
 31
0.0
  0
LINE
  8
0
 62
0
 10
-10.6066017178
 20
-10.8933982822
 30
0.0
 11
-8.48528137424
 21
-8.77207793865
 31
0.0
  0
LINE
  8
0
 62
0
 10
-8.48528137424
 20
-8.77207793865
 30
0.0
 11
-1.41421356238
 21
-15.8431457505
 31
0.0
  0
LINE
  8
0
 62
0
 10
-1.41421356238
 20
-15.8431457505
 30
0.0
 11
-3.53553390593
 21
-17.9644660941
 31
0.0
  0
LINE
  8
0
 62
0
 10
-3.53553390593
 20
-17.9644660941
 30
0.0
 11
0.0
 21
-21.5
 31
0.0
  0
ENDBLK
  0
ENDSEC
  0
SECTION
  2
ENTITIES
  0
INSERT
  2
PAD013
  8
0
 62
0
 10
0.0
 20
0.0
 30
0.0
  0
ENDSEC
  0
EOF
