  0
SECTION
  2
HEADER
  9
$ACADVER
  1
AC1009
  9
$INSBASE
 10
0.0
 20
0.0
 30
0.0
  9
$EXTMIN
 10
0.0
 20
0.0
 30
0.0
  9
$EXTMAX
 10
0.0
 20
0.0
 30
0.0
  0
ENDSEC
  0
SECTION
  2
TABLES
  0
TABLE
  2
VPORT
 70
0
  0
ENDTAB
  0
TABLE
  2
LTYPE
 70
1
  0
LTYPE
  2
CONTINUOUS
 70
0
  3
Solid line
 72
65
 73
0
 40
0.0
  0
ENDTAB
  0
TABLE
  2
LAYER
 70
1
  0
LAYER
  2
0
 70
64
 62
7
  6
continuous
  0
ENDTAB
  0
TABLE
  2
STYLE
 70
1
  0
STYLE
  2
STANDARD
 70
0
 40
0
 41
1.0
 50
0.0
 71
0
 42
1
 3
ARIAL.TTF
 4

  0
ENDTAB
  0
TABLE
  2
VIEW
 70
0
  0
ENDTAB
  0
ENDSEC
  0
SECTION
  2
BLOCKS
  0
BLOCK
  8
0
  2
FILLET
 70
0
 10
0.0
 20
0.0
 30
0.0
  3
FILLET
  0
LINE
  8
0
 62
0
 10
-46.3909
 20
41.0
 30
0.0
 11
-46.3909
 21
30.0
 31
0.0
  0
ARC
  8
0
 62
0
 10
-45.3909
 20
30.0
 30
0.0
 40
1.0
 50
-180.0
 51
-90.0
  0
ARC
  8
0
 62
0
 10
-49.3909
 20
41.0
 30
0.0
 40
3.0
 50
-0.0
 51
90.0
  0
LINE
  8
0
 62
0
 10
-45.3909
 20
29.0
 30
0.0
 11
-32.3909
 21
29.0
 31
0.0
  0
LINE
  8
0
 62
0
 10
-49.3909
 20
44.0
 30
0.0
 11
-63.3909
 21
44.0
 31
0.0
  0
ARC
  8
0
 62
0
 10
-32.3909
 20
30.0
 30
0.0
 40
1.0
 50
-90.0
 51
-0.0
  0
ARC
  8
0
 62
0
 10
-63.3909
 20
41.0
 30
0.0
 40
3.0
 50
90.0
 51
-180.0
  0
LINE
  8
0
 62
0
 10
-31.3909
 20
30.0
 30
0.0
 11
-31.3909
 21
41.0
 31
0.0
  0
LINE
  8
0
 62
0
 10
-66.3909
 20
41.0
 30
0.0
 11
-66.3909
 21
3.0
 31
0.0
  0
ARC
  8
0
 62
0
 10
-28.3909
 20
41.0
 30
0.0
 40
3.0
 50
90.0
 51
-180.0
  0
LINE
  8
0
 62
0
 10
-66.3909
 20
3.0
 30
0.0
 11
-60.3909
 21
3.0
 31
0.0
  0
LINE
  8
0
 62
0
 10
-14.3909
 20
44.0
 30
0.0
 11
-28.3909
 21
44.0
 31
0.0
  0
LINE
  8
0
 62
0
 10
-60.3909
 20
3.0
 30
0.0
 11
-60.3909
 21
0.0
 31
0.0
  0
ARC
  8
0
 62
0
 10
-14.3909
 20
41.0
 30
0.0
 40
3.0
 50
-0.0
 51
90.0
  0
LINE
  8
0
 62
0
 10
-60.3909
 20
0.0
 30
0.0
 11
-50.3909
 21
0.0
 31
0.0
  0
LINE
  8
0
 62
0
 10
-11.3909
 20
3.0
 30
0.0
 11
-11.3909
 21
41.0
 31
0.0
  0
LINE
  8
0
 62
0
 10
-50.3909
 20
0.0
 30
0.0
 11
-50.3909
 21
3.0
 31
0.0
  0
LINE
  8
0
 62
0
 10
-17.3909
 20
3.0
 30
0.0
 11
-11.3909
 21
3.0
 31
0.0
  0
LINE
  8
0
 62
0
 10
-50.3909
 20
3.0
 30
0.0
 11
-40.3909
 21
3.0
 31
0.0
  0
LINE
  8
0
 62
0
 10
-17.3909
 20
0.0
 30
0.0
 11
-17.3909
 21
3.0
 31
0.0
  0
LINE
  8
0
 62
0
 10
-40.3909
 20
3.0
 30
0.0
 11
-40.3909
 21
7.0
 31
0.0
  0
LINE
  8
0
 62
0
 10
-27.3909
 20
0.0
 30
0.0
 11
-17.3909
 21
0.0
 31
0.0
  0
LINE
  8
0
 62
0
 10
-40.3909
 20
7.0
 30
0.0
 11
-41.6409
 21
7.0
 31
0.0
  0
LINE
  8
0
 62
0
 10
-27.3909
 20
3.0
 30
0.0
 11
-27.3909
 21
0.0
 31
0.0
  0
LINE
  8
0
 62
0
 10
-41.6409
 20
7.0
 30
0.0
 11
-41.6409
 21
9.3
 31
0.0
  0
LINE
  8
0
 62
0
 10
-37.3909
 20
3.0
 30
0.0
 11
-27.3909
 21
3.0
 31
0.0
  0
LINE
  8
0
 62
0
 10
-41.6409
 20
9.3
 30
0.0
 11
-40.3909
 21
9.3
 31
0.0
  0
LINE
  8
0
 62
0
 10
-37.3909
 20
7.0
 30
0.0
 11
-37.3909
 21
3.0
 31
0.0
  0
LINE
  8
0
 62
0
 10
-40.3909
 20
9.3
 30
0.0
 11
-40.3909
 21
12.3
 31
0.0
  0
LINE
  8
0
 62
0
 10
-36.1409
 20
7.0
 30
0.0
 11
-37.3909
 21
7.0
 31
0.0
  0
LINE
  8
0
 62
0
 10
-40.3909
 20
12.3
 30
0.0
 11
-37.3909
 21
12.3
 31
0.0
  0
LINE
  8
0
 62
0
 10
-36.1409
 20
9.3
 30
0.0
 11
-36.1409
 21
7.0
 31
0.0
  0
LINE
  8
0
 62
0
 10
-37.3909
 20
12.3
 30
0.0
 11
-37.3909
 21
9.3
 31
0.0
  0
LINE
  8
0
 62
0
 10
-37.3909
 20
9.3
 30
0.0
 11
-36.1409
 21
9.3
 31
0.0
  0
LINE
  8
0
 62
0
 10
-17.3909
 20
26.9
 30
0.0
 11
-14.3909
 21
26.9
 31
0.0
  0
LINE
  8
0
 62
0
 10
-14.3909
 20
26.9
 30
0.0
 11
-14.3909
 21
17.1
 31
0.0
  0
LINE
  8
0
 62
0
 10
-14.3909
 20
17.1
 30
0.0
 11
-17.3909
 21
17.1
 31
0.0
  0
LINE
  8
0
 62
0
 10
-17.3909
 20
17.1
 30
0.0
 11
-17.3909
 21
26.9
 31
0.0
  0
LINE
  8
0
 62
0
 10
-63.3909
 20
26.9
 30
0.0
 11
-60.3909
 21
26.9
 31
0.0
  0
LINE
  8
0
 62
0
 10
-60.3909
 20
26.9
 30
0.0
 11
-60.3909
 21
17.1
 31
0.0
  0
LINE
  8
0
 62
0
 10
-60.3909
 20
17.1
 30
0.0
 11
-63.3909
 21
17.1
 31
0.0
  0
LINE
  8
0
 62
0
 10
-63.3909
 20
17.1
 30
0.0
 11
-63.3909
 21
26.9
 31
0.0
  0
ENDBLK
  0
ENDSEC
  0
SECTION
  2
ENTITIES
  0
INSERT
  2
FILLET
  8
0
 62
0
 10
0.0
 20
0.0
 30
0.0
  0
ENDSEC
  0
EOF
