  0
SECTION
  2
HEADER
  9
$ACADVER
  1
AC1009
  9
$INSBASE
 10
0.0
 20
0.0
 30
0.0
  9
$EXTMIN
 10
0.0
 20
0.0
 30
0.0
  9
$EXTMAX
 10
0.0
 20
0.0
 30
0.0
  0
ENDSEC
  0
SECTION
  2
TABLES
  0
TABLE
  2
VPORT
 70
0
  0
ENDTAB
  0
TABLE
  2
LTYPE
 70
1
  0
LTYPE
  2
CONTINUOUS
 70
0
  3
Solid line
 72
65
 73
0
 40
0.0
  0
ENDTAB
  0
TABLE
  2
LAYER
 70
1
  0
LAYER
  2
0
 70
64
 62
7
  6
continuous
  0
ENDTAB
  0
TABLE
  2
STYLE
 70
1
  0
STYLE
  2
STANDARD
 70
0
 40
0
 41
1.0
 50
0.0
 71
0
 42
1
 3
ARIAL.TTF
 4

  0
ENDTAB
  0
TABLE
  2
VIEW
 70
0
  0
ENDTAB
  0
ENDSEC
  0
SECTION
  2
BLOCKS
  0
BLOCK
  8
0
  2
PAD013
 70
0
 10
0.0
 20
0.0
 30
0.0
  3
PAD013
  0
LINE
  8
0
 62
0
 10
0.0
 20
-14.0
 30
0.0
 11
-9.28427124747
 21
-14.0
 31
0.0
  0
LINE
  8
0
 62
0
 10
-9.28427124747
 20
-14.0
 30
0.0
 11
-9.28427124747
 21
-17.0
 31
0.0
  0
LINE
  8
0
 62
0
 10
-9.28427124747
 20
-17.0
 30
0.0
 11
-19.2842712475
 21
-17.0
 31
0.0
  0
LINE
  8
0
 62
0
 10
-19.2842712475
 20
-17.0
 30
0.0
 11
-19.2842712475
 21
-14.0
 31
0.0
  0
LINE
  8
0
 62
0
 10
-19.2842712475
 20
-14.0
 30
0.0
 11
-28.2842712475
 21
-14.0
 31
0.0
  0
LINE
  8
0
 62
0
 10
-28.2842712475
 20
-14.0
 30
0.0
 11
-28.2842712475
 21
-5.0
 31
0.0
  0
LINE
  8
0
 62
0
 10
-28.2842712475
 20
-5.0
 30
0.0
 11
-31.2842712475
 21
-5.0
 31
0.0
  0
LINE
  8
0
 62
0
 10
-31.2842712475
 20
-5.0
 30
0.0
 11
-31.2842712475
 21
5.0
 31
0.0
  0
LINE
  8
0
 62
0
 10
-31.2842712475
 20
5.0
 30
0.0
 11
-28.2842712475
 21
5.0
 31
0.0
  0
LINE
  8
0
 62
0
 10
-28.2842712475
 20
5.0
 30
0.0
 11
-28.2842712475
 21
14.2842712474
 31
0.0
  0
LINE
  8
0
 62
0
 10
-28.2842712475
 20
14.2842712474
 30
0.0
 11
-26.1629509039
 21
12.1629509039
 31
0.0
  0
LINE
  8
0
 62
0
 10
-26.1629509039
 20
12.1629509039
 30
0.0
 11
-24.7487373415
 21
13.5771644663
 31
0.0
  0
LINE
  8
0
 62
0
 10
-24.7487373415
 20
13.5771644663
 30
0.0
 11
-20.5060966544
 21
9.33452377915
 31
0.0
  0
LINE
  8
0
 62
0
 10
-20.5060966544
 20
9.33452377915
 30
0.0
 11
-21.9203102168
 21
7.92031021677
 31
0.0
  0
LINE
  8
0
 62
0
 10
-21.9203102168
 20
7.92031021677
 30
0.0
 11
-15.2027957955
 21
1.2027957955
 31
0.0
  0
LINE
  8
0
 62
0
 10
-15.2027957955
 20
1.2027957955
 30
0.0
 11
-20.1525432638
 21
-3.7469516728
 31
0.0
  0
LINE
  8
0
 62
0
 10
-20.1525432638
 20
-3.7469516728
 30
0.0
 11
-21.0364267403
 21
-2.86306819632
 31
0.0
  0
LINE
  8
0
 62
0
 10
-21.0364267403
 20
-2.86306819632
 30
0.0
 11
-22.662772337
 21
-4.48941379305
 31
0.0
  0
LINE
  8
0
 62
0
 10
-22.662772337
 20
-4.48941379305
 30
0.0
 11
-21.7788888605
 21
-5.37329726953
 31
0.0
  0
LINE
  8
0
 62
0
 10
-21.7788888605
 20
-5.37329726953
 30
0.0
 11
-23.1931024229
 21
-6.78751083191
 31
0.0
  0
LINE
  8
0
 62
0
 10
-23.1931024229
 20
-6.78751083191
 30
0.0
 11
-21.0717820794
 21
-8.90883117547
 31
0.0
  0
LINE
  8
0
 62
0
 10
-21.0717820794
 20
-8.90883117547
 30
0.0
 11
-19.657568517
 21
-7.49461761309
 31
0.0
  0
LINE
  8
0
 62
0
 10
-19.657568517
 20
-7.49461761309
 30
0.0
 11
-18.7736850405
 21
-8.37850108958
 31
0.0
  0
LINE
  8
0
 62
0
 10
-18.7736850405
 20
-8.37850108958
 30
0.0
 11
-17.1473394438
 21
-6.75215549285
 31
0.0
  0
LINE
  8
0
 62
0
 10
-17.1473394438
 20
-6.75215549285
 30
0.0
 11
-18.0312229203
 21
-5.86827201636
 31
0.0
  0
LINE
  8
0
 62
0
 10
-18.0312229203
 20
-5.86827201636
 30
0.0
 11
-13.081475452
 21
-0.918524548055
 31
0.0
  0
LINE
  8
0
 62
0
 10
-13.081475452
 20
-0.918524548055
 30
0.0
 11
-6.36396103068
 21
-7.63603896932
 31
0.0
  0
LINE
  8
0
 62
0
 10
-6.36396103068
 20
-7.63603896932
 30
0.0
 11
-4.94974746831
 21
-6.22182540695
 31
0.0
  0
LINE
  8
0
 62
0
 10
-4.94974746831
 20
-6.22182540695
 30
0.0
 11
-0.707106781188
 21
-10.4644660941
 31
0.0
  0
LINE
  8
0
 62
0
 10
-0.707106781188
 20
-10.4644660941
 30
0.0
 11
-2.12132034356
 21
-11.8786796564
 31
0.0
  0
LINE
  8
0
 62
0
 10
-2.12132034356
 20
-11.8786796564
 30
0.0
 11
0.0
 21
-14.0
 31
0.0
  0
ENDBLK
  0
ENDSEC
  0
SECTION
  2
ENTITIES
  0
INSERT
  2
PAD013
  8
0
 62
0
 10
0.0
 20
0.0
 30
0.0
  0
ENDSEC
  0
EOF
