  0
SECTION
  2
HEADER
  9
$ACADVER
  1
AC1009
  9
$INSBASE
 10
0.0
 20
0.0
 30
0.0
  9
$EXTMIN
 10
0.0
 20
0.0
 30
0.0
  9
$EXTMAX
 10
0.0
 20
0.0
 30
0.0
  0
ENDSEC
  0
SECTION
  2
TABLES
  0
TABLE
  2
VPORT
 70
0
  0
ENDTAB
  0
TABLE
  2
LTYPE
 70
1
  0
LTYPE
  2
CONTINUOUS
 70
0
  3
Solid line
 72
65
 73
0
 40
0.0
  0
ENDTAB
  0
TABLE
  2
LAYER
 70
1
  0
LAYER
  2
0
 70
64
 62
7
  6
continuous
  0
ENDTAB
  0
TABLE
  2
STYLE
 70
1
  0
STYLE
  2
STANDARD
 70
0
 40
0
 41
1.0
 50
0.0
 71
0
 42
1
 3
ARIAL.TTF
 4

  0
ENDTAB
  0
TABLE
  2
VIEW
 70
0
  0
ENDTAB
  0
ENDSEC
  0
SECTION
  2
BLOCKS
  0
BLOCK
  8
0
  2
FILLET009
 70
0
 10
0.0
 20
0.0
 30
0.0
  3
FILLET009
  0
LINE
  8
0
 62
0
 10
-8.2843
 20
3.0
 30
0.0
 11
-8.2843
 21
29.6985
 31
0.0
  0
ARC
  8
0
 62
0
 10
-11.2843
 20
29.6985
 30
0.0
 40
3.0
 50
-0.0
 51
90.0
  0
LINE
  8
0
 62
0
 10
-14.2843
 20
3.0
 30
0.0
 11
-8.2843
 21
3.0
 31
0.0
  0
LINE
  8
0
 62
0
 10
-11.2843
 20
32.6985
 30
0.0
 11
-45.2843
 21
32.6985
 31
0.0
  0
LINE
  8
0
 62
0
 10
-14.2843
 20
0.0
 30
0.0
 11
-14.2843
 21
3.0
 31
0.0
  0
ARC
  8
0
 62
0
 10
-45.2843
 20
29.6985
 30
0.0
 40
3.0
 50
90.0
 51
-180.0
  0
LINE
  8
0
 62
0
 10
-24.2843
 20
0.0
 30
0.0
 11
-14.2843
 21
0.0
 31
0.0
  0
LINE
  8
0
 62
0
 10
-48.2843
 20
29.6985
 30
0.0
 11
-48.2843
 21
3.0
 31
0.0
  0
LINE
  8
0
 62
0
 10
-24.2843
 20
3.0
 30
0.0
 11
-24.2843
 21
0.0
 31
0.0
  0
LINE
  8
0
 62
0
 10
-48.2843
 20
3.0
 30
0.0
 11
-42.2843
 21
3.0
 31
0.0
  0
LINE
  8
0
 62
0
 10
-26.7843
 20
3.0
 30
0.0
 11
-24.2843
 21
3.0
 31
0.0
  0
LINE
  8
0
 62
0
 10
-42.2843
 20
3.0
 30
0.0
 11
-42.2843
 21
0.0
 31
0.0
  0
LINE
  8
0
 62
0
 10
-26.7843
 20
9.0
 30
0.0
 11
-26.7843
 21
3.0
 31
0.0
  0
LINE
  8
0
 62
0
 10
-42.2843
 20
0.0
 30
0.0
 11
-32.2843
 21
0.0
 31
0.0
  0
LINE
  8
0
 62
0
 10
-25.5343
 20
9.0
 30
0.0
 11
-26.7843
 21
9.0
 31
0.0
  0
LINE
  8
0
 62
0
 10
-32.2843
 20
0.0
 30
0.0
 11
-32.2843
 21
3.0
 31
0.0
  0
LINE
  8
0
 62
0
 10
-25.5343
 20
11.3
 30
0.0
 11
-25.5343
 21
9.0
 31
0.0
  0
LINE
  8
0
 62
0
 10
-32.2843
 20
3.0
 30
0.0
 11
-29.7843
 21
3.0
 31
0.0
  0
LINE
  8
0
 62
0
 10
-26.7843
 20
11.3
 30
0.0
 11
-25.5343
 21
11.3
 31
0.0
  0
LINE
  8
0
 62
0
 10
-29.7843
 20
3.0
 30
0.0
 11
-29.7843
 21
9.0
 31
0.0
  0
LINE
  8
0
 62
0
 10
-26.7843
 20
13.3
 30
0.0
 11
-26.7843
 21
11.3
 31
0.0
  0
LINE
  8
0
 62
0
 10
-29.7843
 20
9.0
 30
0.0
 11
-31.0343
 21
9.0
 31
0.0
  0
LINE
  8
0
 62
0
 10
-29.7843
 20
13.3
 30
0.0
 11
-26.7843
 21
13.3
 31
0.0
  0
LINE
  8
0
 62
0
 10
-31.0343
 20
9.0
 30
0.0
 11
-31.0343
 21
11.3
 31
0.0
  0
LINE
  8
0
 62
0
 10
-29.7843
 20
11.3
 30
0.0
 11
-29.7843
 21
13.3
 31
0.0
  0
LINE
  8
0
 62
0
 10
-31.0343
 20
11.3
 30
0.0
 11
-29.7843
 21
11.3
 31
0.0
  0
LINE
  8
0
 62
0
 10
-14.2843
 20
21.9
 30
0.0
 11
-11.2843
 21
21.9
 31
0.0
  0
LINE
  8
0
 62
0
 10
-11.2843
 20
21.9
 30
0.0
 11
-11.2843
 21
12.1
 31
0.0
  0
LINE
  8
0
 62
0
 10
-11.2843
 20
12.1
 30
0.0
 11
-14.2843
 21
12.1
 31
0.0
  0
LINE
  8
0
 62
0
 10
-14.2843
 20
12.1
 30
0.0
 11
-14.2843
 21
21.9
 31
0.0
  0
LINE
  8
0
 62
0
 10
-45.2843
 20
21.9
 30
0.0
 11
-42.2843
 21
21.9
 31
0.0
  0
LINE
  8
0
 62
0
 10
-42.2843
 20
21.9
 30
0.0
 11
-42.2843
 21
12.1
 31
0.0
  0
LINE
  8
0
 62
0
 10
-42.2843
 20
12.1
 30
0.0
 11
-45.2843
 21
12.1
 31
0.0
  0
LINE
  8
0
 62
0
 10
-45.2843
 20
12.1
 30
0.0
 11
-45.2843
 21
21.9
 31
0.0
  0
ENDBLK
  0
ENDSEC
  0
SECTION
  2
ENTITIES
  0
INSERT
  2
FILLET009
  8
0
 62
0
 10
0.0
 20
0.0
 30
0.0
  0
ENDSEC
  0
EOF
