  0
SECTION
  2
HEADER
  9
$ACADVER
  1
AC1009
  9
$INSBASE
 10
0.0
 20
0.0
 30
0.0
  9
$EXTMIN
 10
0.0
 20
0.0
 30
0.0
  9
$EXTMAX
 10
0.0
 20
0.0
 30
0.0
  0
ENDSEC
  0
SECTION
  2
TABLES
  0
TABLE
  2
VPORT
 70
0
  0
ENDTAB
  0
TABLE
  2
LTYPE
 70
1
  0
LTYPE
  2
CONTINUOUS
 70
0
  3
Solid line
 72
65
 73
0
 40
0.0
  0
ENDTAB
  0
TABLE
  2
LAYER
 70
1
  0
LAYER
  2
0
 70
64
 62
7
  6
continuous
  0
ENDTAB
  0
TABLE
  2
STYLE
 70
1
  0
STYLE
  2
STANDARD
 70
0
 40
0
 41
1.0
 50
0.0
 71
0
 42
1
 3
ARIAL.TTF
 4

  0
ENDTAB
  0
TABLE
  2
VIEW
 70
0
  0
ENDTAB
  0
ENDSEC
  0
SECTION
  2
BLOCKS
  0
BLOCK
  8
0
  2
FILLET005
 70
0
 10
0.0
 20
0.0
 30
0.0
  3
FILLET005
  0
LINE
  8
0
 62
0
 10
12.5
 20
11.0
 30
0.0
 11
12.5
 21
14.0
 31
0.0
  0
ARC
  8
0
 62
0
 10
13.5
 20
14.0
 30
0.0
 40
1.0
 50
90.0
 51
-180.0
  0
ARC
  8
0
 62
0
 10
9.5
 20
11.0
 30
0.0
 40
3.0
 50
-90.0
 51
-0.0
  0
LINE
  8
0
 62
0
 10
13.5
 20
15.0
 30
0.0
 11
26.5
 21
15.0
 31
0.0
  0
LINE
  8
0
 62
0
 10
3.0
 20
8.0
 30
0.0
 11
9.5
 21
8.0
 31
0.0
  0
ARC
  8
0
 62
0
 10
26.5
 20
14.0
 30
0.0
 40
1.0
 50
0.0
 51
90.0
  0
ARC
  8
0
 62
0
 10
3.0
 20
11.0
 30
0.0
 40
3.0
 50
-180.0
 51
-90.0
  0
LINE
  8
0
 62
0
 10
27.5
 20
14.0
 30
0.0
 11
27.5
 21
11.0
 31
0.0
  0
LINE
  8
0
 62
0
 10
0.0
 20
45.0
 30
0.0
 11
0.0
 21
11.0
 31
0.0
  0
ARC
  8
0
 62
0
 10
30.5
 20
11.0
 30
0.0
 40
3.0
 50
-180.0
 51
-90.0
  0
ARC
  8
0
 62
0
 10
3.0
 20
45.0
 30
0.0
 40
3.0
 50
90.0
 51
-180.0
  0
LINE
  8
0
 62
0
 10
30.5
 20
8.0
 30
0.0
 11
37.0
 21
8.0
 31
0.0
  0
LINE
  8
0
 62
0
 10
3.0
 20
48.0
 30
0.0
 11
37.0
 21
48.0
 31
0.0
  0
ARC
  8
0
 62
0
 10
37.0
 20
11.0
 30
0.0
 40
3.0
 50
-90.0
 51
0.0
  0
ARC
  8
0
 62
0
 10
37.0
 20
45.0
 30
0.0
 40
3.0
 50
-0.0
 51
90.0
  0
LINE
  8
0
 62
0
 10
40.0
 20
45.0
 30
0.0
 11
40.0
 21
11.0
 31
0.0
  0
LINE
  8
0
 62
0
 10
3.1
 20
14.0
 30
0.0
 11
8.9
 21
14.0
 31
0.0
  0
LINE
  8
0
 62
0
 10
8.9
 20
14.0
 30
0.0
 11
8.9
 21
11.0
 31
0.0
  0
LINE
  8
0
 62
0
 10
8.9
 20
11.0
 30
0.0
 11
3.1
 21
11.0
 31
0.0
  0
LINE
  8
0
 62
0
 10
3.1
 20
11.0
 30
0.0
 11
3.1
 21
14.0
 31
0.0
  0
LINE
  8
0
 62
0
 10
3.1
 20
45.0
 30
0.0
 11
8.9
 21
45.0
 31
0.0
  0
LINE
  8
0
 62
0
 10
8.9
 20
45.0
 30
0.0
 11
8.9
 21
42.0
 31
0.0
  0
LINE
  8
0
 62
0
 10
8.9
 20
42.0
 30
0.0
 11
3.1
 21
42.0
 31
0.0
  0
LINE
  8
0
 62
0
 10
3.1
 20
42.0
 30
0.0
 11
3.1
 21
45.0
 31
0.0
  0
LINE
  8
0
 62
0
 10
36.9
 20
45.0
 30
0.0
 11
31.1
 21
45.0
 31
0.0
  0
LINE
  8
0
 62
0
 10
31.1
 20
45.0
 30
0.0
 11
31.1
 21
42.0
 31
0.0
  0
LINE
  8
0
 62
0
 10
31.1
 20
42.0
 30
0.0
 11
36.9
 21
42.0
 31
0.0
  0
LINE
  8
0
 62
0
 10
36.9
 20
42.0
 30
0.0
 11
36.9
 21
45.0
 31
0.0
  0
LINE
  8
0
 62
0
 10
31.1
 20
14.0
 30
0.0
 11
36.9
 21
14.0
 31
0.0
  0
LINE
  8
0
 62
0
 10
36.9
 20
14.0
 30
0.0
 11
36.9
 21
11.0
 31
0.0
  0
LINE
  8
0
 62
0
 10
36.9
 20
11.0
 30
0.0
 11
31.1
 21
11.0
 31
0.0
  0
LINE
  8
0
 62
0
 10
31.1
 20
11.0
 30
0.0
 11
31.1
 21
14.0
 31
0.0
  0
CIRCLE
  8
0
 62
0
 10
29.5
 20
28.0
 30
0.0
 40
2.0
  0
CIRCLE
  8
0
 62
0
 10
20.0
 20
43.5
 30
0.0
 40
1.5
  0
CIRCLE
  8
0
 62
0
 10
30.0
 20
38.0
 30
0.0
 40
1.5
  0
CIRCLE
  8
0
 62
0
 10
10.0
 20
38.0
 30
0.0
 40
1.5
  0
CIRCLE
  8
0
 62
0
 10
10.0
 20
18.0
 30
0.0
 40
1.5
  0
CIRCLE
  8
0
 62
0
 10
30.0
 20
18.0
 30
0.0
 40
1.5
  0
ENDBLK
  0
ENDSEC
  0
SECTION
  2
ENTITIES
  0
INSERT
  2
FILLET005
  8
0
 62
0
 10
0.0
 20
0.0
 30
0.0
  0
ENDSEC
  0
EOF
