  0
SECTION
  2
HEADER
  9
$ACADVER
  1
AC1009
  9
$INSBASE
 10
0.0
 20
0.0
 30
0.0
  9
$EXTMIN
 10
0.0
 20
0.0
 30
0.0
  9
$EXTMAX
 10
0.0
 20
0.0
 30
0.0
  0
ENDSEC
  0
SECTION
  2
TABLES
  0
TABLE
  2
VPORT
 70
0
  0
ENDTAB
  0
TABLE
  2
LTYPE
 70
1
  0
LTYPE
  2
CONTINUOUS
 70
0
  3
Solid line
 72
65
 73
0
 40
0.0
  0
ENDTAB
  0
TABLE
  2
LAYER
 70
1
  0
LAYER
  2
0
 70
64
 62
7
  6
continuous
  0
ENDTAB
  0
TABLE
  2
STYLE
 70
1
  0
STYLE
  2
STANDARD
 70
0
 40
0
 41
1.0
 50
0.0
 71
0
 42
1
 3
ARIAL.TTF
 4

  0
ENDTAB
  0
TABLE
  2
VIEW
 70
0
  0
ENDTAB
  0
ENDSEC
  0
SECTION
  2
BLOCKS
  0
BLOCK
  8
0
  2
PAD013
 70
0
 10
0.0
 20
0.0
 30
0.0
  3
PAD013
  0
LINE
  8
0
 62
0
 10
-23.3259018078
 20
14.0
 30
0.0
 11
-33.3259018078
 21
14.0
 31
0.0
  0
LINE
  8
0
 62
0
 10
-33.3259018078
 20
14.0
 30
0.0
 11
-33.3259018078
 21
11.0
 31
0.0
  0
LINE
  8
0
 62
0
 10
-33.3259018078
 20
11.0
 30
0.0
 11
-43.3259018078
 21
11.0
 31
0.0
  0
LINE
  8
0
 62
0
 10
-43.3259018078
 20
11.0
 30
0.0
 11
-43.3259018078
 21
14.0
 31
0.0
  0
LINE
  8
0
 62
0
 10
-43.3259018078
 20
14.0
 30
0.0
 11
-52.3259018078
 21
14.0
 31
0.0
  0
LINE
  8
0
 62
0
 10
-52.3259018078
 20
14.0
 30
0.0
 11
-52.3259018078
 21
23.0
 31
0.0
  0
LINE
  8
0
 62
0
 10
-52.3259018078
 20
23.0
 30
0.0
 11
-55.3259018078
 21
23.0
 31
0.0
  0
LINE
  8
0
 62
0
 10
-55.3259018078
 20
23.0
 30
0.0
 11
-55.3259018078
 21
33.0
 31
0.0
  0
LINE
  8
0
 62
0
 10
-55.3259018078
 20
33.0
 30
0.0
 11
-52.3259018078
 21
33.0
 31
0.0
  0
LINE
  8
0
 62
0
 10
-52.3259018078
 20
33.0
 30
0.0
 11
-52.3259018078
 21
43.0
 31
0.0
  0
LINE
  8
0
 62
0
 10
-52.3259018078
 20
43.0
 30
0.0
 11
-55.3259018078
 21
43.0
 31
0.0
  0
LINE
  8
0
 62
0
 10
-55.3259018078
 20
43.0
 30
0.0
 11
-55.3259018078
 21
53.0
 31
0.0
  0
LINE
  8
0
 62
0
 10
-55.3259018078
 20
53.0
 30
0.0
 11
-52.3259018078
 21
53.0
 31
0.0
  0
LINE
  8
0
 62
0
 10
-52.3259018078
 20
53.0
 30
0.0
 11
-52.3259018078
 21
66.3259018078
 31
0.0
  0
LINE
  8
0
 62
0
 10
-52.3259018078
 20
66.3259018078
 30
0.0
 11
-45.254833996
 21
59.2548339959
 31
0.0
  0
LINE
  8
0
 62
0
 10
-45.254833996
 20
59.2548339959
 30
0.0
 11
-43.1335136524
 21
61.3761543395
 31
0.0
  0
LINE
  8
0
 62
0
 10
-43.1335136524
 20
61.3761543395
 30
0.0
 11
-36.0624458405
 21
54.3050865276
 31
0.0
  0
LINE
  8
0
 62
0
 10
-36.0624458405
 20
54.3050865276
 30
0.0
 11
-38.1837661841
 21
52.1837661841
 31
0.0
  0
LINE
  8
0
 62
0
 10
-38.1837661841
 20
52.1837661841
 30
0.0
 11
-27.2236110757
 21
41.2236110757
 31
0.0
  0
LINE
  8
0
 62
0
 10
-27.2236110757
 20
41.2236110757
 30
0.0
 11
-30.7591449816
 21
37.6880771697
 31
0.0
  0
LINE
  8
0
 62
0
 10
-30.7591449816
 20
37.6880771697
 30
0.0
 11
-31.6430284581
 21
38.5719606462
 31
0.0
  0
LINE
  8
0
 62
0
 10
-31.6430284581
 20
38.5719606462
 30
0.0
 11
-33.2693740548
 21
36.9456150495
 31
0.0
  0
LINE
  8
0
 62
0
 10
-33.2693740548
 20
36.9456150495
 30
0.0
 11
-32.3854905784
 21
36.061731573
 31
0.0
  0
LINE
  8
0
 62
0
 10
-32.3854905784
 20
36.061731573
 30
0.0
 11
-34.5068109219
 21
33.9404112294
 31
0.0
  0
LINE
  8
0
 62
0
 10
-34.5068109219
 20
33.9404112294
 30
0.0
 11
-32.3854905784
 21
31.8190908859
 31
0.0
  0
LINE
  8
0
 62
0
 10
-32.3854905784
 20
31.8190908859
 30
0.0
 11
-30.2641702348
 21
33.9404112294
 31
0.0
  0
LINE
  8
0
 62
0
 10
-30.2641702348
 20
33.9404112294
 30
0.0
 11
-29.3802867583
 21
33.056527753
 31
0.0
  0
LINE
  8
0
 62
0
 10
-29.3802867583
 20
33.056527753
 30
0.0
 11
-27.7539411616
 21
34.6828733497
 31
0.0
  0
LINE
  8
0
 62
0
 10
-27.7539411616
 20
34.6828733497
 30
0.0
 11
-28.6378246381
 21
35.5667568262
 31
0.0
  0
LINE
  8
0
 62
0
 10
-28.6378246381
 20
35.5667568262
 30
0.0
 11
-25.1022907321
 21
39.1022907321
 31
0.0
  0
LINE
  8
0
 62
0
 10
-25.1022907321
 20
39.1022907321
 30
0.0
 11
-14.1421356237
 21
28.1421356237
 31
0.0
  0
LINE
  8
0
 62
0
 10
-14.1421356237
 20
28.1421356237
 30
0.0
 11
-12.0208152802
 21
30.2634559673
 31
0.0
  0
LINE
  8
0
 62
0
 10
-12.0208152802
 20
30.2634559673
 30
0.0
 11
-4.94974746831
 21
23.1923881554
 31
0.0
  0
LINE
  8
0
 62
0
 10
-4.94974746831
 20
23.1923881554
 30
0.0
 11
-7.07106781187
 21
21.0710678119
 31
0.0
  0
LINE
  8
0
 62
0
 10
-7.07106781187
 20
21.0710678119
 30
0.0
 11
8.881784197e-16
 21
14.0
 31
0.0
  0
LINE
  8
0
 62
0
 10
0.0
 20
14.0
 30
0.0
 11
-13.3259018078
 21
14.0
 31
0.0
  0
LINE
  8
0
 62
0
 10
-13.3259018078
 20
11.0
 30
0.0
 11
-13.3259018078
 21
14.0
 31
0.0
  0
LINE
  8
0
 62
0
 10
-23.3259018078
 20
11.0
 30
0.0
 11
-13.3259018078
 21
11.0
 31
0.0
  0
LINE
  8
0
 62
0
 10
-23.3259018078
 20
14.0
 30
0.0
 11
-23.3259018078
 21
11.0
 31
0.0
  0
ENDBLK
  0
ENDSEC
  0
SECTION
  2
ENTITIES
  0
INSERT
  2
PAD013
  8
0
 62
0
 10
0.0
 20
0.0
 30
0.0
  0
ENDSEC
  0
EOF
