  0
SECTION
  2
HEADER
  9
$ACADVER
  1
AC1009
  9
$INSBASE
 10
0.0
 20
0.0
 30
0.0
  9
$EXTMIN
 10
0.0
 20
0.0
 30
0.0
  9
$EXTMAX
 10
0.0
 20
0.0
 30
0.0
  0
ENDSEC
  0
SECTION
  2
TABLES
  0
TABLE
  2
VPORT
 70
0
  0
ENDTAB
  0
TABLE
  2
LTYPE
 70
1
  0
LTYPE
  2
CONTINUOUS
 70
0
  3
Solid line
 72
65
 73
0
 40
0.0
  0
ENDTAB
  0
TABLE
  2
LAYER
 70
1
  0
LAYER
  2
0
 70
64
 62
7
  6
continuous
  0
ENDTAB
  0
TABLE
  2
STYLE
 70
1
  0
STYLE
  2
STANDARD
 70
0
 40
0
 41
1.0
 50
0.0
 71
0
 42
1
 3
ARIAL.TTF
 4

  0
ENDTAB
  0
TABLE
  2
VIEW
 70
0
  0
ENDTAB
  0
ENDSEC
  0
SECTION
  2
BLOCKS
  0
BLOCK
  8
0
  2
FILLET
 70
0
 10
0.0
 20
0.0
 30
0.0
  3
FILLET
  0
LINE
  8
0
 62
0
 10
-35.3553390593
 20
49.3553390593
 30
0.0
 11
-32.173358544
 21
46.173358544
 31
0.0
  0
ARC
  8
0
 62
0
 10
-34.2946788876
 20
44.0520382004
 30
0.0
 40
3.0
 50
-45.0
 51
45.0
  0
LINE
  8
0
 62
0
 10
-33.2340187158
 20
51.4766594029
 30
0.0
 11
-35.3553390593
 21
49.3553390593
 31
0.0
  0
LINE
  8
0
 62
0
 10
-32.173358544
 20
41.9307178569
 30
0.0
 11
-35.0017856687
 21
39.1022907321
 31
0.0
  0
LINE
  8
0
 62
0
 10
-40.3050865277
 20
58.5477272147
 30
0.0
 11
-33.2340187158
 21
51.4766594029
 31
0.0
  0
ARC
  8
0
 62
0
 10
-29.6984848098
 20
33.7989898732
 30
0.0
 40
7.5
 50
135.0
 51
-45.0
  0
LINE
  8
0
 62
0
 10
-42.4264068712
 20
56.4264068712
 30
0.0
 11
-40.3050865277
 21
58.5477272147
 31
0.0
  0
LINE
  8
0
 62
0
 10
-24.3951839509
 20
28.4956890143
 30
0.0
 11
-21.5667568262
 21
31.3241161391
 31
0.0
  0
LINE
  8
0
 62
0
 10
-49.4974746831
 20
63.497474683
 30
0.0
 11
-42.4264068712
 21
56.4264068712
 31
0.0
  0
ARC
  8
0
 62
0
 10
-19.4454364826
 20
29.2027957955
 30
0.0
 40
3.0
 50
45.0
 51
135.0
  0
LINE
  8
0
 62
0
 10
-49.4974746831
 20
53.0
 30
0.0
 11
-49.4974746831
 21
63.497474683
 31
0.0
  0
LINE
  8
0
 62
0
 10
-17.3241161391
 20
31.3241161391
 30
0.0
 11
-14.1421356237
 21
28.1421356237
 31
0.0
  0
LINE
  8
0
 62
0
 10
-52.4974746831
 20
53.0
 30
0.0
 11
-49.4974746831
 21
53.0
 31
0.0
  0
LINE
  8
0
 62
0
 10
-14.1421356237
 20
28.1421356237
 30
0.0
 11
-12.0208152802
 21
30.2634559673
 31
0.0
  0
LINE
  8
0
 62
0
 10
-52.4974746831
 20
43.0
 30
0.0
 11
-52.4974746831
 21
53.0
 31
0.0
  0
LINE
  8
0
 62
0
 10
-12.0208152802
 20
30.2634559673
 30
0.0
 11
-4.94974746831
 21
23.1923881554
 31
0.0
  0
LINE
  8
0
 62
0
 10
-49.4974746831
 20
43.0
 30
0.0
 11
-52.4974746831
 21
43.0
 31
0.0
  0
LINE
  8
0
 62
0
 10
-4.94974746831
 20
23.1923881554
 30
0.0
 11
-7.07106781187
 21
21.0710678119
 31
0.0
  0
LINE
  8
0
 62
0
 10
-49.4974746831
 20
33.0
 30
0.0
 11
-49.4974746831
 21
43.0
 31
0.0
  0
LINE
  8
0
 62
0
 10
-7.07106781187
 20
21.0710678119
 30
0.0
 11
8.881784197e-16
 21
14.0
 31
0.0
  0
LINE
  8
0
 62
0
 10
-52.4974746831
 20
33.0
 30
0.0
 11
-49.4974746831
 21
33.0
 31
0.0
  0
LINE
  8
0
 62
0
 10
8.881784197e-16
 20
14.0
 30
0.0
 11
-10.4974746831
 21
14.0
 31
0.0
  0
LINE
  8
0
 62
0
 10
-52.4974746831
 20
23.0
 30
0.0
 11
-52.4974746831
 21
33.0
 31
0.0
  0
LINE
  8
0
 62
0
 10
-10.4974746831
 20
11.0
 30
0.0
 11
-10.4974746831
 21
14.0
 31
0.0
  0
LINE
  8
0
 62
0
 10
-49.4974746831
 20
23.0
 30
0.0
 11
-52.4974746831
 21
23.0
 31
0.0
  0
LINE
  8
0
 62
0
 10
-20.4974746831
 20
11.0
 30
0.0
 11
-10.4974746831
 21
11.0
 31
0.0
  0
LINE
  8
0
 62
0
 10
-49.4974746831
 20
14.0
 30
0.0
 11
-49.4974746831
 21
23.0
 31
0.0
  0
LINE
  8
0
 62
0
 10
-20.4974746831
 20
14.0
 30
0.0
 11
-20.4974746831
 21
11.0
 31
0.0
  0
LINE
  8
0
 62
0
 10
-40.4974746831
 20
14.0
 30
0.0
 11
-49.4974746831
 21
14.0
 31
0.0
  0
LINE
  8
0
 62
0
 10
-20.4974746831
 20
14.0
 30
0.0
 11
-30.4974746831
 21
14.0
 31
0.0
  0
LINE
  8
0
 62
0
 10
-40.4974746831
 20
11.0
 30
0.0
 11
-40.4974746831
 21
14.0
 31
0.0
  0
LINE
  8
0
 62
0
 10
-30.4974746831
 20
14.0
 30
0.0
 11
-30.4974746831
 21
11.0
 31
0.0
  0
LINE
  8
0
 62
0
 10
-30.4974746831
 20
11.0
 30
0.0
 11
-40.4974746831
 21
11.0
 31
0.0
  0
ENDBLK
  0
ENDSEC
  0
SECTION
  2
ENTITIES
  0
INSERT
  2
FILLET
  8
0
 62
0
 10
0.0
 20
0.0
 30
0.0
  0
ENDSEC
  0
EOF
