  0
SECTION
  2
HEADER
  9
$ACADVER
  1
AC1009
  9
$INSBASE
 10
0.0
 20
0.0
 30
0.0
  9
$EXTMIN
 10
0.0
 20
0.0
 30
0.0
  9
$EXTMAX
 10
0.0
 20
0.0
 30
0.0
  0
ENDSEC
  0
SECTION
  2
TABLES
  0
TABLE
  2
VPORT
 70
0
  0
ENDTAB
  0
TABLE
  2
LTYPE
 70
1
  0
LTYPE
  2
CONTINUOUS
 70
0
  3
Solid line
 72
65
 73
0
 40
0.0
  0
ENDTAB
  0
TABLE
  2
LAYER
 70
1
  0
LAYER
  2
0
 70
64
 62
7
  6
continuous
  0
ENDTAB
  0
TABLE
  2
STYLE
 70
1
  0
STYLE
  2
STANDARD
 70
0
 40
0
 41
1.0
 50
0.0
 71
0
 42
1
 3
ARIAL.TTF
 4

  0
ENDTAB
  0
TABLE
  2
VIEW
 70
0
  0
ENDTAB
  0
ENDSEC
  0
SECTION
  2
BLOCKS
  0
BLOCK
  8
0
  2
FILLET008
 70
0
 10
0.0
 20
0.0
 30
0.0
  3
FILLET008
  0
LINE
  8
0
 62
0
 10
-52.4975
 20
20.0
 30
0.0
 11
-0.8
 21
20.0
 31
0.0
  0
ARC
  8
0
 62
0
 10
-52.4975
 20
17.0
 30
0.0
 40
3.0
 50
90.0
 51
-180.0
  0
ARC
  8
0
 62
0
 10
-0.8
 20
17.0
 30
0.0
 40
3.0
 50
-0.0
 51
90.0
  0
LINE
  8
0
 62
0
 10
-55.4975
 20
-77.0
 30
0.0
 11
-55.4975
 21
17.0
 31
0.0
  0
LINE
  8
0
 62
0
 10
2.2
 20
17.0
 30
0.0
 11
2.2
 21
-77.0
 31
0.0
  0
ARC
  8
0
 62
0
 10
-52.4975
 20
-77.0
 30
0.0
 40
3.0
 50
180.0
 51
-90.0
  0
ARC
  8
0
 62
0
 10
-0.8
 20
-77.0
 30
0.0
 40
3.0
 50
-90.0
 51
-0.0
  0
LINE
  8
0
 62
0
 10
-0.8
 20
-80.0
 30
0.0
 11
-52.4975
 21
-80.0
 31
0.0
  0
LINE
  8
0
 62
0
 10
-52.4975
 20
-6.1
 30
0.0
 11
-49.4975
 21
-6.1
 31
0.0
  0
LINE
  8
0
 62
0
 10
-49.4975
 20
-6.1
 30
0.0
 11
-49.4975
 21
-15.9
 31
0.0
  0
LINE
  8
0
 62
0
 10
-49.4975
 20
-15.9
 30
0.0
 11
-52.4975
 21
-15.9
 31
0.0
  0
LINE
  8
0
 62
0
 10
-52.4975
 20
-15.9
 30
0.0
 11
-52.4975
 21
-6.1
 31
0.0
  0
LINE
  8
0
 62
0
 10
-20.3975
 20
-74.0
 30
0.0
 11
-10.5975
 21
-74.0
 31
0.0
  0
LINE
  8
0
 62
0
 10
-10.5975
 20
-74.0
 30
0.0
 11
-10.5975
 21
-77.0
 31
0.0
  0
LINE
  8
0
 62
0
 10
-10.5975
 20
-77.0
 30
0.0
 11
-20.3975
 21
-77.0
 31
0.0
  0
LINE
  8
0
 62
0
 10
-20.3975
 20
-77.0
 30
0.0
 11
-20.3975
 21
-74.0
 31
0.0
  0
LINE
  8
0
 62
0
 10
-20.3975
 20
17.0
 30
0.0
 11
-10.5975
 21
17.0
 31
0.0
  0
LINE
  8
0
 62
0
 10
-10.5975
 20
17.0
 30
0.0
 11
-10.5975
 21
14.0
 31
0.0
  0
LINE
  8
0
 62
0
 10
-10.5975
 20
14.0
 30
0.0
 11
-20.3975
 21
14.0
 31
0.0
  0
LINE
  8
0
 62
0
 10
-20.3975
 20
14.0
 30
0.0
 11
-20.3975
 21
17.0
 31
0.0
  0
LINE
  8
0
 62
0
 10
-52.4975
 20
-44.1
 30
0.0
 11
-49.4975
 21
-44.1
 31
0.0
  0
LINE
  8
0
 62
0
 10
-49.4975
 20
-44.1
 30
0.0
 11
-49.4975
 21
-53.9
 31
0.0
  0
LINE
  8
0
 62
0
 10
-49.4975
 20
-53.9
 30
0.0
 11
-52.4975
 21
-53.9
 31
0.0
  0
LINE
  8
0
 62
0
 10
-52.4975
 20
-53.9
 30
0.0
 11
-52.4975
 21
-44.1
 31
0.0
  0
LINE
  8
0
 62
0
 10
-40.3975
 20
-74.0
 30
0.0
 11
-30.5975
 21
-74.0
 31
0.0
  0
LINE
  8
0
 62
0
 10
-30.5975
 20
-74.0
 30
0.0
 11
-30.5975
 21
-77.0
 31
0.0
  0
LINE
  8
0
 62
0
 10
-30.5975
 20
-77.0
 30
0.0
 11
-40.3975
 21
-77.0
 31
0.0
  0
LINE
  8
0
 62
0
 10
-40.3975
 20
-77.0
 30
0.0
 11
-40.3975
 21
-74.0
 31
0.0
  0
LINE
  8
0
 62
0
 10
-40.3975
 20
17.0
 30
0.0
 11
-30.5975
 21
17.0
 31
0.0
  0
LINE
  8
0
 62
0
 10
-30.5975
 20
17.0
 30
0.0
 11
-30.5975
 21
14.0
 31
0.0
  0
LINE
  8
0
 62
0
 10
-30.5975
 20
14.0
 30
0.0
 11
-40.3975
 21
14.0
 31
0.0
  0
LINE
  8
0
 62
0
 10
-40.3975
 20
14.0
 30
0.0
 11
-40.3975
 21
17.0
 31
0.0
  0
LINE
  8
0
 62
0
 10
-52.4975
 20
-64.1
 30
0.0
 11
-49.4975
 21
-64.1
 31
0.0
  0
LINE
  8
0
 62
0
 10
-49.4975
 20
-64.1
 30
0.0
 11
-49.4975
 21
-73.9
 31
0.0
  0
LINE
  8
0
 62
0
 10
-49.4975
 20
-73.9
 30
0.0
 11
-52.4975
 21
-73.9
 31
0.0
  0
LINE
  8
0
 62
0
 10
-52.4975
 20
-73.9
 30
0.0
 11
-52.4975
 21
-64.1
 31
0.0
  0
LINE
  8
0
 62
0
 10
-52.4975
 20
13.9
 30
0.0
 11
-49.4975
 21
13.9
 31
0.0
  0
LINE
  8
0
 62
0
 10
-49.4975
 20
13.9
 30
0.0
 11
-49.4975
 21
4.1
 31
0.0
  0
LINE
  8
0
 62
0
 10
-49.4975
 20
4.1
 30
0.0
 11
-52.4975
 21
4.1
 31
0.0
  0
LINE
  8
0
 62
0
 10
-52.4975
 20
4.1
 30
0.0
 11
-52.4975
 21
13.9
 31
0.0
  0
CIRCLE
  8
0
 62
0
 10
-50.9975
 20
-30.0
 30
0.0
 40
1.5
  0
ENDBLK
  0
ENDSEC
  0
SECTION
  2
ENTITIES
  0
INSERT
  2
FILLET008
  8
0
 62
0
 10
0.0
 20
0.0
 30
0.0
  0
ENDSEC
  0
EOF
