  0
SECTION
  2
HEADER
  9
$ACADVER
  1
AC1009
  9
$INSBASE
 10
0.0
 20
0.0
 30
0.0
  9
$EXTMIN
 10
0.0
 20
0.0
 30
0.0
  9
$EXTMAX
 10
0.0
 20
0.0
 30
0.0
  0
ENDSEC
  0
SECTION
  2
TABLES
  0
TABLE
  2
VPORT
 70
0
  0
ENDTAB
  0
TABLE
  2
LTYPE
 70
1
  0
LTYPE
  2
CONTINUOUS
 70
0
  3
Solid line
 72
65
 73
0
 40
0.0
  0
ENDTAB
  0
TABLE
  2
LAYER
 70
1
  0
LAYER
  2
0
 70
64
 62
7
  6
continuous
  0
ENDTAB
  0
TABLE
  2
STYLE
 70
1
  0
STYLE
  2
STANDARD
 70
0
 40
0
 41
1.0
 50
0.0
 71
0
 42
1
 3
ARIAL.TTF
 4

  0
ENDTAB
  0
TABLE
  2
VIEW
 70
0
  0
ENDTAB
  0
ENDSEC
  0
SECTION
  2
BLOCKS
  0
BLOCK
  8
0
  2
PAD013
 70
0
 10
0.0
 20
0.0
 30
0.0
  3
PAD013
  0
LINE
  8
0
 62
0
 10
-20.4974746831
 20
-74.0
 30
0.0
 11
-30.4974746831
 21
-74.0
 31
0.0
  0
LINE
  8
0
 62
0
 10
-30.4974746831
 20
-74.0
 30
0.0
 11
-30.4974746831
 21
-77.0
 31
0.0
  0
LINE
  8
0
 62
0
 10
-30.4974746831
 20
-77.0
 30
0.0
 11
-40.4974746831
 21
-77.0
 31
0.0
  0
LINE
  8
0
 62
0
 10
-40.4974746831
 20
-77.0
 30
0.0
 11
-40.4974746831
 21
-74.0
 31
0.0
  0
LINE
  8
0
 62
0
 10
-40.4974746831
 20
-74.0
 30
0.0
 11
-49.4974746831
 21
-74.0
 31
0.0
  0
LINE
  8
0
 62
0
 10
-49.4974746831
 20
-74.0
 30
0.0
 11
-49.4974746831
 21
-65.0
 31
0.0
  0
LINE
  8
0
 62
0
 10
-49.4974746831
 20
-65.0
 30
0.0
 11
-52.4974746831
 21
-65.0
 31
0.0
  0
LINE
  8
0
 62
0
 10
-52.4974746831
 20
-65.0
 30
0.0
 11
-52.4974746831
 21
-55.0
 31
0.0
  0
LINE
  8
0
 62
0
 10
-52.4974746831
 20
-55.0
 30
0.0
 11
-49.4974746831
 21
-55.0
 31
0.0
  0
LINE
  8
0
 62
0
 10
-49.4974746831
 20
-55.0
 30
0.0
 11
-49.4974746831
 21
-45.0
 31
0.0
  0
LINE
  8
0
 62
0
 10
-49.4974746831
 20
-45.0
 30
0.0
 11
-52.4974746831
 21
-45.0
 31
0.0
  0
LINE
  8
0
 62
0
 10
-52.4974746831
 20
-45.0
 30
0.0
 11
-52.4974746831
 21
-35.0
 31
0.0
  0
LINE
  8
0
 62
0
 10
-52.4974746831
 20
-35.0
 30
0.0
 11
-49.4974746831
 21
-35.0
 31
0.0
  0
LINE
  8
0
 62
0
 10
-49.4974746831
 20
-35.0
 30
0.0
 11
-49.4974746831
 21
-24.502525317
 31
0.0
  0
LINE
  8
0
 62
0
 10
-49.4974746831
 20
-24.502525317
 30
0.0
 11
-42.4264068712
 21
-31.5735931288
 31
0.0
  0
LINE
  8
0
 62
0
 10
-42.4264068712
 20
-31.5735931288
 30
0.0
 11
-40.3050865277
 21
-29.4522727853
 31
0.0
  0
LINE
  8
0
 62
0
 10
-40.3050865277
 20
-29.4522727853
 30
0.0
 11
-33.2340187158
 21
-36.5233405971
 31
0.0
  0
LINE
  8
0
 62
0
 10
-33.2340187158
 20
-36.5233405971
 30
0.0
 11
-35.3553390593
 21
-38.6446609407
 31
0.0
  0
LINE
  8
0
 62
0
 10
-35.3553390593
 20
-38.6446609407
 30
0.0
 11
-25.8093975133
 21
-48.1906024867
 31
0.0
  0
LINE
  8
0
 62
0
 10
-25.8093975133
 20
-48.1906024867
 30
0.0
 11
-29.3449314193
 21
-51.7261363926
 31
0.0
  0
LINE
  8
0
 62
0
 10
-29.3449314193
 20
-51.7261363926
 30
0.0
 11
-30.2288148957
 21
-50.8422529162
 31
0.0
  0
LINE
  8
0
 62
0
 10
-30.2288148957
 20
-50.8422529162
 30
0.0
 11
-31.8551604925
 21
-52.4685985129
 31
0.0
  0
LINE
  8
0
 62
0
 10
-31.8551604925
 20
-52.4685985129
 30
0.0
 11
-30.971277016
 21
-53.3524819894
 31
0.0
  0
LINE
  8
0
 62
0
 10
-30.971277016
 20
-53.3524819894
 30
0.0
 11
-33.0925973595
 21
-55.4738023329
 31
0.0
  0
LINE
  8
0
 62
0
 10
-33.0925973595
 20
-55.4738023329
 30
0.0
 11
-30.971277016
 21
-57.5951226765
 31
0.0
  0
LINE
  8
0
 62
0
 10
-30.971277016
 20
-57.5951226765
 30
0.0
 11
-28.8499566724
 21
-55.4738023329
 31
0.0
  0
LINE
  8
0
 62
0
 10
-28.8499566724
 20
-55.4738023329
 30
0.0
 11
-27.9660731959
 21
-56.3576858094
 31
0.0
  0
LINE
  8
0
 62
0
 10
-27.9660731959
 20
-56.3576858094
 30
0.0
 11
-26.3397275992
 21
-54.7313402127
 31
0.0
  0
LINE
  8
0
 62
0
 10
-26.3397275992
 20
-54.7313402127
 30
0.0
 11
-27.2236110757
 21
-53.8474567362
 31
0.0
  0
LINE
  8
0
 62
0
 10
-27.2236110757
 20
-53.8474567362
 30
0.0
 11
-23.6880771698
 21
-50.3119228303
 31
0.0
  0
LINE
  8
0
 62
0
 10
-23.6880771698
 20
-50.3119228303
 30
0.0
 11
-14.1421356237
 21
-59.8578643763
 31
0.0
  0
LINE
  8
0
 62
0
 10
-14.1421356237
 20
-59.8578643763
 30
0.0
 11
-12.0208152802
 21
-57.7365440327
 31
0.0
  0
LINE
  8
0
 62
0
 10
-12.0208152802
 20
-57.7365440327
 30
0.0
 11
-4.94974746831
 21
-64.8076118446
 31
0.0
  0
LINE
  8
0
 62
0
 10
-4.94974746831
 20
-64.8076118446
 30
0.0
 11
-7.07106781187
 21
-66.9289321881
 31
0.0
  0
LINE
  8
0
 62
0
 10
-7.07106781187
 20
-66.9289321881
 30
0.0
 11
8.881784197e-16
 21
-74.0
 31
0.0
  0
LINE
  8
0
 62
0
 10
8.881784197e-16
 20
-74.0
 30
0.0
 11
-10.4974746831
 21
-74.0
 31
0.0
  0
LINE
  8
0
 62
0
 10
-10.4974746831
 20
-77.0
 30
0.0
 11
-10.4974746831
 21
-74.0
 31
0.0
  0
LINE
  8
0
 62
0
 10
-20.4974746831
 20
-77.0
 30
0.0
 11
-10.4974746831
 21
-77.0
 31
0.0
  0
LINE
  8
0
 62
0
 10
-20.4974746831
 20
-74.0
 30
0.0
 11
-20.4974746831
 21
-77.0
 31
0.0
  0
ENDBLK
  0
ENDSEC
  0
SECTION
  2
ENTITIES
  0
INSERT
  2
PAD013
  8
0
 62
0
 10
0.0
 20
0.0
 30
0.0
  0
ENDSEC
  0
EOF
