  0
SECTION
  2
HEADER
  9
$ACADVER
  1
AC1009
  9
$INSBASE
 10
0.0
 20
0.0
 30
0.0
  9
$EXTMIN
 10
0.0
 20
0.0
 30
0.0
  9
$EXTMAX
 10
0.0
 20
0.0
 30
0.0
  0
ENDSEC
  0
SECTION
  2
TABLES
  0
TABLE
  2
VPORT
 70
0
  0
ENDTAB
  0
TABLE
  2
LTYPE
 70
1
  0
LTYPE
  2
CONTINUOUS
 70
0
  3
Solid line
 72
65
 73
0
 40
0.0
  0
ENDTAB
  0
TABLE
  2
LAYER
 70
1
  0
LAYER
  2
0
 70
64
 62
7
  6
continuous
  0
ENDTAB
  0
TABLE
  2
STYLE
 70
1
  0
STYLE
  2
STANDARD
 70
0
 40
0
 41
1.0
 50
0.0
 71
0
 42
1
 3
ARIAL.TTF
 4

  0
ENDTAB
  0
TABLE
  2
VIEW
 70
0
  0
ENDTAB
  0
ENDSEC
  0
SECTION
  2
BLOCKS
  0
BLOCK
  8
0
  2
PAD010
 70
0
 10
0.0
 20
0.0
 30
0.0
  3
PAD010
  0
LINE
  8
0
 62
0
 10
-23.3259018078
 20
-74.0
 30
0.0
 11
-33.3259018078
 21
-74.0
 31
0.0
  0
LINE
  8
0
 62
0
 10
-33.3259018078
 20
-74.0
 30
0.0
 11
-33.3259018078
 21
-77.0
 31
0.0
  0
LINE
  8
0
 62
0
 10
-33.3259018078
 20
-77.0
 30
0.0
 11
-43.3259018078
 21
-77.0
 31
0.0
  0
LINE
  8
0
 62
0
 10
-43.3259018078
 20
-77.0
 30
0.0
 11
-43.3259018078
 21
-74.0
 31
0.0
  0
LINE
  8
0
 62
0
 10
-43.3259018078
 20
-74.0
 30
0.0
 11
-52.3259018078
 21
-74.0
 31
0.0
  0
LINE
  8
0
 62
0
 10
-52.3259018078
 20
-74.0
 30
0.0
 11
-52.3259018078
 21
-65.0
 31
0.0
  0
LINE
  8
0
 62
0
 10
-52.3259018078
 20
-65.0
 30
0.0
 11
-55.3259018078
 21
-65.0
 31
0.0
  0
LINE
  8
0
 62
0
 10
-55.3259018078
 20
-65.0
 30
0.0
 11
-55.3259018078
 21
-55.0
 31
0.0
  0
LINE
  8
0
 62
0
 10
-55.3259018078
 20
-55.0
 30
0.0
 11
-52.3259018078
 21
-55.0
 31
0.0
  0
LINE
  8
0
 62
0
 10
-52.3259018078
 20
-55.0
 30
0.0
 11
-52.3259018078
 21
-45.0
 31
0.0
  0
LINE
  8
0
 62
0
 10
-52.3259018078
 20
-45.0
 30
0.0
 11
-55.3259018078
 21
-45.0
 31
0.0
  0
LINE
  8
0
 62
0
 10
-55.3259018078
 20
-45.0
 30
0.0
 11
-55.3259018078
 21
-35.0
 31
0.0
  0
LINE
  8
0
 62
0
 10
-55.3259018078
 20
-35.0
 30
0.0
 11
-52.3259018078
 21
-35.0
 31
0.0
  0
LINE
  8
0
 62
0
 10
-52.3259018078
 20
-35.0
 30
0.0
 11
-52.3259018078
 21
-21.6740981922
 31
0.0
  0
LINE
  8
0
 62
0
 10
-52.3259018078
 20
-21.6740981922
 30
0.0
 11
-45.254833996
 21
-28.7451660041
 31
0.0
  0
LINE
  8
0
 62
0
 10
-45.254833996
 20
-28.7451660041
 30
0.0
 11
-43.1335136524
 21
-26.6238456605
 31
0.0
  0
LINE
  8
0
 62
0
 10
-43.1335136524
 20
-26.6238456605
 30
0.0
 11
-36.0624458405
 21
-33.6949134724
 31
0.0
  0
LINE
  8
0
 62
0
 10
-36.0624458405
 20
-33.6949134724
 30
0.0
 11
-38.1837661841
 21
-35.8162338159
 31
0.0
  0
LINE
  8
0
 62
0
 10
-38.1837661841
 20
-35.8162338159
 30
0.0
 11
-31.4662517628
 21
-42.5337482372
 31
0.0
  0
LINE
  8
0
 62
0
 10
-31.4662517628
 20
-42.5337482372
 30
0.0
 11
-36.4159992311
 21
-47.4834957055
 31
0.0
  0
ARC
  8
0
 62
0
 10
-31.1126983722
 20
-52.7867965644
 30
0.0
 40
7.5
 50
135.0
 51
-45.0
  0
LINE
  8
0
 62
0
 10
-25.8093975133
 20
-58.0900974233
 30
0.0
 11
-20.859650045
 21
-53.140349955
 31
0.0
  0
LINE
  8
0
 62
0
 10
-20.859650045
 20
-53.140349955
 30
0.0
 11
-14.1421356237
 21
-59.8578643763
 31
0.0
  0
LINE
  8
0
 62
0
 10
-14.1421356237
 20
-59.8578643763
 30
0.0
 11
-12.0208152802
 21
-57.7365440327
 31
0.0
  0
LINE
  8
0
 62
0
 10
-12.0208152802
 20
-57.7365440327
 30
0.0
 11
-4.94974746831
 21
-64.8076118446
 31
0.0
  0
LINE
  8
0
 62
0
 10
-4.94974746831
 20
-64.8076118446
 30
0.0
 11
-7.07106781187
 21
-66.9289321881
 31
0.0
  0
LINE
  8
0
 62
0
 10
-7.07106781187
 20
-66.9289321881
 30
0.0
 11
0.0
 21
-74.0
 31
0.0
  0
LINE
  8
0
 62
0
 10
0.0
 20
-74.0
 30
0.0
 11
-13.3259018078
 21
-74.0
 31
0.0
  0
LINE
  8
0
 62
0
 10
-13.3259018078
 20
-77.0
 30
0.0
 11
-13.3259018078
 21
-74.0
 31
0.0
  0
LINE
  8
0
 62
0
 10
-23.3259018078
 20
-77.0
 30
0.0
 11
-13.3259018078
 21
-77.0
 31
0.0
  0
LINE
  8
0
 62
0
 10
-23.3259018078
 20
-74.0
 30
0.0
 11
-23.3259018078
 21
-77.0
 31
0.0
  0
ENDBLK
  0
ENDSEC
  0
SECTION
  2
ENTITIES
  0
INSERT
  2
PAD010
  8
0
 62
0
 10
0.0
 20
0.0
 30
0.0
  0
ENDSEC
  0
EOF
