  0
SECTION
  2
HEADER
  9
$ACADVER
  1
AC1009
  9
$INSBASE
 10
0.0
 20
0.0
 30
0.0
  9
$EXTMIN
 10
0.0
 20
0.0
 30
0.0
  9
$EXTMAX
 10
0.0
 20
0.0
 30
0.0
  0
ENDSEC
  0
SECTION
  2
TABLES
  0
TABLE
  2
VPORT
 70
0
  0
ENDTAB
  0
TABLE
  2
LTYPE
 70
1
  0
LTYPE
  2
CONTINUOUS
 70
0
  3
Solid line
 72
65
 73
0
 40
0.0
  0
ENDTAB
  0
TABLE
  2
LAYER
 70
1
  0
LAYER
  2
0
 70
64
 62
7
  6
continuous
  0
ENDTAB
  0
TABLE
  2
STYLE
 70
1
  0
STYLE
  2
STANDARD
 70
0
 40
0
 41
1.0
 50
0.0
 71
0
 42
1
 3
ARIAL.TTF
 4

  0
ENDTAB
  0
TABLE
  2
VIEW
 70
0
  0
ENDTAB
  0
ENDSEC
  0
SECTION
  2
BLOCKS
  0
BLOCK
  8
0
  2
FILLET009
 70
0
 10
0.0
 20
0.0
 30
0.0
  3
FILLET009
  0
LINE
  8
0
 62
0
 10
0.5025
 20
-27.0
 30
0.0
 11
0.5025
 21
21.6
 31
0.0
  0
ARC
  8
0
 62
0
 10
-2.4975
 20
21.6
 30
0.0
 40
3.0
 50
-0.0
 51
90.0
  0
LINE
  8
0
 62
0
 10
-5.4975
 20
-27.0
 30
0.0
 11
0.5025
 21
-27.0
 31
0.0
  0
LINE
  8
0
 62
0
 10
-2.4975
 20
24.6
 30
0.0
 11
-96.4975
 21
24.6
 31
0.0
  0
LINE
  8
0
 62
0
 10
-5.4975
 20
-30.0
 30
0.0
 11
-5.4975
 21
-27.0
 31
0.0
  0
ARC
  8
0
 62
0
 10
-96.4975
 20
21.6
 30
0.0
 40
3.0
 50
90.0
 51
-180.0
  0
LINE
  8
0
 62
0
 10
-15.4975
 20
-30.0
 30
0.0
 11
-5.4975
 21
-30.0
 31
0.0
  0
LINE
  8
0
 62
0
 10
-99.4975
 20
21.6
 30
0.0
 11
-99.4975
 21
-27.0
 31
0.0
  0
LINE
  8
0
 62
0
 10
-15.4975
 20
-27.0
 30
0.0
 11
-15.4975
 21
-30.0
 31
0.0
  0
LINE
  8
0
 62
0
 10
-99.4975
 20
-27.0
 30
0.0
 11
-93.4975
 21
-27.0
 31
0.0
  0
LINE
  8
0
 62
0
 10
-25.4975
 20
-27.0
 30
0.0
 11
-15.4975
 21
-27.0
 31
0.0
  0
LINE
  8
0
 62
0
 10
-93.4975
 20
-27.0
 30
0.0
 11
-93.4975
 21
-30.0
 31
0.0
  0
LINE
  8
0
 62
0
 10
-25.4975
 20
-27.0
 30
0.0
 11
-25.4975
 21
-30.0
 31
0.0
  0
LINE
  8
0
 62
0
 10
-93.4975
 20
-30.0
 30
0.0
 11
-83.4975
 21
-30.0
 31
0.0
  0
LINE
  8
0
 62
0
 10
-25.4975
 20
-30.0
 30
0.0
 11
-35.4975
 21
-30.0
 31
0.0
  0
LINE
  8
0
 62
0
 10
-83.4975
 20
-30.0
 30
0.0
 11
-83.4975
 21
-27.0
 31
0.0
  0
LINE
  8
0
 62
0
 10
-35.4975
 20
-30.0
 30
0.0
 11
-35.4975
 21
-27.0
 31
0.0
  0
LINE
  8
0
 62
0
 10
-83.4975
 20
-27.0
 30
0.0
 11
-73.4975
 21
-27.0
 31
0.0
  0
LINE
  8
0
 62
0
 10
-47.9975
 20
-27.0
 30
0.0
 11
-35.4975
 21
-27.0
 31
0.0
  0
LINE
  8
0
 62
0
 10
-73.4975
 20
-27.0
 30
0.0
 11
-73.4975
 21
-30.0
 31
0.0
  0
LINE
  8
0
 62
0
 10
-47.9975
 20
-23.0
 30
0.0
 11
-47.9975
 21
-27.0
 31
0.0
  0
LINE
  8
0
 62
0
 10
-73.4975
 20
-30.0
 30
0.0
 11
-63.4975
 21
-30.0
 31
0.0
  0
LINE
  8
0
 62
0
 10
-46.7475
 20
-23.0
 30
0.0
 11
-47.9975
 21
-23.0
 31
0.0
  0
LINE
  8
0
 62
0
 10
-63.4975
 20
-30.0
 30
0.0
 11
-63.4975
 21
-27.0
 31
0.0
  0
LINE
  8
0
 62
0
 10
-46.7475
 20
-20.7
 30
0.0
 11
-46.7475
 21
-23.0
 31
0.0
  0
LINE
  8
0
 62
0
 10
-63.4975
 20
-27.0
 30
0.0
 11
-50.9975
 21
-27.0
 31
0.0
  0
LINE
  8
0
 62
0
 10
-47.9975
 20
-20.7
 30
0.0
 11
-46.7475
 21
-20.7
 31
0.0
  0
LINE
  8
0
 62
0
 10
-50.9975
 20
-27.0
 30
0.0
 11
-50.9975
 21
-23.0
 31
0.0
  0
LINE
  8
0
 62
0
 10
-47.9975
 20
-17.7
 30
0.0
 11
-47.9975
 21
-20.7
 31
0.0
  0
LINE
  8
0
 62
0
 10
-50.9975
 20
-23.0
 30
0.0
 11
-52.2475
 21
-23.0
 31
0.0
  0
LINE
  8
0
 62
0
 10
-50.9975
 20
-17.7
 30
0.0
 11
-47.9975
 21
-17.7
 31
0.0
  0
LINE
  8
0
 62
0
 10
-52.2475
 20
-23.0
 30
0.0
 11
-52.2475
 21
-20.7
 31
0.0
  0
LINE
  8
0
 62
0
 10
-50.9975
 20
-20.7
 30
0.0
 11
-50.9975
 21
-17.7
 31
0.0
  0
LINE
  8
0
 62
0
 10
-52.2475
 20
-20.7
 30
0.0
 11
-50.9975
 21
-20.7
 31
0.0
  0
LINE
  8
0
 62
0
 10
-2.4975
 20
2.1
 30
0.0
 11
-5.4975
 21
2.1
 31
0.0
  0
LINE
  8
0
 62
0
 10
-5.4975
 20
2.1
 30
0.0
 11
-5.4975
 21
11.9
 31
0.0
  0
LINE
  8
0
 62
0
 10
-5.4975
 20
11.9
 30
0.0
 11
-2.4975
 21
11.9
 31
0.0
  0
LINE
  8
0
 62
0
 10
-2.4975
 20
11.9
 30
0.0
 11
-2.4975
 21
2.1
 31
0.0
  0
LINE
  8
0
 62
0
 10
-5.4975
 20
-8.1
 30
0.0
 11
-2.4975
 21
-8.1
 31
0.0
  0
LINE
  8
0
 62
0
 10
-2.4975
 20
-8.1
 30
0.0
 11
-2.4975
 21
-17.9
 31
0.0
  0
LINE
  8
0
 62
0
 10
-2.4975
 20
-17.9
 30
0.0
 11
-5.4975
 21
-17.9
 31
0.0
  0
LINE
  8
0
 62
0
 10
-5.4975
 20
-17.9
 30
0.0
 11
-5.4975
 21
-8.1
 31
0.0
  0
LINE
  8
0
 62
0
 10
-96.4975
 20
-8.1
 30
0.0
 11
-93.4975
 21
-8.1
 31
0.0
  0
LINE
  8
0
 62
0
 10
-93.4975
 20
-8.1
 30
0.0
 11
-93.4975
 21
-17.9
 31
0.0
  0
LINE
  8
0
 62
0
 10
-93.4975
 20
-17.9
 30
0.0
 11
-96.4975
 21
-17.9
 31
0.0
  0
LINE
  8
0
 62
0
 10
-96.4975
 20
-17.9
 30
0.0
 11
-96.4975
 21
-8.1
 31
0.0
  0
LINE
  8
0
 62
0
 10
-96.4975
 20
2.1
 30
0.0
 11
-93.4975
 21
2.1
 31
0.0
  0
LINE
  8
0
 62
0
 10
-93.4975
 20
2.1
 30
0.0
 11
-93.4975
 21
11.9
 31
0.0
  0
LINE
  8
0
 62
0
 10
-93.4975
 20
11.9
 30
0.0
 11
-96.4975
 21
11.9
 31
0.0
  0
LINE
  8
0
 62
0
 10
-96.4975
 20
11.9
 30
0.0
 11
-96.4975
 21
2.1
 31
0.0
  0
CIRCLE
  8
0
 62
0
 10
-29.2475
 20
-18.7
 30
0.0
 40
1.5
  0
CIRCLE
  8
0
 62
0
 10
-29.2475
 20
16.3
 30
0.0
 40
1.5
  0
CIRCLE
  8
0
 62
0
 10
-64.2475
 20
16.3
 30
0.0
 40
1.5
  0
CIRCLE
  8
0
 62
0
 10
-64.2475
 20
-18.7
 30
0.0
 40
1.5
  0
ENDBLK
  0
ENDSEC
  0
SECTION
  2
ENTITIES
  0
INSERT
  2
FILLET009
  8
0
 62
0
 10
0.0
 20
0.0
 30
0.0
  0
ENDSEC
  0
EOF
