  0
SECTION
  2
HEADER
  9
$ACADVER
  1
AC1009
  9
$INSBASE
 10
0.0
 20
0.0
 30
0.0
  9
$EXTMIN
 10
0.0
 20
0.0
 30
0.0
  9
$EXTMAX
 10
0.0
 20
0.0
 30
0.0
  0
ENDSEC
  0
SECTION
  2
TABLES
  0
TABLE
  2
VPORT
 70
0
  0
ENDTAB
  0
TABLE
  2
LTYPE
 70
1
  0
LTYPE
  2
CONTINUOUS
 70
0
  3
Solid line
 72
65
 73
0
 40
0.0
  0
ENDTAB
  0
TABLE
  2
LAYER
 70
1
  0
LAYER
  2
0
 70
64
 62
7
  6
continuous
  0
ENDTAB
  0
TABLE
  2
STYLE
 70
1
  0
STYLE
  2
STANDARD
 70
0
 40
0
 41
1.0
 50
0.0
 71
0
 42
1
 3
ARIAL.TTF
 4

  0
ENDTAB
  0
TABLE
  2
VIEW
 70
0
  0
ENDTAB
  0
ENDSEC
  0
SECTION
  2
BLOCKS
  0
BLOCK
  8
0
  2
FILLET009
 70
0
 10
0.0
 20
0.0
 30
0.0
  3
FILLET009
  0
LINE
  8
0
 62
0
 10
-2.3259
 20
-27.0
 30
0.0
 11
-2.3259
 21
24.45
 31
0.0
  0
ARC
  8
0
 62
0
 10
-5.3259
 20
24.45
 30
0.0
 40
3.0
 50
-0.0
 51
90.0
  0
LINE
  8
0
 62
0
 10
-8.3259
 20
-27.0
 30
0.0
 11
-2.3259
 21
-27.0
 31
0.0
  0
LINE
  8
0
 62
0
 10
-5.3259
 20
27.45
 30
0.0
 11
-99.3259
 21
27.45
 31
0.0
  0
LINE
  8
0
 62
0
 10
-8.3259
 20
-30.0
 30
0.0
 11
-8.3259
 21
-27.0
 31
0.0
  0
ARC
  8
0
 62
0
 10
-99.3259
 20
24.45
 30
0.0
 40
3.0
 50
90.0
 51
-180.0
  0
LINE
  8
0
 62
0
 10
-18.3259
 20
-30.0
 30
0.0
 11
-8.3259
 21
-30.0
 31
0.0
  0
LINE
  8
0
 62
0
 10
-102.3259
 20
24.45
 30
0.0
 11
-102.3259
 21
-27.0
 31
0.0
  0
LINE
  8
0
 62
0
 10
-18.3259
 20
-27.0
 30
0.0
 11
-18.3259
 21
-30.0
 31
0.0
  0
LINE
  8
0
 62
0
 10
-102.3259
 20
-27.0
 30
0.0
 11
-96.3259
 21
-27.0
 31
0.0
  0
LINE
  8
0
 62
0
 10
-28.3259
 20
-27.0
 30
0.0
 11
-18.3259
 21
-27.0
 31
0.0
  0
LINE
  8
0
 62
0
 10
-96.3259
 20
-27.0
 30
0.0
 11
-96.3259
 21
-30.0
 31
0.0
  0
LINE
  8
0
 62
0
 10
-28.3259
 20
-27.0
 30
0.0
 11
-28.3259
 21
-30.0
 31
0.0
  0
LINE
  8
0
 62
0
 10
-96.3259
 20
-30.0
 30
0.0
 11
-86.3259
 21
-30.0
 31
0.0
  0
LINE
  8
0
 62
0
 10
-28.3259
 20
-30.0
 30
0.0
 11
-38.3259
 21
-30.0
 31
0.0
  0
LINE
  8
0
 62
0
 10
-86.3259
 20
-30.0
 30
0.0
 11
-86.3259
 21
-27.0
 31
0.0
  0
LINE
  8
0
 62
0
 10
-38.3259
 20
-30.0
 30
0.0
 11
-38.3259
 21
-27.0
 31
0.0
  0
LINE
  8
0
 62
0
 10
-86.3259
 20
-27.0
 30
0.0
 11
-76.3259
 21
-27.0
 31
0.0
  0
LINE
  8
0
 62
0
 10
-50.8259
 20
-27.0
 30
0.0
 11
-38.3259
 21
-27.0
 31
0.0
  0
LINE
  8
0
 62
0
 10
-76.3259
 20
-27.0
 30
0.0
 11
-76.3259
 21
-30.0
 31
0.0
  0
LINE
  8
0
 62
0
 10
-50.8259
 20
-23.0
 30
0.0
 11
-50.8259
 21
-27.0
 31
0.0
  0
LINE
  8
0
 62
0
 10
-76.3259
 20
-30.0
 30
0.0
 11
-66.3259
 21
-30.0
 31
0.0
  0
LINE
  8
0
 62
0
 10
-49.5759
 20
-23.0
 30
0.0
 11
-50.8259
 21
-23.0
 31
0.0
  0
LINE
  8
0
 62
0
 10
-66.3259
 20
-30.0
 30
0.0
 11
-66.3259
 21
-27.0
 31
0.0
  0
LINE
  8
0
 62
0
 10
-49.5759
 20
-20.7
 30
0.0
 11
-49.5759
 21
-23.0
 31
0.0
  0
LINE
  8
0
 62
0
 10
-66.3259
 20
-27.0
 30
0.0
 11
-53.8259
 21
-27.0
 31
0.0
  0
LINE
  8
0
 62
0
 10
-50.8259
 20
-20.7
 30
0.0
 11
-49.5759
 21
-20.7
 31
0.0
  0
LINE
  8
0
 62
0
 10
-53.8259
 20
-27.0
 30
0.0
 11
-53.8259
 21
-23.0
 31
0.0
  0
LINE
  8
0
 62
0
 10
-50.8259
 20
-17.7
 30
0.0
 11
-50.8259
 21
-20.7
 31
0.0
  0
LINE
  8
0
 62
0
 10
-53.8259
 20
-23.0
 30
0.0
 11
-55.0759
 21
-23.0
 31
0.0
  0
LINE
  8
0
 62
0
 10
-53.8259
 20
-17.7
 30
0.0
 11
-50.8259
 21
-17.7
 31
0.0
  0
LINE
  8
0
 62
0
 10
-55.0759
 20
-23.0
 30
0.0
 11
-55.0759
 21
-20.7
 31
0.0
  0
LINE
  8
0
 62
0
 10
-53.8259
 20
-20.7
 30
0.0
 11
-53.8259
 21
-17.7
 31
0.0
  0
LINE
  8
0
 62
0
 10
-55.0759
 20
-20.7
 30
0.0
 11
-53.8259
 21
-20.7
 31
0.0
  0
LINE
  8
0
 62
0
 10
-8.3259
 20
-8.1
 30
0.0
 11
-5.3259
 21
-8.1
 31
0.0
  0
LINE
  8
0
 62
0
 10
-5.3259
 20
-8.1
 30
0.0
 11
-5.3259
 21
-17.9
 31
0.0
  0
LINE
  8
0
 62
0
 10
-5.3259
 20
-17.9
 30
0.0
 11
-8.3259
 21
-17.9
 31
0.0
  0
LINE
  8
0
 62
0
 10
-8.3259
 20
-17.9
 30
0.0
 11
-8.3259
 21
-8.1
 31
0.0
  0
LINE
  8
0
 62
0
 10
-99.3259
 20
-8.1
 30
0.0
 11
-96.3259
 21
-8.1
 31
0.0
  0
LINE
  8
0
 62
0
 10
-96.3259
 20
-8.1
 30
0.0
 11
-96.3259
 21
-17.9
 31
0.0
  0
LINE
  8
0
 62
0
 10
-96.3259
 20
-17.9
 30
0.0
 11
-99.3259
 21
-17.9
 31
0.0
  0
LINE
  8
0
 62
0
 10
-99.3259
 20
-17.9
 30
0.0
 11
-99.3259
 21
-8.1
 31
0.0
  0
LINE
  8
0
 62
0
 10
-5.3259
 20
2.1
 30
0.0
 11
-8.3259
 21
2.1
 31
0.0
  0
LINE
  8
0
 62
0
 10
-8.3259
 20
2.1
 30
0.0
 11
-8.3259
 21
11.9
 31
0.0
  0
LINE
  8
0
 62
0
 10
-8.3259
 20
11.9
 30
0.0
 11
-5.3259
 21
11.9
 31
0.0
  0
LINE
  8
0
 62
0
 10
-5.3259
 20
11.9
 30
0.0
 11
-5.3259
 21
2.1
 31
0.0
  0
LINE
  8
0
 62
0
 10
-99.3259
 20
11.9
 30
0.0
 11
-99.3259
 21
2.1
 31
0.0
  0
LINE
  8
0
 62
0
 10
-96.3259
 20
11.9
 30
0.0
 11
-99.3259
 21
11.9
 31
0.0
  0
LINE
  8
0
 62
0
 10
-96.3259
 20
2.1
 30
0.0
 11
-96.3259
 21
11.9
 31
0.0
  0
LINE
  8
0
 62
0
 10
-99.3259
 20
2.1
 30
0.0
 11
-96.3259
 21
2.1
 31
0.0
  0
CIRCLE
  8
0
 62
0
 10
-32.0759
 20
-17.275
 30
0.0
 40
1.5
  0
CIRCLE
  8
0
 62
0
 10
-32.0759
 20
17.725
 30
0.0
 40
1.5
  0
CIRCLE
  8
0
 62
0
 10
-67.0759
 20
17.725
 30
0.0
 40
1.5
  0
CIRCLE
  8
0
 62
0
 10
-67.0759
 20
-17.275
 30
0.0
 40
1.5
  0
ENDBLK
  0
ENDSEC
  0
SECTION
  2
ENTITIES
  0
INSERT
  2
FILLET009
  8
0
 62
0
 10
0.0
 20
0.0
 30
0.0
  0
ENDSEC
  0
EOF
