  0
SECTION
  2
HEADER
  9
$ACADVER
  1
AC1009
  9
$INSBASE
 10
0.0
 20
0.0
 30
0.0
  9
$EXTMIN
 10
0.0
 20
0.0
 30
0.0
  9
$EXTMAX
 10
0.0
 20
0.0
 30
0.0
  0
ENDSEC
  0
SECTION
  2
TABLES
  0
TABLE
  2
VPORT
 70
0
  0
ENDTAB
  0
TABLE
  2
LTYPE
 70
1
  0
LTYPE
  2
CONTINUOUS
 70
0
  3
Solid line
 72
65
 73
0
 40
0.0
  0
ENDTAB
  0
TABLE
  2
LAYER
 70
1
  0
LAYER
  2
0
 70
64
 62
7
  6
continuous
  0
ENDTAB
  0
TABLE
  2
STYLE
 70
1
  0
STYLE
  2
STANDARD
 70
0
 40
0
 41
1.0
 50
0.0
 71
0
 42
1
 3
ARIAL.TTF
 4

  0
ENDTAB
  0
TABLE
  2
VIEW
 70
0
  0
ENDTAB
  0
ENDSEC
  0
SECTION
  2
BLOCKS
  0
BLOCK
  8
0
  2
FILLET005
 70
0
 10
0.0
 20
0.0
 30
0.0
  3
FILLET005
  0
LINE
  8
0
 62
0
 10
-44.5
 20
-77.0
 30
0.0
 11
-44.5
 21
-74.0
 31
0.0
  0
ARC
  8
0
 62
0
 10
-43.5
 20
-74.0
 30
0.0
 40
1.0
 50
90.0
 51
-180.0
  0
ARC
  8
0
 62
0
 10
-47.5
 20
-77.0
 30
0.0
 40
3.0
 50
-90.0
 51
-0.0
  0
LINE
  8
0
 62
0
 10
-43.5
 20
-73.0
 30
0.0
 11
-30.5
 21
-73.0
 31
0.0
  0
LINE
  8
0
 62
0
 10
-71.0
 20
-80.0
 30
0.0
 11
-47.5
 21
-80.0
 31
0.0
  0
ARC
  8
0
 62
0
 10
-30.5
 20
-74.0
 30
0.0
 40
1.0
 50
-0.0
 51
90.0
  0
ARC
  8
0
 62
0
 10
-71.0
 20
-77.0
 30
0.0
 40
3.0
 50
-180.0
 51
-90.0
  0
LINE
  8
0
 62
0
 10
-29.5
 20
-74.0
 30
0.0
 11
-29.5
 21
-77.0
 31
0.0
  0
LINE
  8
0
 62
0
 10
-74.0
 20
17.0
 30
0.0
 11
-74.0
 21
-77.0
 31
0.0
  0
ARC
  8
0
 62
0
 10
-26.5
 20
-77.0
 30
0.0
 40
3.0
 50
-180.0
 51
-90.0
  0
ARC
  8
0
 62
0
 10
-71.0
 20
17.0
 30
0.0
 40
3.0
 50
90.0
 51
-180.0
  0
LINE
  8
0
 62
0
 10
-26.5
 20
-80.0
 30
0.0
 11
-3.0
 21
-80.0
 31
0.0
  0
LINE
  8
0
 62
0
 10
-71.0
 20
20.0
 30
0.0
 11
-3.0
 21
20.0
 31
0.0
  0
ARC
  8
0
 62
0
 10
-3.0
 20
-77.0
 30
0.0
 40
3.0
 50
-90.0
 51
-0.0
  0
ARC
  8
0
 62
0
 10
-3.0
 20
17.0
 30
0.0
 40
3.0
 50
-0.0
 51
90.0
  0
LINE
  8
0
 62
0
 10
0.0
 20
17.0
 30
0.0
 11
0.0
 21
-77.0
 31
0.0
  0
LINE
  8
0
 62
0
 10
-63.9
 20
-74.0
 30
0.0
 11
-54.1
 21
-74.0
 31
0.0
  0
LINE
  8
0
 62
0
 10
-54.1
 20
-74.0
 30
0.0
 11
-54.1
 21
-77.0
 31
0.0
  0
LINE
  8
0
 62
0
 10
-54.1
 20
-77.0
 30
0.0
 11
-63.9
 21
-77.0
 31
0.0
  0
LINE
  8
0
 62
0
 10
-63.9
 20
-77.0
 30
0.0
 11
-63.9
 21
-74.0
 31
0.0
  0
LINE
  8
0
 62
0
 10
-63.9
 20
17.0
 30
0.0
 11
-54.1
 21
17.0
 31
0.0
  0
LINE
  8
0
 62
0
 10
-54.1
 20
17.0
 30
0.0
 11
-54.1
 21
14.0
 31
0.0
  0
LINE
  8
0
 62
0
 10
-54.1
 20
14.0
 30
0.0
 11
-63.9
 21
14.0
 31
0.0
  0
LINE
  8
0
 62
0
 10
-63.9
 20
14.0
 30
0.0
 11
-63.9
 21
17.0
 31
0.0
  0
LINE
  8
0
 62
0
 10
-10.1
 20
14.0
 30
0.0
 11
-10.1
 21
17.0
 31
0.0
  0
LINE
  8
0
 62
0
 10
-19.9
 20
14.0
 30
0.0
 11
-10.1
 21
14.0
 31
0.0
  0
LINE
  8
0
 62
0
 10
-19.9
 20
17.0
 30
0.0
 11
-19.9
 21
14.0
 31
0.0
  0
LINE
  8
0
 62
0
 10
-10.1
 20
17.0
 30
0.0
 11
-19.9
 21
17.0
 31
0.0
  0
LINE
  8
0
 62
0
 10
-19.9
 20
-74.0
 30
0.0
 11
-10.1
 21
-74.0
 31
0.0
  0
LINE
  8
0
 62
0
 10
-10.1
 20
-74.0
 30
0.0
 11
-10.1
 21
-77.0
 31
0.0
  0
LINE
  8
0
 62
0
 10
-10.1
 20
-77.0
 30
0.0
 11
-19.9
 21
-77.0
 31
0.0
  0
LINE
  8
0
 62
0
 10
-19.9
 20
-77.0
 30
0.0
 11
-19.9
 21
-74.0
 31
0.0
  0
CIRCLE
  8
0
 62
0
 10
-37.0
 20
15.5
 30
0.0
 40
1.5
  0
CIRCLE
  8
0
 62
0
 10
-12.0
 20
10.0
 30
0.0
 40
1.5
  0
CIRCLE
  8
0
 62
0
 10
-62.0
 20
10.0
 30
0.0
 40
1.5
  0
CIRCLE
  8
0
 62
0
 10
-62.0
 20
-70.0
 30
0.0
 40
1.5
  0
CIRCLE
  8
0
 62
0
 10
-12.0
 20
-70.0
 30
0.0
 40
1.5
  0
LINE
  8
0
 62
0
 10
-61.5
 20
5.1
 30
0.0
 11
-12.5
 21
5.1
 31
0.0
  0
ARC
  8
0
 62
0
 10
-61.5
 20
4.1
 30
0.0
 40
1.0
 50
90.0
 51
-180.0
  0
ARC
  8
0
 62
0
 10
-12.5
 20
4.1
 30
0.0
 40
1.0
 50
-0.0
 51
90.0
  0
LINE
  8
0
 62
0
 10
-62.5
 20
4.1
 30
0.0
 11
-62.5
 21
-64.1
 31
0.0
  0
LINE
  8
0
 62
0
 10
-11.5
 20
4.1
 30
0.0
 11
-11.5
 21
-64.1
 31
0.0
  0
ARC
  8
0
 62
0
 10
-61.5
 20
-64.1
 30
0.0
 40
1.0
 50
-180.0
 51
-90.0
  0
ARC
  8
0
 62
0
 10
-12.5
 20
-64.1
 30
0.0
 40
1.0
 50
-90.0
 51
-0.0
  0
LINE
  8
0
 62
0
 10
-12.5
 20
-65.1
 30
0.0
 11
-61.5
 21
-65.1
 31
0.0
  0
ENDBLK
  0
ENDSEC
  0
SECTION
  2
ENTITIES
  0
INSERT
  2
FILLET005
  8
0
 62
0
 10
0.0
 20
0.0
 30
0.0
  0
ENDSEC
  0
EOF
