  0
SECTION
  2
HEADER
  9
$ACADVER
  1
AC1009
  9
$INSBASE
 10
0.0
 20
0.0
 30
0.0
  9
$EXTMIN
 10
0.0
 20
0.0
 30
0.0
  9
$EXTMAX
 10
0.0
 20
0.0
 30
0.0
  0
ENDSEC
  0
SECTION
  2
TABLES
  0
TABLE
  2
VPORT
 70
0
  0
ENDTAB
  0
TABLE
  2
LTYPE
 70
1
  0
LTYPE
  2
CONTINUOUS
 70
0
  3
Solid line
 72
65
 73
0
 40
0.0
  0
ENDTAB
  0
TABLE
  2
LAYER
 70
1
  0
LAYER
  2
0
 70
64
 62
7
  6
continuous
  0
ENDTAB
  0
TABLE
  2
STYLE
 70
1
  0
STYLE
  2
STANDARD
 70
0
 40
0
 41
1.0
 50
0.0
 71
0
 42
1
 3
ARIAL.TTF
 4

  0
ENDTAB
  0
TABLE
  2
VIEW
 70
0
  0
ENDTAB
  0
ENDSEC
  0
SECTION
  2
BLOCKS
  0
BLOCK
  8
0
  2
FILLET005
 70
0
 10
0.0
 20
0.0
 30
0.0
  3
FILLET005
  0
LINE
  8
0
 62
0
 10
-27.5
 20
17.0
 30
0.0
 11
-27.5
 21
14.0
 31
0.0
  0
ARC
  8
0
 62
0
 10
-28.5
 20
14.0
 30
0.0
 40
1.0
 50
-90.0
 51
-0.0
  0
ARC
  8
0
 62
0
 10
-24.5
 20
17.0
 30
0.0
 40
3.0
 50
90.0
 51
180.0
  0
LINE
  8
0
 62
0
 10
-28.5
 20
13.0
 30
0.0
 11
-41.5
 21
13.0
 31
0.0
  0
LINE
  8
0
 62
0
 10
-3.0
 20
20.0
 30
0.0
 11
-24.5
 21
20.0
 31
0.0
  0
ARC
  8
0
 62
0
 10
-41.5
 20
14.0
 30
0.0
 40
1.0
 50
-180.0
 51
-90.0
  0
ARC
  8
0
 62
0
 10
-3.0
 20
17.0
 30
0.0
 40
3.0
 50
-0.0
 51
90.0
  0
LINE
  8
0
 62
0
 10
-42.5
 20
14.0
 30
0.0
 11
-42.5
 21
17.0
 31
0.0
  0
LINE
  8
0
 62
0
 10
1.11442858722e-14
 20
-77.0
 30
0.0
 11
-3.67394039744e-16
 21
17.0
 31
0.0
  0
ARC
  8
0
 62
0
 10
-45.5
 20
17.0
 30
0.0
 40
3.0
 50
-0.0
 51
90.0
  0
ARC
  8
0
 62
0
 10
-3.0
 20
-77.0
 30
0.0
 40
3.0
 50
-90.0
 51
0.0
  0
LINE
  8
0
 62
0
 10
-45.5
 20
20.0
 30
0.0
 11
-67.0
 21
20.0
 31
0.0
  0
LINE
  8
0
 62
0
 10
-3.0
 20
-80.0
 30
0.0
 11
-67.0
 21
-80.0
 31
0.0
  0
ARC
  8
0
 62
0
 10
-67.0
 20
17.0
 30
0.0
 40
3.0
 50
90.0
 51
-180.0
  0
ARC
  8
0
 62
0
 10
-67.0
 20
-77.0
 30
0.0
 40
3.0
 50
-180.0
 51
-90.0
  0
LINE
  8
0
 62
0
 10
-70.0
 20
-77.0
 30
0.0
 11
-70.0
 21
17.0
 31
0.0
  0
LINE
  8
0
 62
0
 10
-10.1
 20
14.0
 30
0.0
 11
-19.9
 21
14.0
 31
0.0
  0
LINE
  8
0
 62
0
 10
-19.9
 20
14.0
 30
0.0
 11
-19.9
 21
17.0
 31
0.0
  0
LINE
  8
0
 62
0
 10
-19.9
 20
17.0
 30
0.0
 11
-10.1
 21
17.0
 31
0.0
  0
LINE
  8
0
 62
0
 10
-10.1
 20
17.0
 30
0.0
 11
-10.1
 21
14.0
 31
0.0
  0
LINE
  8
0
 62
0
 10
-10.1
 20
-77.0
 30
0.0
 11
-19.9
 21
-77.0
 31
0.0
  0
LINE
  8
0
 62
0
 10
-19.9
 20
-77.0
 30
0.0
 11
-19.9
 21
-74.0
 31
0.0
  0
LINE
  8
0
 62
0
 10
-19.9
 20
-74.0
 30
0.0
 11
-10.1
 21
-74.0
 31
0.0
  0
LINE
  8
0
 62
0
 10
-10.1
 20
-74.0
 30
0.0
 11
-10.1
 21
-77.0
 31
0.0
  0
LINE
  8
0
 62
0
 10
-59.9
 20
-77.0
 30
0.0
 11
-50.1
 21
-77.0
 31
0.0
  0
LINE
  8
0
 62
0
 10
-50.1
 20
-77.0
 30
0.0
 11
-50.1
 21
-74.0
 31
0.0
  0
LINE
  8
0
 62
0
 10
-50.1
 20
-74.0
 30
0.0
 11
-59.9
 21
-74.0
 31
0.0
  0
LINE
  8
0
 62
0
 10
-59.9
 20
-74.0
 30
0.0
 11
-59.9
 21
-77.0
 31
0.0
  0
LINE
  8
0
 62
0
 10
-50.1
 20
14.0
 30
0.0
 11
-59.9
 21
14.0
 31
0.0
  0
LINE
  8
0
 62
0
 10
-59.9
 20
14.0
 30
0.0
 11
-59.9
 21
17.0
 31
0.0
  0
LINE
  8
0
 62
0
 10
-59.9
 20
17.0
 30
0.0
 11
-50.1
 21
17.0
 31
0.0
  0
LINE
  8
0
 62
0
 10
-50.1
 20
17.0
 30
0.0
 11
-50.1
 21
14.0
 31
0.0
  0
CIRCLE
  8
0
 62
0
 10
-10.0
 20
10.0
 30
0.0
 40
1.5
  0
CIRCLE
  8
0
 62
0
 10
-60.0
 20
10.0
 30
0.0
 40
1.5
  0
CIRCLE
  8
0
 62
0
 10
-35.0
 20
-75.5
 30
0.0
 40
1.5
  0
CIRCLE
  8
0
 62
0
 10
-60.0
 20
-70.0
 30
0.0
 40
1.5
  0
CIRCLE
  8
0
 62
0
 10
-10.0
 20
-70.0
 30
0.0
 40
1.5
  0
LINE
  8
0
 62
0
 10
-9.5
 20
5.0
 30
0.0
 11
-9.5
 21
0.908326913196
 31
0.0
  0
ARC
  8
0
 62
0
 10
-10.5
 20
5.0
 30
0.0
 40
1.0
 50
-0.0
 51
90.0
  0
ARC
  8
0
 62
0
 10
-6.5
 20
0.908326913196
 30
0.0
 40
3.0
 50
-180.0
 51
-146.309932474
  0
LINE
  8
0
 62
0
 10
-59.5
 20
6.0
 30
0.0
 11
-10.5
 21
6.0
 31
0.0
  0
LINE
  8
0
 62
0
 10
-8.99615088301
 20
-0.75577367548
 30
0.0
 11
-8.00384911699
 21
-2.24422632452
 31
0.0
  0
ARC
  8
0
 62
0
 10
-59.5
 20
5.0
 30
0.0
 40
1.0
 50
90.0
 51
180.0
  0
ARC
  8
0
 62
0
 10
-10.5
 20
-3.9083269132
 30
0.0
 40
3.0
 50
-0.0
 51
33.690067526
  0
LINE
  8
0
 62
0
 10
-60.5
 20
-65.0
 30
0.0
 11
-60.5
 21
5.0
 31
0.0
  0
LINE
  8
0
 62
0
 10
-7.5
 20
-3.9083269132
 30
0.0
 11
-7.5
 21
-7.0916730868
 31
0.0
  0
ARC
  8
0
 62
0
 10
-59.5
 20
-65.0
 30
0.0
 40
1.0
 50
180.0
 51
-90.0
  0
ARC
  8
0
 62
0
 10
-10.5
 20
-7.0916730868
 30
0.0
 40
3.0
 50
-33.690067526
 51
0.0
  0
LINE
  8
0
 62
0
 10
-10.5
 20
-66.0
 30
0.0
 11
-59.5
 21
-66.0
 31
0.0
  0
LINE
  8
0
 62
0
 10
-8.00384911699
 20
-8.75577367548
 30
0.0
 11
-8.99615088301
 21
-10.2442263245
 31
0.0
  0
ARC
  8
0
 62
0
 10
-10.5
 20
-65.0
 30
0.0
 40
1.0
 50
-90.0
 51
0.0
  0
ARC
  8
0
 62
0
 10
-6.5
 20
-11.9083269132
 30
0.0
 40
3.0
 50
146.309932474
 51
180.0
  0
LINE
  8
0
 62
0
 10
-9.5
 20
-11.9083269132
 30
0.0
 11
-9.5
 21
-65.0
 31
0.0
  0
ENDBLK
  0
ENDSEC
  0
SECTION
  2
ENTITIES
  0
INSERT
  2
FILLET005
  8
0
 62
0
 10
0.0
 20
0.0
 30
0.0
  0
ENDSEC
  0
EOF
