  0
SECTION
  2
HEADER
  9
$ACADVER
  1
AC1009
  9
$INSBASE
 10
0.0
 20
0.0
 30
0.0
  9
$EXTMIN
 10
0.0
 20
0.0
 30
0.0
  9
$EXTMAX
 10
0.0
 20
0.0
 30
0.0
  0
ENDSEC
  0
SECTION
  2
TABLES
  0
TABLE
  2
VPORT
 70
0
  0
ENDTAB
  0
TABLE
  2
LTYPE
 70
1
  0
LTYPE
  2
CONTINUOUS
 70
0
  3
Solid line
 72
65
 73
0
 40
0.0
  0
ENDTAB
  0
TABLE
  2
LAYER
 70
1
  0
LAYER
  2
0
 70
64
 62
7
  6
continuous
  0
ENDTAB
  0
TABLE
  2
STYLE
 70
1
  0
STYLE
  2
STANDARD
 70
0
 40
0
 41
1.0
 50
0.0
 71
0
 42
1
 3
ARIAL.TTF
 4

  0
ENDTAB
  0
TABLE
  2
VIEW
 70
0
  0
ENDTAB
  0
ENDSEC
  0
SECTION
  2
BLOCKS
  0
BLOCK
  8
0
  2
FILLET011
 70
0
 10
0.0
 20
0.0
 30
0.0
  3
FILLET011
  0
LINE
  8
0
 62
0
 10
-10.0
 20
-17.6
 30
0.0
 11
-68.0
 21
-17.6
 31
0.0
  0
ARC
  8
0
 62
0
 10
-10.0
 20
-16.6
 30
0.0
 40
1.0
 50
-90.0
 51
-0.0
  0
ARC
  8
0
 62
0
 10
-68.0
 20
-16.6
 30
0.0
 40
1.0
 50
-180.0
 51
-90.0
  0
LINE
  8
0
 62
0
 10
-9.0
 20
-12.6
 30
0.0
 11
-9.0
 21
-16.6
 31
0.0
  0
LINE
  8
0
 62
0
 10
-69.0
 20
-16.6
 30
0.0
 11
-69.0
 21
-12.6
 31
0.0
  0
ARC
  8
0
 62
0
 10
-10.0
 20
-12.6
 30
0.0
 40
1.0
 50
-0.0
 51
90.0
  0
ARC
  8
0
 62
0
 10
-68.0
 20
-12.6
 30
0.0
 40
1.0
 50
90.0
 51
-180.0
  0
LINE
  8
0
 62
0
 10
-68.0
 20
-11.6
 30
0.0
 11
-10.0
 21
-11.6
 31
0.0
  0
LINE
  8
0
 62
0
 10
-14.0
 20
-23.6
 30
0.0
 11
-14.0
 21
-26.6
 31
0.0
  0
LINE
  8
0
 62
0
 10
-14.0
 20
-26.6
 30
0.0
 11
-4.0
 21
-26.6
 31
0.0
  0
LINE
  8
0
 62
0
 10
-4.0
 20
-26.6
 30
0.0
 11
-4.0
 21
-23.6
 31
0.0
  0
LINE
  8
0
 62
0
 10
-4.0
 20
-23.6
 30
0.0
 11
-7.1054273576e-15
 21
-23.6
 31
0.0
  0
LINE
  8
0
 62
0
 10
-6.57252030578e-15
 20
-23.6
 30
0.0
 11
-5.90638649101e-15
 21
-20.6
 31
0.0
  0
LINE
  8
0
 62
0
 10
-5.90638649101e-15
 20
-20.6
 30
0.0
 11
3.0
 21
-20.6
 31
0.0
  0
LINE
  8
0
 62
0
 10
3.0
 20
-20.6
 30
0.0
 11
3.0
 21
-13.6
 31
0.0
  0
LINE
  8
0
 62
0
 10
3.0
 20
-13.6
 30
0.0
 11
-4.4408920985e-15
 21
-13.6
 31
0.0
  0
LINE
  8
0
 62
0
 10
-4.35207425653e-15
 20
-13.6
 30
0.0
 11
-3.5527136788e-15
 21
-10.0
 31
0.0
  0
LINE
  8
0
 62
0
 10
-3.5527136788e-15
 20
-10.0
 30
0.0
 11
3.0
 21
-10.0
 31
0.0
  0
LINE
  8
0
 62
0
 10
3.0
 20
-10.0
 30
0.0
 11
3.0
 21
-3.0
 31
0.0
  0
LINE
  8
0
 62
0
 10
3.0
 20
-3.0
 30
0.0
 11
-2.22044604925e-15
 21
-3.0
 31
0.0
  0
LINE
  8
0
 62
0
 10
-1.99840144433e-15
 20
-3.0
 30
0.0
 11
-1.33226762955e-15
 21
0.0
 31
0.0
  0
LINE
  8
0
 62
0
 10
-1.33226762955e-15
 20
0.0
 30
0.0
 11
-4.0
 21
8.881784197e-16
 31
0.0
  0
LINE
  8
0
 62
0
 10
-4.0
 20
8.881784197e-16
 30
0.0
 11
-4.0
 21
3.0
 31
0.0
  0
LINE
  8
0
 62
0
 10
-4.0
 20
3.0
 30
0.0
 11
-14.0
 21
3.0
 31
0.0
  0
LINE
  8
0
 62
0
 10
-14.0
 20
3.0
 30
0.0
 11
-14.0
 21
3.10862446895e-15
 31
0.0
  0
LINE
  8
0
 62
0
 10
-14.0
 20
3.10862446895e-15
 30
0.0
 11
-24.0
 21
5.3290705182e-15
 31
0.0
  0
LINE
  8
0
 62
0
 10
-24.0
 20
5.3290705182e-15
 30
0.0
 11
-24.0
 21
3.0
 31
0.0
  0
LINE
  8
0
 62
0
 10
-24.0
 20
3.0
 30
0.0
 11
-34.0
 21
3.0
 31
0.0
  0
LINE
  8
0
 62
0
 10
-34.0
 20
3.0
 30
0.0
 11
-34.0
 21
7.54951656745e-15
 31
0.0
  0
LINE
  8
0
 62
0
 10
-34.0
 20
7.54951656745e-15
 30
0.0
 11
-44.0
 21
9.7699626167e-15
 31
0.0
  0
LINE
  8
0
 62
0
 10
-44.0
 20
9.7699626167e-15
 30
0.0
 11
-44.0
 21
3.0
 31
0.0
  0
LINE
  8
0
 62
0
 10
-44.0
 20
3.0
 30
0.0
 11
-54.0
 21
3.0
 31
0.0
  0
LINE
  8
0
 62
0
 10
-54.0
 20
3.0
 30
0.0
 11
-54.0
 21
1.1990408666e-14
 31
0.0
  0
LINE
  8
0
 62
0
 10
-54.0
 20
1.1990408666e-14
 30
0.0
 11
-64.0
 21
1.42108547152e-14
 31
0.0
  0
LINE
  8
0
 62
0
 10
-64.0
 20
1.42108547152e-14
 30
0.0
 11
-64.0
 21
3.0
 31
0.0
  0
LINE
  8
0
 62
0
 10
-64.0
 20
3.0
 30
0.0
 11
-74.0
 21
3.0
 31
0.0
  0
LINE
  8
0
 62
0
 10
-74.0
 20
3.0
 30
0.0
 11
-74.0
 21
1.64313007645e-14
 31
0.0
  0
LINE
  8
0
 62
0
 10
-74.0
 20
1.64313007645e-14
 30
0.0
 11
-78.0
 21
1.73194791842e-14
 31
0.0
  0
LINE
  8
0
 62
0
 10
-78.0
 20
-3.0
 30
0.0
 11
-78.0
 21
1.73194791842e-14
 31
0.0
  0
LINE
  8
0
 62
0
 10
-81.0
 20
-3.0
 30
0.0
 11
-78.0
 21
-3.0
 31
0.0
  0
LINE
  8
0
 62
0
 10
-81.0
 20
-10.0
 30
0.0
 11
-81.0
 21
-3.0
 31
0.0
  0
LINE
  8
0
 62
0
 10
-78.0
 20
-10.0
 30
0.0
 11
-81.0
 21
-10.0
 31
0.0
  0
LINE
  8
0
 62
0
 10
-78.0
 20
-13.6
 30
0.0
 11
-78.0
 21
-10.0
 31
0.0
  0
LINE
  8
0
 62
0
 10
-81.0
 20
-13.6
 30
0.0
 11
-78.0
 21
-13.6
 31
0.0
  0
LINE
  8
0
 62
0
 10
-81.0
 20
-20.6
 30
0.0
 11
-81.0
 21
-13.6
 31
0.0
  0
LINE
  8
0
 62
0
 10
-78.0
 20
-20.6
 30
0.0
 11
-81.0
 21
-20.6
 31
0.0
  0
LINE
  8
0
 62
0
 10
-78.0
 20
-23.6
 30
0.0
 11
-78.0
 21
-20.6
 31
0.0
  0
LINE
  8
0
 62
0
 10
-78.0
 20
-23.6
 30
0.0
 11
-74.0
 21
-23.6
 31
0.0
  0
LINE
  8
0
 62
0
 10
-74.0
 20
-23.6
 30
0.0
 11
-74.0
 21
-26.6
 31
0.0
  0
LINE
  8
0
 62
0
 10
-74.0
 20
-26.6
 30
0.0
 11
-64.0
 21
-26.6
 31
0.0
  0
LINE
  8
0
 62
0
 10
-64.0
 20
-26.6
 30
0.0
 11
-64.0
 21
-23.6
 31
0.0
  0
LINE
  8
0
 62
0
 10
-54.0
 20
-23.6
 30
0.0
 11
-64.0
 21
-23.6
 31
0.0
  0
LINE
  8
0
 62
0
 10
-54.0
 20
-26.6
 30
0.0
 11
-54.0
 21
-23.6
 31
0.0
  0
LINE
  8
0
 62
0
 10
-44.0
 20
-26.6
 30
0.0
 11
-54.0
 21
-26.6
 31
0.0
  0
LINE
  8
0
 62
0
 10
-44.0
 20
-23.6
 30
0.0
 11
-44.0
 21
-26.6
 31
0.0
  0
LINE
  8
0
 62
0
 10
-34.0
 20
-23.6
 30
0.0
 11
-44.0
 21
-23.6
 31
0.0
  0
LINE
  8
0
 62
0
 10
-34.0
 20
-26.6
 30
0.0
 11
-34.0
 21
-23.6
 31
0.0
  0
LINE
  8
0
 62
0
 10
-24.0
 20
-26.6
 30
0.0
 11
-34.0
 21
-26.6
 31
0.0
  0
LINE
  8
0
 62
0
 10
-24.0
 20
-23.6
 30
0.0
 11
-24.0
 21
-26.6
 31
0.0
  0
LINE
  8
0
 62
0
 10
-14.0
 20
-23.6
 30
0.0
 11
-24.0
 21
-23.6
 31
0.0
  0
ENDBLK
  0
ENDSEC
  0
SECTION
  2
ENTITIES
  0
INSERT
  2
FILLET011
  8
0
 62
0
 10
0.0
 20
0.0
 30
0.0
  0
ENDSEC
  0
EOF
