  0
SECTION
  2
HEADER
  9
$ACADVER
  1
AC1009
  9
$INSBASE
 10
0.0
 20
0.0
 30
0.0
  9
$EXTMIN
 10
0.0
 20
0.0
 30
0.0
  9
$EXTMAX
 10
0.0
 20
0.0
 30
0.0
  0
ENDSEC
  0
SECTION
  2
TABLES
  0
TABLE
  2
VPORT
 70
0
  0
ENDTAB
  0
TABLE
  2
LTYPE
 70
1
  0
LTYPE
  2
CONTINUOUS
 70
0
  3
Solid line
 72
65
 73
0
 40
0.0
  0
ENDTAB
  0
TABLE
  2
LAYER
 70
1
  0
LAYER
  2
0
 70
64
 62
7
  6
continuous
  0
ENDTAB
  0
TABLE
  2
STYLE
 70
1
  0
STYLE
  2
STANDARD
 70
0
 40
0
 41
1.0
 50
0.0
 71
0
 42
1
 3
ARIAL.TTF
 4

  0
ENDTAB
  0
TABLE
  2
VIEW
 70
0
  0
ENDTAB
  0
ENDSEC
  0
SECTION
  2
BLOCKS
  0
BLOCK
  8
0
  2
FILLET007
 70
0
 10
0.0
 20
0.0
 30
0.0
  3
FILLET007
  0
LINE
  8
0
 62
0
 10
17.5
 20
-3.0
 30
0.0
 11
17.5
 21
0.0
 31
0.0
  0
ARC
  8
0
 62
0
 10
14.5
 20
-3.0
 30
0.0
 40
3.0
 50
-90.0
 51
0.0
  0
ARC
  8
0
 62
0
 10
18.5
 20
2.2e-16
 30
0.0
 40
1.0
 50
90.0
 51
180.0
  0
LINE
  8
0
 62
0
 10
3.0
 20
-6.0
 30
0.0
 11
14.5
 21
-6.0
 31
0.0
  0
LINE
  8
0
 62
0
 10
18.5
 20
1.0
 30
0.0
 11
31.5
 21
1.0
 31
0.0
  0
ARC
  8
0
 62
0
 10
3.0
 20
-3.0
 30
0.0
 40
3.0
 50
180.0
 51
-90.0
  0
ARC
  8
0
 62
0
 10
31.5
 20
2.2e-16
 30
0.0
 40
1.0
 50
0.0
 51
90.0
  0
LINE
  8
0
 62
0
 10
0.0
 20
81.0
 30
0.0
 11
0.0
 21
-3.0
 31
0.0
  0
LINE
  8
0
 62
0
 10
32.5
 20
0.0
 30
0.0
 11
32.5
 21
-3.0
 31
0.0
  0
ARC
  8
0
 62
0
 10
3.0
 20
81.0
 30
0.0
 40
3.0
 50
90.0
 51
-180.0
  0
ARC
  8
0
 62
0
 10
35.5
 20
-3.0
 30
0.0
 40
3.0
 50
180.0
 51
-90.0
  0
LINE
  8
0
 62
0
 10
3.0
 20
84.0
 30
0.0
 11
47.0
 21
84.0
 31
0.0
  0
LINE
  8
0
 62
0
 10
35.5
 20
-6.0
 30
0.0
 11
47.0
 21
-6.0
 31
0.0
  0
ARC
  8
0
 62
0
 10
47.0
 20
81.0
 30
0.0
 40
3.0
 50
-0.0
 51
90.0
  0
ARC
  8
0
 62
0
 10
47.0
 20
-3.0
 30
0.0
 40
3.0
 50
-90.0
 51
0.0
  0
LINE
  8
0
 62
0
 10
50.0
 20
81.0
 30
0.0
 11
50.0
 21
-3.0
 31
0.0
  0
LINE
  8
0
 62
0
 10
44.0
 20
73.9
 30
0.0
 11
47.0
 21
73.9
 31
0.0
  0
LINE
  8
0
 62
0
 10
47.0
 20
73.9
 30
0.0
 11
47.0
 21
64.1
 31
0.0
  0
LINE
  8
0
 62
0
 10
47.0
 20
64.1
 30
0.0
 11
44.0
 21
64.1
 31
0.0
  0
LINE
  8
0
 62
0
 10
44.0
 20
64.1
 30
0.0
 11
44.0
 21
73.9
 31
0.0
  0
LINE
  8
0
 62
0
 10
3.0
 20
73.9
 30
0.0
 11
6.0
 21
73.9
 31
0.0
  0
LINE
  8
0
 62
0
 10
6.0
 20
73.9
 30
0.0
 11
6.0
 21
64.1
 31
0.0
  0
LINE
  8
0
 62
0
 10
6.0
 20
64.1
 30
0.0
 11
3.0
 21
64.1
 31
0.0
  0
LINE
  8
0
 62
0
 10
3.0
 20
64.1
 30
0.0
 11
3.0
 21
73.9
 31
0.0
  0
LINE
  8
0
 62
0
 10
44.0
 20
13.9
 30
0.0
 11
47.0
 21
13.9
 31
0.0
  0
LINE
  8
0
 62
0
 10
47.0
 20
13.9
 30
0.0
 11
47.0
 21
4.1
 31
0.0
  0
LINE
  8
0
 62
0
 10
47.0
 20
4.1
 30
0.0
 11
44.0
 21
4.1
 31
0.0
  0
LINE
  8
0
 62
0
 10
44.0
 20
4.1
 30
0.0
 11
44.0
 21
13.9
 31
0.0
  0
LINE
  8
0
 62
0
 10
3.0
 20
13.9
 30
0.0
 11
6.0
 21
13.9
 31
0.0
  0
LINE
  8
0
 62
0
 10
6.0
 20
13.9
 30
0.0
 11
6.0
 21
4.1
 31
0.0
  0
LINE
  8
0
 62
0
 10
6.0
 20
4.1
 30
0.0
 11
3.0
 21
4.1
 31
0.0
  0
LINE
  8
0
 62
0
 10
3.0
 20
4.1
 30
0.0
 11
3.0
 21
13.9
 31
0.0
  0
LINE
  8
0
 62
0
 10
4.1
 20
0.0
 30
0.0
 11
13.9
 21
0.0
 31
0.0
  0
LINE
  8
0
 62
0
 10
13.9
 20
0.0
 30
0.0
 11
13.9
 21
-3.0
 31
0.0
  0
LINE
  8
0
 62
0
 10
13.9
 20
-3.0
 30
0.0
 11
4.1
 21
-3.0
 31
0.0
  0
LINE
  8
0
 62
0
 10
4.1
 20
-3.0
 30
0.0
 11
4.1
 21
0.0
 31
0.0
  0
LINE
  8
0
 62
0
 10
10.1
 20
81.0
 30
0.0
 11
19.9
 21
81.0
 31
0.0
  0
LINE
  8
0
 62
0
 10
19.9
 20
81.0
 30
0.0
 11
19.9
 21
78.0
 31
0.0
  0
LINE
  8
0
 62
0
 10
19.9
 20
78.0
 30
0.0
 11
10.1
 21
78.0
 31
0.0
  0
LINE
  8
0
 62
0
 10
10.1
 20
78.0
 30
0.0
 11
10.1
 21
81.0
 31
0.0
  0
LINE
  8
0
 62
0
 10
3.0
 20
33.9
 30
0.0
 11
6.0
 21
33.9
 31
0.0
  0
LINE
  8
0
 62
0
 10
6.0
 20
33.9
 30
0.0
 11
6.0
 21
24.1
 31
0.0
  0
LINE
  8
0
 62
0
 10
6.0
 20
24.1
 30
0.0
 11
3.0
 21
24.1
 31
0.0
  0
LINE
  8
0
 62
0
 10
3.0
 20
24.1
 30
0.0
 11
3.0
 21
33.9
 31
0.0
  0
LINE
  8
0
 62
0
 10
3.0
 20
53.9
 30
0.0
 11
6.0
 21
53.9
 31
0.0
  0
LINE
  8
0
 62
0
 10
6.0
 20
53.9
 30
0.0
 11
6.0
 21
44.1
 31
0.0
  0
LINE
  8
0
 62
0
 10
6.0
 20
44.1
 30
0.0
 11
3.0
 21
44.1
 31
0.0
  0
LINE
  8
0
 62
0
 10
3.0
 20
44.1
 30
0.0
 11
3.0
 21
53.9
 31
0.0
  0
LINE
  8
0
 62
0
 10
36.1
 20
0.0
 30
0.0
 11
45.9
 21
0.0
 31
0.0
  0
LINE
  8
0
 62
0
 10
45.9
 20
0.0
 30
0.0
 11
45.9
 21
-3.0
 31
0.0
  0
LINE
  8
0
 62
0
 10
45.9
 20
-3.0
 30
0.0
 11
36.1
 21
-3.0
 31
0.0
  0
LINE
  8
0
 62
0
 10
36.1
 20
-3.0
 30
0.0
 11
36.1
 21
0.0
 31
0.0
  0
LINE
  8
0
 62
0
 10
30.1
 20
81.0
 30
0.0
 11
39.9
 21
81.0
 31
0.0
  0
LINE
  8
0
 62
0
 10
39.9
 20
81.0
 30
0.0
 11
39.9
 21
78.0
 31
0.0
  0
LINE
  8
0
 62
0
 10
39.9
 20
78.0
 30
0.0
 11
30.1
 21
78.0
 31
0.0
  0
LINE
  8
0
 62
0
 10
30.1
 20
78.0
 30
0.0
 11
30.1
 21
81.0
 31
0.0
  0
LINE
  8
0
 62
0
 10
44.0
 20
53.9
 30
0.0
 11
47.0
 21
53.9
 31
0.0
  0
LINE
  8
0
 62
0
 10
47.0
 20
53.9
 30
0.0
 11
47.0
 21
44.1
 31
0.0
  0
LINE
  8
0
 62
0
 10
47.0
 20
44.1
 30
0.0
 11
44.0
 21
44.1
 31
0.0
  0
LINE
  8
0
 62
0
 10
44.0
 20
44.1
 30
0.0
 11
44.0
 21
53.9
 31
0.0
  0
LINE
  8
0
 62
0
 10
44.0
 20
33.9
 30
0.0
 11
47.0
 21
33.9
 31
0.0
  0
LINE
  8
0
 62
0
 10
47.0
 20
33.9
 30
0.0
 11
47.0
 21
24.1
 31
0.0
  0
LINE
  8
0
 62
0
 10
47.0
 20
24.1
 30
0.0
 11
44.0
 21
24.1
 31
0.0
  0
LINE
  8
0
 62
0
 10
44.0
 20
24.1
 30
0.0
 11
44.0
 21
33.9
 31
0.0
  0
CIRCLE
  8
0
 62
0
 10
10.0
 20
4.0
 30
0.0
 40
1.5
  0
CIRCLE
  8
0
 62
0
 10
40.0
 20
4.0
 30
0.0
 40
1.5
  0
CIRCLE
  8
0
 62
0
 10
40.0
 20
74.0
 30
0.0
 40
1.5
  0
CIRCLE
  8
0
 62
0
 10
10.0
 20
74.0
 30
0.0
 40
1.5
  0
LINE
  8
0
 62
0
 10
34.5
 20
69.0
 30
0.0
 11
38.5
 21
69.0
 31
0.0
  0
ARC
  8
0
 62
0
 10
34.5
 20
68.0
 30
0.0
 40
1.0
 50
90.0
 51
-180.0
  0
ARC
  8
0
 62
0
 10
38.5
 20
68.0
 30
0.0
 40
1.0
 50
-0.0
 51
90.0
  0
LINE
  8
0
 62
0
 10
33.5
 20
10.0
 30
0.0
 11
33.5
 21
68.0
 31
0.0
  0
LINE
  8
0
 62
0
 10
39.5
 20
68.0
 30
0.0
 11
39.5
 21
10.0
 31
0.0
  0
ARC
  8
0
 62
0
 10
34.5
 20
10.0
 30
0.0
 40
1.0
 50
180.0
 51
-90.0
  0
ARC
  8
0
 62
0
 10
38.5
 20
10.0
 30
0.0
 40
1.0
 50
-90.0
 51
-0.0
  0
LINE
  8
0
 62
0
 10
38.5
 20
9.0
 30
0.0
 11
34.5
 21
9.0
 31
0.0
  0
LINE
  8
0
 62
0
 10
11.5
 20
69.0
 30
0.0
 11
15.5
 21
69.0
 31
0.0
  0
ARC
  8
0
 62
0
 10
11.5
 20
68.0
 30
0.0
 40
1.0
 50
90.0
 51
-180.0
  0
ARC
  8
0
 62
0
 10
15.5
 20
68.0
 30
0.0
 40
1.0
 50
-0.0
 51
90.0
  0
LINE
  8
0
 62
0
 10
10.5
 20
10.0
 30
0.0
 11
10.5
 21
68.0
 31
0.0
  0
LINE
  8
0
 62
0
 10
16.5
 20
68.0
 30
0.0
 11
16.5
 21
10.0
 31
0.0
  0
ARC
  8
0
 62
0
 10
11.5
 20
10.0
 30
0.0
 40
1.0
 50
180.0
 51
-90.0
  0
ARC
  8
0
 62
0
 10
15.5
 20
10.0
 30
0.0
 40
1.0
 50
-90.0
 51
-0.0
  0
LINE
  8
0
 62
0
 10
15.5
 20
9.0
 30
0.0
 11
11.5
 21
9.0
 31
0.0
  0
LINE
  8
0
 62
0
 10
21.0
 20
73.5
 30
0.0
 11
29.0
 21
73.5
 31
0.0
  0
ARC
  8
0
 62
0
 10
21.0
 20
72.5
 30
0.0
 40
1.0
 50
90.0
 51
-180.0
  0
ARC
  8
0
 62
0
 10
29.0
 20
72.5
 30
0.0
 40
1.0
 50
-0.0
 51
90.0
  0
LINE
  8
0
 62
0
 10
20.0
 20
68.5
 30
0.0
 11
20.0
 21
72.5
 31
0.0
  0
LINE
  8
0
 62
0
 10
30.0
 20
72.5
 30
0.0
 11
30.0
 21
68.5
 31
0.0
  0
ARC
  8
0
 62
0
 10
21.0
 20
68.5
 30
0.0
 40
1.0
 50
-180.0
 51
-90.0
  0
ARC
  8
0
 62
0
 10
29.0
 20
68.5
 30
0.0
 40
1.0
 50
-90.0
 51
-0.0
  0
LINE
  8
0
 62
0
 10
29.0
 20
67.5
 30
0.0
 11
21.0
 21
67.5
 31
0.0
  0
ENDBLK
  0
ENDSEC
  0
SECTION
  2
ENTITIES
  0
INSERT
  2
FILLET007
  8
0
 62
0
 10
0.0
 20
0.0
 30
0.0
  0
ENDSEC
  0
EOF
