  0
SECTION
  2
HEADER
  9
$ACADVER
  1
AC1009
  9
$INSBASE
 10
0.0
 20
0.0
 30
0.0
  9
$EXTMIN
 10
0.0
 20
0.0
 30
0.0
  9
$EXTMAX
 10
0.0
 20
0.0
 30
0.0
  0
ENDSEC
  0
SECTION
  2
TABLES
  0
TABLE
  2
VPORT
 70
0
  0
ENDTAB
  0
TABLE
  2
LTYPE
 70
1
  0
LTYPE
  2
CONTINUOUS
 70
0
  3
Solid line
 72
65
 73
0
 40
0.0
  0
ENDTAB
  0
TABLE
  2
LAYER
 70
1
  0
LAYER
  2
0
 70
64
 62
7
  6
continuous
  0
ENDTAB
  0
TABLE
  2
STYLE
 70
1
  0
STYLE
  2
STANDARD
 70
0
 40
0
 41
1.0
 50
0.0
 71
0
 42
1
 3
ARIAL.TTF
 4

  0
ENDTAB
  0
TABLE
  2
VIEW
 70
0
  0
ENDTAB
  0
ENDSEC
  0
SECTION
  2
BLOCKS
  0
BLOCK
  8
0
  2
FILLET
 70
0
 10
0.0
 20
0.0
 30
0.0
  3
FILLET
  0
LINE
  8
0
 62
0
 10
3.0
 20
60.0
 30
0.0
 11
47.0
 21
60.0
 31
0.0
  0
ARC
  8
0
 62
0
 10
3.0
 20
57.0
 30
0.0
 40
3.0
 50
90.0
 51
-180.0
  0
ARC
  8
0
 62
0
 10
47.0
 20
57.0
 30
0.0
 40
3.0
 50
-0.0
 51
90.0
  0
LINE
  8
0
 62
0
 10
-3.67670713016e-19
 20
57.0
 30
0.0
 11
-3.67670713016e-19
 21
3.0
 31
0.0
  0
LINE
  8
0
 62
0
 10
50.0
 20
57.0
 30
0.0
 11
50.0
 21
3.0
 31
0.0
  0
ARC
  8
0
 62
0
 10
3.0
 20
3.0
 30
0.0
 40
3.0
 50
-180.0
 51
-90.0
  0
ARC
  8
0
 62
0
 10
47.0
 20
3.0
 30
0.0
 40
3.0
 50
-90.0
 51
0.0
  0
LINE
  8
0
 62
0
 10
3.0
 20
-2.45113808677e-19
 30
0.0
 11
47.0
 21
-2.45113808677e-19
 31
0.0
  0
LINE
  8
0
 62
0
 10
10.1
 20
6.0
 30
0.0
 11
19.9
 21
6.0
 31
0.0
  0
LINE
  8
0
 62
0
 10
19.9
 20
6.0
 30
0.0
 11
19.9
 21
3.0
 31
0.0
  0
LINE
  8
0
 62
0
 10
19.9
 20
3.0
 30
0.0
 11
10.1
 21
3.0
 31
0.0
  0
LINE
  8
0
 62
0
 10
10.1
 20
3.0
 30
0.0
 11
10.1
 21
6.0
 31
0.0
  0
LINE
  8
0
 62
0
 10
10.1
 20
57.0
 30
0.0
 11
19.9
 21
57.0
 31
0.0
  0
LINE
  8
0
 62
0
 10
19.9
 20
57.0
 30
0.0
 11
19.9
 21
54.0
 31
0.0
  0
LINE
  8
0
 62
0
 10
19.9
 20
54.0
 30
0.0
 11
10.1
 21
54.0
 31
0.0
  0
LINE
  8
0
 62
0
 10
10.1
 20
54.0
 30
0.0
 11
10.1
 21
57.0
 31
0.0
  0
LINE
  8
0
 62
0
 10
44.0
 20
19.9
 30
0.0
 11
47.0
 21
19.9
 31
0.0
  0
LINE
  8
0
 62
0
 10
47.0
 20
19.9
 30
0.0
 11
47.0
 21
10.1
 31
0.0
  0
LINE
  8
0
 62
0
 10
47.0
 20
10.1
 30
0.0
 11
44.0
 21
10.1
 31
0.0
  0
LINE
  8
0
 62
0
 10
44.0
 20
10.1
 30
0.0
 11
44.0
 21
19.9
 31
0.0
  0
LINE
  8
0
 62
0
 10
3.0
 20
19.9
 30
0.0
 11
6.0
 21
19.9
 31
0.0
  0
LINE
  8
0
 62
0
 10
6.0
 20
19.9
 30
0.0
 11
6.0
 21
10.1
 31
0.0
  0
LINE
  8
0
 62
0
 10
6.0
 20
10.1
 30
0.0
 11
3.0
 21
10.1
 31
0.0
  0
LINE
  8
0
 62
0
 10
3.0
 20
10.1
 30
0.0
 11
3.0
 21
19.9
 31
0.0
  0
LINE
  8
0
 62
0
 10
30.1
 20
6.0
 30
0.0
 11
39.9
 21
6.0
 31
0.0
  0
LINE
  8
0
 62
0
 10
39.9
 20
6.0
 30
0.0
 11
39.9
 21
3.0
 31
0.0
  0
LINE
  8
0
 62
0
 10
39.9
 20
3.0
 30
0.0
 11
30.1
 21
3.0
 31
0.0
  0
LINE
  8
0
 62
0
 10
30.1
 20
3.0
 30
0.0
 11
30.1
 21
6.0
 31
0.0
  0
LINE
  8
0
 62
0
 10
30.1
 20
57.0
 30
0.0
 11
39.9
 21
57.0
 31
0.0
  0
LINE
  8
0
 62
0
 10
39.9
 20
57.0
 30
0.0
 11
39.9
 21
54.0
 31
0.0
  0
LINE
  8
0
 62
0
 10
39.9
 20
54.0
 30
0.0
 11
30.1
 21
54.0
 31
0.0
  0
LINE
  8
0
 62
0
 10
30.1
 20
54.0
 30
0.0
 11
30.1
 21
57.0
 31
0.0
  0
LINE
  8
0
 62
0
 10
44.0
 20
49.9
 30
0.0
 11
47.0
 21
49.9
 31
0.0
  0
LINE
  8
0
 62
0
 10
47.0
 20
49.9
 30
0.0
 11
47.0
 21
40.1
 31
0.0
  0
LINE
  8
0
 62
0
 10
47.0
 20
40.1
 30
0.0
 11
44.0
 21
40.1
 31
0.0
  0
LINE
  8
0
 62
0
 10
44.0
 20
40.1
 30
0.0
 11
44.0
 21
49.9
 31
0.0
  0
LINE
  8
0
 62
0
 10
3.0
 20
49.9
 30
0.0
 11
6.0
 21
49.9
 31
0.0
  0
LINE
  8
0
 62
0
 10
6.0
 20
49.9
 30
0.0
 11
6.0
 21
40.1
 31
0.0
  0
LINE
  8
0
 62
0
 10
6.0
 20
40.1
 30
0.0
 11
3.0
 21
40.1
 31
0.0
  0
LINE
  8
0
 62
0
 10
3.0
 20
40.1
 30
0.0
 11
3.0
 21
49.9
 31
0.0
  0
CIRCLE
  8
0
 62
0
 10
40.0
 20
50.0
 30
0.0
 40
1.5
  0
CIRCLE
  8
0
 62
0
 10
10.0
 20
50.0
 30
0.0
 40
1.5
  0
CIRCLE
  8
0
 62
0
 10
10.0
 20
10.0
 30
0.0
 40
1.5
  0
CIRCLE
  8
0
 62
0
 10
40.0
 20
10.0
 30
0.0
 40
1.5
  0
ENDBLK
  0
ENDSEC
  0
SECTION
  2
ENTITIES
  0
INSERT
  2
FILLET
  8
0
 62
0
 10
0.0
 20
0.0
 30
0.0
  0
ENDSEC
  0
EOF
