  0
SECTION
  2
HEADER
  9
$ACADVER
  1
AC1009
  9
$INSBASE
 10
0.0
 20
0.0
 30
0.0
  9
$EXTMIN
 10
0.0
 20
0.0
 30
0.0
  9
$EXTMAX
 10
0.0
 20
0.0
 30
0.0
  0
ENDSEC
  0
SECTION
  2
TABLES
  0
TABLE
  2
VPORT
 70
0
  0
ENDTAB
  0
TABLE
  2
LTYPE
 70
1
  0
LTYPE
  2
CONTINUOUS
 70
0
  3
Solid line
 72
65
 73
0
 40
0.0
  0
ENDTAB
  0
TABLE
  2
LAYER
 70
1
  0
LAYER
  2
0
 70
64
 62
7
  6
continuous
  0
ENDTAB
  0
TABLE
  2
STYLE
 70
1
  0
STYLE
  2
STANDARD
 70
0
 40
0
 41
1.0
 50
0.0
 71
0
 42
1
 3
ARIAL.TTF
 4

  0
ENDTAB
  0
TABLE
  2
VIEW
 70
0
  0
ENDTAB
  0
ENDSEC
  0
SECTION
  2
BLOCKS
  0
BLOCK
  8
0
  2
FILLET005
 70
0
 10
0.0
 20
0.0
 30
0.0
  3
FILLET005
  0
LINE
  8
0
 62
0
 10
84.0
 20
29.6
 30
0.0
 11
84.0
 21
17.5
 31
0.0
  0
ARC
  8
0
 62
0
 10
83.0
 20
17.5
 30
0.0
 40
1.0
 50
-90.0
 51
0.0
  0
LINE
  8
0
 62
0
 10
84.0
 20
29.6
 30
0.0
 11
87.0
 21
29.6
 31
0.0
  0
LINE
  8
0
 62
0
 10
53.0
 20
16.5
 30
0.0
 11
83.0
 21
16.5
 31
0.0
  0
LINE
  8
0
 62
0
 10
87.0
 20
29.6
 30
0.0
 11
87.0
 21
32.6
 31
0.0
  0
ARC
  8
0
 62
0
 10
53.0
 20
17.5
 30
0.0
 40
1.0
 50
-180.0
 51
-90.0
  0
LINE
  8
0
 62
0
 10
87.0
 20
32.6
 30
0.0
 11
92.0
 21
32.6
 31
0.0
  0
LINE
  8
0
 62
0
 10
52.0
 20
17.5
 30
0.0
 11
52.0
 21
29.6
 31
0.0
  0
LINE
  8
0
 62
0
 10
92.0
 20
32.6
 30
0.0
 11
92.0
 21
22.8
 31
0.0
  0
LINE
  8
0
 62
0
 10
49.0
 20
29.6
 30
0.0
 11
52.0
 21
29.6
 31
0.0
  0
LINE
  8
0
 62
0
 10
92.0
 20
22.8
 30
0.0
 11
95.0
 21
22.8
 31
0.0
  0
LINE
  8
0
 62
0
 10
49.0
 20
32.6
 30
0.0
 11
49.0
 21
29.6
 31
0.0
  0
LINE
  8
0
 62
0
 10
95.0
 20
22.8
 30
0.0
 11
95.0
 21
12.8
 31
0.0
  0
LINE
  8
0
 62
0
 10
44.0
 20
32.6
 30
0.0
 11
49.0
 21
32.6
 31
0.0
  0
LINE
  8
0
 62
0
 10
95.0
 20
12.8
 30
0.0
 11
92.0
 21
12.8
 31
0.0
  0
LINE
  8
0
 62
0
 10
44.0
 20
32.6
 30
0.0
 11
44.0
 21
22.8
 31
0.0
  0
LINE
  8
0
 62
0
 10
92.0
 20
12.8
 30
0.0
 11
92.0
 21
6.0
 31
0.0
  0
LINE
  8
0
 62
0
 10
44.0
 20
22.8
 30
0.0
 11
41.0
 21
22.8
 31
0.0
  0
LINE
  8
0
 62
0
 10
88.0
 20
6.0
 30
0.0
 11
92.0
 21
6.0
 31
0.0
  0
LINE
  8
0
 62
0
 10
41.0
 20
22.8
 30
0.0
 11
41.0
 21
12.8
 31
0.0
  0
LINE
  8
0
 62
0
 10
88.0
 20
3.0
 30
0.0
 11
88.0
 21
6.0
 31
0.0
  0
LINE
  8
0
 62
0
 10
41.0
 20
12.8
 30
0.0
 11
44.0
 21
12.8
 31
0.0
  0
LINE
  8
0
 62
0
 10
78.0
 20
3.0
 30
0.0
 11
88.0
 21
3.0
 31
0.0
  0
LINE
  8
0
 62
0
 10
44.0
 20
12.8
 30
0.0
 11
44.0
 21
6.0
 31
0.0
  0
LINE
  8
0
 62
0
 10
78.0
 20
6.0
 30
0.0
 11
78.0
 21
3.0
 31
0.0
  0
LINE
  8
0
 62
0
 10
44.0
 20
6.0
 30
0.0
 11
48.0
 21
6.0
 31
0.0
  0
LINE
  8
0
 62
0
 10
58.0
 20
6.0
 30
0.0
 11
78.0
 21
6.0
 31
0.0
  0
LINE
  8
0
 62
0
 10
48.0
 20
6.0
 30
0.0
 11
48.0
 21
3.0
 31
0.0
  0
LINE
  8
0
 62
0
 10
58.0
 20
3.0
 30
0.0
 11
58.0
 21
6.0
 31
0.0
  0
LINE
  8
0
 62
0
 10
48.0
 20
3.0
 30
0.0
 11
58.0
 21
3.0
 31
0.0
  0
ENDBLK
  0
ENDSEC
  0
SECTION
  2
ENTITIES
  0
INSERT
  2
FILLET005
  8
0
 62
0
 10
0.0
 20
0.0
 30
0.0
  0
ENDSEC
  0
EOF
