  0
SECTION
  2
HEADER
  9
$ACADVER
  1
AC1009
  9
$INSBASE
 10
0.0
 20
0.0
 30
0.0
  9
$EXTMIN
 10
0.0
 20
0.0
 30
0.0
  9
$EXTMAX
 10
0.0
 20
0.0
 30
0.0
  0
ENDSEC
  0
SECTION
  2
TABLES
  0
TABLE
  2
VPORT
 70
0
  0
ENDTAB
  0
TABLE
  2
LTYPE
 70
1
  0
LTYPE
  2
CONTINUOUS
 70
0
  3
Solid line
 72
65
 73
0
 40
0.0
  0
ENDTAB
  0
TABLE
  2
LAYER
 70
1
  0
LAYER
  2
0
 70
64
 62
7
  6
continuous
  0
ENDTAB
  0
TABLE
  2
STYLE
 70
1
  0
STYLE
  2
STANDARD
 70
0
 40
0
 41
1.0
 50
0.0
 71
0
 42
1
 3
ARIAL.TTF
 4

  0
ENDTAB
  0
TABLE
  2
VIEW
 70
0
  0
ENDTAB
  0
ENDSEC
  0
SECTION
  2
BLOCKS
  0
BLOCK
  8
0
  2
FILLET004
 70
0
 10
0.0
 20
0.0
 30
0.0
  3
FILLET004
  0
LINE
  8
0
 62
0
 10
47.0
 20
46.0
 30
0.0
 11
40.0
 21
46.0
 31
0.0
  0
ARC
  8
0
 62
0
 10
40.0
 20
45.0
 30
0.0
 40
1.0
 50
90.0
 51
-180.0
  0
ARC
  8
0
 62
0
 10
47.0
 20
49.0
 30
0.0
 40
3.0
 50
-90.0
 51
0.0
  0
LINE
  8
0
 62
0
 10
39.0
 20
45.0
 30
0.0
 11
39.0
 21
15.0
 31
0.0
  0
LINE
  8
0
 62
0
 10
50.0
 20
57.0
 30
0.0
 11
50.0
 21
49.0
 31
0.0
  0
ARC
  8
0
 62
0
 10
40.0
 20
15.0
 30
0.0
 40
1.0
 50
-180.0
 51
-90.0
  0
ARC
  8
0
 62
0
 10
47.0
 20
57.0
 30
0.0
 40
3.0
 50
-0.0
 51
90.0
  0
LINE
  8
0
 62
0
 10
40.0
 20
14.0
 30
0.0
 11
47.0
 21
14.0
 31
0.0
  0
LINE
  8
0
 62
0
 10
3.0
 20
60.0
 30
0.0
 11
47.0
 21
60.0
 31
0.0
  0
ARC
  8
0
 62
0
 10
47.0
 20
11.0
 30
0.0
 40
3.0
 50
-0.0
 51
90.0
  0
ARC
  8
0
 62
0
 10
3.0
 20
57.0
 30
0.0
 40
3.0
 50
90.0
 51
-180.0
  0
LINE
  8
0
 62
0
 10
50.0
 20
11.0
 30
0.0
 11
50.0
 21
3.0
 31
0.0
  0
LINE
  8
0
 62
0
 10
0.0
 20
57.0
 30
0.0
 11
0.0
 21
3.0
 31
0.0
  0
ARC
  8
0
 62
0
 10
47.0
 20
3.0
 30
0.0
 40
3.0
 50
-90.0
 51
0.0
  0
ARC
  8
0
 62
0
 10
3.0
 20
3.0
 30
0.0
 40
3.0
 50
180.0
 51
-90.0
  0
LINE
  8
0
 62
0
 10
35.5
 20
0.0
 30
0.0
 11
47.0
 21
0.0
 31
0.0
  0
LINE
  8
0
 62
0
 10
3.0
 20
0.0
 30
0.0
 11
14.5
 21
0.0
 31
0.0
  0
ARC
  8
0
 62
0
 10
35.5
 20
3.0
 30
0.0
 40
3.0
 50
180.0
 51
-90.0
  0
ARC
  8
0
 62
0
 10
14.5
 20
3.0
 30
0.0
 40
3.0
 50
-90.0
 51
-0.0
  0
LINE
  8
0
 62
0
 10
32.5
 20
6.0
 30
0.0
 11
32.5
 21
3.0
 31
0.0
  0
LINE
  8
0
 62
0
 10
17.5
 20
3.0
 30
0.0
 11
17.5
 21
6.0
 31
0.0
  0
ARC
  8
0
 62
0
 10
31.5
 20
6.0
 30
0.0
 40
1.0
 50
0.0
 51
90.0
  0
ARC
  8
0
 62
0
 10
18.5
 20
6.0
 30
0.0
 40
1.0
 50
90.0
 51
180.0
  0
LINE
  8
0
 62
0
 10
18.5
 20
7.0
 30
0.0
 11
31.5
 21
7.0
 31
0.0
  0
LINE
  8
0
 62
0
 10
44.0
 20
10.9
 30
0.0
 11
47.0
 21
10.9
 31
0.0
  0
LINE
  8
0
 62
0
 10
47.0
 20
10.9
 30
0.0
 11
47.0
 21
3.0
 31
0.0
  0
LINE
  8
0
 62
0
 10
47.0
 20
3.0
 30
0.0
 11
37.1
 21
3.0
 31
0.0
  0
LINE
  8
0
 62
0
 10
37.1
 20
3.0
 30
0.0
 11
37.1
 21
6.0
 31
0.0
  0
LINE
  8
0
 62
0
 10
37.1
 20
6.0
 30
0.0
 11
44.0
 21
6.0
 31
0.0
  0
LINE
  8
0
 62
0
 10
44.0
 20
6.0
 30
0.0
 11
44.0
 21
10.9
 31
0.0
  0
LINE
  8
0
 62
0
 10
10.1
 20
57.0
 30
0.0
 11
19.9
 21
57.0
 31
0.0
  0
LINE
  8
0
 62
0
 10
19.9
 20
57.0
 30
0.0
 11
19.9
 21
54.0
 31
0.0
  0
LINE
  8
0
 62
0
 10
19.9
 20
54.0
 30
0.0
 11
10.1
 21
54.0
 31
0.0
  0
LINE
  8
0
 62
0
 10
10.1
 20
54.0
 30
0.0
 11
10.1
 21
57.0
 31
0.0
  0
LINE
  8
0
 62
0
 10
3.0
 20
19.9
 30
0.0
 11
6.0
 21
19.9
 31
0.0
  0
LINE
  8
0
 62
0
 10
6.0
 20
19.9
 30
0.0
 11
6.0
 21
10.1
 31
0.0
  0
LINE
  8
0
 62
0
 10
6.0
 20
10.1
 30
0.0
 11
3.0
 21
10.1
 31
0.0
  0
LINE
  8
0
 62
0
 10
3.0
 20
10.1
 30
0.0
 11
3.0
 21
19.9
 31
0.0
  0
LINE
  8
0
 62
0
 10
30.1
 20
57.0
 30
0.0
 11
39.9
 21
57.0
 31
0.0
  0
LINE
  8
0
 62
0
 10
39.9
 20
57.0
 30
0.0
 11
39.9
 21
54.0
 31
0.0
  0
LINE
  8
0
 62
0
 10
39.9
 20
54.0
 30
0.0
 11
30.1
 21
54.0
 31
0.0
  0
LINE
  8
0
 62
0
 10
30.1
 20
54.0
 30
0.0
 11
30.1
 21
57.0
 31
0.0
  0
LINE
  8
0
 62
0
 10
3.0
 20
49.9
 30
0.0
 11
6.0
 21
49.9
 31
0.0
  0
LINE
  8
0
 62
0
 10
6.0
 20
49.9
 30
0.0
 11
6.0
 21
40.1
 31
0.0
  0
LINE
  8
0
 62
0
 10
6.0
 20
40.1
 30
0.0
 11
3.0
 21
40.1
 31
0.0
  0
LINE
  8
0
 62
0
 10
3.0
 20
40.1
 30
0.0
 11
3.0
 21
49.9
 31
0.0
  0
LINE
  8
0
 62
0
 10
6.1
 20
6.0
 30
0.0
 11
12.9
 21
6.0
 31
0.0
  0
LINE
  8
0
 62
0
 10
12.9
 20
6.0
 30
0.0
 11
12.9
 21
3.0
 31
0.0
  0
LINE
  8
0
 62
0
 10
12.9
 20
3.0
 30
0.0
 11
6.1
 21
3.0
 31
0.0
  0
LINE
  8
0
 62
0
 10
6.1
 20
3.0
 30
0.0
 11
6.1
 21
6.0
 31
0.0
  0
LINE
  8
0
 62
0
 10
44.0
 20
53.9
 30
0.0
 11
47.0
 21
53.9
 31
0.0
  0
LINE
  8
0
 62
0
 10
47.0
 20
53.9
 30
0.0
 11
47.0
 21
49.1
 31
0.0
  0
LINE
  8
0
 62
0
 10
47.0
 20
49.1
 30
0.0
 11
44.0
 21
49.1
 31
0.0
  0
LINE
  8
0
 62
0
 10
44.0
 20
49.1
 30
0.0
 11
44.0
 21
53.9
 31
0.0
  0
CIRCLE
  8
0
 62
0
 10
40.0
 20
50.0
 30
0.0
 40
1.5
  0
CIRCLE
  8
0
 62
0
 10
10.0
 20
50.0
 30
0.0
 40
1.5
  0
CIRCLE
  8
0
 62
0
 10
10.0
 20
10.0
 30
0.0
 40
1.5
  0
CIRCLE
  8
0
 62
0
 10
40.0
 20
10.0
 30
0.0
 40
1.5
  0
LINE
  8
0
 62
0
 10
11.1
 20
42.5
 30
0.0
 11
15.1
 21
42.5
 31
0.0
  0
ARC
  8
0
 62
0
 10
11.1
 20
41.5
 30
0.0
 40
1.0
 50
90.0
 51
-180.0
  0
ARC
  8
0
 62
0
 10
15.1
 20
41.5
 30
0.0
 40
1.0
 50
-0.0
 51
90.0
  0
LINE
  8
0
 62
0
 10
10.1
 20
18.5
 30
0.0
 11
10.1
 21
41.5
 31
0.0
  0
LINE
  8
0
 62
0
 10
16.1
 20
41.5
 30
0.0
 11
16.1
 21
18.5
 31
0.0
  0
ARC
  8
0
 62
0
 10
11.1
 20
18.5
 30
0.0
 40
1.0
 50
-180.0
 51
-90.0
  0
ARC
  8
0
 62
0
 10
15.1
 20
18.5
 30
0.0
 40
1.0
 50
-90.0
 51
-0.0
  0
LINE
  8
0
 62
0
 10
15.1
 20
17.5
 30
0.0
 11
11.1
 21
17.5
 31
0.0
  0
LINE
  8
0
 62
0
 10
18.7
 20
39.2
 30
0.0
 11
29.5
 21
39.2
 31
0.0
  0
ARC
  8
0
 62
0
 10
18.7
 20
38.2
 30
0.0
 40
1.0
 50
90.0
 51
-180.0
  0
ARC
  8
0
 62
0
 10
29.5
 20
38.2
 30
0.0
 40
1.0
 50
-0.0
 51
90.0
  0
LINE
  8
0
 62
0
 10
17.7
 20
37.6
 30
0.0
 11
17.7
 21
38.2
 31
0.0
  0
LINE
  8
0
 62
0
 10
30.5
 20
38.2
 30
0.0
 11
30.5
 21
37.6
 31
0.0
  0
ARC
  8
0
 62
0
 10
18.7
 20
37.6
 30
0.0
 40
1.0
 50
-180.0
 51
-90.0
  0
ARC
  8
0
 62
0
 10
29.5
 20
37.6
 30
0.0
 40
1.0
 50
-90.0
 51
-0.0
  0
LINE
  8
0
 62
0
 10
29.5
 20
36.6
 30
0.0
 11
18.7
 21
36.6
 31
0.0
  0
ENDBLK
  0
ENDSEC
  0
SECTION
  2
ENTITIES
  0
INSERT
  2
FILLET004
  8
0
 62
0
 10
0.0
 20
0.0
 30
0.0
  0
ENDSEC
  0
EOF
