  0
SECTION
  2
HEADER
  9
$ACADVER
  1
AC1009
  9
$INSBASE
 10
0.0
 20
0.0
 30
0.0
  9
$EXTMIN
 10
0.0
 20
0.0
 30
0.0
  9
$EXTMAX
 10
0.0
 20
0.0
 30
0.0
  0
ENDSEC
  0
SECTION
  2
TABLES
  0
TABLE
  2
VPORT
 70
0
  0
ENDTAB
  0
TABLE
  2
LTYPE
 70
1
  0
LTYPE
  2
CONTINUOUS
 70
0
  3
Solid line
 72
65
 73
0
 40
0.0
  0
ENDTAB
  0
TABLE
  2
LAYER
 70
1
  0
LAYER
  2
0
 70
64
 62
7
  6
continuous
  0
ENDTAB
  0
TABLE
  2
STYLE
 70
1
  0
STYLE
  2
STANDARD
 70
0
 40
0
 41
1.0
 50
0.0
 71
0
 42
1
 3
ARIAL.TTF
 4

  0
ENDTAB
  0
TABLE
  2
VIEW
 70
0
  0
ENDTAB
  0
ENDSEC
  0
SECTION
  2
BLOCKS
  0
BLOCK
  8
0
  2
FILLET005
 70
0
 10
0.0
 20
0.0
 30
0.0
  3
FILLET005
  0
LINE
  8
0
 62
0
 10
13.5
 20
59.3
 30
0.0
 11
31.5
 21
59.3
 31
0.0
  0
ARC
  8
0
 62
0
 10
13.5
 20
58.3
 30
0.0
 40
1.0
 50
90.0
 51
-180.0
  0
ARC
  8
0
 62
0
 10
31.5
 20
58.3
 30
0.0
 40
1.0
 50
-0.0
 51
90.0
  0
LINE
  8
0
 62
0
 10
12.5
 20
53.3
 30
0.0
 11
12.5
 21
58.3
 31
0.0
  0
LINE
  8
0
 62
0
 10
32.5
 20
58.3
 30
0.0
 11
32.5
 21
53.3
 31
0.0
  0
ARC
  8
0
 62
0
 10
13.5
 20
53.3
 30
0.0
 40
1.0
 50
-180.0
 51
-90.0
  0
ARC
  8
0
 62
0
 10
31.5
 20
53.3
 30
0.0
 40
1.0
 50
-90.0
 51
-0.0
  0
LINE
  8
0
 62
0
 10
31.5
 20
52.3
 30
0.0
 11
13.5
 21
52.3
 31
0.0
  0
LINE
  8
0
 62
0
 10
45.0
 20
64.6
 30
0.0
 11
35.0
 21
64.6
 31
0.0
  0
LINE
  8
0
 62
0
 10
35.0
 20
64.6
 30
0.0
 11
35.0
 21
67.6
 31
0.0
  0
LINE
  8
0
 62
0
 10
35.0
 20
67.6
 30
0.0
 11
25.0
 21
67.6
 31
0.0
  0
LINE
  8
0
 62
0
 10
25.0
 20
67.6
 30
0.0
 11
25.0
 21
64.6
 31
0.0
  0
LINE
  8
0
 62
0
 10
25.0
 20
64.6
 30
0.0
 11
20.0
 21
64.6
 31
0.0
  0
LINE
  8
0
 62
0
 10
20.0
 20
64.6
 30
0.0
 11
20.0
 21
67.6
 31
0.0
  0
LINE
  8
0
 62
0
 10
20.0
 20
67.6
 30
0.0
 11
10.0
 21
67.6
 31
0.0
  0
LINE
  8
0
 62
0
 10
10.0
 20
67.6
 30
0.0
 11
10.0
 21
64.6
 31
0.0
  0
LINE
  8
0
 62
0
 10
10.0
 20
64.6
 30
0.0
 11
0.0
 21
64.6
 31
0.0
  0
LINE
  8
0
 62
0
 10
0.0
 20
64.6
 30
0.0
 11
0.0
 21
41.0
 31
0.0
  0
LINE
  8
0
 62
0
 10
0.0
 20
41.0
 30
0.0
 11
10.0
 21
41.0
 31
0.0
  0
LINE
  8
0
 62
0
 10
10.0
 20
41.0
 30
0.0
 11
10.0
 21
38.0
 31
0.0
  0
LINE
  8
0
 62
0
 10
10.0
 20
38.0
 30
0.0
 11
20.0
 21
38.0
 31
0.0
  0
LINE
  8
0
 62
0
 10
20.0
 20
38.0
 30
0.0
 11
20.0
 21
41.0
 31
0.0
  0
LINE
  8
0
 62
0
 10
20.0
 20
41.0
 30
0.0
 11
25.0
 21
41.0
 31
0.0
  0
LINE
  8
0
 62
0
 10
25.0
 20
41.0
 30
0.0
 11
25.0
 21
38.0
 31
0.0
  0
LINE
  8
0
 62
0
 10
25.0
 20
38.0
 30
0.0
 11
35.0
 21
38.0
 31
0.0
  0
LINE
  8
0
 62
0
 10
35.0
 20
38.0
 30
0.0
 11
35.0
 21
41.0
 31
0.0
  0
LINE
  8
0
 62
0
 10
35.0
 20
41.0
 30
0.0
 11
45.0
 21
41.0
 31
0.0
  0
LINE
  8
0
 62
0
 10
45.0
 20
64.6
 30
0.0
 11
45.0
 21
41.0
 31
0.0
  0
LINE
  8
0
 62
0
 10
39.0
 20
50.9
 30
0.0
 11
42.0
 21
50.9
 31
0.0
  0
LINE
  8
0
 62
0
 10
42.0
 20
50.9
 30
0.0
 11
42.0
 21
44.1
 31
0.0
  0
LINE
  8
0
 62
0
 10
42.0
 20
44.1
 30
0.0
 11
39.0
 21
44.1
 31
0.0
  0
LINE
  8
0
 62
0
 10
39.0
 20
44.1
 30
0.0
 11
39.0
 21
50.9
 31
0.0
  0
LINE
  8
0
 62
0
 10
3.0
 20
50.9
 30
0.0
 11
6.0
 21
50.9
 31
0.0
  0
LINE
  8
0
 62
0
 10
6.0
 20
50.9
 30
0.0
 11
6.0
 21
44.1
 31
0.0
  0
LINE
  8
0
 62
0
 10
6.0
 20
44.1
 30
0.0
 11
3.0
 21
44.1
 31
0.0
  0
LINE
  8
0
 62
0
 10
3.0
 20
44.1
 30
0.0
 11
3.0
 21
50.9
 31
0.0
  0
LINE
  8
0
 62
0
 10
39.0
 20
61.5
 30
0.0
 11
42.0
 21
61.5
 31
0.0
  0
LINE
  8
0
 62
0
 10
42.0
 20
61.5
 30
0.0
 11
42.0
 21
54.7
 31
0.0
  0
LINE
  8
0
 62
0
 10
42.0
 20
54.7
 30
0.0
 11
39.0
 21
54.7
 31
0.0
  0
LINE
  8
0
 62
0
 10
39.0
 20
54.7
 30
0.0
 11
39.0
 21
61.5
 31
0.0
  0
LINE
  8
0
 62
0
 10
3.0
 20
61.5
 30
0.0
 11
6.0
 21
61.5
 31
0.0
  0
LINE
  8
0
 62
0
 10
6.0
 20
61.5
 30
0.0
 11
6.0
 21
54.7
 31
0.0
  0
LINE
  8
0
 62
0
 10
6.0
 20
54.7
 30
0.0
 11
3.0
 21
54.7
 31
0.0
  0
LINE
  8
0
 62
0
 10
3.0
 20
54.7
 30
0.0
 11
3.0
 21
61.5
 31
0.0
  0
ENDBLK
  0
ENDSEC
  0
SECTION
  2
ENTITIES
  0
INSERT
  2
FILLET005
  8
0
 62
0
 10
0.0
 20
0.0
 30
0.0
  0
ENDSEC
  0
EOF
