  0
SECTION
  2
HEADER
  9
$ACADVER
  1
AC1009
  9
$INSBASE
 10
0.0
 20
0.0
 30
0.0
  9
$EXTMIN
 10
0.0
 20
0.0
 30
0.0
  9
$EXTMAX
 10
0.0
 20
0.0
 30
0.0
  0
ENDSEC
  0
SECTION
  2
TABLES
  0
TABLE
  2
VPORT
 70
0
  0
ENDTAB
  0
TABLE
  2
LTYPE
 70
1
  0
LTYPE
  2
CONTINUOUS
 70
0
  3
Solid line
 72
65
 73
0
 40
0.0
  0
ENDTAB
  0
TABLE
  2
LAYER
 70
1
  0
LAYER
  2
0
 70
64
 62
7
  6
continuous
  0
ENDTAB
  0
TABLE
  2
STYLE
 70
1
  0
STYLE
  2
STANDARD
 70
0
 40
0
 41
1.0
 50
0.0
 71
0
 42
1
 3
ARIAL.TTF
 4

  0
ENDTAB
  0
TABLE
  2
VIEW
 70
0
  0
ENDTAB
  0
ENDSEC
  0
SECTION
  2
BLOCKS
  0
BLOCK
  8
0
  2
FILLET003
 70
0
 10
0.0
 20
0.0
 30
0.0
  3
FILLET003
  0
LINE
  8
0
 62
0
 10
22.5
 20
16.9
 30
0.0
 11
22.5
 21
9.7
 31
0.0
  0
ARC
  8
0
 62
0
 10
23.5
 20
9.7
 30
0.0
 40
1.0
 50
-180.0
 51
-90.0
  0
LINE
  8
0
 62
0
 10
16.0
 20
16.9
 30
0.0
 11
22.5
 21
16.9
 31
0.0
  0
LINE
  8
0
 62
0
 10
23.5
 20
8.7
 30
0.0
 11
36.5
 21
8.7
 31
0.0
  0
LINE
  8
0
 62
0
 10
16.0
 20
19.9
 30
0.0
 11
16.0
 21
16.9
 31
0.0
  0
ARC
  8
0
 62
0
 10
36.5
 20
9.7
 30
0.0
 40
1.0
 50
-90.0
 51
-0.0
  0
LINE
  8
0
 62
0
 10
6.0
 20
19.9
 30
0.0
 11
16.0
 21
19.9
 31
0.0
  0
LINE
  8
0
 62
0
 10
37.5
 20
9.7
 30
0.0
 11
37.5
 21
16.9
 31
0.0
  0
LINE
  8
0
 62
0
 10
6.0
 20
16.9
 30
0.0
 11
6.0
 21
19.9
 31
0.0
  0
LINE
  8
0
 62
0
 10
37.5
 20
16.9
 30
0.0
 11
44.0
 21
16.9
 31
0.0
  0
LINE
  8
0
 62
0
 10
0.0
 20
16.9
 30
0.0
 11
6.0
 21
16.9
 31
0.0
  0
LINE
  8
0
 62
0
 10
44.0
 20
16.9
 30
0.0
 11
44.0
 21
19.9
 31
0.0
  0
LINE
  8
0
 62
0
 10
0.0
 20
3.0
 30
0.0
 11
0.0
 21
16.9
 31
0.0
  0
LINE
  8
0
 62
0
 10
44.0
 20
19.9
 30
0.0
 11
54.0
 21
19.9
 31
0.0
  0
LINE
  8
0
 62
0
 10
10.0
 20
3.0
 30
0.0
 11
0.0
 21
3.0
 31
0.0
  0
LINE
  8
0
 62
0
 10
54.0
 20
19.9
 30
0.0
 11
54.0
 21
16.9
 31
0.0
  0
LINE
  8
0
 62
0
 10
10.0
 20
0.0
 30
0.0
 11
10.0
 21
3.0
 31
0.0
  0
LINE
  8
0
 62
0
 10
54.0
 20
16.9
 30
0.0
 11
60.0
 21
16.9
 31
0.0
  0
LINE
  8
0
 62
0
 10
20.0
 20
0.0
 30
0.0
 11
10.0
 21
0.0
 31
0.0
  0
LINE
  8
0
 62
0
 10
60.0
 20
16.9
 30
0.0
 11
60.0
 21
3.0
 31
0.0
  0
LINE
  8
0
 62
0
 10
20.0
 20
3.0
 30
0.0
 11
20.0
 21
0.0
 31
0.0
  0
LINE
  8
0
 62
0
 10
60.0
 20
3.0
 30
0.0
 11
50.0
 21
3.0
 31
0.0
  0
LINE
  8
0
 62
0
 10
40.0
 20
3.0
 30
0.0
 11
20.0
 21
3.0
 31
0.0
  0
LINE
  8
0
 62
0
 10
50.0
 20
3.0
 30
0.0
 11
50.0
 21
0.0
 31
0.0
  0
LINE
  8
0
 62
0
 10
40.0
 20
0.0
 30
0.0
 11
40.0
 21
3.0
 31
0.0
  0
LINE
  8
0
 62
0
 10
50.0
 20
0.0
 30
0.0
 11
40.0
 21
0.0
 31
0.0
  0
LINE
  8
0
 62
0
 10
54.0
 20
13.35
 30
0.0
 11
57.0
 21
13.35
 31
0.0
  0
LINE
  8
0
 62
0
 10
57.0
 20
13.35
 30
0.0
 11
57.0
 21
6.55
 31
0.0
  0
LINE
  8
0
 62
0
 10
57.0
 20
6.55
 30
0.0
 11
54.0
 21
6.55
 31
0.0
  0
LINE
  8
0
 62
0
 10
54.0
 20
6.55
 30
0.0
 11
54.0
 21
13.35
 31
0.0
  0
LINE
  8
0
 62
0
 10
3.0
 20
13.35
 30
0.0
 11
6.0
 21
13.35
 31
0.0
  0
LINE
  8
0
 62
0
 10
6.0
 20
13.35
 30
0.0
 11
6.0
 21
6.55
 31
0.0
  0
LINE
  8
0
 62
0
 10
6.0
 20
6.55
 30
0.0
 11
3.0
 21
6.55
 31
0.0
  0
LINE
  8
0
 62
0
 10
3.0
 20
6.55
 30
0.0
 11
3.0
 21
13.35
 31
0.0
  0
ENDBLK
  0
ENDSEC
  0
SECTION
  2
ENTITIES
  0
INSERT
  2
FILLET003
  8
0
 62
0
 10
0.0
 20
0.0
 30
0.0
  0
ENDSEC
  0
EOF
