  0
SECTION
  2
HEADER
  9
$ACADVER
  1
AC1009
  9
$INSBASE
 10
0.0
 20
0.0
 30
0.0
  9
$EXTMIN
 10
0.0
 20
0.0
 30
0.0
  9
$EXTMAX
 10
0.0
 20
0.0
 30
0.0
  0
ENDSEC
  0
SECTION
  2
TABLES
  0
TABLE
  2
VPORT
 70
0
  0
ENDTAB
  0
TABLE
  2
LTYPE
 70
1
  0
LTYPE
  2
CONTINUOUS
 70
0
  3
Solid line
 72
65
 73
0
 40
0.0
  0
ENDTAB
  0
TABLE
  2
LAYER
 70
1
  0
LAYER
  2
0
 70
64
 62
7
  6
continuous
  0
ENDTAB
  0
TABLE
  2
STYLE
 70
1
  0
STYLE
  2
STANDARD
 70
0
 40
0
 41
1.0
 50
0.0
 71
0
 42
1
 3
ARIAL.TTF
 4

  0
ENDTAB
  0
TABLE
  2
VIEW
 70
0
  0
ENDTAB
  0
ENDSEC
  0
SECTION
  2
BLOCKS
  0
BLOCK
  8
0
  2
FILLET001
 70
0
 10
0.0
 20
0.0
 30
0.0
  3
FILLET001
  0
LINE
  8
0
 62
0
 10
22.5
 20
3.0
 30
0.0
 11
22.5
 21
10.8
 31
0.0
  0
ARC
  8
0
 62
0
 10
23.5
 20
10.8
 30
0.0
 40
1.0
 50
90.0
 51
180.0
  0
ARC
  8
0
 62
0
 10
19.5
 20
3.0
 30
0.0
 40
3.0
 50
-90.0
 51
-0.0
  0
LINE
  8
0
 62
0
 10
23.5
 20
11.8
 30
0.0
 11
36.5
 21
11.8
 31
0.0
  0
LINE
  8
0
 62
0
 10
3.0
 20
0.0
 30
0.0
 11
19.5
 21
0.0
 31
0.0
  0
ARC
  8
0
 62
0
 10
36.5
 20
10.8
 30
0.0
 40
1.0
 50
0.0
 51
90.0
  0
ARC
  8
0
 62
0
 10
3.0
 20
3.0
 30
0.0
 40
3.0
 50
180.0
 51
-90.0
  0
LINE
  8
0
 62
0
 10
37.5
 20
10.8
 30
0.0
 11
37.5
 21
3.0
 31
0.0
  0
LINE
  8
0
 62
0
 10
0.0
 20
32.0
 30
0.0
 11
0.0
 21
3.0
 31
0.0
  0
ARC
  8
0
 62
0
 10
40.5
 20
3.0
 30
0.0
 40
3.0
 50
180.0
 51
-90.0
  0
ARC
  8
0
 62
0
 10
3.0
 20
32.0
 30
0.0
 40
3.0
 50
90.0
 51
-180.0
  0
LINE
  8
0
 62
0
 10
40.5
 20
-3.63721634463e-16
 30
0.0
 11
57.0
 21
-3.63721634463e-16
 31
0.0
  0
LINE
  8
0
 62
0
 10
57.0
 20
35.0
 30
0.0
 11
3.0
 21
35.0
 31
0.0
  0
ARC
  8
0
 62
0
 10
57.0
 20
3.0
 30
0.0
 40
3.0
 50
-90.0
 51
0.0
  0
ARC
  8
0
 62
0
 10
57.0
 20
32.0
 30
0.0
 40
3.0
 50
-0.0
 51
90.0
  0
LINE
  8
0
 62
0
 10
60.0
 20
3.0
 30
0.0
 11
60.0
 21
32.0
 31
0.0
  0
LINE
  8
0
 62
0
 10
10.1
 20
29.0
 30
0.0
 11
10.1
 21
32.0
 31
0.0
  0
LINE
  8
0
 62
0
 10
19.9
 20
29.0
 30
0.0
 11
10.1
 21
29.0
 31
0.0
  0
LINE
  8
0
 62
0
 10
19.9
 20
32.0
 30
0.0
 11
19.9
 21
29.0
 31
0.0
  0
LINE
  8
0
 62
0
 10
10.1
 20
32.0
 30
0.0
 11
19.9
 21
32.0
 31
0.0
  0
LINE
  8
0
 62
0
 10
3.0
 20
12.6
 30
0.0
 11
3.0
 21
22.4
 31
0.0
  0
LINE
  8
0
 62
0
 10
6.0
 20
12.6
 30
0.0
 11
3.0
 21
12.6
 31
0.0
  0
LINE
  8
0
 62
0
 10
6.0
 20
22.4
 30
0.0
 11
6.0
 21
12.6
 31
0.0
  0
LINE
  8
0
 62
0
 10
3.0
 20
22.4
 30
0.0
 11
6.0
 21
22.4
 31
0.0
  0
LINE
  8
0
 62
0
 10
15.9
 20
6.0
 30
0.0
 11
15.9
 21
3.0
 31
0.0
  0
LINE
  8
0
 62
0
 10
6.1
 20
6.0
 30
0.0
 11
15.9
 21
6.0
 31
0.0
  0
LINE
  8
0
 62
0
 10
6.1
 20
3.0
 30
0.0
 11
6.1
 21
6.0
 31
0.0
  0
LINE
  8
0
 62
0
 10
15.9
 20
3.0
 30
0.0
 11
6.1
 21
3.0
 31
0.0
  0
LINE
  8
0
 62
0
 10
54.0
 20
12.6
 30
0.0
 11
54.0
 21
22.4
 31
0.0
  0
LINE
  8
0
 62
0
 10
57.0
 20
12.6
 30
0.0
 11
54.0
 21
12.6
 31
0.0
  0
LINE
  8
0
 62
0
 10
57.0
 20
22.4
 30
0.0
 11
57.0
 21
12.6
 31
0.0
  0
LINE
  8
0
 62
0
 10
54.0
 20
22.4
 30
0.0
 11
57.0
 21
22.4
 31
0.0
  0
LINE
  8
0
 62
0
 10
40.1
 20
29.0
 30
0.0
 11
40.1
 21
32.0
 31
0.0
  0
LINE
  8
0
 62
0
 10
49.9
 20
29.0
 30
0.0
 11
40.1
 21
29.0
 31
0.0
  0
LINE
  8
0
 62
0
 10
49.9
 20
32.0
 30
0.0
 11
49.9
 21
29.0
 31
0.0
  0
LINE
  8
0
 62
0
 10
40.1
 20
32.0
 30
0.0
 11
49.9
 21
32.0
 31
0.0
  0
LINE
  8
0
 62
0
 10
44.1
 20
3.0
 30
0.0
 11
53.9
 21
3.0
 31
0.0
  0
LINE
  8
0
 62
0
 10
53.9
 20
3.0
 30
0.0
 11
53.9
 21
6.0
 31
0.0
  0
LINE
  8
0
 62
0
 10
53.9
 20
6.0
 30
0.0
 11
44.1
 21
6.0
 31
0.0
  0
LINE
  8
0
 62
0
 10
44.1
 20
6.0
 30
0.0
 11
44.1
 21
3.0
 31
0.0
  0
CIRCLE
  8
0
 62
0
 10
10.0
 20
10.0
 30
0.0
 40
1.5
  0
CIRCLE
  8
0
 62
0
 10
50.0
 20
10.0
 30
0.0
 40
1.5
  0
CIRCLE
  8
0
 62
0
 10
50.0
 20
25.0
 30
0.0
 40
1.5
  0
CIRCLE
  8
0
 62
0
 10
10.0
 20
25.0
 30
0.0
 40
1.5
  0
LINE
  8
0
 62
0
 10
9.72182540695
 20
18.2071067812
 30
0.0
 11
10.923906935
 21
19.4091883092
 31
0.0
  0
ARC
  8
0
 62
0
 10
10.4289321881
 20
17.5
 30
0.0
 40
1.0
 50
135.0
 51
-135.0
  0
LINE
  8
0
 62
0
 10
10.923906935
 20
19.4091883092
 30
0.0
 11
10.4996428663
 21
19.8334523779
 31
0.0
  0
LINE
  8
0
 62
0
 10
12.5148971926
 20
13.9998214331
 30
0.0
 11
9.72182540695
 21
16.7928932188
 31
0.0
  0
LINE
  8
0
 62
0
 10
10.4996428663
 20
19.8334523779
 30
0.0
 11
11.560303038
 21
20.8941125497
 31
0.0
  0
LINE
  8
0
 62
0
 10
11.3128156646
 20
12.7977399051
 30
0.0
 11
12.5148971926
 21
13.9998214331
 31
0.0
  0
LINE
  8
0
 62
0
 10
11.560303038
 20
20.8941125497
 30
0.0
 11
11.9845671067
 21
20.469848481
 31
0.0
  0
LINE
  8
0
 62
0
 10
12.7977399051
 20
11.3128156646
 30
0.0
 11
11.3128156646
 21
12.7977399051
 31
0.0
  0
LINE
  8
0
 62
0
 10
11.9845671067
 20
20.469848481
 30
0.0
 11
14.530151519
 21
23.0154328933
 31
0.0
  0
LINE
  8
0
 62
0
 10
13.9998214331
 20
12.5148971926
 30
0.0
 11
12.7977399051
 21
11.3128156646
 31
0.0
  0
LINE
  8
0
 62
0
 10
14.530151519
 20
23.0154328933
 30
0.0
 11
14.1058874503
 21
23.439696962
 31
0.0
  0
LINE
  8
0
 62
0
 10
16.7928932188
 20
9.72182540695
 30
0.0
 11
13.9998214331
 21
12.5148971926
 31
0.0
  0
LINE
  8
0
 62
0
 10
14.1058874503
 20
23.439696962
 30
0.0
 11
15.1665476221
 21
24.5003571337
 31
0.0
  0
ARC
  8
0
 62
0
 10
17.5
 20
10.4289321881
 30
0.0
 40
1.0
 50
-135.0
 51
-45.0
  0
LINE
  8
0
 62
0
 10
15.1665476221
 20
24.5003571337
 30
0.0
 11
15.5908116908
 21
24.076093065
 31
0.0
  0
LINE
  8
0
 62
0
 10
19.4091883092
 20
10.923906935
 30
0.0
 11
18.2071067812
 21
9.72182540695
 31
0.0
  0
LINE
  8
0
 62
0
 10
15.5908116908
 20
24.076093065
 30
0.0
 11
16.7928932188
 21
25.2781745931
 31
0.0
  0
LINE
  8
0
 62
0
 10
19.8334523779
 20
10.4996428663
 30
0.0
 11
19.4091883092
 21
10.923906935
 31
0.0
  0
ARC
  8
0
 62
0
 10
17.5
 20
24.5710678119
 30
0.0
 40
1.0
 50
45.0
 51
135.0
  0
LINE
  8
0
 62
0
 10
20.8941125497
 20
11.560303038
 30
0.0
 11
19.8334523779
 21
10.4996428663
 31
0.0
  0
LINE
  8
0
 62
0
 10
18.2071067812
 20
25.2781745931
 30
0.0
 11
21.0001785669
 21
22.4851028074
 31
0.0
  0
LINE
  8
0
 62
0
 10
20.469848481
 20
11.9845671067
 30
0.0
 11
20.8941125497
 21
11.560303038
 31
0.0
  0
LINE
  8
0
 62
0
 10
21.0001785669
 20
22.4851028074
 30
0.0
 11
22.2022600949
 21
23.6871843354
 31
0.0
  0
LINE
  8
0
 62
0
 10
23.0154328933
 20
14.530151519
 30
0.0
 11
20.469848481
 21
11.9845671067
 31
0.0
  0
LINE
  8
0
 62
0
 10
22.2022600949
 20
23.6871843354
 30
0.0
 11
23.6871843354
 21
22.2022600949
 31
0.0
  0
LINE
  8
0
 62
0
 10
23.439696962
 20
14.1058874503
 30
0.0
 11
23.0154328933
 21
14.530151519
 31
0.0
  0
LINE
  8
0
 62
0
 10
23.6871843354
 20
22.2022600949
 30
0.0
 11
22.4851028074
 21
21.0001785669
 31
0.0
  0
LINE
  8
0
 62
0
 10
24.5003571337
 20
15.1665476221
 30
0.0
 11
23.439696962
 21
14.1058874503
 31
0.0
  0
LINE
  8
0
 62
0
 10
22.4851028074
 20
21.0001785669
 30
0.0
 11
25.2781745931
 21
18.2071067812
 31
0.0
  0
LINE
  8
0
 62
0
 10
24.076093065
 20
15.5908116908
 30
0.0
 11
24.5003571337
 21
15.1665476221
 31
0.0
  0
ARC
  8
0
 62
0
 10
24.5710678119
 20
17.5
 30
0.0
 40
1.0
 50
-45.0
 51
45.0
  0
LINE
  8
0
 62
0
 10
25.2781745931
 20
16.7928932188
 30
0.0
 11
24.076093065
 21
15.5908116908
 31
0.0
  0
LINE
  8
0
 62
0
 10
38.9998214331
 20
22.4851028074
 30
0.0
 11
41.7928932188
 21
25.2781745931
 31
0.0
  0
ARC
  8
0
 62
0
 10
42.5
 20
24.5710678119
 30
0.0
 40
1.0
 50
45.0
 51
135.0
  0
LINE
  8
0
 62
0
 10
37.7977399051
 20
23.6871843354
 30
0.0
 11
38.9998214331
 21
22.4851028074
 31
0.0
  0
LINE
  8
0
 62
0
 10
43.2071067812
 20
25.2781745931
 30
0.0
 11
44.4091883092
 21
24.076093065
 31
0.0
  0
LINE
  8
0
 62
0
 10
36.3128156646
 20
22.2022600949
 30
0.0
 11
37.7977399051
 21
23.6871843354
 31
0.0
  0
LINE
  8
0
 62
0
 10
44.4091883092
 20
24.076093065
 30
0.0
 11
44.8334523779
 21
24.5003571337
 31
0.0
  0
LINE
  8
0
 62
0
 10
37.5148971926
 20
21.0001785669
 30
0.0
 11
36.3128156646
 21
22.2022600949
 31
0.0
  0
LINE
  8
0
 62
0
 10
44.8334523779
 20
24.5003571337
 30
0.0
 11
45.8941125497
 21
23.439696962
 31
0.0
  0
LINE
  8
0
 62
0
 10
34.7218254069
 20
18.2071067812
 30
0.0
 11
37.5148971926
 21
21.0001785669
 31
0.0
  0
LINE
  8
0
 62
0
 10
45.8941125497
 20
23.439696962
 30
0.0
 11
45.469848481
 21
23.0154328933
 31
0.0
  0
ARC
  8
0
 62
0
 10
35.4289321881
 20
17.5
 30
0.0
 40
1.0
 50
135.0
 51
-135.0
  0
LINE
  8
0
 62
0
 10
45.469848481
 20
23.0154328933
 30
0.0
 11
48.0154328933
 21
20.469848481
 31
0.0
  0
LINE
  8
0
 62
0
 10
35.923906935
 20
15.5908116908
 30
0.0
 11
34.7218254069
 21
16.7928932188
 31
0.0
  0
LINE
  8
0
 62
0
 10
48.0154328933
 20
20.469848481
 30
0.0
 11
48.439696962
 21
20.8941125497
 31
0.0
  0
LINE
  8
0
 62
0
 10
35.4996428663
 20
15.1665476221
 30
0.0
 11
35.923906935
 21
15.5908116908
 31
0.0
  0
LINE
  8
0
 62
0
 10
48.439696962
 20
20.8941125497
 30
0.0
 11
49.5003571337
 21
19.8334523779
 31
0.0
  0
LINE
  8
0
 62
0
 10
36.560303038
 20
14.1058874503
 30
0.0
 11
35.4996428663
 21
15.1665476221
 31
0.0
  0
LINE
  8
0
 62
0
 10
49.5003571337
 20
19.8334523779
 30
0.0
 11
49.076093065
 21
19.4091883092
 31
0.0
  0
LINE
  8
0
 62
0
 10
36.9845671067
 20
14.530151519
 30
0.0
 11
36.560303038
 21
14.1058874503
 31
0.0
  0
LINE
  8
0
 62
0
 10
49.076093065
 20
19.4091883092
 30
0.0
 11
50.2781745931
 21
18.2071067812
 31
0.0
  0
LINE
  8
0
 62
0
 10
39.530151519
 20
11.9845671067
 30
0.0
 11
36.9845671067
 21
14.530151519
 31
0.0
  0
ARC
  8
0
 62
0
 10
49.5710678119
 20
17.5
 30
0.0
 40
1.0
 50
-45.0
 51
45.0
  0
LINE
  8
0
 62
0
 10
39.1058874503
 20
11.560303038
 30
0.0
 11
39.530151519
 21
11.9845671067
 31
0.0
  0
LINE
  8
0
 62
0
 10
50.2781745931
 20
16.7928932188
 30
0.0
 11
47.4851028074
 21
13.9998214331
 31
0.0
  0
LINE
  8
0
 62
0
 10
40.1665476221
 20
10.4996428663
 30
0.0
 11
39.1058874503
 21
11.560303038
 31
0.0
  0
LINE
  8
0
 62
0
 10
47.4851028074
 20
13.9998214331
 30
0.0
 11
48.6871843354
 21
12.7977399051
 31
0.0
  0
LINE
  8
0
 62
0
 10
40.5908116908
 20
10.923906935
 30
0.0
 11
40.1665476221
 21
10.4996428663
 31
0.0
  0
LINE
  8
0
 62
0
 10
48.6871843354
 20
12.7977399051
 30
0.0
 11
47.2022600949
 21
11.3128156646
 31
0.0
  0
LINE
  8
0
 62
0
 10
41.7928932188
 20
9.72182540695
 30
0.0
 11
40.5908116908
 21
10.923906935
 31
0.0
  0
LINE
  8
0
 62
0
 10
47.2022600949
 20
11.3128156646
 30
0.0
 11
46.0001785669
 21
12.5148971926
 31
0.0
  0
ARC
  8
0
 62
0
 10
42.5
 20
10.4289321881
 30
0.0
 40
1.0
 50
-135.0
 51
-45.0
  0
LINE
  8
0
 62
0
 10
46.0001785669
 20
12.5148971926
 30
0.0
 11
43.2071067812
 21
9.72182540695
 31
0.0
  0
ENDBLK
  0
ENDSEC
  0
SECTION
  2
ENTITIES
  0
INSERT
  2
FILLET001
  8
0
 62
0
 10
0.0
 20
0.0
 30
0.0
  0
ENDSEC
  0
EOF
